<?xml version="1.0" encoding="us-ascii" standalone="no"?><svg xmlns="http://www.w3.org/2000/svg" xmlns:xlink="http://www.w3.org/1999/xlink" contentStyleType="text/css" height="1072px" preserveAspectRatio="none" style="width:2507px;height:1072px;background:#FFFFFF;" version="1.1" viewBox="0 0 2507 1072" width="2507px" zoomAndPan="magnify"><defs/><g><!--cluster bintree--><g id="cluster_bintree"><path d="M8.5,117.9 L65.5,117.9 A3.75,3.75 0 0 1 68,120.4 L75,142.38 L2441,142.38 A2.5,2.5 0 0 1 2443.5,144.88 L2443.5,985.4 A2.5,2.5 0 0 1 2441,987.9 L8.5,987.9 A2.5,2.5 0 0 1 6,985.4 L6,120.4 A2.5,2.5 0 0 1 8.5,117.9 " fill="none" style="stroke:#000000;stroke-width:1.5;"/><line style="stroke:#000000;stroke-width:1.5;" x1="6" x2="75" y1="142.38" y2="142.38"/><text fill="#000000" font-family="JetBrains Mono" font-size="14" font-weight="bold" lengthAdjust="spacing" textLength="56" x="10" y="134.18">bintree</text></g><!--cluster strategy--><g id="cluster_strategy"><path d="M32.5,162.9 L97.5,162.9 A3.75,3.75 0 0 1 100,165.4 L107,187.38 L2417,187.38 A2.5,2.5 0 0 1 2419.5,189.88 L2419.5,961.4 A2.5,2.5 0 0 1 2417,963.9 L32.5,963.9 A2.5,2.5 0 0 1 30,961.4 L30,165.4 A2.5,2.5 0 0 1 32.5,162.9 " fill="none" style="stroke:#000000;stroke-width:1.5;"/><line style="stroke:#000000;stroke-width:1.5;" x1="30" x2="107" y1="187.38" y2="187.38"/><text fill="#000000" font-family="JetBrains Mono" font-size="14" font-weight="bold" lengthAdjust="spacing" textLength="64" x="34" y="179.18">strategy</text></g><!--class BinTree--><g id="elem_BinTree"><rect codeLine="6" fill="#F1F1F1" height="232.8" id="BinTree" rx="2.5" ry="2.5" style="stroke:#181818;stroke-width:0.5;" width="284" x="467.5" y="448.5"/><ellipse cx="577.25" cy="464.5" fill="#ADD1B2" rx="11" ry="11" style="stroke:#181818;stroke-width:1.0;"/><path d="M579.7231,470.6431 Q579.1421,470.9419 578.5029,471.0913 Q577.8638,471.2407 577.1582,471.2407 Q574.6514,471.2407 573.3315,469.5889 Q572.0117,467.937 572.0117,464.8159 Q572.0117,461.6865 573.3315,460.0347 Q574.6514,458.3828 577.1582,458.3828 Q577.8638,458.3828 578.5112,458.5322 Q579.1587,458.6816 579.7231,458.9805 L579.7231,461.7031 Q579.0923,461.1221 578.4988,460.8523 Q577.9053,460.5825 577.2744,460.5825 Q575.9297,460.5825 575.2449,461.6492 Q574.5601,462.7158 574.5601,464.8159 Q574.5601,466.9077 575.2449,467.9744 Q575.9297,469.041 577.2744,469.041 Q577.9053,469.041 578.4988,468.7712 Q579.0923,468.5015 579.7231,467.9204 Z " fill="#000000"/><text fill="#000000" font-family="JetBrains Mono" font-size="14" lengthAdjust="spacing" textLength="56" x="597.75" y="469.54">BinTree</text><line style="stroke:#181818;stroke-width:0.5;" x1="468.5" x2="750.5" y1="480.5" y2="480.5"/><text fill="#000000" font-family="JetBrains Mono" font-size="14" lengthAdjust="spacing" textLength="88" x="473.5" y="498.78">-root: Node</text><text fill="#000000" font-family="JetBrains Mono" font-size="14" lengthAdjust="spacing" textLength="104" x="473.5" y="517.26">-rand: Random</text><line style="stroke:#181818;stroke-width:1.0;stroke-dasharray:1.0,2.0;" x1="468.5" x2="750.5" y1="525.46" y2="525.46"/><text fill="#000000" font-family="JetBrains Mono" font-size="14" lengthAdjust="spacing" textLength="80" x="473.5" y="543.74">+BinTree()</text><text fill="#000000" font-family="JetBrains Mono" font-size="14" lengthAdjust="spacing" textLength="120" x="473.5" y="562.22">+getRoot(): int</text><text fill="#000000" font-family="JetBrains Mono" font-size="14" lengthAdjust="spacing" textLength="152" x="473.5" y="580.7">+isEmpty(): boolean</text><text fill="#000000" font-family="JetBrains Mono" font-size="14" lengthAdjust="spacing" textLength="216" x="473.5" y="599.18">+randomInsert(e: int): void</text><text fill="#000000" font-family="JetBrains Mono" font-size="14" lengthAdjust="spacing" textLength="264" x="473.5" y="617.66">+preOrder(todo: IAction): boolean</text><text fill="#000000" font-family="JetBrains Mono" font-size="14" lengthAdjust="spacing" textLength="256" x="473.5" y="636.14">+inOrder(todo: IAction): boolean</text><text fill="#000000" font-family="JetBrains Mono" font-size="14" lengthAdjust="spacing" textLength="272" x="473.5" y="654.62">+postOrder(todo: IAction): boolean</text><text fill="#000000" font-family="JetBrains Mono" font-size="14" lengthAdjust="spacing" textLength="112" x="473.5" y="673.1">+print(): void</text></g><!--class Node--><g id="elem_Node"><rect codeLine="20" fill="#F1F1F1" height="325.2" id="Node" rx="2.5" ry="2.5" style="stroke:#181818;stroke-width:0.5;" width="284" x="1082.5" y="585.3"/><ellipse cx="1204.25" cy="601.3" fill="#ADD1B2" rx="11" ry="11" style="stroke:#181818;stroke-width:1.0;"/><path d="M1206.7231,607.4431 Q1206.1421,607.7419 1205.5029,607.8913 Q1204.8638,608.0407 1204.1582,608.0407 Q1201.6514,608.0407 1200.3315,606.3889 Q1199.0117,604.737 1199.0117,601.6159 Q1199.0117,598.4865 1200.3315,596.8347 Q1201.6514,595.1828 1204.1582,595.1828 Q1204.8638,595.1828 1205.5112,595.3322 Q1206.1587,595.4816 1206.7231,595.7805 L1206.7231,598.5031 Q1206.0923,597.9221 1205.4988,597.6523 Q1204.9053,597.3825 1204.2744,597.3825 Q1202.9297,597.3825 1202.2449,598.4492 Q1201.5601,599.5158 1201.5601,601.6159 Q1201.5601,603.7077 1202.2449,604.7744 Q1202.9297,605.841 1204.2744,605.841 Q1204.9053,605.841 1205.4988,605.5712 Q1206.0923,605.3015 1206.7231,604.7204 Z " fill="#000000"/><text fill="#000000" font-family="JetBrains Mono" font-size="14" lengthAdjust="spacing" textLength="32" x="1224.75" y="606.34">Node</text><line style="stroke:#181818;stroke-width:0.5;" x1="1083.5" x2="1365.5" y1="617.3" y2="617.3"/><text fill="#000000" font-family="JetBrains Mono" font-size="14" lengthAdjust="spacing" textLength="88" x="1088.5" y="635.58">-value: int</text><text fill="#000000" font-family="JetBrains Mono" font-size="14" lengthAdjust="spacing" textLength="88" x="1088.5" y="654.06">-left: Node</text><text fill="#000000" font-family="JetBrains Mono" font-size="14" lengthAdjust="spacing" textLength="96" x="1088.5" y="672.54">-right: Node</text><line style="stroke:#181818;stroke-width:1.0;" x1="1083.5" x2="1365.5" y1="680.74" y2="680.74"/><text fill="#000000" font-family="JetBrains Mono" font-size="14" lengthAdjust="spacing" textLength="104" x="1088.5" y="699.02">+Node(v: int)</text><text fill="#000000" font-family="JetBrains Mono" font-size="14" lengthAdjust="spacing" textLength="128" x="1088.5" y="717.5">+getValue(): int</text><text fill="#000000" font-family="JetBrains Mono" font-size="14" lengthAdjust="spacing" textLength="128" x="1088.5" y="735.98">+getLeft(): Node</text><text fill="#000000" font-family="JetBrains Mono" font-size="14" lengthAdjust="spacing" textLength="208" x="1088.5" y="754.46">+setLeft(left: Node): void</text><text fill="#000000" font-family="JetBrains Mono" font-size="14" lengthAdjust="spacing" textLength="136" x="1088.5" y="772.94">+getRight(): Node</text><text fill="#000000" font-family="JetBrains Mono" font-size="14" lengthAdjust="spacing" textLength="224" x="1088.5" y="791.42">+setRight(right: Node): void</text><text fill="#000000" font-family="JetBrains Mono" font-size="14" lengthAdjust="spacing" textLength="144" x="1088.5" y="809.9">+isLeaf(): boolean</text><text fill="#000000" font-family="JetBrains Mono" font-size="14" lengthAdjust="spacing" textLength="176" x="1088.5" y="828.38">+isInternal(): boolean</text><text fill="#000000" font-family="JetBrains Mono" font-size="14" lengthAdjust="spacing" textLength="264" x="1088.5" y="846.86">+preOrder(todo: IAction): boolean</text><text fill="#000000" font-family="JetBrains Mono" font-size="14" lengthAdjust="spacing" textLength="256" x="1088.5" y="865.34">+inOrder(todo: IAction): boolean</text><text fill="#000000" font-family="JetBrains Mono" font-size="14" lengthAdjust="spacing" textLength="272" x="1088.5" y="883.82">+postOrder(todo: IAction): boolean</text><text fill="#000000" font-family="JetBrains Mono" font-size="14" lengthAdjust="spacing" textLength="112" x="1088.5" y="902.3">+print(): void</text></g><!--class IAction--><g id="elem_IAction"><rect codeLine="39" fill="#F1F1F1" height="66.48" id="IAction" rx="2.5" ry="2.5" style="stroke:#181818;stroke-width:0.5;" width="244" x="1669.5" y="663.66"/><ellipse cx="1759.25" cy="679.66" fill="#B4A7E5" rx="11" ry="11" style="stroke:#181818;stroke-width:1.0;"/><path d="M1755.6777,675.9251 L1755.6777,673.7669 L1763.0571,673.7669 L1763.0571,675.9251 L1760.5918,675.9251 L1760.5918,684.0018 L1763.0571,684.0018 L1763.0571,686.16 L1755.6777,686.16 L1755.6777,684.0018 L1758.1431,684.0018 L1758.1431,675.9251 Z " fill="#000000"/><text fill="#000000" font-family="JetBrains Mono" font-size="14" font-style="italic" lengthAdjust="spacing" textLength="56" x="1779.75" y="684.7">IAction</text><line style="stroke:#181818;stroke-width:0.5;" x1="1670.5" x2="1912.5" y1="695.66" y2="695.66"/><line style="stroke:#181818;stroke-width:0.5;" x1="1670.5" x2="1912.5" y1="703.66" y2="703.66"/><text fill="#000000" font-family="JetBrains Mono" font-size="14" lengthAdjust="spacing" textLength="232" x="1675.5" y="721.94">+execute(node: Node): boolean</text></g><!--class Printer--><g id="elem_Printer"><rect codeLine="43" fill="#F1F1F1" height="48" id="Printer" rx="2.5" ry="2.5" style="stroke:#181818;stroke-width:0.5;" width="88" x="2237.5" y="899.9"/><ellipse cx="2252.5" cy="915.9" fill="#ADD1B2" rx="11" ry="11" style="stroke:#181818;stroke-width:1.0;"/><path d="M2254.9731,922.0431 Q2254.3921,922.3419 2253.7529,922.4913 Q2253.1138,922.6407 2252.4082,922.6407 Q2249.9014,922.6407 2248.5815,920.9889 Q2247.2617,919.337 2247.2617,916.2159 Q2247.2617,913.0865 2248.5815,911.4347 Q2249.9014,909.7828 2252.4082,909.7828 Q2253.1138,909.7828 2253.7612,909.9322 Q2254.4087,910.0816 2254.9731,910.3805 L2254.9731,913.1031 Q2254.3423,912.5221 2253.7488,912.2523 Q2253.1553,911.9825 2252.5244,911.9825 Q2251.1797,911.9825 2250.4949,913.0492 Q2249.8101,914.1158 2249.8101,916.2159 Q2249.8101,918.3077 2250.4949,919.3744 Q2251.1797,920.441 2252.5244,920.441 Q2253.1553,920.441 2253.7488,920.1712 Q2254.3423,919.9015 2254.9731,919.3204 Z " fill="#000000"/><text fill="#000000" font-family="JetBrains Mono" font-size="14" lengthAdjust="spacing" textLength="56" x="2266.5" y="920.94">Printer</text><line style="stroke:#181818;stroke-width:0.5;" x1="2238.5" x2="2324.5" y1="931.9" y2="931.9"/><line style="stroke:#181818;stroke-width:0.5;" x1="2238.5" x2="2324.5" y1="939.9" y2="939.9"/></g><!--class Summation--><g id="elem_Summation"><rect codeLine="44" fill="#F1F1F1" height="121.92" id="Summation" rx="2.5" ry="2.5" style="stroke:#181818;stroke-width:0.5;" width="244" x="2159.5" y="742.94"/><ellipse cx="2241.25" cy="758.94" fill="#ADD1B2" rx="11" ry="11" style="stroke:#181818;stroke-width:1.0;"/><path d="M2243.7231,765.0831 Q2243.1421,765.3819 2242.5029,765.5313 Q2241.8638,765.6807 2241.1582,765.6807 Q2238.6514,765.6807 2237.3315,764.0289 Q2236.0117,762.377 2236.0117,759.2559 Q2236.0117,756.1265 2237.3315,754.4747 Q2238.6514,752.8228 2241.1582,752.8228 Q2241.8638,752.8228 2242.5112,752.9722 Q2243.1587,753.1216 2243.7231,753.4205 L2243.7231,756.1431 Q2243.0923,755.5621 2242.4988,755.2923 Q2241.9053,755.0225 2241.2744,755.0225 Q2239.9297,755.0225 2239.2449,756.0892 Q2238.5601,757.1558 2238.5601,759.2559 Q2238.5601,761.3477 2239.2449,762.4144 Q2239.9297,763.481 2241.2744,763.481 Q2241.9053,763.481 2242.4988,763.2112 Q2243.0923,762.9415 2243.7231,762.3604 Z " fill="#000000"/><text fill="#000000" font-family="JetBrains Mono" font-size="14" lengthAdjust="spacing" textLength="72" x="2261.75" y="763.98">Summation</text><line style="stroke:#181818;stroke-width:0.5;" x1="2160.5" x2="2402.5" y1="774.94" y2="774.94"/><text fill="#000000" font-family="JetBrains Mono" font-size="14" lengthAdjust="spacing" textLength="72" x="2165.5" y="793.22">-sum: int</text><line style="stroke:#181818;stroke-width:1.0;" x1="2160.5" x2="2402.5" y1="801.42" y2="801.42"/><text fill="#000000" font-family="JetBrains Mono" font-size="14" lengthAdjust="spacing" textLength="96" x="2165.5" y="819.7">+Summation()</text><text fill="#000000" font-family="JetBrains Mono" font-size="14" lengthAdjust="spacing" textLength="112" x="2165.5" y="838.18">+getSum(): int</text><text fill="#000000" font-family="JetBrains Mono" font-size="14" lengthAdjust="spacing" textLength="232" x="2165.5" y="856.66">+execute(node: Node): boolean</text></g><!--class MaxSelect--><g id="elem_MaxSelect"><rect codeLine="52" fill="#F1F1F1" height="121.92" id="MaxSelect" rx="2.5" ry="2.5" style="stroke:#181818;stroke-width:0.5;" width="244" x="2159.5" y="392.94"/><ellipse cx="2241.25" cy="408.94" fill="#ADD1B2" rx="11" ry="11" style="stroke:#181818;stroke-width:1.0;"/><path d="M2243.7231,415.0831 Q2243.1421,415.3819 2242.5029,415.5313 Q2241.8638,415.6807 2241.1582,415.6807 Q2238.6514,415.6807 2237.3315,414.0289 Q2236.0117,412.377 2236.0117,409.2559 Q2236.0117,406.1265 2237.3315,404.4747 Q2238.6514,402.8228 2241.1582,402.8228 Q2241.8638,402.8228 2242.5112,402.9722 Q2243.1587,403.1216 2243.7231,403.4205 L2243.7231,406.1431 Q2243.0923,405.5621 2242.4988,405.2923 Q2241.9053,405.0225 2241.2744,405.0225 Q2239.9297,405.0225 2239.2449,406.0892 Q2238.5601,407.1558 2238.5601,409.2559 Q2238.5601,411.3477 2239.2449,412.4144 Q2239.9297,413.481 2241.2744,413.481 Q2241.9053,413.481 2242.4988,413.2112 Q2243.0923,412.9415 2243.7231,412.3604 Z " fill="#000000"/><text fill="#000000" font-family="JetBrains Mono" font-size="14" lengthAdjust="spacing" textLength="72" x="2261.75" y="413.98">MaxSelect</text><line style="stroke:#181818;stroke-width:0.5;" x1="2160.5" x2="2402.5" y1="424.94" y2="424.94"/><text fill="#000000" font-family="JetBrains Mono" font-size="14" lengthAdjust="spacing" textLength="72" x="2165.5" y="443.22">-max: int</text><line style="stroke:#181818;stroke-width:1.0;" x1="2160.5" x2="2402.5" y1="451.42" y2="451.42"/><text fill="#000000" font-family="JetBrains Mono" font-size="14" lengthAdjust="spacing" textLength="144" x="2165.5" y="469.7">+MaxSelect(i: int)</text><text fill="#000000" font-family="JetBrains Mono" font-size="14" lengthAdjust="spacing" textLength="112" x="2165.5" y="488.18">+getMax(): int</text><text fill="#000000" font-family="JetBrains Mono" font-size="14" lengthAdjust="spacing" textLength="232" x="2165.5" y="506.66">+execute(node: Node): boolean</text></g><!--class LinearSearch--><g id="elem_LinearSearch"><rect codeLine="60" fill="#F1F1F1" height="158.88" id="LinearSearch" rx="2.5" ry="2.5" style="stroke:#181818;stroke-width:0.5;" width="244" x="2159.5" y="199.46"/><ellipse cx="2229.25" cy="215.46" fill="#ADD1B2" rx="11" ry="11" style="stroke:#181818;stroke-width:1.0;"/><path d="M2231.7231,221.6031 Q2231.1421,221.9019 2230.5029,222.0513 Q2229.8638,222.2007 2229.1582,222.2007 Q2226.6514,222.2007 2225.3315,220.5489 Q2224.0117,218.897 2224.0117,215.7759 Q2224.0117,212.6465 2225.3315,210.9947 Q2226.6514,209.3428 2229.1582,209.3428 Q2229.8638,209.3428 2230.5112,209.4922 Q2231.1587,209.6416 2231.7231,209.9405 L2231.7231,212.6631 Q2231.0923,212.0821 2230.4988,211.8123 Q2229.9053,211.5425 2229.2744,211.5425 Q2227.9297,211.5425 2227.2449,212.6092 Q2226.5601,213.6758 2226.5601,215.7759 Q2226.5601,217.8677 2227.2449,218.9344 Q2227.9297,220.001 2229.2744,220.001 Q2229.9053,220.001 2230.4988,219.7312 Q2231.0923,219.4615 2231.7231,218.8804 Z " fill="#000000"/><text fill="#000000" font-family="JetBrains Mono" font-size="14" lengthAdjust="spacing" textLength="96" x="2249.75" y="220.5">LinearSearch</text><line style="stroke:#181818;stroke-width:0.5;" x1="2160.5" x2="2402.5" y1="231.46" y2="231.46"/><text fill="#000000" font-family="JetBrains Mono" font-size="14" lengthAdjust="spacing" textLength="88" x="2165.5" y="249.74">-value: int</text><text fill="#000000" font-family="JetBrains Mono" font-size="14" lengthAdjust="spacing" textLength="120" x="2165.5" y="268.22">-found: boolean</text><line style="stroke:#181818;stroke-width:1.0;" x1="2160.5" x2="2402.5" y1="276.42" y2="276.42"/><text fill="#000000" font-family="JetBrains Mono" font-size="14" lengthAdjust="spacing" textLength="120" x="2165.5" y="294.7">+LinearSearch()</text><text fill="#000000" font-family="JetBrains Mono" font-size="14" lengthAdjust="spacing" textLength="128" x="2165.5" y="313.18">+getValue(): int</text><text fill="#000000" font-family="JetBrains Mono" font-size="14" lengthAdjust="spacing" textLength="152" x="2165.5" y="331.66">+isFound(): boolean</text><text fill="#000000" font-family="JetBrains Mono" font-size="14" lengthAdjust="spacing" textLength="232" x="2165.5" y="350.14">+execute(node: Node): boolean</text></g><!--class CondMaxSearch--><g id="elem_CondMaxSearch"><rect codeLine="70" fill="#F1F1F1" height="158.88" id="CondMaxSearch" rx="2.5" ry="2.5" style="stroke:#181818;stroke-width:0.5;" width="244" x="2159.5" y="549.46"/><ellipse cx="2225.25" cy="565.46" fill="#ADD1B2" rx="11" ry="11" style="stroke:#181818;stroke-width:1.0;"/><path d="M2227.7231,571.6031 Q2227.1421,571.9019 2226.5029,572.0513 Q2225.8638,572.2007 2225.1582,572.2007 Q2222.6514,572.2007 2221.3315,570.5489 Q2220.0117,568.897 2220.0117,565.7759 Q2220.0117,562.6465 2221.3315,560.9947 Q2222.6514,559.3428 2225.1582,559.3428 Q2225.8638,559.3428 2226.5112,559.4922 Q2227.1587,559.6416 2227.7231,559.9405 L2227.7231,562.6631 Q2227.0923,562.0821 2226.4988,561.8123 Q2225.9053,561.5425 2225.2744,561.5425 Q2223.9297,561.5425 2223.2449,562.6092 Q2222.5601,563.6758 2222.5601,565.7759 Q2222.5601,567.8677 2223.2449,568.9344 Q2223.9297,570.001 2225.2744,570.001 Q2225.9053,570.001 2226.4988,569.7312 Q2227.0923,569.4615 2227.7231,568.8804 Z " fill="#000000"/><text fill="#000000" font-family="JetBrains Mono" font-size="14" lengthAdjust="spacing" textLength="104" x="2245.75" y="570.5">CondMaxSearch</text><line style="stroke:#181818;stroke-width:0.5;" x1="2160.5" x2="2402.5" y1="581.46" y2="581.46"/><text fill="#000000" font-family="JetBrains Mono" font-size="14" lengthAdjust="spacing" textLength="120" x="2165.5" y="599.74">-found: boolean</text><text fill="#000000" font-family="JetBrains Mono" font-size="14" lengthAdjust="spacing" textLength="72" x="2165.5" y="618.22">-max: int</text><line style="stroke:#181818;stroke-width:1.0;" x1="2160.5" x2="2402.5" y1="626.42" y2="626.42"/><text fill="#000000" font-family="JetBrains Mono" font-size="14" lengthAdjust="spacing" textLength="128" x="2165.5" y="644.7">+CondMaxSearch()</text><text fill="#000000" font-family="JetBrains Mono" font-size="14" lengthAdjust="spacing" textLength="152" x="2165.5" y="663.18">+isFound(): boolean</text><text fill="#000000" font-family="JetBrains Mono" font-size="14" lengthAdjust="spacing" textLength="112" x="2165.5" y="681.66">+getMax(): int</text><text fill="#000000" font-family="JetBrains Mono" font-size="14" lengthAdjust="spacing" textLength="232" x="2165.5" y="700.14">+execute(node: Node): boolean</text></g><!--class BinTreeStrategy--><g id="elem_BinTreeStrategy"><rect codeLine="80" fill="#F1F1F1" height="66.48" id="BinTreeStrategy" rx="2.5" ry="2.5" style="stroke:#181818;stroke-width:0.5;" width="228" x="46" y="360.66"/><ellipse cx="95.75" cy="376.66" fill="#ADD1B2" rx="11" ry="11" style="stroke:#181818;stroke-width:1.0;"/><path d="M98.2231,382.8031 Q97.6421,383.1019 97.0029,383.2513 Q96.3638,383.4007 95.6582,383.4007 Q93.1514,383.4007 91.8315,381.7489 Q90.5117,380.097 90.5117,376.9759 Q90.5117,373.8465 91.8315,372.1947 Q93.1514,370.5428 95.6582,370.5428 Q96.3638,370.5428 97.0112,370.6922 Q97.6587,370.8416 98.2231,371.1405 L98.2231,373.8631 Q97.5923,373.2821 96.9988,373.0123 Q96.4053,372.7425 95.7744,372.7425 Q94.4297,372.7425 93.7449,373.8092 Q93.0601,374.8758 93.0601,376.9759 Q93.0601,379.0677 93.7449,380.1344 Q94.4297,381.201 95.7744,381.201 Q96.4053,381.201 96.9988,380.9312 Q97.5923,380.6615 98.2231,380.0804 Z " fill="#000000"/><text fill="#000000" font-family="JetBrains Mono" font-size="14" lengthAdjust="spacing" textLength="120" x="116.25" y="381.7">BinTreeStrategy</text><line style="stroke:#181818;stroke-width:0.5;" x1="47" x2="273" y1="392.66" y2="392.66"/><line style="stroke:#181818;stroke-width:0.5;" x1="47" x2="273" y1="400.66" y2="400.66"/><text fill="#000000" font-family="JetBrains Mono" font-size="14" lengthAdjust="spacing" textLength="216" x="52" y="418.94">+main(args: String[]): void</text></g><g id="elem_GMN28"><path d="M978,1004.16 L978,1065.64 L1471,1065.64 L1471,1014.16 L1461,1004.16 L978,1004.16 " fill="#FEFFDD" style="stroke:#181818;stroke-width:0.5;"/><path d="M1461,1004.16 L1461,1014.16 L1471,1014.16 L1461,1004.16 " fill="#FEFFDD" style="stroke:#181818;stroke-width:1.0;"/><text fill="#000000" font-family="JetBrains Mono" font-size="13" lengthAdjust="spacing" textLength="184" x="984" y="1022.42">BinTree is the context.</text><text fill="#000000" font-family="JetBrains Mono" font-size="13" lengthAdjust="spacing" textLength="472" x="984" y="1039.58">It owns the tree structure and delegates traversal behavior</text><text fill="#000000" font-family="JetBrains Mono" font-size="13" lengthAdjust="spacing" textLength="216" x="984" y="1056.74">to IAction implementations.</text></g><g id="elem_GMN31"><path d="M2063,1003.74 L2063,1048.06 L2500,1048.06 L2500,1013.74 L2490,1003.74 L2063,1003.74 " fill="#FEFFDD" style="stroke:#181818;stroke-width:0.5;"/><path d="M2490,1003.74 L2490,1013.74 L2500,1013.74 L2490,1003.74 " fill="#FEFFDD" style="stroke:#181818;stroke-width:1.0;"/><text fill="#000000" font-family="JetBrains Mono" font-size="13" lengthAdjust="spacing" textLength="152" x="2069" y="1022">Strategy interface.</text><text fill="#000000" font-family="JetBrains Mono" font-size="13" lengthAdjust="spacing" textLength="416" x="2069" y="1039.16">execute() decides whether traversal should continue.</text></g><g id="elem_GMN34"><path d="M1581,1003.74 L1581,1048.06 L2002,1048.06 L2002,1013.74 L1992,1003.74 L1581,1003.74 " fill="#FEFFDD" style="stroke:#181818;stroke-width:0.5;"/><path d="M1992,1003.74 L1992,1013.74 L2002,1013.74 L1992,1003.74 " fill="#FEFFDD" style="stroke:#181818;stroke-width:1.0;"/><text fill="#000000" font-family="JetBrains Mono" font-size="13" lengthAdjust="spacing" textLength="320" x="1587" y="1022">Node owns the recursive traversal logic.</text><text fill="#000000" font-family="JetBrains Mono" font-size="13" lengthAdjust="spacing" textLength="400" x="1587" y="1039.16">It walks the tree and applies the chosen strategy.</text></g><g id="elem_GMN37"><path d="M335,6 L335,101.8 A0,0 0 0 0 335,101.8 L605.5,101.8 L609.5,448.13 L613.5,101.8 L884,101.8 A0,0 0 0 0 884,101.8 L884,16 L874,6 L335,6 A0,0 0 0 0 335,6 " fill="#FEFFDD" style="stroke:#181818;stroke-width:0.5;"/><path d="M874,6 L874,16 L884,16 L874,6 " fill="#FEFFDD" style="stroke:#181818;stroke-width:0.5;"/><text fill="#000000" font-family="JetBrains Mono" font-size="13" lengthAdjust="spacing" textLength="200" x="341" y="24.26">Design pattern used here:</text><text fill="#000000" font-family="JetBrains Mono" font-size="13" lengthAdjust="spacing" textLength="64" x="341" y="41.42">Strategy</text><text fill="#000000" font-family="JetBrains Mono" font-size="13" lengthAdjust="spacing" textLength="8" x="341" y="58.58">&#160;</text><text fill="#000000" font-family="JetBrains Mono" font-size="13" lengthAdjust="spacing" textLength="528" x="341" y="75.74">The tree behavior changes depending on the IAction implementation,</text><text fill="#000000" font-family="JetBrains Mono" font-size="13" lengthAdjust="spacing" textLength="360" x="341" y="92.9">without changing the BinTree or Node classes.</text></g><!--reverse link BinTree to Node--><g id="link_BinTree_Node"><path codeLine="85" d="M763.3984,610.5433 C862.4984,640.1333 982.9,676.07 1082.01,705.66 " fill="none" id="BinTree-backto-Node" style="stroke:#181818;stroke-width:1.0;"/><polygon fill="#181818" points="751.9,607.11,756.5048,612.6594,763.3984,610.5433,758.7936,604.9938,751.9,607.11" style="stroke:#181818;stroke-width:1.0;"/><text fill="#000000" font-family="JetBrains Mono" font-size="13" lengthAdjust="spacing" textLength="32" x="915" y="651.66">root</text></g><!--reverse link Node to Node--><g id="link_Node_Node"><path codeLine="86" d="M1180.7157,573.9639 C1189.0757,553.0039 1200.71,550.3 1224.5,550.3 C1248.29,550.3 1264.37,564.15 1272.73,585.11 " fill="none" id="Node-backto-Node" style="stroke:#181818;stroke-width:1.0;"/><polygon fill="#181818" points="1176.27,585.11,1182.2082,581.0188,1180.7157,573.9639,1174.7775,578.055,1176.27,585.11" style="stroke:#181818;stroke-width:1.0;"/><text fill="#000000" font-family="JetBrains Mono" font-size="13" lengthAdjust="spacing" textLength="80" x="1184.5" y="540.56">left/right</text></g><!--link BinTree to IAction--><g id="link_BinTree_IAction"><path codeLine="87" d="M751.68,532.19 C924.31,497.98 1223.99,457.37 1471,520.9 C1578.18,548.47 1683.0608,616.8765 1741.9208,659.7665 " fill="none" id="BinTree-to-IAction" style="stroke:#181818;stroke-width:1.0;stroke-dasharray:7.0,7.0;"/><polygon fill="#181818" points="1746.77,663.3,1741.8519,654.767,1742.729,660.3554,1737.1406,661.2326,1746.77,663.3" style="stroke:#181818;stroke-width:1.0;"/><text fill="#000000" font-family="JetBrains Mono" font-size="13" lengthAdjust="spacing" textLength="80" x="1184.5" y="482.78">traversals</text></g><!--link Node to IAction--><g id="link_Node_IAction"><path codeLine="88" d="M1366.98,735.13 C1459.97,726.74 1574.4143,716.4099 1663.0643,708.3999 " fill="none" id="Node-to-IAction" style="stroke:#181818;stroke-width:1.0;stroke-dasharray:7.0,7.0;"/><polygon fill="#181818" points="1669.04,707.86,1659.7166,704.6861,1664.0603,708.3099,1660.4365,712.6537,1669.04,707.86" style="stroke:#181818;stroke-width:1.0;"/><text fill="#000000" font-family="JetBrains Mono" font-size="13" lengthAdjust="spacing" textLength="48" x="1502" y="714.61">visits</text></g><!--reverse link IAction to Printer--><g id="link_IAction_Printer"><path codeLine="89" d="M1844.0291,741.9392 C1893.7791,784.0492 1971.9,843.89 2063,881.9 C2120.5,905.89 2192.32,916.34 2237.32,920.77 " fill="none" id="IAction-backto-Printer" style="stroke:#181818;stroke-width:1.0;stroke-dasharray:7.0,7.0;"/><polygon fill="none" points="1830.29,730.31,1840.1527,746.5189,1847.9055,737.3595,1830.29,730.31" style="stroke:#181818;stroke-width:1.0;"/></g><!--reverse link IAction to Summation--><g id="link_IAction_Summation"><path codeLine="90" d="M1931.3424,727.345 C2006.1424,743.745 2084.18,760.85 2159.02,777.26 " fill="none" id="IAction-backto-Summation" style="stroke:#181818;stroke-width:1.0;stroke-dasharray:7.0,7.0;"/><polygon fill="none" points="1913.76,723.49,1930.0574,733.2057,1932.6273,721.4842,1913.76,723.49" style="stroke:#181818;stroke-width:1.0;"/></g><!--reverse link IAction to MaxSelect--><g id="link_IAction_MaxSelect"><path codeLine="91" d="M1855.5636,653.2763 C1908.3936,617.4963 1981.61,570.82 2063,531.9 C2093.4,517.36 2127.27,503.97 2159.05,492.53 " fill="none" id="IAction-backto-MaxSelect" style="stroke:#181818;stroke-width:1.0;stroke-dasharray:7.0,7.0;"/><polygon fill="none" points="1840.66,663.37,1858.9282,658.2442,1852.199,648.3084,1840.66,663.37" style="stroke:#181818;stroke-width:1.0;"/></g><!--reverse link IAction to LinearSearch--><g id="link_IAction_LinearSearch"><path codeLine="92" d="M1822.8823,648.3615 C1863.6623,584.8215 1950.61,460.46 2063,375.9 C2091.83,354.21 2126.27,336.04 2159.15,321.51 " fill="none" id="IAction-backto-LinearSearch" style="stroke:#181818;stroke-width:1.0;stroke-dasharray:7.0,7.0;"/><polygon fill="none" points="1813.16,663.51,1827.9318,651.6023,1817.8328,645.1207,1813.16,663.51" style="stroke:#181818;stroke-width:1.0;"/></g><!--reverse link IAction to CondMaxSearch--><g id="link_IAction_CondMaxSearch"><path codeLine="93" d="M1931.5878,677.5165 C2006.3878,667.0965 2084.18,656.26 2159.02,645.83 " fill="none" id="IAction-backto-CondMaxSearch" style="stroke:#181818;stroke-width:1.0;stroke-dasharray:7.0,7.0;"/><polygon fill="none" points="1913.76,680,1932.4157,683.4591,1930.76,671.5739,1913.76,680" style="stroke:#181818;stroke-width:1.0;"/></g><!--link BinTreeStrategy to BinTree--><g id="link_BinTreeStrategy_BinTree"><path codeLine="94" d="M249.14,427.58 C311.27,451.32 390.1953,481.4783 461.6653,508.7883 " fill="none" id="BinTreeStrategy-to-BinTree" style="stroke:#181818;stroke-width:1.0;stroke-dasharray:7.0,7.0;"/><polygon fill="#181818" points="467.27,510.93,460.2907,503.981,462.5994,509.1453,457.4351,511.454,467.27,510.93" style="stroke:#181818;stroke-width:1.0;"/></g><!--link BinTreeStrategy to Printer--><g id="link_BinTreeStrategy_Printer"><path codeLine="95" d="M169.97,427.25 C204.37,546.81 339.57,946.9 608.5,946.9 C608.5,946.9 608.5,946.9 1792.5,946.9 C1956.83,946.9 2145.9669,934.1803 2231.1369,927.7703 " fill="none" id="BinTreeStrategy-to-Printer" style="stroke:#181818;stroke-width:1.0;stroke-dasharray:7.0,7.0;"/><polygon fill="#181818" points="2237.12,927.32,2227.8452,924.0067,2232.1341,927.6952,2228.4456,931.9842,2237.12,927.32" style="stroke:#181818;stroke-width:1.0;"/></g><!--link BinTreeStrategy to Summation--><g id="link_BinTreeStrategy_Summation"><path codeLine="96" d="M274.05,401.35 C364.49,406.68 494.58,412.9 608.5,412.9 C608.5,412.9 608.5,412.9 1792.5,412.9 C1931.76,412.9 1913.15,538.66 2002,645.9 C2030.53,680.33 2026.92,699.49 2063,725.9 C2091.49,746.75 2120.4305,760.4876 2153.5805,772.1576 " fill="none" id="BinTreeStrategy-to-Summation" style="stroke:#181818;stroke-width:1.0;stroke-dasharray:7.0,7.0;"/><polygon fill="#181818" points="2159.24,774.15,2152.0789,767.3884,2154.5237,772.4897,2149.4224,774.9345,2159.24,774.15" style="stroke:#181818;stroke-width:1.0;"/></g><!--link BinTreeStrategy to MaxSelect--><g id="link_BinTreeStrategy_MaxSelect"><path codeLine="97" d="M274.41,371.47 C284.4,369.8 294.37,368.25 304,366.9 C438.59,348.05 472.6,338.9 608.5,338.9 C608.5,338.9 608.5,338.9 1792.5,338.9 C1900.11,338.9 1928.15,342.69 2033,366.9 C2046.54,370.03 2097.7312,387.9074 2153.5312,407.8874 " fill="none" id="BinTreeStrategy-to-MaxSelect" style="stroke:#181818;stroke-width:1.0;stroke-dasharray:7.0,7.0;"/><polygon fill="#181818" points="2159.18,409.91,2152.0552,403.1102,2154.4727,408.2245,2149.3584,410.6419,2159.18,409.91" style="stroke:#181818;stroke-width:1.0;"/></g><!--link BinTreeStrategy to LinearSearch--><g id="link_BinTreeStrategy_LinearSearch"><path codeLine="98" d="M252.15,360.17 C341.6,330.13 482.54,290.9 608.5,290.9 C608.5,290.9 608.5,290.9 1792.5,290.9 C1917.5,290.9 2054.4635,287.1253 2153.1935,283.7453 " fill="none" id="BinTreeStrategy-to-LinearSearch" style="stroke:#181818;stroke-width:1.0;stroke-dasharray:7.0,7.0;"/><polygon fill="#181818" points="2159.19,283.54,2150.0584,279.8503,2154.1929,283.7111,2150.3321,287.8456,2159.19,283.54" style="stroke:#181818;stroke-width:1.0;"/></g><!--link BinTreeStrategy to CondMaxSearch--><g id="link_BinTreeStrategy_CondMaxSearch"><path codeLine="99" d="M274.06,386.84 C364.5,381.79 494.59,375.9 608.5,375.9 C608.5,375.9 608.5,375.9 1792.5,375.9 C1900.11,375.9 1952.68,332.28 2033,403.9 C2076.61,442.79 2025.77,486.86 2063,531.9 C2087.76,561.86 2118.1119,580.6055 2153.6419,595.2355 " fill="none" id="BinTreeStrategy-to-CondMaxSearch" style="stroke:#181818;stroke-width:1.0;stroke-dasharray:7.0,7.0;"/><polygon fill="#181818" points="2159.19,597.52,2152.3909,590.3945,2154.5666,595.6163,2149.3449,597.792,2159.19,597.52" style="stroke:#181818;stroke-width:1.0;"/></g><!--link BinTree to GMN28--><g id="link_BinTree_GMN28"><path d="M690.29,681.61 C757.27,771.14 860.67,891.32 978,963.9 C1005.26,980.76 1036.69,993.76 1067.76,1003.74 " fill="none" id="BinTree-GMN28" style="stroke:#181818;stroke-width:1.0;stroke-dasharray:7.0,7.0;"/></g><!--link IAction to GMN31--><g id="link_IAction_GMN31"><path d="M1817.29,730.62 C1860.71,787.3 1956.14,901.54 2063,963.9 C2092.76,981.27 2127.67,994.01 2160.71,1003.26 " fill="none" id="IAction-GMN31" style="stroke:#181818;stroke-width:1.0;stroke-dasharray:7.0,7.0;"/></g><!--link Node to GMN34--><g id="link_Node_GMN34"><path d="M1366.63,845.23 C1430.1,885.92 1507.21,931.22 1581,963.9 C1617.16,979.91 1658.61,993.16 1695.04,1003.25 " fill="none" id="Node-GMN34" style="stroke:#181818;stroke-width:1.0;stroke-dasharray:7.0,7.0;"/></g><!--SRC=[pLPBRzim3BxxLmWzkUlYxMmC0zfr1JAqtT0KkmmxA3RZ2BKbGwAJT8__FieFHNBS5xR30YG8-8dafu-a97CdPCqrhzWvh7XJueMIUCqhO4UV0Cyq5zAmAoNLKMJSqgpanfmYQh5i4EQPaWln0zZRg8GLCbHCYsADB1SQCXHAHb7DipjUKD2baAW14eEQ8nJtH-ndnEZJXcHdGjuIsjliPyQqKfYoQvM3R-GoJzaD_QhAcPF4_JqPGiN7dgq0lA5eyN7AY8O72FEngl7U0akbIk3I0tMRPIuDQ8oXTQLr6oLoRr6juRFEGSUeSfMo-McxySbuGZvtPQqCFdkj9bwnJ-ntv2bhzGjatV2oWL276RFrEzJQ5dDidNcfBH9lEc52jR_Q98To4t99cImGH3rXfaVsH0wbjbMqbARTEyZZV1X0c4lWg-bY2pEN25hoCdv0vl-rpiBoNl4C1dUlt2SCTf3HhCQI576w-D63RlcYssYUPT5K5Hz5dJ7JLACMyll2-Oo7a833fdWPmok-Mq19nql0f-AxH_WudrXCDIl1VylgKaZWUa7VRFtqjArKOq-nSOq3pdx4-7dJ9So53JpTlo_RpmSbyrQrWmqznFs94WG1W_qyolhVLAU_4XRzrHFCHqKNNSnrOL96k935j-_XZ56auNPwDPjrvsdQNavH-zypsiFhJNi2EPSaUU_6CcL4O0FQyD9qlY6w4KQWYGR3krz9uWOoCBhv2iskpKEptqaX4XGb6gjaoVMsIMoWDeNj6KwXUw9JQC1tQa58Ev8AeNzug9LZR8it544OXcjWz5n1s67tM9ZJwgti0FimOVGmQJ9iD32wzbbE_0fAQVOrOqjOyurGtUb8Zvr1Ir7L9LGWiTsnIIAW09RLc5llqFgx7RdZk-CrTFOnKSX4JWIsQo2IsYDYrgefytO_GZRmS49tIxRTvlPBhxD66x41BsQf2f4vQRQylFEqiOhmkYu5z4gkbG79XhVS0O6bGbJLk1pdO4GXMStHNhIiCP0psXYaWI3TuDuEgGVHAIUN1UNFeQPiDAYCfBTafilmkWsp5KXQOUTiVQp3q1OKjDMbFIJ0hziV]--></g></svg>