<?xml version="1.0" encoding="us-ascii" standalone="no"?><svg xmlns="http://www.w3.org/2000/svg" xmlns:xlink="http://www.w3.org/1999/xlink" contentStyleType="text/css" height="1659px" preserveAspectRatio="none" style="width:777px;height:1659px;background:#FFFFFF;" version="1.1" viewBox="0 0 777 1659" width="777px" zoomAndPan="magnify"><defs/><g><rect fill="#FFFFFF" height="64.6211" style="stroke:#181818;stroke-width:1.0;" width="10" x="226.5" y="112.7988"/><rect fill="#FFFFFF" height="64.6211" style="stroke:#181818;stroke-width:1.0;" width="10" x="226.5" y="206.7305"/><rect fill="#FFFFFF" height="480.3477" style="stroke:#181818;stroke-width:1.0;" width="10" x="226.5" y="300.6621"/><rect fill="#FFFFFF" height="480.3477" style="stroke:#181818;stroke-width:1.0;" width="10" x="226.5" y="810.3203"/><rect fill="#FFFFFF" height="240.4844" style="stroke:#181818;stroke-width:1.0;" width="10" x="226.5" y="1319.9785"/><rect fill="#FFFFFF" height="106.9316" style="stroke:#181818;stroke-width:1.0;" width="10" x="282" y="436.9043"/><rect fill="#FFFFFF" height="106.9316" style="stroke:#181818;stroke-width:1.0;" width="10" x="282" y="946.5625"/><rect fill="#FFFFFF" height="29.3105" style="stroke:#181818;stroke-width:1.0;" width="10" x="282" y="1378.5996"/><rect fill="#FFFFFF" height="421.7266" style="stroke:#181818;stroke-width:1.0;" width="10" x="418" y="329.9727"/><rect fill="#FFFFFF" height="421.7266" style="stroke:#181818;stroke-width:1.0;" width="10" x="418" y="839.6309"/><rect fill="#FFFFFF" height="146.5527" style="stroke:#181818;stroke-width:1.0;" width="10" x="418" y="1349.2891"/><rect fill="#FFFFFF" height="149.2422" style="stroke:#181818;stroke-width:1.0;" width="10" x="617" y="573.1465"/><rect fill="#FFFFFF" height="149.2422" style="stroke:#181818;stroke-width:1.0;" width="10" x="617" y="1082.8047"/><rect fill="#FFFFFF" height="29.3105" style="stroke:#181818;stroke-width:1.0;" width="10" x="617" y="1437.2207"/><line style="stroke:#181818;stroke-width:0.5;stroke-dasharray:5.0,5.0;" x1="23" x2="23" y1="81.4883" y2="1578.4629"/><line style="stroke:#181818;stroke-width:0.5;stroke-dasharray:5.0,5.0;" x1="231.5" x2="231.5" y1="81.4883" y2="1578.4629"/><line style="stroke:#181818;stroke-width:0.5;stroke-dasharray:5.0,5.0;" x1="286.5" x2="286.5" y1="81.4883" y2="1578.4629"/><line style="stroke:#181818;stroke-width:0.5;stroke-dasharray:5.0,5.0;" x1="423" x2="423" y1="81.4883" y2="1578.4629"/><line style="stroke:#181818;stroke-width:0.5;stroke-dasharray:5.0,5.0;" x1="621.5" x2="621.5" y1="81.4883" y2="1578.4629"/><text fill="#000000" font-family="sans-serif" font-size="14" lengthAdjust="spacing" textLength="31" x="5" y="78.5352">User</text><ellipse cx="23.5" cy="13.5" fill="#E2E2F0" rx="8" ry="8" style="stroke:#181818;stroke-width:0.5;"/><path d="M23.5,21.5 L23.5,48.5 M10.5,29.5 L36.5,29.5 M23.5,48.5 L10.5,63.5 M23.5,48.5 L36.5,63.5 " fill="none" style="stroke:#181818;stroke-width:0.5;"/><text fill="#000000" font-family="sans-serif" font-size="14" lengthAdjust="spacing" textLength="31" x="5" y="1590.998">User</text><ellipse cx="23.5" cy="1602.4512" fill="#E2E2F0" rx="8" ry="8" style="stroke:#181818;stroke-width:0.5;"/><path d="M23.5,1610.4512 L23.5,1637.4512 M10.5,1618.4512 L36.5,1618.4512 M23.5,1637.4512 L10.5,1652.4512 M23.5,1637.4512 L36.5,1652.4512 " fill="none" style="stroke:#181818;stroke-width:0.5;"/><rect fill="#E2E2F0" height="30.4883" rx="2.5" ry="2.5" style="stroke:#181818;stroke-width:0.5;" width="42" x="210.5" y="50"/><text fill="#000000" font-family="sans-serif" font-size="14" lengthAdjust="spacing" textLength="28" x="217.5" y="70.5352">VCR</text><rect fill="#E2E2F0" height="30.4883" rx="2.5" ry="2.5" style="stroke:#181818;stroke-width:0.5;" width="42" x="210.5" y="1577.4629"/><text fill="#000000" font-family="sans-serif" font-size="14" lengthAdjust="spacing" textLength="28" x="217.5" y="1597.998">VCR</text><rect fill="#E2E2F0" height="30.4883" rx="2.5" ry="2.5" style="stroke:#181818;stroke-width:0.5;" width="49" x="262.5" y="50"/><text fill="#000000" font-family="sans-serif" font-size="14" lengthAdjust="spacing" textLength="35" x="269.5" y="70.5352">Head</text><rect fill="#E2E2F0" height="30.4883" rx="2.5" ry="2.5" style="stroke:#181818;stroke-width:0.5;" width="49" x="262.5" y="1577.4629"/><text fill="#000000" font-family="sans-serif" font-size="14" lengthAdjust="spacing" textLength="35" x="269.5" y="1597.998">Head</text><rect fill="#E2E2F0" height="30.4883" rx="2.5" ry="2.5" style="stroke:#181818;stroke-width:0.5;" width="84" x="381" y="50"/><text fill="#000000" font-family="sans-serif" font-size="14" lengthAdjust="spacing" textLength="70" x="388" y="70.5352">Controller</text><rect fill="#E2E2F0" height="30.4883" rx="2.5" ry="2.5" style="stroke:#181818;stroke-width:0.5;" width="84" x="381" y="1577.4629"/><text fill="#000000" font-family="sans-serif" font-size="14" lengthAdjust="spacing" textLength="70" x="388" y="1597.998">Controller</text><rect fill="#E2E2F0" height="30.4883" rx="2.5" ry="2.5" style="stroke:#181818;stroke-width:0.5;" width="55" x="594.5" y="50"/><text fill="#000000" font-family="sans-serif" font-size="14" lengthAdjust="spacing" textLength="41" x="601.5" y="70.5352">Motor</text><rect fill="#E2E2F0" height="30.4883" rx="2.5" ry="2.5" style="stroke:#181818;stroke-width:0.5;" width="55" x="594.5" y="1577.4629"/><text fill="#000000" font-family="sans-serif" font-size="14" lengthAdjust="spacing" textLength="41" x="601.5" y="1597.998">Motor</text><rect fill="#FFFFFF" height="64.6211" style="stroke:#181818;stroke-width:1.0;" width="10" x="226.5" y="112.7988"/><rect fill="#FFFFFF" height="64.6211" style="stroke:#181818;stroke-width:1.0;" width="10" x="226.5" y="206.7305"/><rect fill="#FFFFFF" height="480.3477" style="stroke:#181818;stroke-width:1.0;" width="10" x="226.5" y="300.6621"/><rect fill="#FFFFFF" height="480.3477" style="stroke:#181818;stroke-width:1.0;" width="10" x="226.5" y="810.3203"/><rect fill="#FFFFFF" height="240.4844" style="stroke:#181818;stroke-width:1.0;" width="10" x="226.5" y="1319.9785"/><rect fill="#FFFFFF" height="106.9316" style="stroke:#181818;stroke-width:1.0;" width="10" x="282" y="436.9043"/><rect fill="#FFFFFF" height="106.9316" style="stroke:#181818;stroke-width:1.0;" width="10" x="282" y="946.5625"/><rect fill="#FFFFFF" height="29.3105" style="stroke:#181818;stroke-width:1.0;" width="10" x="282" y="1378.5996"/><rect fill="#FFFFFF" height="421.7266" style="stroke:#181818;stroke-width:1.0;" width="10" x="418" y="329.9727"/><rect fill="#FFFFFF" height="421.7266" style="stroke:#181818;stroke-width:1.0;" width="10" x="418" y="839.6309"/><rect fill="#FFFFFF" height="146.5527" style="stroke:#181818;stroke-width:1.0;" width="10" x="418" y="1349.2891"/><rect fill="#FFFFFF" height="149.2422" style="stroke:#181818;stroke-width:1.0;" width="10" x="617" y="573.1465"/><rect fill="#FFFFFF" height="149.2422" style="stroke:#181818;stroke-width:1.0;" width="10" x="617" y="1082.8047"/><rect fill="#FFFFFF" height="29.3105" style="stroke:#181818;stroke-width:1.0;" width="10" x="617" y="1437.2207"/><polygon fill="#181818" points="214.5,108.7988,224.5,112.7988,214.5,116.7988,218.5,112.7988" style="stroke:#181818;stroke-width:1.0;"/><line style="stroke:#181818;stroke-width:1.0;" x1="23.5" x2="220.5" y1="112.7988" y2="112.7988"/><text fill="#000000" font-family="sans-serif" font-size="13" lengthAdjust="spacing" textLength="87" x="81.5" y="108.0566">powerButton()</text><path d="M241,125.7988 L241,150.7988 L449,150.7988 L449,135.7988 L439,125.7988 L241,125.7988 " fill="#FEFFDD" style="stroke:#181818;stroke-width:0.5;"/><path d="M439,125.7988 L439,135.7988 L449,135.7988 L439,125.7988 " fill="#FEFFDD" style="stroke:#181818;stroke-width:0.5;"/><text fill="#000000" font-family="sans-serif" font-size="13" lengthAdjust="spacing" textLength="187" x="247" y="143.3672">STANDBY &#8594; OPERATING (Idle)</text><polygon fill="#181818" points="34.5,173.4199,24.5,177.4199,34.5,181.4199,30.5,177.4199" style="stroke:#181818;stroke-width:1.0;"/><line style="stroke:#181818;stroke-width:1.0;stroke-dasharray:2.0,2.0;" x1="28.5" x2="230.5" y1="177.4199" y2="177.4199"/><text fill="#000000" font-family="sans-serif" font-size="13" lengthAdjust="spacing" textLength="94" x="80.5" y="172.6777">VCR Power: ON</text><polygon fill="#181818" points="214.5,202.7305,224.5,206.7305,214.5,210.7305,218.5,206.7305" style="stroke:#181818;stroke-width:1.0;"/><line style="stroke:#181818;stroke-width:1.0;" x1="23.5" x2="220.5" y1="206.7305" y2="206.7305"/><text fill="#000000" font-family="sans-serif" font-size="13" lengthAdjust="spacing" textLength="74" x="88" y="201.9883">insertTape()</text><path d="M241,219.7305 L241,244.7305 L345,244.7305 L345,229.7305 L335,219.7305 L241,219.7305 " fill="#FEFFDD" style="stroke:#181818;stroke-width:0.5;"/><path d="M335,219.7305 L335,229.7305 L345,229.7305 L335,219.7305 " fill="#FEFFDD" style="stroke:#181818;stroke-width:0.5;"/><text fill="#000000" font-family="sans-serif" font-size="13" lengthAdjust="spacing" textLength="83" x="247" y="237.2988">Idle &#8594; Active</text><polygon fill="#181818" points="34.5,267.3516,24.5,271.3516,34.5,275.3516,30.5,271.3516" style="stroke:#181818;stroke-width:1.0;"/><line style="stroke:#181818;stroke-width:1.0;stroke-dasharray:2.0,2.0;" x1="28.5" x2="230.5" y1="271.3516" y2="271.3516"/><text fill="#000000" font-family="sans-serif" font-size="13" lengthAdjust="spacing" textLength="179" x="38" y="266.6094">Tape inserted, system active</text><polygon fill="#181818" points="214.5,296.6621,224.5,300.6621,214.5,304.6621,218.5,300.6621" style="stroke:#181818;stroke-width:1.0;"/><line style="stroke:#181818;stroke-width:1.0;" x1="23.5" x2="220.5" y1="300.6621" y2="300.6621"/><text fill="#000000" font-family="sans-serif" font-size="13" lengthAdjust="spacing" textLength="67" x="91.5" y="295.9199">pressPlay()</text><polygon fill="#181818" points="406,325.9727,416,329.9727,406,333.9727,410,329.9727" style="stroke:#181818;stroke-width:1.0;"/><line style="stroke:#181818;stroke-width:1.0;" x1="236.5" x2="412" y1="329.9727" y2="329.9727"/><text fill="#000000" font-family="sans-serif" font-size="13" lengthAdjust="spacing" textLength="47" x="303.75" y="325.2305">evPlay()</text><path d="M433,342.9727 L433,367.9727 L615,367.9727 L615,352.9727 L605,342.9727 L433,342.9727 " fill="#FEFFDD" style="stroke:#181818;stroke-width:0.5;"/><path d="M605,342.9727 L605,352.9727 L615,352.9727 L605,342.9727 " fill="#FEFFDD" style="stroke:#181818;stroke-width:0.5;"/><text fill="#000000" font-family="sans-serif" font-size="13" lengthAdjust="spacing" textLength="161" x="439" y="360.541">Waiting &#8594; ProcessingPlay</text><line style="stroke:#181818;stroke-width:1.0;stroke-dasharray:2.0,2.0;" x1="428" x2="470" y1="394.5938" y2="394.5938"/><line style="stroke:#181818;stroke-width:1.0;stroke-dasharray:2.0,2.0;" x1="470" x2="470" y1="394.5938" y2="407.5938"/><line style="stroke:#181818;stroke-width:1.0;stroke-dasharray:2.0,2.0;" x1="429" x2="470" y1="407.5938" y2="407.5938"/><polygon fill="#181818" points="439,403.5938,429,407.5938,439,411.5938,435,407.5938" style="stroke:#181818;stroke-width:1.0;"/><text fill="#000000" font-family="sans-serif" font-size="13" lengthAdjust="spacing" textLength="154" x="435" y="389.8516">Broadcasting Engage_All</text><polygon fill="#181818" points="303,432.9043,293,436.9043,303,440.9043,299,436.9043" style="stroke:#181818;stroke-width:1.0;"/><line style="stroke:#181818;stroke-width:1.0;" x1="297" x2="417" y1="436.9043" y2="436.9043"/><text fill="#000000" font-family="sans-serif" font-size="13" lengthAdjust="spacing" textLength="86" x="312" y="432.1621">onEngageAll()</text><line style="stroke:#181818;stroke-width:1.0;stroke-dasharray:2.0,2.0;" x1="292" x2="334" y1="466.2148" y2="466.2148"/><line style="stroke:#181818;stroke-width:1.0;stroke-dasharray:2.0,2.0;" x1="334" x2="334" y1="466.2148" y2="479.2148"/><line style="stroke:#181818;stroke-width:1.0;stroke-dasharray:2.0,2.0;" x1="293" x2="334" y1="479.2148" y2="479.2148"/><polygon fill="#181818" points="303,475.2148,293,479.2148,303,483.2148,299,479.2148" style="stroke:#181818;stroke-width:1.0;"/><text fill="#000000" font-family="sans-serif" font-size="13" lengthAdjust="spacing" textLength="107" x="299" y="461.4727">state = ON_TAPE</text><path d="M297,492.2148 L297,517.2148 L437,517.2148 L437,502.2148 L427,492.2148 L297,492.2148 " fill="#FEFFDD" style="stroke:#181818;stroke-width:0.5;"/><path d="M427,492.2148 L427,502.2148 L437,502.2148 L427,492.2148 " fill="#FEFFDD" style="stroke:#181818;stroke-width:0.5;"/><text fill="#000000" font-family="sans-serif" font-size="13" lengthAdjust="spacing" textLength="119" x="303" y="509.7832">OffTape &#8594; OnTape</text><polygon fill="#181818" points="406,539.8359,416,543.8359,406,547.8359,410,543.8359" style="stroke:#181818;stroke-width:1.0;"/><line style="stroke:#181818;stroke-width:1.0;stroke-dasharray:2.0,2.0;" x1="287" x2="412" y1="543.8359" y2="543.8359"/><text fill="#000000" font-family="sans-serif" font-size="13" lengthAdjust="spacing" textLength="53" x="326" y="539.0938">(returns)</text><polygon fill="#181818" points="605,569.1465,615,573.1465,605,577.1465,609,573.1465" style="stroke:#181818;stroke-width:1.0;"/><line style="stroke:#181818;stroke-width:1.0;" x1="428" x2="611" y1="573.1465" y2="573.1465"/><text fill="#000000" font-family="sans-serif" font-size="13" lengthAdjust="spacing" textLength="86" x="479.5" y="568.4043">onEngageAll()</text><line style="stroke:#181818;stroke-width:1.0;stroke-dasharray:2.0,2.0;" x1="627" x2="669" y1="602.457" y2="602.457"/><line style="stroke:#181818;stroke-width:1.0;stroke-dasharray:2.0,2.0;" x1="669" x2="669" y1="602.457" y2="615.457"/><line style="stroke:#181818;stroke-width:1.0;stroke-dasharray:2.0,2.0;" x1="628" x2="669" y1="615.457" y2="615.457"/><polygon fill="#181818" points="638,611.457,628,615.457,638,619.457,634,615.457" style="stroke:#181818;stroke-width:1.0;"/><text fill="#000000" font-family="sans-serif" font-size="13" lengthAdjust="spacing" textLength="103" x="634" y="597.7148">state = PLAYING</text><path d="M632,628.457 L632,653.457 L770,653.457 L770,638.457 L760,628.457 L632,628.457 " fill="#FEFFDD" style="stroke:#181818;stroke-width:0.5;"/><path d="M760,628.457 L760,638.457 L770,638.457 L760,628.457 " fill="#FEFFDD" style="stroke:#181818;stroke-width:0.5;"/><text fill="#000000" font-family="sans-serif" font-size="13" lengthAdjust="spacing" textLength="117" x="638" y="646.0254">Stopped &#8594; Playing</text><line style="stroke:#181818;stroke-width:1.0;stroke-dasharray:2.0,2.0;" x1="627" x2="669" y1="680.0781" y2="680.0781"/><line style="stroke:#181818;stroke-width:1.0;stroke-dasharray:2.0,2.0;" x1="669" x2="669" y1="680.0781" y2="693.0781"/><line style="stroke:#181818;stroke-width:1.0;stroke-dasharray:2.0,2.0;" x1="628" x2="669" y1="693.0781" y2="693.0781"/><polygon fill="#181818" points="638,689.0781,628,693.0781,638,697.0781,634,693.0781" style="stroke:#181818;stroke-width:1.0;"/><text fill="#000000" font-family="sans-serif" font-size="13" lengthAdjust="spacing" textLength="100" x="634" y="675.3359">spin(3.33 cm/s)</text><polygon fill="#181818" points="439,718.3887,429,722.3887,439,726.3887,435,722.3887" style="stroke:#181818;stroke-width:1.0;"/><line style="stroke:#181818;stroke-width:1.0;stroke-dasharray:2.0,2.0;" x1="433" x2="621" y1="722.3887" y2="722.3887"/><text fill="#000000" font-family="sans-serif" font-size="13" lengthAdjust="spacing" textLength="53" x="498.5" y="717.6465">(returns)</text><polygon fill="#181818" points="247.5,747.6992,237.5,751.6992,247.5,755.6992,243.5,751.6992" style="stroke:#181818;stroke-width:1.0;"/><line style="stroke:#181818;stroke-width:1.0;stroke-dasharray:2.0,2.0;" x1="241.5" x2="422" y1="751.6992" y2="751.6992"/><text fill="#000000" font-family="sans-serif" font-size="13" lengthAdjust="spacing" textLength="53" x="303.25" y="746.957">(returns)</text><polygon fill="#181818" points="34.5,777.0098,24.5,781.0098,34.5,785.0098,30.5,781.0098" style="stroke:#181818;stroke-width:1.0;"/><line style="stroke:#181818;stroke-width:1.0;stroke-dasharray:2.0,2.0;" x1="28.5" x2="230.5" y1="781.0098" y2="781.0098"/><text fill="#000000" font-family="sans-serif" font-size="13" lengthAdjust="spacing" textLength="53" x="101" y="776.2676">(returns)</text><polygon fill="#181818" points="214.5,806.3203,224.5,810.3203,214.5,814.3203,218.5,810.3203" style="stroke:#181818;stroke-width:1.0;"/><line style="stroke:#181818;stroke-width:1.0;" x1="23.5" x2="220.5" y1="810.3203" y2="810.3203"/><text fill="#000000" font-family="sans-serif" font-size="13" lengthAdjust="spacing" textLength="70" x="90" y="805.5781">pressStop()</text><polygon fill="#181818" points="406,835.6309,416,839.6309,406,843.6309,410,839.6309" style="stroke:#181818;stroke-width:1.0;"/><line style="stroke:#181818;stroke-width:1.0;" x1="236.5" x2="412" y1="839.6309" y2="839.6309"/><text fill="#000000" font-family="sans-serif" font-size="13" lengthAdjust="spacing" textLength="50" x="302.25" y="834.8887">evStop()</text><path d="M433,852.6309 L433,877.6309 L615,877.6309 L615,862.6309 L605,852.6309 L433,852.6309 " fill="#FEFFDD" style="stroke:#181818;stroke-width:0.5;"/><path d="M605,852.6309 L605,862.6309 L615,862.6309 L605,852.6309 " fill="#FEFFDD" style="stroke:#181818;stroke-width:0.5;"/><text fill="#000000" font-family="sans-serif" font-size="13" lengthAdjust="spacing" textLength="161" x="439" y="870.1992">ProcessingPlay &#8594; Waiting</text><line style="stroke:#181818;stroke-width:1.0;stroke-dasharray:2.0,2.0;" x1="428" x2="470" y1="904.252" y2="904.252"/><line style="stroke:#181818;stroke-width:1.0;stroke-dasharray:2.0,2.0;" x1="470" x2="470" y1="904.252" y2="917.252"/><line style="stroke:#181818;stroke-width:1.0;stroke-dasharray:2.0,2.0;" x1="429" x2="470" y1="917.252" y2="917.252"/><polygon fill="#181818" points="439,913.252,429,917.252,439,921.252,435,917.252" style="stroke:#181818;stroke-width:1.0;"/><text fill="#000000" font-family="sans-serif" font-size="13" lengthAdjust="spacing" textLength="175" x="435" y="899.5098">Broadcasting Disengage_All</text><polygon fill="#181818" points="303,942.5625,293,946.5625,303,950.5625,299,946.5625" style="stroke:#181818;stroke-width:1.0;"/><line style="stroke:#181818;stroke-width:1.0;" x1="297" x2="417" y1="946.5625" y2="946.5625"/><text fill="#000000" font-family="sans-serif" font-size="13" lengthAdjust="spacing" textLength="107" x="301.5" y="941.8203">onDisengageAll()</text><line style="stroke:#181818;stroke-width:1.0;stroke-dasharray:2.0,2.0;" x1="292" x2="334" y1="975.873" y2="975.873"/><line style="stroke:#181818;stroke-width:1.0;stroke-dasharray:2.0,2.0;" x1="334" x2="334" y1="975.873" y2="988.873"/><line style="stroke:#181818;stroke-width:1.0;stroke-dasharray:2.0,2.0;" x1="293" x2="334" y1="988.873" y2="988.873"/><polygon fill="#181818" points="303,984.873,293,988.873,303,992.873,299,988.873" style="stroke:#181818;stroke-width:1.0;"/><text fill="#000000" font-family="sans-serif" font-size="13" lengthAdjust="spacing" textLength="111" x="299" y="971.1309">state = OFF_TAPE</text><path d="M297,1001.873 L297,1026.873 L437,1026.873 L437,1011.873 L427,1001.873 L297,1001.873 " fill="#FEFFDD" style="stroke:#181818;stroke-width:0.5;"/><path d="M427,1001.873 L427,1011.873 L437,1011.873 L427,1001.873 " fill="#FEFFDD" style="stroke:#181818;stroke-width:0.5;"/><text fill="#000000" font-family="sans-serif" font-size="13" lengthAdjust="spacing" textLength="119" x="303" y="1019.4414">OnTape &#8594; OffTape</text><polygon fill="#181818" points="406,1049.4941,416,1053.4941,406,1057.4941,410,1053.4941" style="stroke:#181818;stroke-width:1.0;"/><line style="stroke:#181818;stroke-width:1.0;stroke-dasharray:2.0,2.0;" x1="287" x2="412" y1="1053.4941" y2="1053.4941"/><text fill="#000000" font-family="sans-serif" font-size="13" lengthAdjust="spacing" textLength="53" x="326" y="1048.752">(returns)</text><polygon fill="#181818" points="605,1078.8047,615,1082.8047,605,1086.8047,609,1082.8047" style="stroke:#181818;stroke-width:1.0;"/><line style="stroke:#181818;stroke-width:1.0;" x1="428" x2="611" y1="1082.8047" y2="1082.8047"/><text fill="#000000" font-family="sans-serif" font-size="13" lengthAdjust="spacing" textLength="107" x="469" y="1078.0625">onDisengageAll()</text><line style="stroke:#181818;stroke-width:1.0;stroke-dasharray:2.0,2.0;" x1="627" x2="669" y1="1112.1152" y2="1112.1152"/><line style="stroke:#181818;stroke-width:1.0;stroke-dasharray:2.0,2.0;" x1="669" x2="669" y1="1112.1152" y2="1125.1152"/><line style="stroke:#181818;stroke-width:1.0;stroke-dasharray:2.0,2.0;" x1="628" x2="669" y1="1125.1152" y2="1125.1152"/><polygon fill="#181818" points="638,1121.1152,628,1125.1152,638,1129.1152,634,1125.1152" style="stroke:#181818;stroke-width:1.0;"/><text fill="#000000" font-family="sans-serif" font-size="13" lengthAdjust="spacing" textLength="105" x="634" y="1107.373">state = STOPPED</text><path d="M632,1138.1152 L632,1163.1152 L770,1163.1152 L770,1148.1152 L760,1138.1152 L632,1138.1152 " fill="#FEFFDD" style="stroke:#181818;stroke-width:0.5;"/><path d="M760,1138.1152 L760,1148.1152 L770,1148.1152 L760,1138.1152 " fill="#FEFFDD" style="stroke:#181818;stroke-width:0.5;"/><text fill="#000000" font-family="sans-serif" font-size="13" lengthAdjust="spacing" textLength="117" x="638" y="1155.6836">Playing &#8594; Stopped</text><line style="stroke:#181818;stroke-width:1.0;stroke-dasharray:2.0,2.0;" x1="627" x2="669" y1="1189.7363" y2="1189.7363"/><line style="stroke:#181818;stroke-width:1.0;stroke-dasharray:2.0,2.0;" x1="669" x2="669" y1="1189.7363" y2="1202.7363"/><line style="stroke:#181818;stroke-width:1.0;stroke-dasharray:2.0,2.0;" x1="628" x2="669" y1="1202.7363" y2="1202.7363"/><polygon fill="#181818" points="638,1198.7363,628,1202.7363,638,1206.7363,634,1202.7363" style="stroke:#181818;stroke-width:1.0;"/><text fill="#000000" font-family="sans-serif" font-size="13" lengthAdjust="spacing" textLength="83" x="634" y="1184.9941">applyBrakes()</text><polygon fill="#181818" points="439,1228.0469,429,1232.0469,439,1236.0469,435,1232.0469" style="stroke:#181818;stroke-width:1.0;"/><line style="stroke:#181818;stroke-width:1.0;stroke-dasharray:2.0,2.0;" x1="433" x2="621" y1="1232.0469" y2="1232.0469"/><text fill="#000000" font-family="sans-serif" font-size="13" lengthAdjust="spacing" textLength="53" x="498.5" y="1227.3047">(returns)</text><polygon fill="#181818" points="247.5,1257.3574,237.5,1261.3574,247.5,1265.3574,243.5,1261.3574" style="stroke:#181818;stroke-width:1.0;"/><line style="stroke:#181818;stroke-width:1.0;stroke-dasharray:2.0,2.0;" x1="241.5" x2="422" y1="1261.3574" y2="1261.3574"/><text fill="#000000" font-family="sans-serif" font-size="13" lengthAdjust="spacing" textLength="53" x="303.25" y="1256.6152">(returns)</text><polygon fill="#181818" points="34.5,1286.668,24.5,1290.668,34.5,1294.668,30.5,1290.668" style="stroke:#181818;stroke-width:1.0;"/><line style="stroke:#181818;stroke-width:1.0;stroke-dasharray:2.0,2.0;" x1="28.5" x2="230.5" y1="1290.668" y2="1290.668"/><text fill="#000000" font-family="sans-serif" font-size="13" lengthAdjust="spacing" textLength="53" x="101" y="1285.9258">(returns)</text><polygon fill="#181818" points="214.5,1315.9785,224.5,1319.9785,214.5,1323.9785,218.5,1319.9785" style="stroke:#181818;stroke-width:1.0;"/><line style="stroke:#181818;stroke-width:1.0;" x1="23.5" x2="220.5" y1="1319.9785" y2="1319.9785"/><text fill="#000000" font-family="sans-serif" font-size="13" lengthAdjust="spacing" textLength="68" x="91" y="1315.2363">ejectTape()</text><polygon fill="#181818" points="406,1345.2891,416,1349.2891,406,1353.2891,410,1349.2891" style="stroke:#181818;stroke-width:1.0;"/><line style="stroke:#181818;stroke-width:1.0;" x1="236.5" x2="412" y1="1349.2891" y2="1349.2891"/><text fill="#000000" font-family="sans-serif" font-size="13" lengthAdjust="spacing" textLength="50" x="302.25" y="1344.5469">evStop()</text><polygon fill="#181818" points="303,1374.5996,293,1378.5996,303,1382.5996,299,1378.5996" style="stroke:#181818;stroke-width:1.0;"/><line style="stroke:#181818;stroke-width:1.0;" x1="297" x2="417" y1="1378.5996" y2="1378.5996"/><text fill="#000000" font-family="sans-serif" font-size="13" lengthAdjust="spacing" textLength="107" x="301.5" y="1373.8574">onDisengageAll()</text><polygon fill="#181818" points="406,1403.9102,416,1407.9102,406,1411.9102,410,1407.9102" style="stroke:#181818;stroke-width:1.0;"/><line style="stroke:#181818;stroke-width:1.0;stroke-dasharray:2.0,2.0;" x1="287" x2="412" y1="1407.9102" y2="1407.9102"/><text fill="#000000" font-family="sans-serif" font-size="13" lengthAdjust="spacing" textLength="53" x="326" y="1403.168">(returns)</text><polygon fill="#181818" points="605,1433.2207,615,1437.2207,605,1441.2207,609,1437.2207" style="stroke:#181818;stroke-width:1.0;"/><line style="stroke:#181818;stroke-width:1.0;" x1="428" x2="611" y1="1437.2207" y2="1437.2207"/><text fill="#000000" font-family="sans-serif" font-size="13" lengthAdjust="spacing" textLength="107" x="469" y="1432.4785">onDisengageAll()</text><polygon fill="#181818" points="439,1462.5313,429,1466.5313,439,1470.5313,435,1466.5313" style="stroke:#181818;stroke-width:1.0;"/><line style="stroke:#181818;stroke-width:1.0;stroke-dasharray:2.0,2.0;" x1="433" x2="621" y1="1466.5313" y2="1466.5313"/><text fill="#000000" font-family="sans-serif" font-size="13" lengthAdjust="spacing" textLength="53" x="498.5" y="1461.7891">(returns)</text><polygon fill="#181818" points="247.5,1491.8418,237.5,1495.8418,247.5,1499.8418,243.5,1495.8418" style="stroke:#181818;stroke-width:1.0;"/><line style="stroke:#181818;stroke-width:1.0;stroke-dasharray:2.0,2.0;" x1="241.5" x2="422" y1="1495.8418" y2="1495.8418"/><text fill="#000000" font-family="sans-serif" font-size="13" lengthAdjust="spacing" textLength="53" x="303.25" y="1491.0996">(returns)</text><path d="M241,1508.8418 L241,1533.8418 L345,1533.8418 L345,1518.8418 L335,1508.8418 L241,1508.8418 " fill="#FEFFDD" style="stroke:#181818;stroke-width:0.5;"/><path d="M335,1508.8418 L335,1518.8418 L345,1518.8418 L335,1508.8418 " fill="#FEFFDD" style="stroke:#181818;stroke-width:0.5;"/><text fill="#000000" font-family="sans-serif" font-size="13" lengthAdjust="spacing" textLength="83" x="247" y="1526.4102">Active &#8594; Idle</text><polygon fill="#181818" points="34.5,1556.4629,24.5,1560.4629,34.5,1564.4629,30.5,1560.4629" style="stroke:#181818;stroke-width:1.0;"/><line style="stroke:#181818;stroke-width:1.0;stroke-dasharray:2.0,2.0;" x1="28.5" x2="230.5" y1="1560.4629" y2="1560.4629"/><text fill="#000000" font-family="sans-serif" font-size="13" lengthAdjust="spacing" textLength="76" x="89.5" y="1555.7207">tape ejected</text><!--SRC=[pPLDRjim48NtEWMNCj2q2-y4r80SEsc0nXPYjKLM0I6DLJOooP9q2b-W1-WHUv8EHsejCNBie3_eHg3inpUFCvzDUo-avePls0e-Rq4MS0tMyWhIMbII5I0Tc2ZYXLE6lREuHhKJXT1SElR-_ARt_WPusVlWN4bdL5q7-wuLsaMHzsDd4s-JCAs-W9bkdLCo7lc2ue4xe19IuSA8wgDZQjseLtcwc4rlsVUltzWocz-a-TNYaiLNPGsZ21Ni37szV-BrBFFc2LikeX9wrlqCGkARoxc64oBuMbG_zK88gdgJrW_A5ypkh8CDuutqoH3Qu0Iock_235HWqkbfmk0X57Owti_StVQ12oTaHUapemeiYA_UAjhBw33TNLEZU5bmIrldia9AxjAwZdfx9WH1mfHi52ZenYD2_8FS6wbr_flNE9sxFCtcGUv6irolgQCqR-cNUvTknjY0snffHzqUKz4W9I5uC6O3A3sfHAl-cJHxczuYRq7ILhHoIciec-PYIx5R0qvQo7ZySZncnUOLfjqBZfwc_V44Wo9q1lKT8lg83geFyEWFTHAFeV0a7liCKkTQH4_cSIOi74Nob-WvL5vSF86bt5FP4Fgdi3mKzGYPgtoPPVFPC9ajZHItfVIn4zUwtaqDlmSR_zTSmYSe1l-hdylbxx3oRuRyDti_SBCr5nfXuY-vO3pE4q_DHto22Vq0]--></g></svg>