<?xml version="1.0" encoding="us-ascii" standalone="no"?><svg xmlns="http://www.w3.org/2000/svg" xmlns:xlink="http://www.w3.org/1999/xlink" contentStyleType="text/css" height="1206px" preserveAspectRatio="none" style="width:948px;height:1206px;background:#FFFFFF;" version="1.1" viewBox="0 0 948 1206" width="948px" zoomAndPan="magnify"><defs/><g><!--class VCRListener--><g id="elem_VCRListener"><rect codeLine="2" fill="#F1F1F1" height="89.5977" id="VCRListener" rx="2.5" ry="2.5" style="stroke:#181818;stroke-width:0.5;" width="181" x="611" y="660.97"/><ellipse cx="656.25" cy="681.2805" fill="#B4A7E5" rx="11" ry="11" style="stroke:#181818;stroke-width:1.0;"/><path d="M652.6777,677.5457 L652.6777,675.3875 L660.0571,675.3875 L660.0571,677.5457 L657.5918,677.5457 L657.5918,685.6223 L660.0571,685.6223 L660.0571,687.7805 L652.6777,687.7805 L652.6777,685.6223 L655.1431,685.6223 L655.1431,677.5457 Z " fill="#000000"/><text fill="#000000" font-family="sans-serif" font-size="12" font-style="italic" lengthAdjust="spacing" textLength="62" x="686.75" y="677.5716">&#171;interface&#187;</text><text fill="#000000" font-family="sans-serif" font-size="14" font-style="italic" lengthAdjust="spacing" textLength="82" x="676.75" y="693.638">VCRListener</text><line style="stroke:#181818;stroke-width:0.5;" x1="612" x2="791" y1="701.5911" y2="701.5911"/><line style="stroke:#181818;stroke-width:0.5;" x1="612" x2="791" y1="709.5911" y2="709.5911"/><ellipse cx="622" cy="723.3352" fill="#84BE84" rx="3" ry="3" style="stroke:#038048;stroke-width:1.0;"/><text fill="#000000" font-family="sans-serif" font-size="14" font-style="italic" lengthAdjust="spacing" textLength="134" x="631" y="727.1262">onEngageAll(): void</text><ellipse cx="622" cy="739.8235" fill="#84BE84" rx="3" ry="3" style="stroke:#038048;stroke-width:1.0;"/><text fill="#000000" font-family="sans-serif" font-size="14" font-style="italic" lengthAdjust="spacing" textLength="155" x="631" y="743.6145">onDisengageAll(): void</text></g><!--class VCRPowerState--><g id="elem_VCRPowerState"><rect codeLine="7" fill="#F1F1F1" height="106.0859" id="VCRPowerState" rx="2.5" ry="2.5" style="stroke:#181818;stroke-width:0.5;" width="143" x="7" y="449.22"/><ellipse cx="25.15" cy="469.5305" fill="#EB937F" rx="11" ry="11" style="stroke:#181818;stroke-width:1.0;"/><path d="M28.7643,476.0305 L21.0445,476.0305 L21.0445,463.6375 L28.7643,463.6375 L28.7643,465.7957 L23.4933,465.7957 L23.4933,468.4685 L28.2662,468.4685 L28.2662,470.6267 L23.4933,470.6267 L23.4933,473.8723 L28.7643,473.8723 Z " fill="#000000"/><text fill="#000000" font-family="sans-serif" font-size="12" font-style="italic" lengthAdjust="spacing" textLength="84" x="49.85" y="465.8216">&#171;enumeration&#187;</text><text fill="#000000" font-family="sans-serif" font-size="14" lengthAdjust="spacing" textLength="104" x="39.85" y="481.888">VCRPowerState</text><line style="stroke:#181818;stroke-width:0.5;" x1="8" x2="149" y1="489.8411" y2="489.8411"/><text fill="#000000" font-family="sans-serif" font-size="14" lengthAdjust="spacing" textLength="64" x="13" y="507.3762">STANDBY</text><text fill="#000000" font-family="sans-serif" font-size="14" lengthAdjust="spacing" textLength="79" x="13" y="523.8645">OPERATING</text><line style="stroke:#181818;stroke-width:0.5;" x1="8" x2="149" y1="530.8177" y2="530.8177"/><ellipse cx="18" cy="544.5618" fill="#84BE84" rx="3" ry="3" style="stroke:#038048;stroke-width:1.0;"/><text fill="#000000" font-family="sans-serif" font-size="14" lengthAdjust="spacing" textLength="117" x="27" y="548.3528">getLabel(): String</text></g><!--class OperatingState--><g id="elem_OperatingState"><rect codeLine="13" fill="#F1F1F1" height="106.0859" id="OperatingState" rx="2.5" ry="2.5" style="stroke:#181818;stroke-width:0.5;" width="143" x="185" y="449.22"/><ellipse cx="203.6" cy="469.5305" fill="#EB937F" rx="11" ry="11" style="stroke:#181818;stroke-width:1.0;"/><path d="M207.2143,476.0305 L199.4945,476.0305 L199.4945,463.6375 L207.2143,463.6375 L207.2143,465.7957 L201.9433,465.7957 L201.9433,468.4685 L206.7162,468.4685 L206.7162,470.6267 L201.9433,470.6267 L201.9433,473.8723 L207.2143,473.8723 Z " fill="#000000"/><text fill="#000000" font-family="sans-serif" font-size="12" font-style="italic" lengthAdjust="spacing" textLength="84" x="227.9" y="465.8216">&#171;enumeration&#187;</text><text fill="#000000" font-family="sans-serif" font-size="14" lengthAdjust="spacing" textLength="103" x="218.4" y="481.888">OperatingState</text><line style="stroke:#181818;stroke-width:0.5;" x1="186" x2="327" y1="489.8411" y2="489.8411"/><text fill="#000000" font-family="sans-serif" font-size="14" lengthAdjust="spacing" textLength="29" x="191" y="507.3762">IDLE</text><text fill="#000000" font-family="sans-serif" font-size="14" lengthAdjust="spacing" textLength="50" x="191" y="523.8645">ACTIVE</text><line style="stroke:#181818;stroke-width:0.5;" x1="186" x2="327" y1="530.8177" y2="530.8177"/><ellipse cx="196" cy="544.5618" fill="#84BE84" rx="3" ry="3" style="stroke:#038048;stroke-width:1.0;"/><text fill="#000000" font-family="sans-serif" font-size="14" lengthAdjust="spacing" textLength="117" x="205" y="548.3528">getLabel(): String</text></g><!--class HeadState--><g id="elem_HeadState"><rect codeLine="19" fill="#F1F1F1" height="106.0859" id="HeadState" rx="2.5" ry="2.5" style="stroke:#181818;stroke-width:0.5;" width="143" x="350" y="1093.2"/><ellipse cx="378.95" cy="1113.5105" fill="#EB937F" rx="11" ry="11" style="stroke:#181818;stroke-width:1.0;"/><path d="M382.5643,1120.0105 L374.8445,1120.0105 L374.8445,1107.6175 L382.5643,1107.6175 L382.5643,1109.7757 L377.2933,1109.7757 L377.2933,1112.4485 L382.0662,1112.4485 L382.0662,1114.6067 L377.2933,1114.6067 L377.2933,1117.8523 L382.5643,1117.8523 Z " fill="#000000"/><text fill="#000000" font-family="sans-serif" font-size="12" font-style="italic" lengthAdjust="spacing" textLength="84" x="394.05" y="1109.8016">&#171;enumeration&#187;</text><text fill="#000000" font-family="sans-serif" font-size="14" lengthAdjust="spacing" textLength="69" x="401.55" y="1125.868">HeadState</text><line style="stroke:#181818;stroke-width:0.5;" x1="351" x2="492" y1="1133.8211" y2="1133.8211"/><text fill="#000000" font-family="sans-serif" font-size="14" lengthAdjust="spacing" textLength="69" x="356" y="1151.3563">OFF_TAPE</text><text fill="#000000" font-family="sans-serif" font-size="14" lengthAdjust="spacing" textLength="63" x="356" y="1167.8445">ON_TAPE</text><line style="stroke:#181818;stroke-width:0.5;" x1="351" x2="492" y1="1174.7977" y2="1174.7977"/><ellipse cx="361" cy="1188.5418" fill="#84BE84" rx="3" ry="3" style="stroke:#038048;stroke-width:1.0;"/><text fill="#000000" font-family="sans-serif" font-size="14" lengthAdjust="spacing" textLength="117" x="370" y="1192.3328">getLabel(): String</text></g><!--class MotorState--><g id="elem_MotorState"><rect codeLine="25" fill="#F1F1F1" height="106.0859" id="MotorState" rx="2.5" ry="2.5" style="stroke:#181818;stroke-width:0.5;" width="143" x="734" y="1093.2"/><ellipse cx="762.95" cy="1113.5105" fill="#EB937F" rx="11" ry="11" style="stroke:#181818;stroke-width:1.0;"/><path d="M766.5643,1120.0105 L758.8445,1120.0105 L758.8445,1107.6175 L766.5643,1107.6175 L766.5643,1109.7757 L761.2933,1109.7757 L761.2933,1112.4485 L766.0662,1112.4485 L766.0662,1114.6067 L761.2933,1114.6067 L761.2933,1117.8523 L766.5643,1117.8523 Z " fill="#000000"/><text fill="#000000" font-family="sans-serif" font-size="12" font-style="italic" lengthAdjust="spacing" textLength="84" x="778.05" y="1109.8016">&#171;enumeration&#187;</text><text fill="#000000" font-family="sans-serif" font-size="14" lengthAdjust="spacing" textLength="75" x="782.55" y="1125.868">MotorState</text><line style="stroke:#181818;stroke-width:0.5;" x1="735" x2="876" y1="1133.8211" y2="1133.8211"/><text fill="#000000" font-family="sans-serif" font-size="14" lengthAdjust="spacing" textLength="62" x="740" y="1151.3563">STOPPED</text><text fill="#000000" font-family="sans-serif" font-size="14" lengthAdjust="spacing" textLength="58" x="740" y="1167.8445">PLAYING</text><line style="stroke:#181818;stroke-width:0.5;" x1="735" x2="876" y1="1174.7977" y2="1174.7977"/><ellipse cx="745" cy="1188.5418" fill="#84BE84" rx="3" ry="3" style="stroke:#038048;stroke-width:1.0;"/><text fill="#000000" font-family="sans-serif" font-size="14" lengthAdjust="spacing" textLength="117" x="754" y="1192.3328">getLabel(): String</text></g><!--class ControllerState--><g id="elem_ControllerState"><rect codeLine="31" fill="#F1F1F1" height="106.0859" id="ControllerState" rx="2.5" ry="2.5" style="stroke:#181818;stroke-width:0.5;" width="143" x="433" y="652.72"/><ellipse cx="451.15" cy="673.0305" fill="#EB937F" rx="11" ry="11" style="stroke:#181818;stroke-width:1.0;"/><path d="M454.7643,679.5305 L447.0445,679.5305 L447.0445,667.1375 L454.7643,667.1375 L454.7643,669.2957 L449.4933,669.2957 L449.4933,671.9685 L454.2662,671.9685 L454.2662,674.1267 L449.4933,674.1267 L449.4933,677.3723 L454.7643,677.3723 Z " fill="#000000"/><text fill="#000000" font-family="sans-serif" font-size="12" font-style="italic" lengthAdjust="spacing" textLength="84" x="475.85" y="669.3216">&#171;enumeration&#187;</text><text fill="#000000" font-family="sans-serif" font-size="14" lengthAdjust="spacing" textLength="104" x="465.85" y="685.388">ControllerState</text><line style="stroke:#181818;stroke-width:0.5;" x1="434" x2="575" y1="693.3411" y2="693.3411"/><text fill="#000000" font-family="sans-serif" font-size="14" lengthAdjust="spacing" textLength="59" x="439" y="710.8762">WAITING</text><text fill="#000000" font-family="sans-serif" font-size="14" lengthAdjust="spacing" textLength="127" x="439" y="727.3645">PROCESSING_PLAY</text><line style="stroke:#181818;stroke-width:0.5;" x1="434" x2="575" y1="734.3177" y2="734.3177"/><ellipse cx="444" cy="748.0618" fill="#84BE84" rx="3" ry="3" style="stroke:#038048;stroke-width:1.0;"/><text fill="#000000" font-family="sans-serif" font-size="14" lengthAdjust="spacing" textLength="117" x="453" y="751.8528">getLabel(): String</text></g><!--class VCR--><g id="elem_VCR"><rect codeLine="37" fill="#F1F1F1" height="344.7891" id="VCR" rx="2.5" ry="2.5" style="stroke:#181818;stroke-width:0.5;" width="272" x="244.5" y="7"/><ellipse cx="362.25" cy="23" fill="#ADD1B2" rx="11" ry="11" style="stroke:#181818;stroke-width:1.0;"/><path d="M364.7231,29.1431 Q364.1421,29.4419 363.5029,29.5913 Q362.8638,29.7407 362.1582,29.7407 Q359.6514,29.7407 358.3315,28.0889 Q357.0117,26.437 357.0117,23.3159 Q357.0117,20.1865 358.3315,18.5347 Q359.6514,16.8828 362.1582,16.8828 Q362.8638,16.8828 363.5112,17.0322 Q364.1587,17.1816 364.7231,17.4805 L364.7231,20.2031 Q364.0923,19.6221 363.4988,19.3523 Q362.9053,19.0825 362.2744,19.0825 Q360.9297,19.0825 360.2449,20.1492 Q359.5601,21.2158 359.5601,23.3159 Q359.5601,25.4077 360.2449,26.4744 Q360.9297,27.541 362.2744,27.541 Q362.9053,27.541 363.4988,27.2712 Q364.0923,27.0015 364.7231,26.4204 Z " fill="#000000"/><text fill="#000000" font-family="sans-serif" font-size="14" lengthAdjust="spacing" textLength="28" x="382.75" y="28.291">VCR</text><line style="stroke:#181818;stroke-width:0.5;" x1="245.5" x2="515.5" y1="39" y2="39"/><rect fill="none" height="6" style="stroke:#C82930;stroke-width:1.0;" width="6" x="252.5" y="49.7441"/><text fill="#000000" font-family="sans-serif" font-size="14" lengthAdjust="spacing" textLength="189" x="264.5" y="56.5352">powerState: VCRPowerState</text><rect fill="none" height="6" style="stroke:#C82930;stroke-width:1.0;" width="6" x="252.5" y="66.2324"/><text fill="#000000" font-family="sans-serif" font-size="14" lengthAdjust="spacing" textLength="212" x="264.5" y="73.0234">operatingState: OperatingState</text><rect fill="none" height="6" style="stroke:#C82930;stroke-width:1.0;" width="6" x="252.5" y="82.7207"/><text fill="#000000" font-family="sans-serif" font-size="14" lengthAdjust="spacing" textLength="144" x="264.5" y="89.5117">tapeLoaded: boolean</text><rect fill="none" height="6" style="stroke:#C82930;stroke-width:1.0;" width="6" x="252.5" y="99.209"/><text fill="#000000" font-family="sans-serif" font-size="14" lengthAdjust="spacing" textLength="77" x="264.5" y="106">head: Head</text><rect fill="none" height="6" style="stroke:#C82930;stroke-width:1.0;" width="6" x="252.5" y="115.6973"/><text fill="#000000" font-family="sans-serif" font-size="14" lengthAdjust="spacing" textLength="91" x="264.5" y="122.4883">motor: Motor</text><rect fill="none" height="6" style="stroke:#C82930;stroke-width:1.0;" width="6" x="252.5" y="132.1855"/><text fill="#000000" font-family="sans-serif" font-size="14" lengthAdjust="spacing" textLength="145" x="264.5" y="138.9766">controller: Controller</text><line style="stroke:#181818;stroke-width:0.5;" x1="245.5" x2="515.5" y1="145.9297" y2="145.9297"/><ellipse cx="255.5" cy="159.6738" fill="#84BE84" rx="3" ry="3" style="stroke:#038048;stroke-width:1.0;"/><text fill="#000000" font-family="sans-serif" font-size="14" lengthAdjust="spacing" textLength="38" x="264.5" y="163.4648">VCR()</text><ellipse cx="255.5" cy="176.1621" fill="#84BE84" rx="3" ry="3" style="stroke:#038048;stroke-width:1.0;"/><text fill="#000000" font-family="sans-serif" font-size="14" lengthAdjust="spacing" textLength="135" x="264.5" y="179.9531">powerButton(): void</text><ellipse cx="255.5" cy="192.6504" fill="#84BE84" rx="3" ry="3" style="stroke:#038048;stroke-width:1.0;"/><text fill="#000000" font-family="sans-serif" font-size="14" lengthAdjust="spacing" textLength="120" x="264.5" y="196.4414">insertTape(): void</text><ellipse cx="255.5" cy="209.1387" fill="#84BE84" rx="3" ry="3" style="stroke:#038048;stroke-width:1.0;"/><text fill="#000000" font-family="sans-serif" font-size="14" lengthAdjust="spacing" textLength="113" x="264.5" y="212.9297">ejectTape(): void</text><ellipse cx="255.5" cy="225.627" fill="#84BE84" rx="3" ry="3" style="stroke:#038048;stroke-width:1.0;"/><text fill="#000000" font-family="sans-serif" font-size="14" lengthAdjust="spacing" textLength="111" x="264.5" y="229.418">pressPlay(): void</text><ellipse cx="255.5" cy="242.1152" fill="#84BE84" rx="3" ry="3" style="stroke:#038048;stroke-width:1.0;"/><text fill="#000000" font-family="sans-serif" font-size="14" lengthAdjust="spacing" textLength="115" x="264.5" y="245.9063">pressStop(): void</text><ellipse cx="255.5" cy="258.6035" fill="#84BE84" rx="3" ry="3" style="stroke:#038048;stroke-width:1.0;"/><text fill="#000000" font-family="sans-serif" font-size="14" lengthAdjust="spacing" textLength="220" x="264.5" y="262.3945">getPowerState(): VCRPowerState</text><ellipse cx="255.5" cy="275.0918" fill="#84BE84" rx="3" ry="3" style="stroke:#038048;stroke-width:1.0;"/><text fill="#000000" font-family="sans-serif" font-size="14" lengthAdjust="spacing" textLength="246" x="264.5" y="278.8828">getOperatingState(): OperatingState</text><ellipse cx="255.5" cy="291.5801" fill="#84BE84" rx="3" ry="3" style="stroke:#038048;stroke-width:1.0;"/><text fill="#000000" font-family="sans-serif" font-size="14" lengthAdjust="spacing" textLength="169" x="264.5" y="295.3711">isTapeLoaded(): boolean</text><ellipse cx="255.5" cy="308.0684" fill="#84BE84" rx="3" ry="3" style="stroke:#038048;stroke-width:1.0;"/><text fill="#000000" font-family="sans-serif" font-size="14" lengthAdjust="spacing" textLength="110" x="264.5" y="311.8594">getHead(): Head</text><ellipse cx="255.5" cy="324.5566" fill="#84BE84" rx="3" ry="3" style="stroke:#038048;stroke-width:1.0;"/><text fill="#000000" font-family="sans-serif" font-size="14" lengthAdjust="spacing" textLength="122" x="264.5" y="328.3477">getMotor(): Motor</text><ellipse cx="255.5" cy="341.0449" fill="#84BE84" rx="3" ry="3" style="stroke:#038048;stroke-width:1.0;"/><text fill="#000000" font-family="sans-serif" font-size="14" lengthAdjust="spacing" textLength="180" x="264.5" y="344.8359">getController(): Controller</text></g><!--class Controller--><g id="elem_Controller"><rect codeLine="59" fill="#F1F1F1" height="146.9297" id="Controller" rx="2.5" ry="2.5" style="stroke:#181818;stroke-width:0.5;" width="266" x="433.5" y="428.79"/><ellipse cx="527.25" cy="444.79" fill="#ADD1B2" rx="11" ry="11" style="stroke:#181818;stroke-width:1.0;"/><path d="M529.7231,450.9331 Q529.1421,451.2319 528.5029,451.3813 Q527.8638,451.5307 527.1582,451.5307 Q524.6514,451.5307 523.3315,449.8789 Q522.0117,448.227 522.0117,445.1059 Q522.0117,441.9765 523.3315,440.3247 Q524.6514,438.6728 527.1582,438.6728 Q527.8638,438.6728 528.5112,438.8222 Q529.1587,438.9716 529.7231,439.2705 L529.7231,441.9931 Q529.0923,441.4121 528.4988,441.1423 Q527.9053,440.8725 527.2744,440.8725 Q525.9297,440.8725 525.2449,441.9392 Q524.5601,443.0058 524.5601,445.1059 Q524.5601,447.1977 525.2449,448.2644 Q525.9297,449.331 527.2744,449.331 Q527.9053,449.331 528.4988,449.0612 Q529.0923,448.7915 529.7231,448.2104 Z " fill="#000000"/><text fill="#000000" font-family="sans-serif" font-size="14" lengthAdjust="spacing" textLength="70" x="547.75" y="450.081">Controller</text><line style="stroke:#181818;stroke-width:0.5;" x1="434.5" x2="698.5" y1="460.79" y2="460.79"/><rect fill="none" height="6" style="stroke:#C82930;stroke-width:1.0;" width="6" x="441.5" y="471.5341"/><text fill="#000000" font-family="sans-serif" font-size="14" lengthAdjust="spacing" textLength="185" x="453.5" y="478.3252">components: VCRListener[]</text><rect fill="none" height="6" style="stroke:#C82930;stroke-width:1.0;" width="6" x="441.5" y="488.0224"/><text fill="#000000" font-family="sans-serif" font-size="14" lengthAdjust="spacing" textLength="145" x="453.5" y="494.8134">state: ControllerState</text><line style="stroke:#181818;stroke-width:0.5;" x1="434.5" x2="698.5" y1="501.7666" y2="501.7666"/><ellipse cx="444.5" cy="515.5107" fill="#84BE84" rx="3" ry="3" style="stroke:#038048;stroke-width:1.0;"/><text fill="#000000" font-family="sans-serif" font-size="14" lengthAdjust="spacing" textLength="240" x="453.5" y="519.3017">Controller(listeners: VCRListener...)</text><ellipse cx="444.5" cy="531.999" fill="#84BE84" rx="3" ry="3" style="stroke:#038048;stroke-width:1.0;"/><text fill="#000000" font-family="sans-serif" font-size="14" lengthAdjust="spacing" textLength="89" x="453.5" y="535.79">evPlay(): void</text><ellipse cx="444.5" cy="548.4873" fill="#84BE84" rx="3" ry="3" style="stroke:#038048;stroke-width:1.0;"/><text fill="#000000" font-family="sans-serif" font-size="14" lengthAdjust="spacing" textLength="93" x="453.5" y="552.2783">evStop(): void</text><ellipse cx="444.5" cy="564.9755" fill="#84BE84" rx="3" ry="3" style="stroke:#038048;stroke-width:1.0;"/><text fill="#000000" font-family="sans-serif" font-size="14" lengthAdjust="spacing" textLength="178" x="453.5" y="568.7666">getState(): ControllerState</text></g><!--class Head--><g id="elem_Head"><rect codeLine="69" fill="#F1F1F1" height="146.9297" id="Head" rx="2.5" ry="2.5" style="stroke:#181818;stroke-width:0.5;" width="266" x="288.5" y="844.54"/><ellipse cx="399.75" cy="860.54" fill="#ADD1B2" rx="11" ry="11" style="stroke:#181818;stroke-width:1.0;"/><path d="M402.2231,866.6831 Q401.6421,866.9819 401.0029,867.1313 Q400.3638,867.2807 399.6582,867.2807 Q397.1514,867.2807 395.8315,865.6289 Q394.5117,863.977 394.5117,860.8559 Q394.5117,857.7265 395.8315,856.0747 Q397.1514,854.4228 399.6582,854.4228 Q400.3638,854.4228 401.0112,854.5722 Q401.6587,854.7216 402.2231,855.0205 L402.2231,857.7431 Q401.5923,857.1621 400.9988,856.8923 Q400.4053,856.6225 399.7744,856.6225 Q398.4297,856.6225 397.7449,857.6892 Q397.0601,858.7558 397.0601,860.8559 Q397.0601,862.9477 397.7449,864.0144 Q398.4297,865.081 399.7744,865.081 Q400.4053,865.081 400.9988,864.8112 Q401.5923,864.5415 402.2231,863.9604 Z " fill="#000000"/><text fill="#000000" font-family="sans-serif" font-size="14" lengthAdjust="spacing" textLength="35" x="420.25" y="865.831">Head</text><line style="stroke:#181818;stroke-width:0.5;" x1="289.5" x2="553.5" y1="876.54" y2="876.54"/><rect fill="none" height="6" style="stroke:#C82930;stroke-width:1.0;" width="6" x="296.5" y="887.2841"/><text fill="#000000" font-family="sans-serif" font-size="14" lengthAdjust="spacing" textLength="110" x="308.5" y="894.0752">state: HeadState</text><line style="stroke:#181818;stroke-width:0.5;" x1="289.5" x2="553.5" y1="901.0283" y2="901.0283"/><ellipse cx="299.5" cy="914.7724" fill="#84BE84" rx="3" ry="3" style="stroke:#038048;stroke-width:1.0;"/><text fill="#000000" font-family="sans-serif" font-size="14" lengthAdjust="spacing" textLength="45" x="308.5" y="918.5634">Head()</text><ellipse cx="299.5" cy="931.2607" fill="#84BE84" rx="3" ry="3" style="stroke:#038048;stroke-width:1.0;"/><text fill="#000000" font-family="sans-serif" font-size="14" lengthAdjust="spacing" textLength="134" x="308.5" y="935.0517">onEngageAll(): void</text><ellipse cx="299.5" cy="947.749" fill="#84BE84" rx="3" ry="3" style="stroke:#038048;stroke-width:1.0;"/><text fill="#000000" font-family="sans-serif" font-size="14" lengthAdjust="spacing" textLength="155" x="308.5" y="951.54">onDisengageAll(): void</text><rect fill="#F24D5C" height="6" style="stroke:#C82930;stroke-width:1.0;" width="6" x="296.5" y="961.2373"/><text fill="#000000" font-family="sans-serif" font-size="14" lengthAdjust="spacing" textLength="240" x="308.5" y="968.0283">setState(newState: HeadState): void</text><ellipse cx="299.5" cy="980.7255" fill="#84BE84" rx="3" ry="3" style="stroke:#038048;stroke-width:1.0;"/><text fill="#000000" font-family="sans-serif" font-size="14" lengthAdjust="spacing" textLength="143" x="308.5" y="984.5166">getState(): HeadState</text></g><!--class Motor--><g id="elem_Motor"><rect codeLine="79" fill="#F1F1F1" height="196.3945" id="Motor" rx="2.5" ry="2.5" style="stroke:#181818;stroke-width:0.5;" width="272" x="669.5" y="819.81"/><ellipse cx="780.75" cy="835.81" fill="#ADD1B2" rx="11" ry="11" style="stroke:#181818;stroke-width:1.0;"/><path d="M783.2231,841.9531 Q782.6421,842.2519 782.0029,842.4013 Q781.3638,842.5507 780.6582,842.5507 Q778.1514,842.5507 776.8315,840.8989 Q775.5117,839.247 775.5117,836.1259 Q775.5117,832.9965 776.8315,831.3447 Q778.1514,829.6928 780.6582,829.6928 Q781.3638,829.6928 782.0112,829.8422 Q782.6587,829.9916 783.2231,830.2905 L783.2231,833.0131 Q782.5923,832.4321 781.9988,832.1623 Q781.4053,831.8925 780.7744,831.8925 Q779.4297,831.8925 778.7449,832.9592 Q778.0601,834.0258 778.0601,836.1259 Q778.0601,838.2177 778.7449,839.2844 Q779.4297,840.351 780.7744,840.351 Q781.4053,840.351 781.9988,840.0812 Q782.5923,839.8115 783.2231,839.2304 Z " fill="#000000"/><text fill="#000000" font-family="sans-serif" font-size="14" lengthAdjust="spacing" textLength="41" x="801.25" y="841.101">Motor</text><line style="stroke:#181818;stroke-width:0.5;" x1="670.5" x2="940.5" y1="851.81" y2="851.81"/><rect fill="none" height="6" style="stroke:#C82930;stroke-width:1.0;" width="6" x="677.5" y="862.5541"/><text fill="#000000" font-family="sans-serif" font-size="14" lengthAdjust="spacing" textLength="116" x="689.5" y="869.3452">state: MotorState</text><rect fill="none" height="6" style="stroke:#C82930;stroke-width:1.0;" width="6" x="677.5" y="879.0424"/><text fill="#000000" font-family="sans-serif" font-size="14" lengthAdjust="spacing" textLength="225" x="689.5" y="885.8334">STANDARD_SPEED_CM_S: double</text><line style="stroke:#181818;stroke-width:0.5;" x1="670.5" x2="940.5" y1="892.7866" y2="892.7866"/><ellipse cx="680.5" cy="906.5307" fill="#84BE84" rx="3" ry="3" style="stroke:#038048;stroke-width:1.0;"/><text fill="#000000" font-family="sans-serif" font-size="14" lengthAdjust="spacing" textLength="51" x="689.5" y="910.3217">Motor()</text><ellipse cx="680.5" cy="923.019" fill="#84BE84" rx="3" ry="3" style="stroke:#038048;stroke-width:1.0;"/><text fill="#000000" font-family="sans-serif" font-size="14" lengthAdjust="spacing" textLength="134" x="689.5" y="926.81">onEngageAll(): void</text><ellipse cx="680.5" cy="939.5073" fill="#84BE84" rx="3" ry="3" style="stroke:#038048;stroke-width:1.0;"/><text fill="#000000" font-family="sans-serif" font-size="14" lengthAdjust="spacing" textLength="155" x="689.5" y="943.2983">onDisengageAll(): void</text><rect fill="#F24D5C" height="6" style="stroke:#C82930;stroke-width:1.0;" width="6" x="677.5" y="952.9955"/><text fill="#000000" font-family="sans-serif" font-size="14" lengthAdjust="spacing" textLength="246" x="689.5" y="959.7866">setState(newState: MotorState): void</text><rect fill="#F24D5C" height="6" style="stroke:#C82930;stroke-width:1.0;" width="6" x="677.5" y="969.4838"/><text fill="#000000" font-family="sans-serif" font-size="14" lengthAdjust="spacing" textLength="204" x="689.5" y="976.2748">spin(speedCmS: double): void</text><rect fill="#F24D5C" height="6" style="stroke:#C82930;stroke-width:1.0;" width="6" x="677.5" y="985.9721"/><text fill="#000000" font-family="sans-serif" font-size="14" lengthAdjust="spacing" textLength="129" x="689.5" y="992.7631">applyBrakes(): void</text><ellipse cx="680.5" cy="1005.4604" fill="#84BE84" rx="3" ry="3" style="stroke:#038048;stroke-width:1.0;"/><text fill="#000000" font-family="sans-serif" font-size="14" lengthAdjust="spacing" textLength="149" x="689.5" y="1009.2514">getState(): MotorState</text></g><!--reverse link VCRListener to Head--><g id="link_VCRListener_Head"><path d="M628.4058,761.6477 C592.4058,788.6777 559.82,813.15 518.42,844.24 " fill="none" id="VCRListener-backto-Head" style="stroke:#181818;stroke-width:1.0;stroke-dasharray:7.0,7.0;"/><polygon fill="none" points="642.8,750.84,624.8032,756.8496,632.0083,766.4458,642.8,750.84" style="stroke:#181818;stroke-width:1.0;"/></g><!--reverse link VCRListener to Motor--><g id="link_VCRListener_Motor"><path d="M731.2824,766.9732 C741.2324,787.0832 745.45,795.62 757.38,819.73 " fill="none" id="VCRListener-backto-Motor" style="stroke:#181818;stroke-width:1.0;stroke-dasharray:7.0,7.0;"/><polygon fill="none" points="723.3,750.84,725.9046,769.634,736.6601,764.3124,723.3,750.84" style="stroke:#181818;stroke-width:1.0;"/></g><!--reverse link VCR to Head--><g id="link_VCR_Head"><path codeLine="92" d="M390.7273,364.1514 C399.4173,520.1714 411.13,730.75 417.45,844.3 " fill="none" id="VCR-backto-Head" style="stroke:#181818;stroke-width:1.0;"/><polygon fill="#181818" points="390.06,352.17,386.3999,358.3832,390.7273,364.1514,394.3875,357.9383,390.06,352.17" style="stroke:#181818;stroke-width:1.0;"/><text fill="#000000" font-family="sans-serif" font-size="13" lengthAdjust="spacing" textLength="54" x="406" y="619.2884">contains</text></g><!--reverse link VCR to Motor--><g id="link_VCR_Motor"><path codeLine="93" d="M526.8228,263.3212 C594.1628,306.6312 662.3,359.52 716.5,428.79 C782.91,513.67 788.43,547.04 809.5,652.72 C818.72,698.96 810.1,711.66 809.5,758.81 C809.25,778.45 808.83,799.46 808.35,819.54 " fill="none" id="VCR-backto-Motor" style="stroke:#181818;stroke-width:1.0;"/><polygon fill="#181818" points="516.73,256.83,519.6127,263.4399,526.8228,263.3212,523.9401,256.7113,516.73,256.83" style="stroke:#181818;stroke-width:1.0;"/><text fill="#000000" font-family="sans-serif" font-size="13" lengthAdjust="spacing" textLength="54" x="804.35" y="619.2884">contains</text></g><!--reverse link VCR to Controller--><g id="link_VCR_Controller"><path codeLine="94" d="M486.0499,362.4808 C501.6899,389.4508 511.05,405.61 524.41,428.66 " fill="none" id="VCR-backto-Controller" style="stroke:#181818;stroke-width:1.0;"/><polygon fill="#181818" points="480.03,352.1,479.5797,359.297,486.0499,362.4808,486.5002,355.2838,480.03,352.1" style="stroke:#181818;stroke-width:1.0;"/><text fill="#000000" font-family="sans-serif" font-size="13" lengthAdjust="spacing" textLength="54" x="507.34" y="395.3584">contains</text></g><!--link VCR to VCRPowerState--><g id="link_VCR_VCRPowerState"><path codeLine="95" d="M244.08,325.34 C202.5,369.52 159.43,415.27 127.64,449.04 " fill="none" id="VCR-VCRPowerState" style="stroke:#181818;stroke-width:1.0;"/><text fill="#000000" font-family="sans-serif" font-size="13" lengthAdjust="spacing" textLength="29" x="185.8" y="395.3584">uses</text></g><!--link VCR to OperatingState--><g id="link_VCR_OperatingState"><path codeLine="96" d="M314.14,352.1 C300.5,387.41 287.13,421.99 276.71,448.95 " fill="none" id="VCR-OperatingState" style="stroke:#181818;stroke-width:1.0;"/><text fill="#000000" font-family="sans-serif" font-size="13" lengthAdjust="spacing" textLength="29" x="301.15" y="395.3584">uses</text></g><!--link Controller to VCRListener--><g id="link_Controller_VCRListener"><path codeLine="98" d="M615.24,576.01 C634.2,604.3 651.9616,630.8145 668.5416,655.5745 " fill="none" id="Controller-to-VCRListener" style="stroke:#181818;stroke-width:1.0;"/><polygon fill="#181818" points="671.88,660.56,670.196,650.8562,669.098,656.4054,663.5487,655.3074,671.88,660.56" style="stroke:#181818;stroke-width:1.0;"/><text fill="#000000" font-family="sans-serif" font-size="13" lengthAdjust="spacing" textLength="86" x="647.09" y="619.2884">broadcasts to</text></g><!--link Head to HeadState--><g id="link_Head_HeadState"><path codeLine="99" d="M421.5,991.84 C421.5,1024.78 421.5,1062.96 421.5,1092.99 " fill="none" id="Head-HeadState" style="stroke:#181818;stroke-width:1.0;"/><text fill="#000000" font-family="sans-serif" font-size="13" lengthAdjust="spacing" textLength="56" x="422.5" y="1059.7684">manages</text></g><!--link Motor to MotorState--><g id="link_Motor_MotorState"><path codeLine="100" d="M805.5,1016.59 C805.5,1042.79 805.5,1070.11 805.5,1092.8 " fill="none" id="Motor-MotorState" style="stroke:#181818;stroke-width:1.0;"/><text fill="#000000" font-family="sans-serif" font-size="13" lengthAdjust="spacing" textLength="56" x="806.5" y="1059.7684">manages</text></g><!--link Controller to ControllerState--><g id="link_Controller_ControllerState"><path codeLine="101" d="M544.12,576.01 C536.35,601.26 527.79,629.06 520.63,652.35 " fill="none" id="Controller-ControllerState" style="stroke:#181818;stroke-width:1.0;"/><text fill="#000000" font-family="sans-serif" font-size="13" lengthAdjust="spacing" textLength="56" x="534.64" y="619.2884">manages</text></g><!--SRC=[hLNRRfj047tdAtXCQjaVW29B64XhoJ78e5HHLLbhcBgqi8jsruuYA__UlU25nTZ9G_sqd1dFd3bd6KhCWVv2ERZFmMPLCWuOgFlmK9xn-TmzEQxudT2ESOfo_kvE28xm7kt1hwgxUyyzah8OoGbB1XTfxuu3-53BTWbv1Pfon44qb21Gn4k2JSiqyzVXuaMTuoJQ-Dbo_LKzJVR0LsW7gcxAQOdtfdBSg3fuVwlqCbn5wk07sV8v-h3eDq35hNhnu-CsynDTA5vtvrj5dmWd7mWG9qaKgdEoyby-Ctv0CAUagcvB-zrV6Z6JJHn4QIeUjxB9hGvvXHYJthLbfetnqBCjrM5YUU4DlD4v73Mm8gY0mdDtX5I0i0xy5ffxIddzN4kvFAsQHd8pgzURMyNq58BItRq-AgQB0-S4MtTsKc86b6U2XOt37yX7u8O2Oqc5taRWb9F6XeMCdIOoT2cIpB5raNaZIarAbXcjP4vVBLb5IYLn8va4bLmIxNIJS2UNZFN4CovtsDdidDGDmO0vy_hhuiTF7MRQuy45xBdHwrcr_xKhpMQprYquNaeCnr5zZMJ3ncOIgOTRraq5jIHlhRgJnTsyvZtMMbLzlhRuhcqxNVlC4SDhEkXpTPYEYHb36VYvERhDec6rIVrDk4sJA0gtmTCszTo277PLVzBsglpVKJigTcPJuZlM01H1RRXO6QXfghS5HN-1NVUyDwZGIIwcBzEfDjnpvNf0ulKsk5Pm9D2xwuEe2DgVAiyzC32nmSUc3JgzUjFft39AlBPKlC4vOi91JXp5jULyBb8ZBDHbZkPx9ZwCMaqkzdwNzmy0]--></g></svg>