<?xml version="1.0" encoding="us-ascii" standalone="no"?><svg xmlns="http://www.w3.org/2000/svg" xmlns:xlink="http://www.w3.org/1999/xlink" contentStyleType="text/css" height="538px" preserveAspectRatio="none" style="width:1245px;height:538px;background:#FFFFFF;" version="1.1" viewBox="0 0 1245 538" width="1245px" zoomAndPan="magnify"><defs/><g><!--cluster AgenticWorkflow System--><g id="cluster_AgenticWorkflow System"><path d="M86.5,62.31 L267.5,62.31 A3.75,3.75 0 0 1 270,64.81 L277,84.7983 L928.76,84.7983 A2.5,2.5 0 0 1 931.26,87.2983 L931.26,431.81 A2.5,2.5 0 0 1 928.76,434.31 L86.5,434.31 A2.5,2.5 0 0 1 84,431.81 L84,64.81 A2.5,2.5 0 0 1 86.5,62.31 " fill="none" style="stroke:#000000;stroke-width:1.5;"/><line style="stroke:#000000;stroke-width:1.5;" x1="84" x2="277" y1="84.7983" y2="84.7983"/><text fill="#000000" font-family="sans-serif" font-size="14" font-weight="bold" lengthAdjust="spacing" textLength="180" x="88" y="77.8452">AgenticWorkflow System</text></g><g id="elem_UC1"><ellipse cx="190.7787" cy="113.3097" fill="#F1F1F1" rx="68.6987" ry="16.1397" style="stroke:#181818;stroke-width:0.5;"/><text fill="#000000" font-family="sans-serif" font-size="14" lengthAdjust="spacing" textLength="90" x="143.251" y="117.2262">Create Agent</text></g><g id="elem_UC2"><ellipse cx="190.7784" cy="184.3097" fill="#F1F1F1" rx="85.0984" ry="19.4197" style="stroke:#181818;stroke-width:0.5;"/><text fill="#000000" font-family="sans-serif" font-size="14" lengthAdjust="spacing" textLength="130" x="125.7784" y="187.6007">Add Workflow Step</text></g><g id="elem_UC3"><ellipse cx="190.7788" cy="332.3098" fill="#F1F1F1" rx="73.7488" ry="17.1498" style="stroke:#181818;stroke-width:0.5;"/><text fill="#000000" font-family="sans-serif" font-size="14" lengthAdjust="spacing" textLength="103" x="139.2788" y="335.6008">Configure Step</text></g><g id="elem_UC4"><ellipse cx="190.7818" cy="401.3064" fill="#F1F1F1" rx="70.5818" ry="16.5164" style="stroke:#181818;stroke-width:0.5;"/><text fill="#000000" font-family="sans-serif" font-size="14" lengthAdjust="spacing" textLength="95" x="141.7984" y="404.9824">Run Workflow</text></g><g id="elem_UC5"><ellipse cx="543.558" cy="402.3136" fill="#F1F1F1" rx="67.968" ry="15.9936" style="stroke:#181818;stroke-width:0.5;"/><text fill="#000000" font-family="sans-serif" font-size="14" lengthAdjust="spacing" textLength="88" x="496.5952" y="406.3234">Execute Step</text></g><g id="elem_UC6"><ellipse cx="543.5618" cy="230.3064" fill="#F1F1F1" rx="70.5818" ry="16.5164" style="stroke:#181818;stroke-width:0.5;"/><text fill="#000000" font-family="sans-serif" font-size="14" lengthAdjust="spacing" textLength="95" x="494.5784" y="233.9824">Validate Input</text></g><g id="elem_UC7"><ellipse cx="845.059" cy="339.3098" fill="#F1F1F1" rx="70.199" ry="16.4398" style="stroke:#181818;stroke-width:0.5;"/><text fill="#000000" font-family="sans-serif" font-size="14" lengthAdjust="spacing" textLength="94" x="796.3715" y="343.0347">Handle Errors</text></g><g id="elem_UC8"><ellipse cx="190.7804" cy="259.3061" fill="#F1F1F1" rx="90.7804" ry="20.5561" style="stroke:#181818;stroke-width:0.5;"/><text fill="#000000" font-family="sans-serif" font-size="14" lengthAdjust="spacing" textLength="143" x="119.2804" y="262.5971">Load Agent from File</text></g><!--entity User--><g id="elem_User"><ellipse cx="21.5" cy="229.56" fill="#F1F1F1" rx="8" ry="8" style="stroke:#181818;stroke-width:0.5;"/><path d="M21.5,237.56 L21.5,264.56 M8.5,245.56 L34.5,245.56 M21.5,264.56 L8.5,279.56 M21.5,264.56 L34.5,279.56 " fill="none" style="stroke:#181818;stroke-width:0.5;"/><text fill="#000000" font-family="sans-serif" font-size="14" lengthAdjust="spacing" textLength="31" x="6" y="294.5952">User</text></g><!--entity LLM--><g id="elem_LLM"><ellipse cx="190.78" cy="464.56" fill="#F1F1F1" rx="8" ry="8" style="stroke:#181818;stroke-width:0.5;"/><path d="M190.78,472.56 L190.78,499.56 M177.78,480.56 L203.78,480.56 M190.78,499.56 L177.78,514.56 M190.78,499.56 L203.78,514.56 " fill="none" style="stroke:#181818;stroke-width:0.5;"/><text fill="#000000" font-family="sans-serif" font-size="14" lengthAdjust="spacing" textLength="78" x="151.78" y="529.5952">LLM System</text></g><g id="elem_GMN26"><path d="M449.56,6 L449.56,46.6211 L637.56,46.6211 L637.56,16 L627.56,6 L449.56,6 " fill="#FEFFDD" style="stroke:#181818;stroke-width:0.5;"/><path d="M627.56,6 L627.56,16 L637.56,16 L627.56,6 " fill="#FEFFDD" style="stroke:#181818;stroke-width:1.0;"/><text fill="#000000" font-family="sans-serif" font-size="13" lengthAdjust="spacing" textLength="167" x="455.56" y="23.5684">Step name must be unique</text><text fill="#000000" font-family="sans-serif" font-size="13" lengthAdjust="spacing" textLength="135" x="455.56" y="38.8789">Step must not be null</text></g><g id="elem_GMN29"><path d="M752.56,450.65 L752.56,475.9605 A0,0 0 0 0 752.56,475.9605 L937.56,475.9605 A0,0 0 0 0 937.56,475.9605 L937.56,460.65 L927.56,450.65 L783.7,450.65 L596.05,412.79 L775.7,450.65 L752.56,450.65 A0,0 0 0 0 752.56,450.65 " fill="#FEFFDD" style="stroke:#181818;stroke-width:0.5;"/><path d="M927.56,450.65 L927.56,460.65 L937.56,460.65 L927.56,450.65 " fill="#FEFFDD" style="stroke:#181818;stroke-width:0.5;"/><text fill="#000000" font-family="sans-serif" font-size="13" lengthAdjust="spacing" textLength="164" x="758.56" y="468.2184">Handles StructuredOutput</text></g><g id="elem_GMN32"><path d="M998.56,319 L998.56,335.31 L915.63,339.31 L998.56,343.31 L998.56,359.6211 A0,0 0 0 0 998.56,359.6211 L1238.56,359.6211 A0,0 0 0 0 1238.56,359.6211 L1238.56,329 L1228.56,319 L998.56,319 A0,0 0 0 0 998.56,319 " fill="#FEFFDD" style="stroke:#181818;stroke-width:0.5;"/><path d="M1228.56,319 L1228.56,329 L1238.56,329 L1228.56,319 " fill="#FEFFDD" style="stroke:#181818;stroke-width:0.5;"/><text fill="#000000" font-family="sans-serif" font-size="13" lengthAdjust="spacing" textLength="219" x="1004.56" y="336.5684">Catches WorkflowFormatException</text><text fill="#000000" font-family="sans-serif" font-size="13" lengthAdjust="spacing" textLength="71" x="1004.56" y="351.8789">Logs errors</text></g><!--link User to UC1--><g id="link_User_UC1"><path d="M32.24,220.57 C40.23,196.33 53.9,166.22 76,147.31 C91.19,134.3 105.4046,127.7855 124.4046,122.8255 " fill="none" id="User-to-UC1" style="stroke:#181818;stroke-width:1.0;"/><polygon fill="#181818" points="130.21,121.31,120.4915,119.713,125.3721,122.5729,122.5122,127.4536,130.21,121.31" style="stroke:#181818;stroke-width:1.0;"/></g><!--link User to UC2--><g id="link_User_UC2"><path d="M37.17,247.03 C47.51,238.86 61.95,228.37 76,221.31 C93.91,212.3 108.7513,206.6139 127.4413,200.7939 " fill="none" id="User-to-UC2" style="stroke:#181818;stroke-width:1.0;"/><polygon fill="#181818" points="133.17,199.01,123.3877,197.8667,128.3961,200.4966,125.7662,205.505,133.17,199.01" style="stroke:#181818;stroke-width:1.0;"/></g><!--link User to UC3--><g id="link_User_UC3"><path d="M37.13,271.65 C47.45,279.85 61.9,290.35 76,297.31 C95.37,306.86 112.1175,312.8036 131.9775,318.4336 " fill="none" id="User-to-UC3" style="stroke:#181818;stroke-width:1.0;"/><polygon fill="#181818" points="137.75,320.07,130.1822,313.767,132.9396,318.7063,128.0003,321.4637,137.75,320.07" style="stroke:#181818;stroke-width:1.0;"/></g><!--link User to UC4--><g id="link_User_UC4"><path d="M33.04,297.98 C41.22,321.13 54.81,349.43 76,367.31 C90.97,379.93 104.7041,386.3184 123.3441,391.3084 " fill="none" id="User-to-UC4" style="stroke:#181818;stroke-width:1.0;"/><polygon fill="#181818" points="129.14,392.86,121.4805,386.6687,124.3101,391.567,119.4117,394.3966,129.14,392.86" style="stroke:#181818;stroke-width:1.0;"/></g><!--link User to UC8--><g id="link_User_UC8"><path d="M37.35,259.31 C51.9,259.31 69.37,259.31 93.57,259.31 " fill="none" id="User-to-UC8" style="stroke:#181818;stroke-width:1.0;"/><polygon fill="#181818" points="99.57,259.31,90.57,255.31,94.57,259.31,90.57,263.31,99.57,259.31" style="stroke:#181818;stroke-width:1.0;"/></g><!--link UC2 to UC6--><g id="link_UC2_UC6"><path d="M265.32,193.95 C329.3,202.34 415.021,213.5795 475.161,221.4695 " fill="none" id="UC2-to-UC6" style="stroke:#181818;stroke-width:1.0;"/><polygon fill="#181818" points="481.11,222.25,472.7068,217.1133,476.1525,221.5996,471.6662,225.0453,481.11,222.25" style="stroke:#181818;stroke-width:1.0;"/><text fill="#000000" font-family="sans-serif" font-size="13" lengthAdjust="spacing" textLength="53" x="339.06" y="197.0684">includes</text></g><!--link UC3 to UC6--><g id="link_UC3_UC6"><path d="M244.64,320.34 C291.06,309.47 360.24,292.42 419.56,274.31 C448.73,265.4 475.5815,255.8052 499.8415,246.7152 " fill="none" id="UC3-to-UC6" style="stroke:#181818;stroke-width:1.0;"/><polygon fill="#181818" points="505.46,244.61,495.6287,244.0221,500.7779,246.3643,498.4357,251.5135,505.46,244.61" style="stroke:#181818;stroke-width:1.0;"/><text fill="#000000" font-family="sans-serif" font-size="13" lengthAdjust="spacing" textLength="53" x="339.06" y="270.8784">includes</text></g><!--link UC4 to UC5--><g id="link_UC4_UC5"><path d="M261.5,401.5 C323.64,401.68 407.99,401.9234 469.35,402.0934 " fill="none" id="UC4-to-UC5" style="stroke:#181818;stroke-width:1.0;"/><polygon fill="#181818" points="475.35,402.11,466.3611,398.0851,470.35,402.0961,466.339,406.085,475.35,402.11" style="stroke:#181818;stroke-width:1.0;"/><text fill="#000000" font-family="sans-serif" font-size="13" lengthAdjust="spacing" textLength="53" x="339.06" y="398.2284">includes</text></g><!--link UC5 to LLM--><g id="link_UC5_LLM"><path d="M529.01,418.09 C508.21,440.97 465.92,482.35 419.56,498.31 C355.98,520.18 282.3018,512.3209 236.0018,503.8409 " fill="none" id="UC5-to-LLM" style="stroke:#181818;stroke-width:1.0;"/><polygon fill="#181818" points="230.1,502.76,238.2321,508.316,235.0182,503.6608,239.6734,500.4469,230.1,502.76" style="stroke:#181818;stroke-width:1.0;"/><text fill="#000000" font-family="sans-serif" font-size="13" lengthAdjust="spacing" textLength="87" x="322.06" y="494.8784">sends prompt</text></g><!--link LLM to UC5--><g id="link_LLM_UC5"><path d="M229.99,484.29 C295.07,467.22 421.3363,434.1022 491.1463,415.7922 " fill="none" id="LLM-to-UC5" style="stroke:#181818;stroke-width:1.0;"/><polygon fill="#181818" points="496.95,414.27,487.2297,412.6842,492.1136,415.5385,489.2593,420.4224,496.95,414.27" style="stroke:#181818;stroke-width:1.0;"/><text fill="#000000" font-family="sans-serif" font-size="13" lengthAdjust="spacing" textLength="106" x="312.56" y="431.2584">returns response</text></g><!--link UC4 to UC7--><g id="link_UC4_UC7"><path d="M241.98,389.6 C263.33,384.94 288.57,379.86 311.56,376.31 C468.73,352.03 508.76,348.77 667.56,340.31 C702.9,338.42 736.2801,338.0142 768.8601,338.1542 " fill="none" id="UC4-to-UC7" style="stroke:#181818;stroke-width:1.0;"/><polygon fill="#181818" points="774.86,338.18,765.8773,334.1414,769.86,338.1585,765.8429,342.1413,774.86,338.18" style="stroke:#181818;stroke-width:1.0;"/><text fill="#000000" font-family="sans-serif" font-size="13" lengthAdjust="spacing" textLength="53" x="517.06" y="338.5084">includes</text></g><!--link UC5 to UC7--><g id="link_UC5_UC7"><path d="M595.37,391.62 C650.02,380.12 730.6385,363.1651 785.8785,351.5451 " fill="none" id="UC5-to-UC7" style="stroke:#181818;stroke-width:1.0;"/><polygon fill="#181818" points="791.75,350.31,782.1193,348.2483,786.8571,351.3392,783.7661,356.077,791.75,350.31" style="stroke:#181818;stroke-width:1.0;"/><text fill="#000000" font-family="sans-serif" font-size="13" lengthAdjust="spacing" textLength="53" x="668.56" y="361.7284">includes</text></g><!--link UC8 to UC6--><g id="link_UC8_UC6"><path d="M276.69,252.29 C338.13,247.21 413.9804,240.9346 470.5604,236.2546 " fill="none" id="UC8-to-UC6" style="stroke:#181818;stroke-width:1.0;"/><polygon fill="#181818" points="476.54,235.76,467.2409,232.5155,471.557,236.1722,467.9004,240.4883,476.54,235.76" style="stroke:#181818;stroke-width:1.0;"/><text fill="#000000" font-family="sans-serif" font-size="13" lengthAdjust="spacing" textLength="53" x="339.06" y="237.0784">includes</text></g><!--link UC2 to GMN26--><g id="link_UC2_GMN26"><path d="M234.41,167.18 C249.38,161.05 266.27,154 281.56,147.31 C358.89,113.47 447.86,71.57 499.41,47.01 " fill="none" id="UC2-GMN26" style="stroke:#181818;stroke-width:1.0;stroke-dasharray:7.0,7.0;"/></g><!--SRC=[VPFBJiCm44Nt_efHzrtGjxf0gg9M80KXWGfhOqzIguuT_115Y7_7JjqIbufiadjzvchiSIHM3fm68-gT0ouCCYUq8eGofmriBPhqEIZB1tZ-j0wR0L0BGHBIKhQdDS9WLQDoWhrgiw-a_ZY3NmJ2uoqoQWDM6AGEeQExb6rnanChpk4tnM6RiD55a5QLgBt1FZFEcIUlpb69cEJ4-e3CkonZcXClL0eUMxvNhJ-rFCkPEwguH5WReurDo3n7IatvSTTG6Tt0HaXCv89y4nBF6OR3s-uyUcBK5-E-cFJ58YGKeoHci0IXcFGSRR37r-r9igUvFUtiEEebM5JSGXlwRHs9rc-5GUUDik5jMwqiabxY_5hYXHtynRM-YDBXh8-NKLTfx74we6Y3q7Zhu0t1A_7kyRJKkQ4mhYWl9GbzHur_u-9qZ-EoeTPu5hQ1_D6xCDn_ok8q2-hOBfITRjH6cuQwzO5Xs_qn0AMkBM1t2yvPFm00]--></g></svg>