<?xml version="1.0" encoding="us-ascii" standalone="no"?><svg xmlns="http://www.w3.org/2000/svg" xmlns:xlink="http://www.w3.org/1999/xlink" contentStyleType="text/css" height="506px" preserveAspectRatio="none" style="width:581px;height:506px;background:#FFFFFF;" version="1.1" viewBox="0 0 581 506" width="581px" zoomAndPan="magnify"><defs/><g><rect fill="#FFFFFF" height="295.1055" style="stroke:#181818;stroke-width:1.0;" width="10" x="167.5" y="112.7988"/><rect fill="none" height="251.7949" style="stroke:#000000;stroke-width:1.5;" width="440.5" x="135" y="127.7988"/><line style="stroke:#181818;stroke-width:0.5;stroke-dasharray:5.0,5.0;" x1="23" x2="23" y1="81.4883" y2="425.9043"/><line style="stroke:#181818;stroke-width:0.5;stroke-dasharray:5.0,5.0;" x1="172" x2="172" y1="81.4883" y2="425.9043"/><line style="stroke:#181818;stroke-width:0.5;stroke-dasharray:5.0,5.0;" x1="367.5" x2="367.5" y1="81.4883" y2="425.9043"/><line style="stroke:#181818;stroke-width:0.5;stroke-dasharray:5.0,5.0;" x1="498.5" x2="498.5" y1="81.4883" y2="425.9043"/><text fill="#000000" font-family="sans-serif" font-size="14" lengthAdjust="spacing" textLength="31" x="5" y="78.5352">User</text><ellipse cx="23.5" cy="13.5" fill="#E2E2F0" rx="8" ry="8" style="stroke:#181818;stroke-width:0.5;"/><path d="M23.5,21.5 L23.5,48.5 M10.5,29.5 L36.5,29.5 M23.5,48.5 L10.5,63.5 M23.5,48.5 L36.5,63.5 " fill="none" style="stroke:#181818;stroke-width:0.5;"/><text fill="#000000" font-family="sans-serif" font-size="14" lengthAdjust="spacing" textLength="31" x="5" y="438.4395">User</text><ellipse cx="23.5" cy="449.8926" fill="#E2E2F0" rx="8" ry="8" style="stroke:#181818;stroke-width:0.5;"/><path d="M23.5,457.8926 L23.5,484.8926 M10.5,465.8926 L36.5,465.8926 M23.5,484.8926 L10.5,499.8926 M23.5,484.8926 L36.5,499.8926 " fill="none" style="stroke:#181818;stroke-width:0.5;"/><rect fill="#E2E2F0" height="30.4883" rx="2.5" ry="2.5" style="stroke:#181818;stroke-width:0.5;" width="55" x="145" y="50"/><text fill="#000000" font-family="sans-serif" font-size="14" lengthAdjust="spacing" textLength="41" x="152" y="70.5352">Agent</text><rect fill="#E2E2F0" height="30.4883" rx="2.5" ry="2.5" style="stroke:#181818;stroke-width:0.5;" width="55" x="145" y="424.9043"/><text fill="#000000" font-family="sans-serif" font-size="14" lengthAdjust="spacing" textLength="41" x="152" y="445.4395">Agent</text><rect fill="#E2E2F0" height="30.4883" rx="2.5" ry="2.5" style="stroke:#181818;stroke-width:0.5;" width="108" x="313.5" y="50"/><text fill="#000000" font-family="sans-serif" font-size="14" lengthAdjust="spacing" textLength="94" x="320.5" y="70.5352">WorkflowStep</text><rect fill="#E2E2F0" height="30.4883" rx="2.5" ry="2.5" style="stroke:#181818;stroke-width:0.5;" width="108" x="313.5" y="424.9043"/><text fill="#000000" font-family="sans-serif" font-size="14" lengthAdjust="spacing" textLength="94" x="320.5" y="445.4395">WorkflowStep</text><rect fill="#E2E2F0" height="30.4883" rx="2.5" ry="2.5" style="stroke:#181818;stroke-width:0.5;" width="134" x="431.5" y="50"/><text fill="#000000" font-family="sans-serif" font-size="14" lengthAdjust="spacing" textLength="120" x="438.5" y="70.5352">StructuredOutput</text><rect fill="#E2E2F0" height="30.4883" rx="2.5" ry="2.5" style="stroke:#181818;stroke-width:0.5;" width="134" x="431.5" y="424.9043"/><text fill="#000000" font-family="sans-serif" font-size="14" lengthAdjust="spacing" textLength="120" x="438.5" y="445.4395">StructuredOutput</text><rect fill="#FFFFFF" height="295.1055" style="stroke:#181818;stroke-width:1.0;" width="10" x="167.5" y="112.7988"/><polygon fill="#181818" points="155.5,108.7988,165.5,112.7988,155.5,116.7988,159.5,112.7988" style="stroke:#181818;stroke-width:1.0;"/><line style="stroke:#181818;stroke-width:1.0;" x1="23.5" x2="161.5" y1="112.7988" y2="112.7988"/><text fill="#000000" font-family="sans-serif" font-size="13" lengthAdjust="spacing" textLength="29" x="30.5" y="108.0566">run()</text><path d="M135,127.7988 L209,127.7988 L209,135.1094 L199,145.1094 L135,145.1094 L135,127.7988 " fill="#EEEEEE" style="stroke:#000000;stroke-width:1.5;"/><rect fill="none" height="251.7949" style="stroke:#000000;stroke-width:1.5;" width="440.5" x="135" y="127.7988"/><text fill="#000000" font-family="sans-serif" font-size="13" font-weight="bold" lengthAdjust="spacing" textLength="29" x="150" y="141.3672">loop</text><text fill="#000000" font-family="sans-serif" font-size="11" font-weight="bold" lengthAdjust="spacing" textLength="81" x="224" y="140.4336">[for each step]</text><polygon fill="#181818" points="355.5,162.4199,365.5,166.4199,355.5,170.4199,359.5,166.4199" style="stroke:#181818;stroke-width:1.0;"/><line style="stroke:#181818;stroke-width:1.0;" x1="177.5" x2="361.5" y1="166.4199" y2="166.4199"/><text fill="#000000" font-family="sans-serif" font-size="13" lengthAdjust="spacing" textLength="73" x="184.5" y="161.6777">getPrompt()</text><polygon fill="#181818" points="188.5,191.7305,178.5,195.7305,188.5,199.7305,184.5,195.7305" style="stroke:#181818;stroke-width:1.0;"/><line style="stroke:#181818;stroke-width:1.0;stroke-dasharray:2.0,2.0;" x1="182.5" x2="366.5" y1="195.7305" y2="195.7305"/><text fill="#000000" font-family="sans-serif" font-size="13" lengthAdjust="spacing" textLength="46" x="194.5" y="190.9883">prompt</text><polygon fill="#181818" points="355.5,221.041,365.5,225.041,355.5,229.041,359.5,225.041" style="stroke:#181818;stroke-width:1.0;"/><line style="stroke:#181818;stroke-width:1.0;" x1="177.5" x2="361.5" y1="225.041" y2="225.041"/><text fill="#000000" font-family="sans-serif" font-size="13" lengthAdjust="spacing" textLength="166" x="184.5" y="220.2988">expectsStructuredOutput()</text><polygon fill="#181818" points="188.5,250.3516,178.5,254.3516,188.5,258.3516,184.5,254.3516" style="stroke:#181818;stroke-width:1.0;"/><line style="stroke:#181818;stroke-width:1.0;stroke-dasharray:2.0,2.0;" x1="182.5" x2="366.5" y1="254.3516" y2="254.3516"/><text fill="#000000" font-family="sans-serif" font-size="13" lengthAdjust="spacing" textLength="50" x="194.5" y="249.6094">boolean</text><polygon fill="#181818" points="355.5,279.6621,365.5,283.6621,355.5,287.6621,359.5,283.6621" style="stroke:#181818;stroke-width:1.0;"/><line style="stroke:#181818;stroke-width:1.0;" x1="177.5" x2="361.5" y1="283.6621" y2="283.6621"/><text fill="#000000" font-family="sans-serif" font-size="13" lengthAdjust="spacing" textLength="137" x="184.5" y="278.9199">getStructuredOutput()</text><polygon fill="#181818" points="188.5,308.9727,178.5,312.9727,188.5,316.9727,184.5,312.9727" style="stroke:#181818;stroke-width:1.0;"/><line style="stroke:#181818;stroke-width:1.0;stroke-dasharray:2.0,2.0;" x1="182.5" x2="366.5" y1="312.9727" y2="312.9727"/><text fill="#000000" font-family="sans-serif" font-size="13" lengthAdjust="spacing" textLength="109" x="194.5" y="308.2305">StructuredOutput</text><polygon fill="#181818" points="486.5,338.2832,496.5,342.2832,486.5,346.2832,490.5,342.2832" style="stroke:#181818;stroke-width:1.0;"/><line style="stroke:#181818;stroke-width:1.0;" x1="177.5" x2="492.5" y1="342.2832" y2="342.2832"/><text fill="#000000" font-family="sans-serif" font-size="13" lengthAdjust="spacing" textLength="113" x="184.5" y="337.541">getSchemaTypes()</text><polygon fill="#181818" points="188.5,367.5938,178.5,371.5938,188.5,375.5938,184.5,371.5938" style="stroke:#181818;stroke-width:1.0;"/><line style="stroke:#181818;stroke-width:1.0;stroke-dasharray:2.0,2.0;" x1="182.5" x2="497.5" y1="371.5938" y2="371.5938"/><text fill="#000000" font-family="sans-serif" font-size="13" lengthAdjust="spacing" textLength="86" x="194.5" y="366.8516">SchemaType[]</text><polygon fill="#181818" points="34.5,403.9043,24.5,407.9043,34.5,411.9043,30.5,407.9043" style="stroke:#181818;stroke-width:1.0;"/><line style="stroke:#181818;stroke-width:1.0;stroke-dasharray:2.0,2.0;" x1="28.5" x2="171.5" y1="407.9043" y2="407.9043"/><text fill="#000000" font-family="sans-serif" font-size="13" lengthAdjust="spacing" textLength="120" x="40.5" y="403.1621">workflow complete</text><!--SRC=[ZP5DRW8n38NtFeN5YYwum2mgSO9M0iG2TM4o1aOCYPKu_Do- -Hcr2YfIixBydhzdEMJKUTm4zY3aTJ23a5MSBOziTOOKi5Ijk7N-V1ZTRQKinPEBrh9I7ur6p_r7L8aLLKk078UBzuhkq4SxVmCoEbn9UGg4qJd1GrgEoPmmv0HChwXvE6TsU6JzzEuYcWXPpbrS_BAbY4NwQvplmaR3yxOlO7ldHYRxafQM-IVfsGOjhZOhq9puGkk7S9XOLMneFvxT5x3j0IPIikHRTtYRVWnDEiV8oj1pU_1l]--></g></svg>