<?xml version="1.0" encoding="us-ascii" standalone="no"?><svg xmlns="http://www.w3.org/2000/svg" xmlns:xlink="http://www.w3.org/1999/xlink" contentStyleType="text/css" height="523px" preserveAspectRatio="none" style="width:662px;height:523px;background:#FFFFFF;" version="1.1" viewBox="0 0 662 523" width="662px" zoomAndPan="magnify"><defs/><g><ellipse cx="625.86" cy="380.31" fill="#222222" rx="10" ry="10" style="stroke:#222222;stroke-width:1.0;"/><rect fill="#F1F1F1" height="40" rx="12.5" ry="12.5" style="stroke:#181818;stroke-width:0.5;" width="50" x="196.86" y="477.31"/><text fill="#000000" font-family="sans-serif" font-size="14" lengthAdjust="spacing" textLength="25" x="209.36" y="502.601">Idle</text><rect fill="#F1F1F1" height="40" rx="12.5" ry="12.5" style="stroke:#181818;stroke-width:0.5;" width="68" x="57.86" y="124.31"/><text fill="#000000" font-family="sans-serif" font-size="14" lengthAdjust="spacing" textLength="58" x="62.86" y="149.601">Running</text><rect fill="#F1F1F1" height="40" rx="12.5" ry="12.5" style="stroke:#181818;stroke-width:0.5;" width="130" x="262.86" y="7"/><text fill="#000000" font-family="sans-serif" font-size="14" lengthAdjust="spacing" textLength="120" x="267.86" y="32.291">ConfiguringSteps</text><rect fill="#F1F1F1" height="40" rx="12.5" ry="12.5" style="stroke:#181818;stroke-width:0.5;" width="108" x="37.86" y="242.31"/><text fill="#000000" font-family="sans-serif" font-size="14" lengthAdjust="spacing" textLength="98" x="42.86" y="267.601">ExecutingStep</text><rect fill="#F1F1F1" height="40" rx="12.5" ry="12.5" style="stroke:#181818;stroke-width:0.5;" width="85" x="56.36" y="360.31"/><text fill="#000000" font-family="sans-serif" font-size="14" lengthAdjust="spacing" textLength="75" x="61.36" y="385.601">Completed</text><rect fill="#F1F1F1" height="40" rx="12.5" ry="12.5" style="stroke:#181818;stroke-width:0.5;" width="79" x="182.36" y="360.31"/><text fill="#000000" font-family="sans-serif" font-size="14" lengthAdjust="spacing" textLength="69" x="187.36" y="385.601">ErrorState</text><g id="elem_GMN20"><path d="M515.86,6.69 L515.86,23 L393.11,27 L515.86,31 L515.86,47.3111 A0,0 0 0 0 515.86,47.3111 L655.86,47.3111 A0,0 0 0 0 655.86,47.3111 L655.86,16.69 L645.86,6.69 L515.86,6.69 A0,0 0 0 0 515.86,6.69 " fill="#FEFFDD" style="stroke:#181818;stroke-width:0.5;"/><path d="M645.86,6.69 L645.86,16.69 L655.86,16.69 L645.86,6.69 " fill="#FEFFDD" style="stroke:#181818;stroke-width:0.5;"/><text fill="#000000" font-family="sans-serif" font-size="13" lengthAdjust="spacing" textLength="119" x="521.86" y="24.2584">Agent can only run</text><text fill="#000000" font-family="sans-serif" font-size="13" lengthAdjust="spacing" textLength="82" x="521.86" y="39.5689">if steps exist</text></g><g id="elem_GMN23"><path d="M306.86,242 L306.86,258.31 L146.3,262.31 L306.86,266.31 L306.86,282.6211 A0,0 0 0 0 306.86,282.6211 L492.86,282.6211 A0,0 0 0 0 492.86,282.6211 L492.86,252 L482.86,242 L306.86,242 A0,0 0 0 0 306.86,242 " fill="#FEFFDD" style="stroke:#181818;stroke-width:0.5;"/><path d="M482.86,242 L482.86,252 L492.86,252 L482.86,242 " fill="#FEFFDD" style="stroke:#181818;stroke-width:0.5;"/><text fill="#000000" font-family="sans-serif" font-size="13" lengthAdjust="spacing" textLength="165" x="312.86" y="259.5684">WorkflowFormatException</text><text fill="#000000" font-family="sans-serif" font-size="13" lengthAdjust="spacing" textLength="132" x="312.86" y="274.8789">is caught and logged</text></g><!--link *start* to Idle--><g id="link_*start*_Idle"><path d="M623.61,390.34 C619.45,404.97 609.08,433.59 588.86,447.31 C532.88,485.3 326.8181,493.7976 253.2081,495.6676 " fill="none" id="*start*-to-Idle" style="stroke:#181818;stroke-width:1.0;"/><polygon fill="#181818" points="247.21,495.82,256.3087,499.5901,252.2084,495.693,256.1055,491.5927,247.21,495.82" style="stroke:#181818;stroke-width:1.0;"/></g><!--link Idle to Running--><g id="link_Idle_Running"><path d="M196.39,490.68 C155.95,480.32 77.66,454.16 38.86,400.31 C28.07,385.34 6,282.88 19.86,241.31 C29.94,211.07 49.504,186.9885 66.984,169.0385 " fill="none" id="Idle-to-Running" style="stroke:#181818;stroke-width:1.0;"/><polygon fill="#181818" points="71.17,164.74,62.0253,168.3972,67.6817,168.3221,67.7567,173.9785,71.17,164.74" style="stroke:#181818;stroke-width:1.0;"/><text fill="#000000" font-family="sans-serif" font-size="13" lengthAdjust="spacing" textLength="29" x="20.88" y="326.8784">run()</text></g><!--link Idle to ConfiguringSteps--><g id="link_Idle_ConfiguringSteps"><path d="M247.21,493.33 C326.24,483.36 562.86,447.93 562.86,381.31 C562.86,143.31 562.86,143.31 562.86,143.31 C562.86,67.42 468.8018,42.2293 399.2718,33.3593 " fill="none" id="Idle-to-ConfiguringSteps" style="stroke:#181818;stroke-width:1.0;"/><polygon fill="#181818" points="393.32,32.6,401.7415,37.7068,398.2798,33.2327,402.7538,29.7711,393.32,32.6" style="stroke:#181818;stroke-width:1.0;"/><text fill="#000000" font-family="sans-serif" font-size="13" lengthAdjust="spacing" textLength="58" x="563.86" y="267.3784">addStep()</text></g><!--link ConfiguringSteps to ConfiguringSteps--><g id="link_ConfiguringSteps_ConfiguringSteps"><path d="M393.26,16 C412.72,16.33 427.86,19.99 427.86,27 C427.86,34.01 418.7191,37.5683 399.2591,37.8983 " fill="none" id="ConfiguringSteps-to-ConfiguringSteps" style="stroke:#181818;stroke-width:1.0;"/><polygon fill="#181818" points="393.26,38,402.3265,41.8468,398.2593,37.9152,402.1909,33.848,393.26,38" style="stroke:#181818;stroke-width:1.0;"/><text fill="#000000" font-family="sans-serif" font-size="13" lengthAdjust="spacing" textLength="58" x="433.86" y="32.0684">addStep()</text></g><!--link ConfiguringSteps to Running--><g id="link_ConfiguringSteps_Running"><path d="M288.09,47.43 C242.64,69.64 174.3912,102.9865 131.4212,123.9765 " fill="none" id="ConfiguringSteps-to-Running" style="stroke:#181818;stroke-width:1.0;"/><polygon fill="#181818" points="126.03,126.61,135.8724,126.2539,130.5226,124.4154,132.3611,119.0657,126.03,126.61" style="stroke:#181818;stroke-width:1.0;"/><text fill="#000000" font-family="sans-serif" font-size="13" lengthAdjust="spacing" textLength="29" x="224.99" y="90.8784">run()</text></g><!--link Running to ExecutingStep--><g id="link_Running_ExecutingStep"><path d="M91.86,164.73 C91.86,186.14 91.86,214.39 91.86,235.83 " fill="none" id="Running-to-ExecutingStep" style="stroke:#181818;stroke-width:1.0;"/><polygon fill="#181818" points="91.86,241.83,95.86,232.83,91.86,236.83,87.86,232.83,91.86,241.83" style="stroke:#181818;stroke-width:1.0;"/><text fill="#000000" font-family="sans-serif" font-size="13" lengthAdjust="spacing" textLength="59" x="92.86" y="207.8784">next step</text></g><!--link ExecutingStep to ExecutingStep--><g id="link_ExecutingStep_ExecutingStep"><path d="M146.17,251.16 C165.32,250.98 180.86,254.7 180.86,262.31 C180.86,269.92 171.3197,273.6964 152.1697,273.5164 " fill="none" id="ExecutingStep-to-ExecutingStep" style="stroke:#181818;stroke-width:1.0;"/><polygon fill="#181818" points="146.17,273.46,155.132,277.5444,151.1698,273.507,155.2072,269.5448,146.17,273.46" style="stroke:#181818;stroke-width:1.0;"/><text fill="#000000" font-family="sans-serif" font-size="13" lengthAdjust="spacing" textLength="96" x="186.86" y="259.8784">step completes</text><text fill="#000000" font-family="sans-serif" font-size="13" lengthAdjust="spacing" textLength="91" x="189.36" y="275.1889">(if more steps)</text></g><!--link ExecutingStep to Completed--><g id="link_ExecutingStep_Completed"><path d="M89.5,282.7 C88.24,296.1 87.24,314.32 88.86,330.31 C89.85,340.16 90.619,345.0972 92.639,354.0472 " fill="none" id="ExecutingStep-to-Completed" style="stroke:#181818;stroke-width:1.0;"/><polygon fill="#181818" points="93.96,359.9,95.8804,350.2402,92.8592,355.0227,88.0767,352.0015,93.96,359.9" style="stroke:#181818;stroke-width:1.0;"/><text fill="#000000" font-family="sans-serif" font-size="13" lengthAdjust="spacing" textLength="88" x="89.86" y="326.8784">all steps done</text></g><!--link ExecutingStep to ErrorState--><g id="link_ExecutingStep_ErrorState"><path d="M138.1,282.65 C153.53,290.6 170.04,300.89 182.86,313.31 C196.53,326.56 204.5435,340.1672 211.2135,354.3972 " fill="none" id="ExecutingStep-to-ErrorState" style="stroke:#181818;stroke-width:1.0;"/><polygon fill="#181818" points="213.76,359.83,213.5621,349.9831,211.6379,355.3027,206.3184,353.3785,213.76,359.83" style="stroke:#181818;stroke-width:1.0;"/><text fill="#000000" font-family="sans-serif" font-size="13" lengthAdjust="spacing" textLength="109" x="197.31" y="326.8784">exception caught</text></g><!--link ErrorState to Idle--><g id="link_ErrorState_Idle"><path d="M221.86,400.56 C221.86,421.79 221.86,449.75 221.86,471 " fill="none" id="ErrorState-to-Idle" style="stroke:#181818;stroke-width:1.0;"/><polygon fill="#181818" points="221.86,477,225.86,468,221.86,472,217.86,468,221.86,477" style="stroke:#181818;stroke-width:1.0;"/><text fill="#000000" font-family="sans-serif" font-size="13" lengthAdjust="spacing" textLength="77" x="222.86" y="443.8784">error logged</text></g><!--link Completed to Idle--><g id="link_Completed_Idle"><path d="M119.45,400.56 C142.15,421.79 174.0871,451.6525 196.8171,472.9025 " fill="none" id="Completed-to-Idle" style="stroke:#181818;stroke-width:1.0;"/><polygon fill="#181818" points="201.2,477,197.3573,467.9317,197.5476,473.5854,191.8939,473.7756,201.2,477" style="stroke:#181818;stroke-width:1.0;"/><text fill="#000000" font-family="sans-serif" font-size="13" lengthAdjust="spacing" textLength="31" x="168.72" y="443.8784">reset</text></g><!--SRC=[XP2xRiCm34LtVWN7f41-e4E18aY1hisGeUrWMBGYL2ODYKQTlo_bsCZBG1T3vZttyd4CZf3QJa_eADSfT1g40JwVld6pUS5t5mcWVCVVZvuviCTdJ3slrXTXAzm4toSJzqfTDg9ohZoDWWVrNykYuxuxp8KYxWQgUvruGvW6nMnlk5MMs89XBMqNIIb_yIeqs4gYKSZhXOJj1BioTOnd49qmBRLBIT9UAoMZQQXfF3BMLU-F2d0bpoSlNAbY5E_9mQNT5P4eazbPp9Y2HQ4q3rS5n5TFhDQDKJYUoksiQ1kUPwOXP0LYXoNeFkvc6RCT9FqqKNxV9BMLxkPTIc2U5iBAigQvvzW_]--></g></svg>