<?xml version="1.0" encoding="us-ascii" standalone="no"?><svg xmlns="http://www.w3.org/2000/svg" xmlns:xlink="http://www.w3.org/1999/xlink" contentStyleType="text/css" height="1212px" preserveAspectRatio="none" style="width:2386px;height:1212px;background:#FFFFFF;" version="1.1" viewBox="0 0 2386 1212" width="2386px" zoomAndPan="magnify"><defs/><g><!--cluster weapons--><g id="cluster_weapons"><rect fill="none" height="780.08" rx="2.5" ry="2.5" style="stroke:#000000;stroke-width:1.5;" width="1465" x="7" y="426.28"/><text fill="#000000" font-family="JetBrains Mono" font-size="14" font-weight="bold" lengthAdjust="spacing" textLength="56" x="711.5" y="442.56">weapons</text></g><!--cluster inventory--><g id="cluster_inventory"><rect fill="none" height="119.48" rx="2.5" ry="2.5" style="stroke:#000000;stroke-width:1.5;" width="1212" x="236" y="471.28"/><text fill="#000000" font-family="JetBrains Mono" font-size="14" font-weight="bold" lengthAdjust="spacing" textLength="72" x="806" y="487.56">inventory</text></g><!--cluster quests--><g id="cluster_quests"><rect fill="none" height="507.2" rx="2.5" ry="2.5" style="stroke:#000000;stroke-width:1.5;" width="482" x="1898" y="434.32"/><text fill="#000000" font-family="JetBrains Mono" font-size="14" font-weight="bold" lengthAdjust="spacing" textLength="48" x="2115" y="450.6">quests</text></g><!--cluster guild--><g id="cluster_guild"><rect fill="none" height="523.68" rx="2.5" ry="2.5" style="stroke:#000000;stroke-width:1.5;" width="378" x="1496" y="159.48"/><text fill="#000000" font-family="JetBrains Mono" font-size="14" font-weight="bold" lengthAdjust="spacing" textLength="40" x="1665" y="175.76">guild</text></g><!--cluster simulation--><g id="cluster_simulation"><rect fill="none" height="119.48" rx="2.5" ry="2.5" style="stroke:#000000;stroke-width:1.5;" width="266" x="1380" y="7"/><text fill="#000000" font-family="JetBrains Mono" font-size="14" font-weight="bold" lengthAdjust="spacing" textLength="80" x="1473" y="23.28">simulation</text></g><!--class Condition--><g id="elem_Condition"><rect codeLine="5" fill="#F1F1F1" height="185.36" id="Condition" rx="2.5" ry="2.5" style="stroke:#181818;stroke-width:0.5;" width="362" x="749" y="1005"/><ellipse cx="889.75" cy="1021" fill="#EB937F" rx="11" ry="11" style="stroke:#181818;stroke-width:1.0;"/><path d="M893.3643,1027.5 L885.6445,1027.5 L885.6445,1015.1069 L893.3643,1015.1069 L893.3643,1017.2651 L888.0933,1017.2651 L888.0933,1019.938 L892.8662,1019.938 L892.8662,1022.0962 L888.0933,1022.0962 L888.0933,1025.3418 L893.3643,1025.3418 Z " fill="#000000"/><text fill="#000000" font-family="JetBrains Mono" font-size="14" lengthAdjust="spacing" textLength="72" x="910.25" y="1026.04">Condition</text><line style="stroke:#181818;stroke-width:0.5;" x1="750" x2="1110" y1="1037" y2="1037"/><text fill="#000000" font-family="JetBrains Mono" font-size="14" lengthAdjust="spacing" textLength="24" x="755" y="1055.28">NEW</text><text fill="#000000" font-family="JetBrains Mono" font-size="14" lengthAdjust="spacing" textLength="32" x="755" y="1073.76">USED</text><text fill="#000000" font-family="JetBrains Mono" font-size="14" lengthAdjust="spacing" textLength="56" x="755" y="1092.24">DAMAGED</text><text fill="#000000" font-family="JetBrains Mono" font-size="14" lengthAdjust="spacing" textLength="48" x="755" y="1110.72">BROKEN</text><line style="stroke:#181818;stroke-width:1.0;" x1="750" x2="1110" y1="1118.92" y2="1118.92"/><rect fill="none" height="6" style="stroke:#C82930;stroke-width:1.0;" width="6" x="757" y="1130.66"/><text fill="#000000" font-family="JetBrains Mono" font-size="14" lengthAdjust="spacing" textLength="176" x="769" y="1137.2">powerMultiplier: float</text><rect fill="none" height="6" style="stroke:#C82930;stroke-width:1.0;" width="6" x="757" y="1149.14"/><text fill="#000000" font-family="JetBrains Mono" font-size="14" lengthAdjust="spacing" textLength="144" x="769" y="1155.68">minDurability: int</text><line style="stroke:#181818;stroke-width:1.0;stroke-dasharray:1.0,2.0;" x1="750" x2="1110" y1="1163.88" y2="1163.88"/><ellipse cx="760" cy="1178.62" fill="#84BE84" rx="3" ry="3" style="stroke:#038048;stroke-width:1.0;"/><text fill="#000000" font-family="JetBrains Mono" font-size="14" lengthAdjust="spacing" text-decoration="underline" textLength="336" x="769" y="1182.16">fromDurability(durability: int): Condition</text></g><!--class MeleeAttack--><g id="elem_MeleeAttack"><rect codeLine="17" fill="#F1F1F1" height="66.48" id="MeleeAttack" rx="2.5" ry="2.5" style="stroke:#181818;stroke-width:0.5;" width="314" x="396" y="812.84"/><ellipse cx="504.75" cy="828.84" fill="#B4A7E5" rx="11" ry="11" style="stroke:#181818;stroke-width:1.0;"/><path d="M501.1777,825.1051 L501.1777,822.9469 L508.5571,822.9469 L508.5571,825.1051 L506.0918,825.1051 L506.0918,833.1818 L508.5571,833.1818 L508.5571,835.34 L501.1777,835.34 L501.1777,833.1818 L503.6431,833.1818 L503.6431,825.1051 Z " fill="#000000"/><text fill="#000000" font-family="JetBrains Mono" font-size="14" font-style="italic" lengthAdjust="spacing" textLength="88" x="525.25" y="833.88">MeleeAttack</text><line style="stroke:#181818;stroke-width:0.5;" x1="397" x2="709" y1="844.84" y2="844.84"/><line style="stroke:#181818;stroke-width:0.5;" x1="397" x2="709" y1="852.84" y2="852.84"/><ellipse cx="407" cy="867.58" fill="#84BE84" rx="3" ry="3" style="stroke:#038048;stroke-width:1.0;"/><text fill="#000000" font-family="JetBrains Mono" font-size="14" lengthAdjust="spacing" textLength="288" x="416" y="871.12">strike(target: quests.Monster): void</text></g><!--class RangedAttack--><g id="elem_RangedAttack"><rect codeLine="22" fill="#F1F1F1" height="66.48" id="RangedAttack" rx="2.5" ry="2.5" style="stroke:#181818;stroke-width:0.5;" width="306" x="1150" y="812.84"/><ellipse cx="1250.75" cy="828.84" fill="#B4A7E5" rx="11" ry="11" style="stroke:#181818;stroke-width:1.0;"/><path d="M1247.1777,825.1051 L1247.1777,822.9469 L1254.5571,822.9469 L1254.5571,825.1051 L1252.0918,825.1051 L1252.0918,833.1818 L1254.5571,833.1818 L1254.5571,835.34 L1247.1777,835.34 L1247.1777,833.1818 L1249.6431,833.1818 L1249.6431,825.1051 Z " fill="#000000"/><text fill="#000000" font-family="JetBrains Mono" font-size="14" font-style="italic" lengthAdjust="spacing" textLength="96" x="1271.25" y="833.88">RangedAttack</text><line style="stroke:#181818;stroke-width:0.5;" x1="1151" x2="1455" y1="844.84" y2="844.84"/><line style="stroke:#181818;stroke-width:0.5;" x1="1151" x2="1455" y1="852.84" y2="852.84"/><ellipse cx="1161" cy="867.58" fill="#84BE84" rx="3" ry="3" style="stroke:#038048;stroke-width:1.0;"/><text fill="#000000" font-family="JetBrains Mono" font-size="14" lengthAdjust="spacing" textLength="280" x="1170" y="871.12">shoot(target: quests.Monster): void</text></g><!--class MagicalAttack--><g id="elem_MagicalAttack"><rect codeLine="26" fill="#F1F1F1" height="66.48" id="MagicalAttack" rx="2.5" ry="2.5" style="stroke:#181818;stroke-width:0.5;" width="338" x="23" y="812.84"/><ellipse cx="135.75" cy="828.84" fill="#B4A7E5" rx="11" ry="11" style="stroke:#181818;stroke-width:1.0;"/><path d="M132.1777,825.1051 L132.1777,822.9469 L139.5571,822.9469 L139.5571,825.1051 L137.0918,825.1051 L137.0918,833.1818 L139.5571,833.1818 L139.5571,835.34 L132.1777,835.34 L132.1777,833.1818 L134.6431,833.1818 L134.6431,825.1051 Z " fill="#000000"/><text fill="#000000" font-family="JetBrains Mono" font-size="14" font-style="italic" lengthAdjust="spacing" textLength="104" x="156.25" y="833.88">MagicalAttack</text><line style="stroke:#181818;stroke-width:0.5;" x1="24" x2="360" y1="844.84" y2="844.84"/><line style="stroke:#181818;stroke-width:0.5;" x1="24" x2="360" y1="852.84" y2="852.84"/><ellipse cx="34" cy="867.58" fill="#84BE84" rx="3" ry="3" style="stroke:#038048;stroke-width:1.0;"/><text fill="#000000" font-family="JetBrains Mono" font-size="14" lengthAdjust="spacing" textLength="312" x="43" y="871.12">castSpell(target: quests.Monster): void</text></g><!--class Weapon--><g id="elem_Weapon"><rect codeLine="30" fill="#F1F1F1" height="195.84" id="Weapon" rx="2.5" ry="2.5" style="stroke:#181818;stroke-width:0.5;" width="370" x="745" y="748.16"/><ellipse cx="901.75" cy="764.16" fill="#A9DCDF" rx="11" ry="11" style="stroke:#181818;stroke-width:1.0;"/><path d="M901.6133,759.5081 L900.4595,764.5799 L902.7754,764.5799 Z M900.1191,757.2669 L903.1157,757.2669 L906.4609,769.66 L904.0122,769.66 L903.2485,766.597 L899.9697,766.597 L899.2227,769.66 L896.7739,769.66 Z " fill="#000000"/><text fill="#000000" font-family="JetBrains Mono" font-size="14" font-style="italic" lengthAdjust="spacing" textLength="48" x="922.25" y="769.2">Weapon</text><line style="stroke:#181818;stroke-width:0.5;" x1="746" x2="1114" y1="780.16" y2="780.16"/><polygon fill="none" points="756,789.9,760,793.9,756,797.9,752,793.9" style="stroke:#B38D22;stroke-width:1.0;"/><text fill="#000000" font-family="JetBrains Mono" font-size="14" lengthAdjust="spacing" textLength="96" x="765" y="798.44">name: String</text><polygon fill="none" points="756,808.38,760,812.38,756,816.38,752,812.38" style="stroke:#B38D22;stroke-width:1.0;"/><text fill="#000000" font-family="JetBrains Mono" font-size="14" lengthAdjust="spacing" textLength="128" x="765" y="816.92">basePower: float</text><polygon fill="none" points="756,826.86,760,830.86,756,834.86,752,830.86" style="stroke:#B38D22;stroke-width:1.0;"/><text fill="#000000" font-family="JetBrains Mono" font-size="14" lengthAdjust="spacing" textLength="120" x="765" y="835.4">durability: int</text><polygon fill="none" points="756,845.34,760,849.34,756,853.34,752,849.34" style="stroke:#B38D22;stroke-width:1.0;"/><text fill="#000000" font-family="JetBrains Mono" font-size="14" lengthAdjust="spacing" textLength="160" x="765" y="853.88">condition: Condition</text><line style="stroke:#181818;stroke-width:1.0;" x1="746" x2="1114" y1="862.08" y2="862.08"/><ellipse cx="756" cy="876.82" fill="#84BE84" rx="3" ry="3" style="stroke:#038048;stroke-width:1.0;"/><text fill="#000000" font-family="JetBrains Mono" font-size="14" font-style="italic" lengthAdjust="spacing" textLength="344" x="765" y="880.36">performAttack(target: quests.Monster): void</text><ellipse cx="756" cy="895.3" fill="#84BE84" rx="3" ry="3" style="stroke:#038048;stroke-width:1.0;"/><text fill="#000000" font-family="JetBrains Mono" font-size="14" lengthAdjust="spacing" textLength="280" x="765" y="898.84">reduceDurability(amount: int): void</text><ellipse cx="756" cy="913.78" fill="#84BE84" rx="3" ry="3" style="stroke:#038048;stroke-width:1.0;"/><text fill="#000000" font-family="JetBrains Mono" font-size="14" lengthAdjust="spacing" textLength="208" x="765" y="917.32">getEffectivePower(): float</text><ellipse cx="756" cy="932.26" fill="#84BE84" rx="3" ry="3" style="stroke:#038048;stroke-width:1.0;"/><text fill="#000000" font-family="JetBrains Mono" font-size="14" lengthAdjust="spacing" textLength="152" x="765" y="935.8">isBroken(): boolean</text></g><!--class Sword--><g id="elem_Sword"><rect codeLine="44" fill="#F1F1F1" height="66.48" id="Sword" rx="2.5" ry="2.5" style="stroke:#181818;stroke-width:0.5;" width="370" x="657" y="508.28"/><ellipse cx="817.75" cy="524.28" fill="#ADD1B2" rx="11" ry="11" style="stroke:#181818;stroke-width:1.0;"/><path d="M820.2231,530.4231 Q819.6421,530.7219 819.0029,530.8713 Q818.3638,531.0207 817.6582,531.0207 Q815.1514,531.0207 813.8315,529.3689 Q812.5117,527.717 812.5117,524.5959 Q812.5117,521.4665 813.8315,519.8147 Q815.1514,518.1628 817.6582,518.1628 Q818.3638,518.1628 819.0112,518.3122 Q819.6587,518.4616 820.2231,518.7605 L820.2231,521.4831 Q819.5923,520.9021 818.9988,520.6323 Q818.4053,520.3625 817.7744,520.3625 Q816.4297,520.3625 815.7449,521.4292 Q815.0601,522.4958 815.0601,524.5959 Q815.0601,526.6877 815.7449,527.7544 Q816.4297,528.821 817.7744,528.821 Q818.4053,528.821 818.9988,528.5512 Q819.5923,528.2815 820.2231,527.7004 Z " fill="#000000"/><text fill="#000000" font-family="JetBrains Mono" font-size="14" lengthAdjust="spacing" textLength="40" x="838.25" y="529.32">Sword</text><line style="stroke:#181818;stroke-width:0.5;" x1="658" x2="1026" y1="540.28" y2="540.28"/><line style="stroke:#181818;stroke-width:0.5;" x1="658" x2="1026" y1="548.28" y2="548.28"/><ellipse cx="668" cy="563.02" fill="#84BE84" rx="3" ry="3" style="stroke:#038048;stroke-width:1.0;"/><text fill="#000000" font-family="JetBrains Mono" font-size="14" lengthAdjust="spacing" textLength="344" x="677" y="566.56">performAttack(target: quests.Monster): void</text></g><!--class Bow--><g id="elem_Bow"><rect codeLine="48" fill="#F1F1F1" height="66.48" id="Bow" rx="2.5" ry="2.5" style="stroke:#181818;stroke-width:0.5;" width="370" x="1062" y="508.28"/><ellipse cx="1230.75" cy="524.28" fill="#ADD1B2" rx="11" ry="11" style="stroke:#181818;stroke-width:1.0;"/><path d="M1233.2231,530.4231 Q1232.6421,530.7219 1232.0029,530.8713 Q1231.3638,531.0207 1230.6582,531.0207 Q1228.1514,531.0207 1226.8315,529.3689 Q1225.5117,527.717 1225.5117,524.5959 Q1225.5117,521.4665 1226.8315,519.8147 Q1228.1514,518.1628 1230.6582,518.1628 Q1231.3638,518.1628 1232.0112,518.3122 Q1232.6587,518.4616 1233.2231,518.7605 L1233.2231,521.4831 Q1232.5923,520.9021 1231.9988,520.6323 Q1231.4053,520.3625 1230.7744,520.3625 Q1229.4297,520.3625 1228.7449,521.4292 Q1228.0601,522.4958 1228.0601,524.5959 Q1228.0601,526.6877 1228.7449,527.7544 Q1229.4297,528.821 1230.7744,528.821 Q1231.4053,528.821 1231.9988,528.5512 Q1232.5923,528.2815 1233.2231,527.7004 Z " fill="#000000"/><text fill="#000000" font-family="JetBrains Mono" font-size="14" lengthAdjust="spacing" textLength="24" x="1251.25" y="529.32">Bow</text><line style="stroke:#181818;stroke-width:0.5;" x1="1063" x2="1431" y1="540.28" y2="540.28"/><line style="stroke:#181818;stroke-width:0.5;" x1="1063" x2="1431" y1="548.28" y2="548.28"/><ellipse cx="1073" cy="563.02" fill="#84BE84" rx="3" ry="3" style="stroke:#038048;stroke-width:1.0;"/><text fill="#000000" font-family="JetBrains Mono" font-size="14" lengthAdjust="spacing" textLength="344" x="1082" y="566.56">performAttack(target: quests.Monster): void</text></g><!--class Staff--><g id="elem_Staff"><rect codeLine="52" fill="#F1F1F1" height="66.48" id="Staff" rx="2.5" ry="2.5" style="stroke:#181818;stroke-width:0.5;" width="370" x="252" y="508.28"/><ellipse cx="412.75" cy="524.28" fill="#ADD1B2" rx="11" ry="11" style="stroke:#181818;stroke-width:1.0;"/><path d="M415.2231,530.4231 Q414.6421,530.7219 414.0029,530.8713 Q413.3638,531.0207 412.6582,531.0207 Q410.1514,531.0207 408.8315,529.3689 Q407.5117,527.717 407.5117,524.5959 Q407.5117,521.4665 408.8315,519.8147 Q410.1514,518.1628 412.6582,518.1628 Q413.3638,518.1628 414.0112,518.3122 Q414.6587,518.4616 415.2231,518.7605 L415.2231,521.4831 Q414.5923,520.9021 413.9988,520.6323 Q413.4053,520.3625 412.7744,520.3625 Q411.4297,520.3625 410.7449,521.4292 Q410.0601,522.4958 410.0601,524.5959 Q410.0601,526.6877 410.7449,527.7544 Q411.4297,528.821 412.7744,528.821 Q413.4053,528.821 413.9988,528.5512 Q414.5923,528.2815 415.2231,527.7004 Z " fill="#000000"/><text fill="#000000" font-family="JetBrains Mono" font-size="14" lengthAdjust="spacing" textLength="40" x="433.25" y="529.32">Staff</text><line style="stroke:#181818;stroke-width:0.5;" x1="253" x2="621" y1="540.28" y2="540.28"/><line style="stroke:#181818;stroke-width:0.5;" x1="253" x2="621" y1="548.28" y2="548.28"/><ellipse cx="263" cy="563.02" fill="#84BE84" rx="3" ry="3" style="stroke:#038048;stroke-width:1.0;"/><text fill="#000000" font-family="JetBrains Mono" font-size="14" lengthAdjust="spacing" textLength="344" x="272" y="566.56">performAttack(target: quests.Monster): void</text></g><!--class Monster--><g id="elem_Monster"><rect codeLine="58" fill="#F1F1F1" height="158.88" id="Monster" rx="2.5" ry="2.5" style="stroke:#181818;stroke-width:0.5;" width="450" x="1914" y="766.64"/><ellipse cx="2106.75" cy="782.64" fill="#ADD1B2" rx="11" ry="11" style="stroke:#181818;stroke-width:1.0;"/><path d="M2109.2231,788.7831 Q2108.6421,789.0819 2108.0029,789.2313 Q2107.3638,789.3807 2106.6582,789.3807 Q2104.1514,789.3807 2102.8315,787.7289 Q2101.5117,786.077 2101.5117,782.9559 Q2101.5117,779.8265 2102.8315,778.1747 Q2104.1514,776.5228 2106.6582,776.5228 Q2107.3638,776.5228 2108.0112,776.6722 Q2108.6587,776.8216 2109.2231,777.1205 L2109.2231,779.8431 Q2108.5923,779.2621 2107.9988,778.9923 Q2107.4053,778.7225 2106.7744,778.7225 Q2105.4297,778.7225 2104.7449,779.7892 Q2104.0601,780.8558 2104.0601,782.9559 Q2104.0601,785.0477 2104.7449,786.1144 Q2105.4297,787.181 2106.7744,787.181 Q2107.4053,787.181 2107.9988,786.9112 Q2108.5923,786.6415 2109.2231,786.0604 Z " fill="#000000"/><text fill="#000000" font-family="JetBrains Mono" font-size="14" lengthAdjust="spacing" textLength="56" x="2127.25" y="787.68">Monster</text><line style="stroke:#181818;stroke-width:0.5;" x1="1915" x2="2363" y1="798.64" y2="798.64"/><rect fill="none" height="6" style="stroke:#C82930;stroke-width:1.0;" width="6" x="1922" y="810.38"/><text fill="#000000" font-family="JetBrains Mono" font-size="14" lengthAdjust="spacing" textLength="96" x="1934" y="816.92">name: String</text><rect fill="none" height="6" style="stroke:#C82930;stroke-width:1.0;" width="6" x="1922" y="828.86"/><text fill="#000000" font-family="JetBrains Mono" font-size="14" lengthAdjust="spacing" textLength="104" x="1934" y="835.4">health: float</text><rect fill="none" height="6" style="stroke:#C82930;stroke-width:1.0;" width="6" x="1922" y="847.34"/><text fill="#000000" font-family="JetBrains Mono" font-size="14" lengthAdjust="spacing" textLength="120" x="1934" y="853.88">strength: float</text><rect fill="none" height="6" style="stroke:#C82930;stroke-width:1.0;" width="6" x="1922" y="865.82"/><text fill="#000000" font-family="JetBrains Mono" font-size="14" lengthAdjust="spacing" textLength="96" x="1934" y="872.36">armor: float</text><line style="stroke:#181818;stroke-width:1.0;" x1="1915" x2="2363" y1="880.56" y2="880.56"/><ellipse cx="1925" cy="895.3" fill="#84BE84" rx="3" ry="3" style="stroke:#038048;stroke-width:1.0;"/><text fill="#000000" font-family="JetBrains Mono" font-size="14" lengthAdjust="spacing" textLength="424" x="1934" y="898.84">takeDamage(amount: float, bypassArmor: boolean): void</text><ellipse cx="1925" cy="913.78" fill="#84BE84" rx="3" ry="3" style="stroke:#038048;stroke-width:1.0;"/><text fill="#000000" font-family="JetBrains Mono" font-size="14" lengthAdjust="spacing" textLength="264" x="1934" y="917.32">attack(a: guild.Adventurer): void</text></g><!--class Quest--><g id="elem_Quest"><rect codeLine="68" fill="#F1F1F1" height="140.4" id="Quest" rx="2.5" ry="2.5" style="stroke:#181818;stroke-width:0.5;" width="362" x="1914" y="471.32"/><ellipse cx="2070.75" cy="487.32" fill="#ADD1B2" rx="11" ry="11" style="stroke:#181818;stroke-width:1.0;"/><path d="M2073.2231,493.4631 Q2072.6421,493.7619 2072.0029,493.9113 Q2071.3638,494.0607 2070.6582,494.0607 Q2068.1514,494.0607 2066.8315,492.4089 Q2065.5117,490.757 2065.5117,487.6359 Q2065.5117,484.5065 2066.8315,482.8547 Q2068.1514,481.2028 2070.6582,481.2028 Q2071.3638,481.2028 2072.0112,481.3522 Q2072.6587,481.5016 2073.2231,481.8005 L2073.2231,484.5231 Q2072.5923,483.9421 2071.9988,483.6723 Q2071.4053,483.4025 2070.7744,483.4025 Q2069.4297,483.4025 2068.7449,484.4692 Q2068.0601,485.5358 2068.0601,487.6359 Q2068.0601,489.7277 2068.7449,490.7944 Q2069.4297,491.861 2070.7744,491.861 Q2071.4053,491.861 2071.9988,491.5912 Q2072.5923,491.3215 2073.2231,490.7404 Z " fill="#000000"/><text fill="#000000" font-family="JetBrains Mono" font-size="14" lengthAdjust="spacing" textLength="40" x="2091.25" y="492.36">Quest</text><line style="stroke:#181818;stroke-width:0.5;" x1="1915" x2="2275" y1="503.32" y2="503.32"/><rect fill="none" height="6" style="stroke:#C82930;stroke-width:1.0;" width="6" x="1922" y="515.06"/><text fill="#000000" font-family="JetBrains Mono" font-size="14" lengthAdjust="spacing" textLength="96" x="1934" y="521.6">name: String</text><rect fill="none" height="6" style="stroke:#C82930;stroke-width:1.0;" width="6" x="1922" y="533.54"/><text fill="#000000" font-family="JetBrains Mono" font-size="14" lengthAdjust="spacing" textLength="120" x="1934" y="540.08">difficulty: int</text><rect fill="none" height="6" style="stroke:#C82930;stroke-width:1.0;" width="6" x="1922" y="552.02"/><text fill="#000000" font-family="JetBrains Mono" font-size="14" lengthAdjust="spacing" textLength="152" x="1934" y="558.56">isComplete: boolean</text><rect fill="none" height="6" style="stroke:#C82930;stroke-width:1.0;" width="6" x="1922" y="570.5"/><text fill="#000000" font-family="JetBrains Mono" font-size="14" lengthAdjust="spacing" textLength="184" x="1934" y="577.04">monsters: List&lt;Monster&gt;</text><line style="stroke:#181818;stroke-width:1.0;" x1="1915" x2="2275" y1="585.24" y2="585.24"/><ellipse cx="1925" cy="599.98" fill="#84BE84" rx="3" ry="3" style="stroke:#038048;stroke-width:1.0;"/><text fill="#000000" font-family="JetBrains Mono" font-size="14" lengthAdjust="spacing" textLength="336" x="1934" y="603.52">attemptQuest(a: guild.Adventurer): boolean</text></g><!--class Adventurer--><g id="elem_Adventurer"><rect codeLine="79" fill="#F1F1F1" height="251.28" id="Adventurer" rx="2.5" ry="2.5" style="stroke:#181818;stroke-width:0.5;" width="346" x="1512" y="415.88"/><ellipse cx="1640.75" cy="431.88" fill="#ADD1B2" rx="11" ry="11" style="stroke:#181818;stroke-width:1.0;"/><path d="M1643.2231,438.0231 Q1642.6421,438.3219 1642.0029,438.4713 Q1641.3638,438.6207 1640.6582,438.6207 Q1638.1514,438.6207 1636.8315,436.9689 Q1635.5117,435.317 1635.5117,432.1959 Q1635.5117,429.0665 1636.8315,427.4147 Q1638.1514,425.7628 1640.6582,425.7628 Q1641.3638,425.7628 1642.0112,425.9122 Q1642.6587,426.0616 1643.2231,426.3605 L1643.2231,429.0831 Q1642.5923,428.5021 1641.9988,428.2323 Q1641.4053,427.9625 1640.7744,427.9625 Q1639.4297,427.9625 1638.7449,429.0292 Q1638.0601,430.0958 1638.0601,432.1959 Q1638.0601,434.2877 1638.7449,435.3544 Q1639.4297,436.421 1640.7744,436.421 Q1641.4053,436.421 1641.9988,436.1512 Q1642.5923,435.8815 1643.2231,435.3004 Z " fill="#000000"/><text fill="#000000" font-family="JetBrains Mono" font-size="14" lengthAdjust="spacing" textLength="80" x="1661.25" y="436.92">Adventurer</text><line style="stroke:#181818;stroke-width:0.5;" x1="1513" x2="1857" y1="447.88" y2="447.88"/><rect fill="none" height="6" style="stroke:#C82930;stroke-width:1.0;" width="6" x="1520" y="459.62"/><text fill="#000000" font-family="JetBrains Mono" font-size="14" lengthAdjust="spacing" textLength="96" x="1532" y="466.16">name: String</text><rect fill="none" height="6" style="stroke:#C82930;stroke-width:1.0;" width="6" x="1520" y="478.1"/><text fill="#000000" font-family="JetBrains Mono" font-size="14" lengthAdjust="spacing" textLength="128" x="1532" y="484.64">basePower: float</text><rect fill="none" height="6" style="stroke:#C82930;stroke-width:1.0;" width="6" x="1520" y="496.58"/><text fill="#000000" font-family="JetBrains Mono" font-size="14" lengthAdjust="spacing" textLength="104" x="1532" y="503.12">health: float</text><rect fill="none" height="6" style="stroke:#C82930;stroke-width:1.0;" width="6" x="1520" y="515.06"/><text fill="#000000" font-family="JetBrains Mono" font-size="14" lengthAdjust="spacing" textLength="120" x="1532" y="521.6">experience: int</text><rect fill="none" height="6" style="stroke:#C82930;stroke-width:1.0;" width="6" x="1520" y="533.54"/><text fill="#000000" font-family="JetBrains Mono" font-size="14" lengthAdjust="spacing" textLength="72" x="1532" y="540.08">rank: int</text><rect fill="none" height="6" style="stroke:#C82930;stroke-width:1.0;" width="6" x="1520" y="552.02"/><text fill="#000000" font-family="JetBrains Mono" font-size="14" lengthAdjust="spacing" textLength="248" x="1532" y="558.56">inventory: List&lt;weapons.Weapon&gt;</text><line style="stroke:#181818;stroke-width:1.0;" x1="1513" x2="1857" y1="566.76" y2="566.76"/><ellipse cx="1523" cy="581.5" fill="#84BE84" rx="3" ry="3" style="stroke:#038048;stroke-width:1.0;"/><text fill="#000000" font-family="JetBrains Mono" font-size="14" lengthAdjust="spacing" textLength="248" x="1532" y="585.04">attack(m: quests.Monster): void</text><ellipse cx="1523" cy="599.98" fill="#84BE84" rx="3" ry="3" style="stroke:#038048;stroke-width:1.0;"/><text fill="#000000" font-family="JetBrains Mono" font-size="14" lengthAdjust="spacing" textLength="248" x="1532" y="603.52">takeDamage(amount: float): void</text><ellipse cx="1523" cy="618.46" fill="#84BE84" rx="3" ry="3" style="stroke:#038048;stroke-width:1.0;"/><text fill="#000000" font-family="JetBrains Mono" font-size="14" lengthAdjust="spacing" textLength="288" x="1532" y="622">getStrongestWeapon(): weapons.Weapon</text><ellipse cx="1523" cy="636.94" fill="#84BE84" rx="3" ry="3" style="stroke:#038048;stroke-width:1.0;"/><text fill="#000000" font-family="JetBrains Mono" font-size="14" lengthAdjust="spacing" textLength="264" x="1532" y="640.48">gainExperience(amount: int): void</text><ellipse cx="1523" cy="655.42" fill="#84BE84" rx="3" ry="3" style="stroke:#038048;stroke-width:1.0;"/><text fill="#000000" font-family="JetBrains Mono" font-size="14" lengthAdjust="spacing" textLength="320" x="1532" y="658.96">repairWeapon(w: weapons.Weapon): boolean</text></g><!--class Guild--><g id="elem_Guild"><rect codeLine="94" fill="#F1F1F1" height="140.4" id="Guild" rx="2.5" ry="2.5" style="stroke:#181818;stroke-width:0.5;" width="274" x="1566" y="196.48"/><ellipse cx="1678.75" cy="212.48" fill="#ADD1B2" rx="11" ry="11" style="stroke:#181818;stroke-width:1.0;"/><path d="M1681.2231,218.6231 Q1680.6421,218.9219 1680.0029,219.0713 Q1679.3638,219.2207 1678.6582,219.2207 Q1676.1514,219.2207 1674.8315,217.5689 Q1673.5117,215.917 1673.5117,212.7959 Q1673.5117,209.6665 1674.8315,208.0147 Q1676.1514,206.3628 1678.6582,206.3628 Q1679.3638,206.3628 1680.0112,206.5122 Q1680.6587,206.6616 1681.2231,206.9605 L1681.2231,209.6831 Q1680.5923,209.1021 1679.9988,208.8323 Q1679.4053,208.5625 1678.7744,208.5625 Q1677.4297,208.5625 1676.7449,209.6292 Q1676.0601,210.6958 1676.0601,212.7959 Q1676.0601,214.8877 1676.7449,215.9544 Q1677.4297,217.021 1678.7744,217.021 Q1679.4053,217.021 1679.9988,216.7512 Q1680.5923,216.4815 1681.2231,215.9004 Z " fill="#000000"/><text fill="#000000" font-family="JetBrains Mono" font-size="14" lengthAdjust="spacing" textLength="40" x="1699.25" y="217.52">Guild</text><line style="stroke:#181818;stroke-width:0.5;" x1="1567" x2="1839" y1="228.48" y2="228.48"/><rect fill="none" height="6" style="stroke:#C82930;stroke-width:1.0;" width="6" x="1574" y="240.22"/><text fill="#000000" font-family="JetBrains Mono" font-size="14" lengthAdjust="spacing" textLength="200" x="1586" y="246.76">members: List&lt;Adventurer&gt;</text><rect fill="none" height="6" style="stroke:#C82930;stroke-width:1.0;" width="6" x="1574" y="258.7"/><text fill="#000000" font-family="JetBrains Mono" font-size="14" lengthAdjust="spacing" textLength="208" x="1586" y="265.24">quests: List&lt;quests.Quest&gt;</text><line style="stroke:#181818;stroke-width:1.0;" x1="1567" x2="1839" y1="273.44" y2="273.44"/><ellipse cx="1577" cy="288.18" fill="#84BE84" rx="3" ry="3" style="stroke:#038048;stroke-width:1.0;"/><text fill="#000000" font-family="JetBrains Mono" font-size="14" lengthAdjust="spacing" textLength="200" x="1586" y="291.72">assignRandomQuest(): void</text><ellipse cx="1577" cy="306.66" fill="#84BE84" rx="3" ry="3" style="stroke:#038048;stroke-width:1.0;"/><text fill="#000000" font-family="JetBrains Mono" font-size="14" lengthAdjust="spacing" textLength="240" x="1586" y="310.2">addMember(a: Adventurer): void</text><ellipse cx="1577" cy="325.14" fill="#84BE84" rx="3" ry="3" style="stroke:#038048;stroke-width:1.0;"/><text fill="#000000" font-family="JetBrains Mono" font-size="14" lengthAdjust="spacing" textLength="248" x="1586" y="328.68">addQuest(q: quests.Quest): void</text></g><!--class Simulation--><g id="elem_Simulation"><rect codeLine="105" fill="#F1F1F1" height="66.48" id="Simulation" rx="2.5" ry="2.5" style="stroke:#181818;stroke-width:0.5;" width="234" x="1396" y="44"/><ellipse cx="1468.75" cy="60" fill="#ADD1B2" rx="11" ry="11" style="stroke:#181818;stroke-width:1.0;"/><path d="M1471.2231,66.1431 Q1470.6421,66.4419 1470.0029,66.5913 Q1469.3638,66.7407 1468.6582,66.7407 Q1466.1514,66.7407 1464.8315,65.0889 Q1463.5117,63.437 1463.5117,60.3159 Q1463.5117,57.1865 1464.8315,55.5347 Q1466.1514,53.8828 1468.6582,53.8828 Q1469.3638,53.8828 1470.0112,54.0322 Q1470.6587,54.1816 1471.2231,54.4805 L1471.2231,57.2031 Q1470.5923,56.6221 1469.9988,56.3523 Q1469.4053,56.0825 1468.7744,56.0825 Q1467.4297,56.0825 1466.7449,57.1492 Q1466.0601,58.2158 1466.0601,60.3159 Q1466.0601,62.4077 1466.7449,63.4744 Q1467.4297,64.541 1468.7744,64.541 Q1469.4053,64.541 1469.9988,64.2712 Q1470.5923,64.0015 1471.2231,63.4204 Z " fill="#000000"/><text fill="#000000" font-family="JetBrains Mono" font-size="14" lengthAdjust="spacing" textLength="80" x="1489.25" y="65.04">Simulation</text><line style="stroke:#181818;stroke-width:0.5;" x1="1397" x2="1629" y1="76" y2="76"/><line style="stroke:#181818;stroke-width:0.5;" x1="1397" x2="1629" y1="84" y2="84"/><ellipse cx="1407" cy="98.74" fill="#84BE84" rx="3" ry="3" style="stroke:#038048;stroke-width:1.0;"/><text fill="#000000" font-family="JetBrains Mono" font-size="14" lengthAdjust="spacing" textLength="208" x="1416" y="102.28">main(args: String[]): void</text></g><!--link Sword to Weapon--><g id="link_Sword_Weapon"><path codeLine="110" d="M851.5,575.19 C863.43,616.21 879.4136,671.146 896.6936,730.566 " fill="none" id="Sword-to-Weapon" style="stroke:#181818;stroke-width:1.0;"/><polygon fill="none" points="901.72,747.85,902.455,728.8906,890.9323,732.2415,901.72,747.85" style="stroke:#181818;stroke-width:1.0;"/></g><!--link Bow to Weapon--><g id="link_Bow_Weapon"><path codeLine="111" d="M1212.77,575.19 C1169.79,616.21 1107.1404,676.0015 1044.8904,735.4215 " fill="none" id="Bow-to-Weapon" style="stroke:#181818;stroke-width:1.0;"/><polygon fill="none" points="1031.87,747.85,1049.0333,739.7616,1040.7476,731.0813,1031.87,747.85" style="stroke:#181818;stroke-width:1.0;"/></g><!--link Staff to Weapon--><g id="link_Staff_Weapon"><path codeLine="112" d="M477.52,575.11 C517.44,606.54 580.73,654.59 639,691.16 C672.52,712.2 693.3715,724.5492 729.0515,743.8692 " fill="none" id="Staff-to-Weapon" style="stroke:#181818;stroke-width:1.0;"/><polygon fill="none" points="744.88,752.44,731.9084,738.593,726.1946,749.1454,744.88,752.44" style="stroke:#181818;stroke-width:1.0;"/></g><!--link Sword to MeleeAttack--><g id="link_Sword_MeleeAttack"><path codeLine="114" d="M810.8,575.19 C755.19,633.4 652.0235,741.4143 596.5035,799.5343 " fill="none" id="Sword-to-MeleeAttack" style="stroke:#181818;stroke-width:1.0;stroke-dasharray:7.0,7.0;"/><polygon fill="none" points="584.07,812.55,600.842,803.6788,592.1649,795.3898,584.07,812.55" style="stroke:#181818;stroke-width:1.0;"/></g><!--link Bow to RangedAttack--><g id="link_Bow_RangedAttack"><path codeLine="115" d="M1253.05,575.19 C1263.82,633.4 1282.9433,736.7308 1293.7033,794.8508 " fill="none" id="Bow-to-RangedAttack" style="stroke:#181818;stroke-width:1.0;stroke-dasharray:7.0,7.0;"/><polygon fill="none" points="1296.98,812.55,1299.603,793.7585,1287.8035,795.943,1296.98,812.55" style="stroke:#181818;stroke-width:1.0;"/></g><!--link Staff to MagicalAttack--><g id="link_Staff_MagicalAttack"><path codeLine="116" d="M410.55,575.19 C363.41,633.4 276.7271,740.4408 229.6671,798.5608 " fill="none" id="Staff-to-MagicalAttack" style="stroke:#181818;stroke-width:1.0;stroke-dasharray:7.0,7.0;"/><polygon fill="none" points="218.34,812.55,234.3301,802.3365,225.004,794.7851,218.34,812.55" style="stroke:#181818;stroke-width:1.0;"/></g><!--reverse link Weapon to Condition--><g id="link_Weapon_Condition"><path codeLine="118" d="M930,956.3 C930,976.14 930,984.97 930,1004.63 " fill="none" id="Weapon-backto-Condition" style="stroke:#181818;stroke-width:1.0;"/><polygon fill="#181818" points="930,944.3,926,950.3,930,956.3,934,950.3,930,944.3" style="stroke:#181818;stroke-width:1.0;"/></g><!--reverse link Adventurer to Weapon--><g id="link_Adventurer_Weapon"><path codeLine="119" d="M1501.0208,667.1625 C1480.1708,678.3725 1469.29,682.91 1448,691.16 C1315.33,742.55 1268.39,704.46 1133,748.16 C1127.15,750.05 1121.24,752.07 1115.32,754.21 " fill="none" id="Adventurer-backto-Weapon" style="stroke:#181818;stroke-width:1.0;"/><polygon fill="none" points="1511.59,661.48,1504.4112,660.7982,1501.0208,667.1625,1508.1996,667.8444,1511.59,661.48" style="stroke:#181818;stroke-width:1.0;"/><text fill="#000000" font-family="JetBrains Mono" font-size="13" lengthAdjust="spacing" textLength="72" x="1426.01" y="713.42">inventory</text><text fill="#000000" font-family="JetBrains Mono" font-size="13" lengthAdjust="spacing" textLength="8" x="1496.1055" y="662.4456">1</text><text fill="#000000" font-family="JetBrains Mono" font-size="13" lengthAdjust="spacing" textLength="8" x="1122.7153" y="746.5524">*</text></g><!--reverse link Quest to Monster--><g id="link_Quest_Monster"><path codeLine="120" d="M2106.8174,623.805 C2113.5174,669.865 2120.6,718.54 2127.56,766.39 " fill="none" id="Quest-backto-Monster" style="stroke:#181818;stroke-width:1.0;"/><polygon fill="#181818" points="2105.09,611.93,2101.9953,618.4433,2106.8174,623.805,2109.912,617.2917,2105.09,611.93" style="stroke:#181818;stroke-width:1.0;"/><text fill="#000000" font-family="JetBrains Mono" font-size="13" lengthAdjust="spacing" textLength="56" x="2120.63" y="713.42">enemies</text><text fill="#000000" font-family="JetBrains Mono" font-size="13" lengthAdjust="spacing" textLength="8" x="2097.6895" y="632.9656">1</text><text fill="#000000" font-family="JetBrains Mono" font-size="13" lengthAdjust="spacing" textLength="8" x="2118.1849" y="754.8027">*</text></g><!--reverse link Guild to Adventurer--><g id="link_Guild_Adventurer"><path codeLine="121" d="M1697.6214,349.2141 C1696.0514,373.0541 1695.03,388.53 1693.25,415.41 " fill="none" id="Guild-backto-Adventurer" style="stroke:#181818;stroke-width:1.0;"/><polygon fill="none" points="1698.41,337.24,1694.0244,342.9642,1697.6214,349.2141,1702.0071,343.4899,1698.41,337.24" style="stroke:#181818;stroke-width:1.0;"/><text fill="#000000" font-family="JetBrains Mono" font-size="13" lengthAdjust="spacing" textLength="56" x="1697.14" y="381.14">members</text><text fill="#000000" font-family="JetBrains Mono" font-size="13" lengthAdjust="spacing" textLength="8" x="1689.5913" y="358.043">1</text><text fill="#000000" font-family="JetBrains Mono" font-size="13" lengthAdjust="spacing" textLength="8" x="1685.4957" y="403.8925">*</text></g><!--reverse link Guild to Quest--><g id="link_Guild_Quest"><path codeLine="122" d="M1812.7795,344.0947 C1871.6495,385.0647 1936.02,429.87 1994.91,470.86 " fill="none" id="Guild-backto-Quest" style="stroke:#181818;stroke-width:1.0;"/><polygon fill="none" points="1802.93,337.24,1805.5699,343.9505,1812.7795,344.0947,1810.1397,337.3842,1802.93,337.24" style="stroke:#181818;stroke-width:1.0;"/><text fill="#000000" font-family="JetBrains Mono" font-size="13" lengthAdjust="spacing" textLength="40" x="1864.89" y="381.14">board</text><text fill="#000000" font-family="JetBrains Mono" font-size="13" lengthAdjust="spacing" textLength="8" x="1804.0733" y="358.043">1</text><text fill="#000000" font-family="JetBrains Mono" font-size="13" lengthAdjust="spacing" textLength="8" x="1976.6636" y="459.3356">*</text></g><!--link Simulation to Guild--><g id="link_Simulation_Guild"><path codeLine="124" d="M1546.1,110.89 C1569.91,134.38 1598.6486,162.7363 1628.2486,191.9363 " fill="none" id="Simulation-to-Guild" style="stroke:#181818;stroke-width:1.0;stroke-dasharray:7.0,7.0;"/><polygon fill="#181818" points="1632.52,196.15,1628.922,186.9819,1628.9605,192.6386,1623.3038,192.6771,1632.52,196.15" style="stroke:#181818;stroke-width:1.0;"/></g><!--link Simulation to Adventurer--><g id="link_Simulation_Adventurer"><path codeLine="125" d="M1512.73,110.84 C1513.34,161.05 1518.61,259.58 1548,336.88 C1558.22,363.76 1569.4018,385.5409 1585.0018,410.5209 " fill="none" id="Simulation-to-Adventurer" style="stroke:#181818;stroke-width:1.0;stroke-dasharray:7.0,7.0;"/><polygon fill="#181818" points="1588.18,415.61,1586.8055,405.8575,1585.5315,411.3691,1580.02,410.0951,1588.18,415.61" style="stroke:#181818;stroke-width:1.0;"/></g><!--link Simulation to Quest--><g id="link_Simulation_Quest"><path codeLine="126" d="M1630.17,91.4 C1720.24,103.43 1835.55,123.61 1874,151.48 C1983.6,230.91 2044.5297,376.7557 2073.4497,465.4357 " fill="none" id="Simulation-to-Quest" style="stroke:#181818;stroke-width:1.0;stroke-dasharray:7.0,7.0;"/><polygon fill="#181818" points="2075.31,471.14,2076.3225,461.3433,2073.7598,466.3864,2068.7167,463.8237,2075.31,471.14" style="stroke:#181818;stroke-width:1.0;"/></g><!--link Simulation to Monster--><g id="link_Simulation_Monster"><path codeLine="127" d="M1630.3,80.03 C1726.27,85.39 1863.52,102.13 1973,151.48 C2141.51,227.43 2215.12,248.72 2294,415.88 C2346.21,526.53 2341.02,578.21 2294,691.16 C2282.41,718.99 2267.2609,740.0765 2246.1009,761.8565 " fill="none" id="Simulation-to-Monster" style="stroke:#181818;stroke-width:1.0;stroke-dasharray:7.0,7.0;"/><polygon fill="#181818" points="2241.92,766.16,2251.0604,762.4921,2245.4041,762.5738,2245.3225,756.9175,2241.92,766.16" style="stroke:#181818;stroke-width:1.0;"/></g><!--link Simulation to Sword--><g id="link_Simulation_Sword"><path codeLine="128" d="M1435.18,110.92 C1409.68,122.63 1381.59,136.64 1357,151.48 C1166.56,266.4 966.3691,433.0977 883.9991,503.9377 " fill="none" id="Simulation-to-Sword" style="stroke:#181818;stroke-width:1.0;stroke-dasharray:7.0,7.0;"/><polygon fill="#181818" points="879.45,507.85,888.8818,505.0143,883.2409,504.5898,883.6654,498.9489,879.45,507.85" style="stroke:#181818;stroke-width:1.0;"/></g><!--link Simulation to Bow--><g id="link_Simulation_Bow"><path codeLine="129" d="M1494.3,110.75 C1445.46,195.63 1317.4925,418.0095 1268.6725,502.8495 " fill="none" id="Simulation-to-Bow" style="stroke:#181818;stroke-width:1.0;stroke-dasharray:7.0,7.0;"/><polygon fill="#181818" points="1265.68,508.05,1273.6358,502.2443,1268.1738,503.7163,1266.7018,498.2543,1265.68,508.05" style="stroke:#181818;stroke-width:1.0;"/></g><!--link Simulation to Staff--><g id="link_Simulation_Staff"><path codeLine="130" d="M1395.76,86.6 C1307.8,95.62 1185.58,114.1 1084,151.48 C835.84,242.8 581.7314,428.1461 483.1714,504.1461 " fill="none" id="Simulation-to-Staff" style="stroke:#181818;stroke-width:1.0;stroke-dasharray:7.0,7.0;"/><polygon fill="#181818" points="478.42,507.81,487.9897,505.4818,482.3795,504.7568,483.1046,499.1466,478.42,507.81" style="stroke:#181818;stroke-width:1.0;"/></g><!--SRC=[fLLDR-Cs4BthLmoSIpQf1FGg506SZRj0MsUxQnHxA7eOIoE7i4HgIIhUO3V_lHH9IPHiEKbxiMHgljwyDqErPxn6YHNaL61Jwby5r_TO4In-8tqhaN45Qy758bAzQOtP7dUqqKybWQHC8z-L54N-70w4jJ1-toC0uaq5xmNFcMQ2soE0-zKN-_nhixgpBtVBzVA3Vx_z_F7trRrzZMFtW5eSIAvDUQmk6SaKYbAWzXyhnkyQYLjMClsK0kFkGvBOnpLyLnerovwXaA8QB2_piTExTAZJU3v7viSSaomm8rXJIRJKsa3q8Av1QSdsTAbHxaYdyBKXfLLYkgMCbmdtA5Zk8er2VJRjedmQwq48_PfGew9mnp8i9w4oL7fJKrc-BXnk3GxCD6GbAWLVB7a-s0LmeuKKDWOft_cZBIhwioKafE42yXCSN43MjNJStPvRGqzNm3FK1fUGbSFpOlMjiwIyoIWW5IlHSDqH6bYQKAkYC69bZwxwotTX_TV0rAqKU-Bj-LQ8aj39uFb8s0dZZyIra4-sJQvlcuEGUS_1sv1O7boOMt7u_q4s6elYFuS903kZ0AKtzx7ZOtd4y41OweVnY1g2YU-cfoWhCPxbJXCQztI7bIcX9zHQ_GJRfzhKiNIUdgOnqUXmOWgxXfLviinRiXevqwjFBSHpU79M52mpkoVGTMpKybvKTKcQGhNOTUHQf5BuWodzY-_OpHYWAPAgMjlaCwNEQD1Q1emCFkT0d9pPqrpHDoCOHZoZ4Az4lX_XxqR0m-n6mwsFOxGj9TNvMPuZ_MYE3J9XLgZIBbaxiEFqdQcvlLOzcldL8Ab69dsmmpJOX8g-yHzw8YphL6q7qWTIV2SySF_PTy6oFssLKcp7pHMHYygfOwBkF5_RLArgJadR6pdVhtt7xV-PALUiQahixsU_GyQ7RTZAzFFIh0_LYUllVoOHZnPaujPY7F-ucN9qRDlkljTPkWLtodQsX2G9Z8FRVAQEaNbuOyzMCquGtin3KVvolOhZtdAu5QSx01O_Bq0OqyNLOW8Jqc40ev1XwtFbVSR3Pdo8KyL8-KnEm66IemhIJjUpBgFaxQIWpADeK5GIw2X9RY28ywBLKCWPqx20byryByuOpkZdJHv6G6_Bq0ee-XS0]--></g></svg>