<?xml version="1.0" encoding="us-ascii" standalone="no"?><svg xmlns="http://www.w3.org/2000/svg" xmlns:xlink="http://www.w3.org/1999/xlink" contentStyleType="text/css" height="1587px" preserveAspectRatio="none" style="width:3052px;height:1587px;background:#FFFFFF;" version="1.1" viewBox="0 0 3052 1587" width="3052px" zoomAndPan="magnify"><defs/><g><!--cluster polish--><g id="cluster_polish"><path d="M329.5,351.06 L378.5,351.06 A3.75,3.75 0 0 1 381,353.56 L388,375.54 L2544,375.54 A2.5,2.5 0 0 1 2546.5,378.04 L2546.5,1359.56 A2.5,2.5 0 0 1 2544,1362.06 L329.5,1362.06 A2.5,2.5 0 0 1 327,1359.56 L327,353.56 A2.5,2.5 0 0 1 329.5,351.06 " fill="none" style="stroke:#000000;stroke-width:1.5;"/><line style="stroke:#000000;stroke-width:1.5;" x1="327" x2="388" y1="375.54" y2="375.54"/><text fill="#000000" font-family="JetBrains Mono" font-size="14" font-weight="bold" lengthAdjust="spacing" textLength="48" x="331" y="367.34">polish</text></g><!--cluster notation--><g id="cluster_notation"><path d="M353.5,396.06 L418.5,396.06 A3.75,3.75 0 0 1 421,398.56 L428,420.54 L2520,420.54 A2.5,2.5 0 0 1 2522.5,423.04 L2522.5,1335.56 A2.5,2.5 0 0 1 2520,1338.06 L353.5,1338.06 A2.5,2.5 0 0 1 351,1335.56 L351,398.56 A2.5,2.5 0 0 1 353.5,396.06 " fill="none" style="stroke:#000000;stroke-width:1.5;"/><line style="stroke:#000000;stroke-width:1.5;" x1="351" x2="428" y1="420.54" y2="420.54"/><text fill="#000000" font-family="JetBrains Mono" font-size="14" font-weight="bold" lengthAdjust="spacing" textLength="64" x="355" y="412.34">notation</text></g><!--class Token--><g id="elem_Token"><rect codeLine="6" fill="#F1F1F1" height="117.92" id="Token" rx="2.5" ry="2.5" style="stroke:#181818;stroke-width:0.5;" width="316" x="881.5" y="668.1"/><ellipse cx="1015.25" cy="684.1" fill="#A9DCDF" rx="11" ry="11" style="stroke:#181818;stroke-width:1.0;"/><path d="M1015.1133,679.4481 L1013.9595,684.5199 L1016.2754,684.5199 Z M1013.6191,677.2069 L1016.6157,677.2069 L1019.9609,689.6 L1017.5122,689.6 L1016.7485,686.537 L1013.4697,686.537 L1012.7227,689.6 L1010.2739,689.6 Z " fill="#000000"/><text fill="#000000" font-family="JetBrains Mono" font-size="14" font-style="italic" lengthAdjust="spacing" textLength="40" x="1035.75" y="689.14">Token</text><line style="stroke:#181818;stroke-width:0.5;" x1="882.5" x2="1196.5" y1="700.1" y2="700.1"/><text fill="#000000" font-family="JetBrains Mono" font-size="14" lengthAdjust="spacing" textLength="304" x="887.5" y="718.38">+readToken(input: String): TokenResult</text><text fill="#000000" font-family="JetBrains Mono" font-size="14" lengthAdjust="spacing" textLength="192" x="887.5" y="759.34">+IllegalElementException</text><text fill="#000000" font-family="JetBrains Mono" font-size="14" lengthAdjust="spacing" textLength="96" x="887.5" y="777.82">+TokenResult</text><line style="stroke:#181818;stroke-width:1.0;stroke-dasharray:1.0,2.0;" x1="882.5" x2="991.5" y1="735.82" y2="735.82"/><text fill="#000000" font-family="JetBrains Mono" font-size="14" lengthAdjust="spacing" textLength="96" x="991.5" y="740.36">nested types</text><line style="stroke:#181818;stroke-width:1.0;stroke-dasharray:1.0,2.0;" x1="1087.5" x2="1196.5" y1="735.82" y2="735.82"/></g><!--class TokenResult--><g id="elem_TokenResult"><rect codeLine="13" fill="#F1F1F1" height="121.92" id="TokenResult" rx="2.5" ry="2.5" style="stroke:#181818;stroke-width:0.5;" width="236" x="1572.5" y="886.1"/><ellipse cx="1642.25" cy="902.1" fill="#ADD1B2" rx="11" ry="11" style="stroke:#181818;stroke-width:1.0;"/><path d="M1644.7231,908.2431 Q1644.1421,908.5419 1643.5029,908.6913 Q1642.8638,908.8407 1642.1582,908.8407 Q1639.6514,908.8407 1638.3315,907.1889 Q1637.0117,905.537 1637.0117,902.4159 Q1637.0117,899.2865 1638.3315,897.6347 Q1639.6514,895.9828 1642.1582,895.9828 Q1642.8638,895.9828 1643.5112,896.1322 Q1644.1587,896.2816 1644.7231,896.5805 L1644.7231,899.3031 Q1644.0923,898.7221 1643.4988,898.4523 Q1642.9053,898.1825 1642.2744,898.1825 Q1640.9297,898.1825 1640.2449,899.2492 Q1639.5601,900.3158 1639.5601,902.4159 Q1639.5601,904.5077 1640.2449,905.5744 Q1640.9297,906.641 1642.2744,906.641 Q1642.9053,906.641 1643.4988,906.3712 Q1644.0923,906.1015 1644.7231,905.5204 Z " fill="#000000"/><text fill="#000000" font-family="JetBrains Mono" font-size="14" lengthAdjust="spacing" textLength="88" x="1662.75" y="907.14">TokenResult</text><line style="stroke:#181818;stroke-width:0.5;" x1="1573.5" x2="1807.5" y1="918.1" y2="918.1"/><text fill="#000000" font-family="JetBrains Mono" font-size="14" lengthAdjust="spacing" textLength="104" x="1578.5" y="936.38">-token: Token</text><text fill="#000000" font-family="JetBrains Mono" font-size="14" lengthAdjust="spacing" textLength="184" x="1578.5" y="954.86">-remainingInput: String</text><line style="stroke:#181818;stroke-width:0.5;" x1="1573.5" x2="1807.5" y1="963.06" y2="963.06"/><text fill="#000000" font-family="JetBrains Mono" font-size="14" lengthAdjust="spacing" textLength="144" x="1578.5" y="981.34">+getToken(): Token</text><text fill="#000000" font-family="JetBrains Mono" font-size="14" lengthAdjust="spacing" textLength="224" x="1578.5" y="999.82">+getRemainingInput(): String</text></g><!--class IllegalElementException--><g id="elem_IllegalElementException"><rect codeLine="20" fill="#F1F1F1" height="103.44" id="IllegalElementException" rx="2.5" ry="2.5" style="stroke:#181818;stroke-width:0.5;" width="276" x="1552.5" y="747.34"/><ellipse cx="1594.5" cy="763.34" fill="#ADD1B2" rx="11" ry="11" style="stroke:#181818;stroke-width:1.0;"/><path d="M1596.9731,769.4831 Q1596.3921,769.7819 1595.7529,769.9313 Q1595.1138,770.0807 1594.4082,770.0807 Q1591.9014,770.0807 1590.5815,768.4289 Q1589.2617,766.777 1589.2617,763.6559 Q1589.2617,760.5265 1590.5815,758.8747 Q1591.9014,757.2228 1594.4082,757.2228 Q1595.1138,757.2228 1595.7612,757.3722 Q1596.4087,757.5216 1596.9731,757.8205 L1596.9731,760.5431 Q1596.3423,759.9621 1595.7488,759.6923 Q1595.1553,759.4225 1594.5244,759.4225 Q1593.1797,759.4225 1592.4949,760.4892 Q1591.8101,761.5558 1591.8101,763.6559 Q1591.8101,765.7477 1592.4949,766.8144 Q1593.1797,767.881 1594.5244,767.881 Q1595.1553,767.881 1595.7488,767.6112 Q1596.3423,767.3415 1596.9731,766.7604 Z " fill="#000000"/><text fill="#000000" font-family="JetBrains Mono" font-size="14" lengthAdjust="spacing" textLength="184" x="1614.5" y="768.38">IllegalElementException</text><line style="stroke:#181818;stroke-width:0.5;" x1="1553.5" x2="1827.5" y1="779.34" y2="779.34"/><text fill="#000000" font-family="JetBrains Mono" font-size="14" lengthAdjust="spacing" textLength="72" x="1558.5" y="797.62">-ch: char</text><line style="stroke:#181818;stroke-width:0.5;" x1="1553.5" x2="1827.5" y1="805.82" y2="805.82"/><text fill="#000000" font-family="JetBrains Mono" font-size="14" lengthAdjust="spacing" textLength="264" x="1558.5" y="824.1">+IllegalElementException(c: char)</text><text fill="#000000" font-family="JetBrains Mono" font-size="14" lengthAdjust="spacing" textLength="120" x="1558.5" y="842.58">+what(): String</text></g><!--class Expression--><g id="elem_Expression"><rect codeLine="26" fill="#F1F1F1" height="195.84" id="Expression" rx="2.5" ry="2.5" style="stroke:#181818;stroke-width:0.5;" width="228" x="367" y="604.14"/><ellipse cx="436.75" cy="620.14" fill="#ADD1B2" rx="11" ry="11" style="stroke:#181818;stroke-width:1.0;"/><path d="M439.2231,626.2831 Q438.6421,626.5819 438.0029,626.7313 Q437.3638,626.8807 436.6582,626.8807 Q434.1514,626.8807 432.8315,625.2289 Q431.5117,623.577 431.5117,620.4559 Q431.5117,617.3265 432.8315,615.6747 Q434.1514,614.0228 436.6582,614.0228 Q437.3638,614.0228 438.0112,614.1722 Q438.6587,614.3216 439.2231,614.6205 L439.2231,617.3431 Q438.5923,616.7621 437.9988,616.4923 Q437.4053,616.2225 436.7744,616.2225 Q435.4297,616.2225 434.7449,617.2892 Q434.0601,618.3558 434.0601,620.4559 Q434.0601,622.5477 434.7449,623.6144 Q435.4297,624.681 436.7744,624.681 Q437.4053,624.681 437.9988,624.4112 Q438.5923,624.1415 439.2231,623.5604 Z " fill="#000000"/><text fill="#000000" font-family="JetBrains Mono" font-size="14" lengthAdjust="spacing" textLength="80" x="457.25" y="625.18">Expression</text><line style="stroke:#181818;stroke-width:0.5;" x1="368" x2="594" y1="636.14" y2="636.14"/><text fill="#000000" font-family="JetBrains Mono" font-size="14" lengthAdjust="spacing" textLength="112" x="373" y="654.42">-input: String</text><text fill="#000000" font-family="JetBrains Mono" font-size="14" lengthAdjust="spacing" textLength="200" x="373" y="672.9">-infixTokens: List&lt;Token&gt;</text><text fill="#000000" font-family="JetBrains Mono" font-size="14" lengthAdjust="spacing" textLength="216" x="373" y="691.38">-postfixTokens: List&lt;Token&gt;</text><line style="stroke:#181818;stroke-width:0.5;" x1="368" x2="594" y1="699.58" y2="699.58"/><text fill="#000000" font-family="JetBrains Mono" font-size="14" lengthAdjust="spacing" textLength="208" x="373" y="717.86">+Expression(input: String)</text><text fill="#000000" font-family="JetBrains Mono" font-size="14" lengthAdjust="spacing" textLength="128" x="373" y="736.34">+evaluate(): int</text><text fill="#000000" font-family="JetBrains Mono" font-size="14" lengthAdjust="spacing" textLength="176" x="373" y="754.82">+tokenizeInput(): void</text><text fill="#000000" font-family="JetBrains Mono" font-size="14" lengthAdjust="spacing" textLength="200" x="373" y="773.3">+convertToPostfix(): void</text><text fill="#000000" font-family="JetBrains Mono" font-size="14" lengthAdjust="spacing" textLength="208" x="373" y="791.78">+evaluateExpression(): int</text></g><!--class Operator--><g id="elem_Operator"><rect codeLine="37" fill="#F1F1F1" height="121.92" id="Operator" rx="2.5" ry="2.5" style="stroke:#181818;stroke-width:0.5;" width="388" x="1496.5" y="433.1"/><ellipse cx="1654.25" cy="449.1" fill="#A9DCDF" rx="11" ry="11" style="stroke:#181818;stroke-width:1.0;"/><path d="M1654.1133,444.4481 L1652.9595,449.5199 L1655.2754,449.5199 Z M1652.6191,442.2069 L1655.6157,442.2069 L1658.9609,454.6 L1656.5122,454.6 L1655.7485,451.537 L1652.4697,451.537 L1651.7227,454.6 L1649.2739,454.6 Z " fill="#000000"/><text fill="#000000" font-family="JetBrains Mono" font-size="14" font-style="italic" lengthAdjust="spacing" textLength="64" x="1674.75" y="454.14">Operator</text><line style="stroke:#181818;stroke-width:0.5;" x1="1497.5" x2="1883.5" y1="465.1" y2="465.1"/><text fill="#000000" font-family="JetBrains Mono" font-size="14" lengthAdjust="spacing" textLength="72" x="1502.5" y="483.38">-op: char</text><line style="stroke:#181818;stroke-width:0.5;" x1="1497.5" x2="1883.5" y1="491.58" y2="491.58"/><text fill="#000000" font-family="JetBrains Mono" font-size="14" lengthAdjust="spacing" textLength="144" x="1502.5" y="509.86">#Operator(o: char)</text><text fill="#000000" font-family="JetBrains Mono" font-size="14" lengthAdjust="spacing" textLength="376" x="1502.5" y="528.34">+evaluate(leftValue: int, rightValue: int): int</text><text fill="#000000" font-family="JetBrains Mono" font-size="14" lengthAdjust="spacing" textLength="128" x="1502.5" y="546.82">+priority(): int</text></g><!--class OperatorAdd--><g id="elem_OperatorAdd"><rect codeLine="44" fill="#F1F1F1" height="140.4" id="OperatorAdd" rx="2.5" ry="2.5" style="stroke:#181818;stroke-width:0.5;" width="388" x="2118.5" y="432.86"/><ellipse cx="2264.25" cy="448.86" fill="#ADD1B2" rx="11" ry="11" style="stroke:#181818;stroke-width:1.0;"/><path d="M2266.7231,455.0031 Q2266.1421,455.3019 2265.5029,455.4513 Q2264.8638,455.6007 2264.1582,455.6007 Q2261.6514,455.6007 2260.3315,453.9489 Q2259.0117,452.297 2259.0117,449.1759 Q2259.0117,446.0465 2260.3315,444.3947 Q2261.6514,442.7428 2264.1582,442.7428 Q2264.8638,442.7428 2265.5112,442.8922 Q2266.1587,443.0416 2266.7231,443.3405 L2266.7231,446.0631 Q2266.0923,445.4821 2265.4988,445.2123 Q2264.9053,444.9425 2264.2744,444.9425 Q2262.9297,444.9425 2262.2449,446.0092 Q2261.5601,447.0758 2261.5601,449.1759 Q2261.5601,451.2677 2262.2449,452.3344 Q2262.9297,453.401 2264.2744,453.401 Q2264.9053,453.401 2265.4988,453.1312 Q2266.0923,452.8615 2266.7231,452.2804 Z " fill="#000000"/><text fill="#000000" font-family="JetBrains Mono" font-size="14" lengthAdjust="spacing" textLength="88" x="2284.75" y="453.9">OperatorAdd</text><line style="stroke:#181818;stroke-width:0.5;" x1="2119.5" x2="2505.5" y1="464.86" y2="464.86"/><text fill="#000000" font-family="JetBrains Mono" font-size="14" lengthAdjust="spacing" textLength="176" x="2124.5" y="483.14">-instance: OperatorAdd</text><line style="stroke:#181818;stroke-width:0.5;" x1="2119.5" x2="2505.5" y1="491.34" y2="491.34"/><text fill="#000000" font-family="JetBrains Mono" font-size="14" lengthAdjust="spacing" textLength="112" x="2124.5" y="509.62">-OperatorAdd()</text><text fill="#000000" font-family="JetBrains Mono" font-size="14" lengthAdjust="spacing" textLength="216" x="2124.5" y="528.1">+getInstance(): OperatorAdd</text><text fill="#000000" font-family="JetBrains Mono" font-size="14" lengthAdjust="spacing" textLength="376" x="2124.5" y="546.58">+evaluate(leftValue: int, rightValue: int): int</text><text fill="#000000" font-family="JetBrains Mono" font-size="14" lengthAdjust="spacing" textLength="128" x="2124.5" y="565.06">+priority(): int</text></g><!--class OperatorSub--><g id="elem_OperatorSub"><rect codeLine="52" fill="#F1F1F1" height="140.4" id="OperatorSub" rx="2.5" ry="2.5" style="stroke:#181818;stroke-width:0.5;" width="388" x="2118.5" y="607.86"/><ellipse cx="2264.25" cy="623.86" fill="#ADD1B2" rx="11" ry="11" style="stroke:#181818;stroke-width:1.0;"/><path d="M2266.7231,630.0031 Q2266.1421,630.3019 2265.5029,630.4513 Q2264.8638,630.6007 2264.1582,630.6007 Q2261.6514,630.6007 2260.3315,628.9489 Q2259.0117,627.297 2259.0117,624.1759 Q2259.0117,621.0465 2260.3315,619.3947 Q2261.6514,617.7428 2264.1582,617.7428 Q2264.8638,617.7428 2265.5112,617.8922 Q2266.1587,618.0416 2266.7231,618.3405 L2266.7231,621.0631 Q2266.0923,620.4821 2265.4988,620.2123 Q2264.9053,619.9425 2264.2744,619.9425 Q2262.9297,619.9425 2262.2449,621.0092 Q2261.5601,622.0758 2261.5601,624.1759 Q2261.5601,626.2677 2262.2449,627.3344 Q2262.9297,628.401 2264.2744,628.401 Q2264.9053,628.401 2265.4988,628.1312 Q2266.0923,627.8615 2266.7231,627.2804 Z " fill="#000000"/><text fill="#000000" font-family="JetBrains Mono" font-size="14" lengthAdjust="spacing" textLength="88" x="2284.75" y="628.9">OperatorSub</text><line style="stroke:#181818;stroke-width:0.5;" x1="2119.5" x2="2505.5" y1="639.86" y2="639.86"/><text fill="#000000" font-family="JetBrains Mono" font-size="14" lengthAdjust="spacing" textLength="176" x="2124.5" y="658.14">-instance: OperatorSub</text><line style="stroke:#181818;stroke-width:0.5;" x1="2119.5" x2="2505.5" y1="666.34" y2="666.34"/><text fill="#000000" font-family="JetBrains Mono" font-size="14" lengthAdjust="spacing" textLength="112" x="2124.5" y="684.62">-OperatorSub()</text><text fill="#000000" font-family="JetBrains Mono" font-size="14" lengthAdjust="spacing" textLength="216" x="2124.5" y="703.1">+getInstance(): OperatorSub</text><text fill="#000000" font-family="JetBrains Mono" font-size="14" lengthAdjust="spacing" textLength="376" x="2124.5" y="721.58">+evaluate(leftValue: int, rightValue: int): int</text><text fill="#000000" font-family="JetBrains Mono" font-size="14" lengthAdjust="spacing" textLength="128" x="2124.5" y="740.06">+priority(): int</text></g><!--class OperatorMul--><g id="elem_OperatorMul"><rect codeLine="60" fill="#F1F1F1" height="140.4" id="OperatorMul" rx="2.5" ry="2.5" style="stroke:#181818;stroke-width:0.5;" width="388" x="2118.5" y="782.86"/><ellipse cx="2264.25" cy="798.86" fill="#ADD1B2" rx="11" ry="11" style="stroke:#181818;stroke-width:1.0;"/><path d="M2266.7231,805.0031 Q2266.1421,805.3019 2265.5029,805.4513 Q2264.8638,805.6007 2264.1582,805.6007 Q2261.6514,805.6007 2260.3315,803.9489 Q2259.0117,802.297 2259.0117,799.1759 Q2259.0117,796.0465 2260.3315,794.3947 Q2261.6514,792.7428 2264.1582,792.7428 Q2264.8638,792.7428 2265.5112,792.8922 Q2266.1587,793.0416 2266.7231,793.3405 L2266.7231,796.0631 Q2266.0923,795.4821 2265.4988,795.2123 Q2264.9053,794.9425 2264.2744,794.9425 Q2262.9297,794.9425 2262.2449,796.0092 Q2261.5601,797.0758 2261.5601,799.1759 Q2261.5601,801.2677 2262.2449,802.3344 Q2262.9297,803.401 2264.2744,803.401 Q2264.9053,803.401 2265.4988,803.1312 Q2266.0923,802.8615 2266.7231,802.2804 Z " fill="#000000"/><text fill="#000000" font-family="JetBrains Mono" font-size="14" lengthAdjust="spacing" textLength="88" x="2284.75" y="803.9">OperatorMul</text><line style="stroke:#181818;stroke-width:0.5;" x1="2119.5" x2="2505.5" y1="814.86" y2="814.86"/><text fill="#000000" font-family="JetBrains Mono" font-size="14" lengthAdjust="spacing" textLength="176" x="2124.5" y="833.14">-instance: OperatorMul</text><line style="stroke:#181818;stroke-width:0.5;" x1="2119.5" x2="2505.5" y1="841.34" y2="841.34"/><text fill="#000000" font-family="JetBrains Mono" font-size="14" lengthAdjust="spacing" textLength="112" x="2124.5" y="859.62">-OperatorMul()</text><text fill="#000000" font-family="JetBrains Mono" font-size="14" lengthAdjust="spacing" textLength="216" x="2124.5" y="878.1">+getInstance(): OperatorMul</text><text fill="#000000" font-family="JetBrains Mono" font-size="14" lengthAdjust="spacing" textLength="376" x="2124.5" y="896.58">+evaluate(leftValue: int, rightValue: int): int</text><text fill="#000000" font-family="JetBrains Mono" font-size="14" lengthAdjust="spacing" textLength="128" x="2124.5" y="915.06">+priority(): int</text></g><!--class OperatorDiv--><g id="elem_OperatorDiv"><rect codeLine="68" fill="#F1F1F1" height="140.4" id="OperatorDiv" rx="2.5" ry="2.5" style="stroke:#181818;stroke-width:0.5;" width="388" x="2118.5" y="957.86"/><ellipse cx="2264.25" cy="973.86" fill="#ADD1B2" rx="11" ry="11" style="stroke:#181818;stroke-width:1.0;"/><path d="M2266.7231,980.0031 Q2266.1421,980.3019 2265.5029,980.4513 Q2264.8638,980.6007 2264.1582,980.6007 Q2261.6514,980.6007 2260.3315,978.9489 Q2259.0117,977.297 2259.0117,974.1759 Q2259.0117,971.0465 2260.3315,969.3947 Q2261.6514,967.7428 2264.1582,967.7428 Q2264.8638,967.7428 2265.5112,967.8922 Q2266.1587,968.0416 2266.7231,968.3405 L2266.7231,971.0631 Q2266.0923,970.4821 2265.4988,970.2123 Q2264.9053,969.9425 2264.2744,969.9425 Q2262.9297,969.9425 2262.2449,971.0092 Q2261.5601,972.0758 2261.5601,974.1759 Q2261.5601,976.2677 2262.2449,977.3344 Q2262.9297,978.401 2264.2744,978.401 Q2264.9053,978.401 2265.4988,978.1312 Q2266.0923,977.8615 2266.7231,977.2804 Z " fill="#000000"/><text fill="#000000" font-family="JetBrains Mono" font-size="14" lengthAdjust="spacing" textLength="88" x="2284.75" y="978.9">OperatorDiv</text><line style="stroke:#181818;stroke-width:0.5;" x1="2119.5" x2="2505.5" y1="989.86" y2="989.86"/><text fill="#000000" font-family="JetBrains Mono" font-size="14" lengthAdjust="spacing" textLength="176" x="2124.5" y="1008.14">-instance: OperatorDiv</text><line style="stroke:#181818;stroke-width:0.5;" x1="2119.5" x2="2505.5" y1="1016.34" y2="1016.34"/><text fill="#000000" font-family="JetBrains Mono" font-size="14" lengthAdjust="spacing" textLength="112" x="2124.5" y="1034.62">-OperatorDiv()</text><text fill="#000000" font-family="JetBrains Mono" font-size="14" lengthAdjust="spacing" textLength="216" x="2124.5" y="1053.1">+getInstance(): OperatorDiv</text><text fill="#000000" font-family="JetBrains Mono" font-size="14" lengthAdjust="spacing" textLength="376" x="2124.5" y="1071.58">+evaluate(leftValue: int, rightValue: int): int</text><text fill="#000000" font-family="JetBrains Mono" font-size="14" lengthAdjust="spacing" textLength="128" x="2124.5" y="1090.06">+priority(): int</text></g><!--class Operand--><g id="elem_Operand"><rect codeLine="76" fill="#F1F1F1" height="121.92" id="Operand" rx="2.5" ry="2.5" style="stroke:#181818;stroke-width:0.5;" width="164" x="1608.5" y="590.1"/><ellipse cx="1658.25" cy="606.1" fill="#ADD1B2" rx="11" ry="11" style="stroke:#181818;stroke-width:1.0;"/><path d="M1660.7231,612.2431 Q1660.1421,612.5419 1659.5029,612.6913 Q1658.8638,612.8407 1658.1582,612.8407 Q1655.6514,612.8407 1654.3315,611.1889 Q1653.0117,609.537 1653.0117,606.4159 Q1653.0117,603.2865 1654.3315,601.6347 Q1655.6514,599.9828 1658.1582,599.9828 Q1658.8638,599.9828 1659.5112,600.1322 Q1660.1587,600.2816 1660.7231,600.5805 L1660.7231,603.3031 Q1660.0923,602.7221 1659.4988,602.4523 Q1658.9053,602.1825 1658.2744,602.1825 Q1656.9297,602.1825 1656.2449,603.2492 Q1655.5601,604.3158 1655.5601,606.4159 Q1655.5601,608.5077 1656.2449,609.5744 Q1656.9297,610.641 1658.2744,610.641 Q1658.9053,610.641 1659.4988,610.3712 Q1660.0923,610.1015 1660.7231,609.5204 Z " fill="#000000"/><text fill="#000000" font-family="JetBrains Mono" font-size="14" lengthAdjust="spacing" textLength="56" x="1678.75" y="611.14">Operand</text><line style="stroke:#181818;stroke-width:0.5;" x1="1609.5" x2="1771.5" y1="622.1" y2="622.1"/><text fill="#000000" font-family="JetBrains Mono" font-size="14" lengthAdjust="spacing" textLength="72" x="1614.5" y="640.38">-val: int</text><line style="stroke:#181818;stroke-width:0.5;" x1="1609.5" x2="1771.5" y1="648.58" y2="648.58"/><text fill="#000000" font-family="JetBrains Mono" font-size="14" lengthAdjust="spacing" textLength="128" x="1614.5" y="666.86">+Operand(v: int)</text><text fill="#000000" font-family="JetBrains Mono" font-size="14" lengthAdjust="spacing" textLength="104" x="1614.5" y="685.34">+value(): int</text><text fill="#000000" font-family="JetBrains Mono" font-size="14" lengthAdjust="spacing" textLength="152" x="1614.5" y="703.82">+toString(): String</text></g><!--class LeftP--><g id="elem_LeftP"><rect codeLine="83" fill="#F1F1F1" height="121.92" id="LeftP" rx="2.5" ry="2.5" style="stroke:#181818;stroke-width:0.5;" width="180" x="1600.5" y="1043.1"/><ellipse cx="1666.25" cy="1059.1" fill="#ADD1B2" rx="11" ry="11" style="stroke:#181818;stroke-width:1.0;"/><path d="M1668.7231,1065.2431 Q1668.1421,1065.5419 1667.5029,1065.6913 Q1666.8638,1065.8407 1666.1582,1065.8407 Q1663.6514,1065.8407 1662.3315,1064.1889 Q1661.0117,1062.537 1661.0117,1059.4159 Q1661.0117,1056.2865 1662.3315,1054.6347 Q1663.6514,1052.9828 1666.1582,1052.9828 Q1666.8638,1052.9828 1667.5112,1053.1322 Q1668.1587,1053.2816 1668.7231,1053.5805 L1668.7231,1056.3031 Q1668.0923,1055.7221 1667.4988,1055.4523 Q1666.9053,1055.1825 1666.2744,1055.1825 Q1664.9297,1055.1825 1664.2449,1056.2492 Q1663.5601,1057.3158 1663.5601,1059.4159 Q1663.5601,1061.5077 1664.2449,1062.5744 Q1664.9297,1063.641 1666.2744,1063.641 Q1666.9053,1063.641 1667.4988,1063.3712 Q1668.0923,1063.1015 1668.7231,1062.5204 Z " fill="#000000"/><text fill="#000000" font-family="JetBrains Mono" font-size="14" lengthAdjust="spacing" textLength="40" x="1686.75" y="1064.14">LeftP</text><line style="stroke:#181818;stroke-width:0.5;" x1="1601.5" x2="1779.5" y1="1075.1" y2="1075.1"/><text fill="#000000" font-family="JetBrains Mono" font-size="14" lengthAdjust="spacing" textLength="128" x="1606.5" y="1093.38">-instance: LeftP</text><line style="stroke:#181818;stroke-width:0.5;" x1="1601.5" x2="1779.5" y1="1101.58" y2="1101.58"/><text fill="#000000" font-family="JetBrains Mono" font-size="14" lengthAdjust="spacing" textLength="64" x="1606.5" y="1119.86">-LeftP()</text><text fill="#000000" font-family="JetBrains Mono" font-size="14" lengthAdjust="spacing" textLength="168" x="1606.5" y="1138.34">+getInstance(): LeftP</text><text fill="#000000" font-family="JetBrains Mono" font-size="14" lengthAdjust="spacing" textLength="152" x="1606.5" y="1156.82">+toString(): String</text></g><!--class RightP--><g id="elem_RightP"><rect codeLine="90" fill="#F1F1F1" height="121.92" id="RightP" rx="2.5" ry="2.5" style="stroke:#181818;stroke-width:0.5;" width="188" x="1596.5" y="1200.1"/><ellipse cx="1662.25" cy="1216.1" fill="#ADD1B2" rx="11" ry="11" style="stroke:#181818;stroke-width:1.0;"/><path d="M1664.7231,1222.2431 Q1664.1421,1222.5419 1663.5029,1222.6913 Q1662.8638,1222.8407 1662.1582,1222.8407 Q1659.6514,1222.8407 1658.3315,1221.1889 Q1657.0117,1219.537 1657.0117,1216.4159 Q1657.0117,1213.2865 1658.3315,1211.6347 Q1659.6514,1209.9828 1662.1582,1209.9828 Q1662.8638,1209.9828 1663.5112,1210.1322 Q1664.1587,1210.2816 1664.7231,1210.5805 L1664.7231,1213.3031 Q1664.0923,1212.7221 1663.4988,1212.4523 Q1662.9053,1212.1825 1662.2744,1212.1825 Q1660.9297,1212.1825 1660.2449,1213.2492 Q1659.5601,1214.3158 1659.5601,1216.4159 Q1659.5601,1218.5077 1660.2449,1219.5744 Q1660.9297,1220.641 1662.2744,1220.641 Q1662.9053,1220.641 1663.4988,1220.3712 Q1664.0923,1220.1015 1664.7231,1219.5204 Z " fill="#000000"/><text fill="#000000" font-family="JetBrains Mono" font-size="14" lengthAdjust="spacing" textLength="48" x="1682.75" y="1221.14">RightP</text><line style="stroke:#181818;stroke-width:0.5;" x1="1597.5" x2="1783.5" y1="1232.1" y2="1232.1"/><text fill="#000000" font-family="JetBrains Mono" font-size="14" lengthAdjust="spacing" textLength="136" x="1602.5" y="1250.38">-instance: RightP</text><line style="stroke:#181818;stroke-width:0.5;" x1="1597.5" x2="1783.5" y1="1258.58" y2="1258.58"/><text fill="#000000" font-family="JetBrains Mono" font-size="14" lengthAdjust="spacing" textLength="72" x="1602.5" y="1276.86">-RightP()</text><text fill="#000000" font-family="JetBrains Mono" font-size="14" lengthAdjust="spacing" textLength="176" x="1602.5" y="1295.34">+getInstance(): RightP</text><text fill="#000000" font-family="JetBrains Mono" font-size="14" lengthAdjust="spacing" textLength="152" x="1602.5" y="1313.82">+toString(): String</text></g><!--class ExpressionProcessingException--><g id="elem_ExpressionProcessingException"><rect codeLine="97" fill="#F1F1F1" height="66.48" id="ExpressionProcessingException" rx="2.5" ry="2.5" style="stroke:#181818;stroke-width:0.5;" width="388" x="845.5" y="820.82"/><ellipse cx="919.25" cy="836.82" fill="#ADD1B2" rx="11" ry="11" style="stroke:#181818;stroke-width:1.0;"/><path d="M921.7231,842.9631 Q921.1421,843.2619 920.5029,843.4113 Q919.8638,843.5607 919.1582,843.5607 Q916.6514,843.5607 915.3315,841.9089 Q914.0117,840.257 914.0117,837.1359 Q914.0117,834.0065 915.3315,832.3547 Q916.6514,830.7028 919.1582,830.7028 Q919.8638,830.7028 920.5112,830.8522 Q921.1587,831.0016 921.7231,831.3005 L921.7231,834.0231 Q921.0923,833.4421 920.4988,833.1723 Q919.9053,832.9025 919.2744,832.9025 Q917.9297,832.9025 917.2449,833.9692 Q916.5601,835.0358 916.5601,837.1359 Q916.5601,839.2277 917.2449,840.2944 Q917.9297,841.361 919.2744,841.361 Q919.9053,841.361 920.4988,841.0912 Q921.0923,840.8215 921.7231,840.2404 Z " fill="#000000"/><text fill="#000000" font-family="JetBrains Mono" font-size="14" lengthAdjust="spacing" textLength="232" x="939.75" y="841.86">ExpressionProcessingException</text><line style="stroke:#181818;stroke-width:0.5;" x1="846.5" x2="1232.5" y1="852.82" y2="852.82"/><line style="stroke:#181818;stroke-width:0.5;" x1="846.5" x2="1232.5" y1="860.82" y2="860.82"/><text fill="#000000" font-family="JetBrains Mono" font-size="14" lengthAdjust="spacing" textLength="376" x="851.5" y="879.1">+ExpressionProcessingException(message: String)</text></g><!--class PolishNotation--><g id="elem_PolishNotation"><rect fill="#F1F1F1" height="48" id="PolishNotation" rx="2.5" ry="2.5" style="stroke:#181818;stroke-width:0.5;" width="144" x="7" y="801.06"/><ellipse cx="22" cy="817.06" fill="#ADD1B2" rx="11" ry="11" style="stroke:#181818;stroke-width:1.0;"/><path d="M24.4731,823.2031 Q23.8921,823.5019 23.2529,823.6513 Q22.6138,823.8007 21.9082,823.8007 Q19.4014,823.8007 18.0815,822.1489 Q16.7617,820.497 16.7617,817.3759 Q16.7617,814.2465 18.0815,812.5947 Q19.4014,810.9428 21.9082,810.9428 Q22.6138,810.9428 23.2612,811.0922 Q23.9087,811.2416 24.4731,811.5405 L24.4731,814.2631 Q23.8423,813.6821 23.2488,813.4123 Q22.6553,813.1425 22.0244,813.1425 Q20.6797,813.1425 19.9949,814.2092 Q19.3101,815.2758 19.3101,817.3759 Q19.3101,819.4677 19.9949,820.5344 Q20.6797,821.601 22.0244,821.601 Q22.6553,821.601 23.2488,821.3312 Q23.8423,821.0615 24.4731,820.4804 Z " fill="#000000"/><text fill="#000000" font-family="JetBrains Mono" font-size="14" lengthAdjust="spacing" textLength="112" x="36" y="822.1">PolishNotation</text><line style="stroke:#181818;stroke-width:0.5;" x1="8" x2="150" y1="833.06" y2="833.06"/><line style="stroke:#181818;stroke-width:0.5;" x1="8" x2="150" y1="841.06" y2="841.06"/></g><g id="elem_GMN33"><path d="M777,170.84 L777,335.28 L1302,335.28 L1302,180.84 L1292,170.84 L777,170.84 " fill="#FEFFDD" style="stroke:#181818;stroke-width:0.5;"/><path d="M1292,170.84 L1292,180.84 L1302,180.84 L1292,170.84 " fill="#FEFFDD" style="stroke:#181818;stroke-width:1.0;"/><text fill="#000000" font-family="JetBrains Mono" font-size="13" lengthAdjust="spacing" textLength="224" x="783" y="189.1">Pipeline used by evaluate():</text><text fill="#000000" font-family="JetBrains Mono" font-size="13" lengthAdjust="spacing" textLength="144" x="783" y="206.26">1. tokenizeInput()</text><text fill="#000000" font-family="JetBrains Mono" font-size="13" lengthAdjust="spacing" textLength="168" x="783" y="223.42">2. convertToPostfix()</text><text fill="#000000" font-family="JetBrains Mono" font-size="13" lengthAdjust="spacing" textLength="184" x="783" y="240.58">3. evaluateExpression()</text><text fill="#000000" font-family="JetBrains Mono" font-size="13" lengthAdjust="spacing" textLength="8" x="783" y="257.74">&#160;</text><text fill="#000000" font-family="JetBrains Mono" font-size="13" lengthAdjust="spacing" textLength="368" x="783" y="274.9">The conversion is the shunting-yard algorithm:</text><text fill="#000000" font-family="JetBrains Mono" font-size="13" lengthAdjust="spacing" textLength="272" x="783" y="292.06">operators are stacked by priority,</text><text fill="#000000" font-family="JetBrains Mono" font-size="13" lengthAdjust="spacing" textLength="232" x="783" y="309.22">parentheses control grouping,</text><text fill="#000000" font-family="JetBrains Mono" font-size="13" lengthAdjust="spacing" textLength="504" x="783" y="326.38">and the resulting postfix list is evaluated with a value stack.</text></g><g id="elem_GMN36"><path d="M1420,1378.32 L1420,1439.8 L1961,1439.8 L1961,1388.32 L1951,1378.32 L1420,1378.32 " fill="#FEFFDD" style="stroke:#181818;stroke-width:0.5;"/><path d="M1951,1378.32 L1951,1388.32 L1961,1388.32 L1951,1378.32 " fill="#FEFFDD" style="stroke:#181818;stroke-width:1.0;"/><text fill="#000000" font-family="JetBrains Mono" font-size="13" lengthAdjust="spacing" textLength="168" x="1426" y="1396.58">Static token factory.</text><text fill="#000000" font-family="JetBrains Mono" font-size="13" lengthAdjust="spacing" textLength="520" x="1426" y="1413.74">readToken() consumes one token from the front of the input string</text><text fill="#000000" font-family="JetBrains Mono" font-size="13" lengthAdjust="spacing" textLength="408" x="1426" y="1430.9">and returns the token plus the remaining substring.</text></g><g id="elem_GMN39"><path d="M2022,1377.9 L2022,1422.22 L2603,1422.22 L2603,1387.9 L2593,1377.9 L2022,1377.9 " fill="#FEFFDD" style="stroke:#181818;stroke-width:0.5;"/><path d="M2593,1377.9 L2593,1387.9 L2603,1387.9 L2593,1377.9 " fill="#FEFFDD" style="stroke:#181818;stroke-width:1.0;"/><text fill="#000000" font-family="JetBrains Mono" font-size="13" lengthAdjust="spacing" textLength="392" x="2028" y="1396.16">Abstract behavior shared by arithmetic operators.</text><text fill="#000000" font-family="JetBrains Mono" font-size="13" lengthAdjust="spacing" textLength="560" x="2028" y="1413.32">Concrete subclasses provide the symbol, priority, and evaluation rule.</text></g><g id="elem_GMN42"><path d="M2676,480.9 L2676,499.06 L2506.93,503.06 L2676,507.06 L2676,525.22 A0,0 0 0 0 2676,525.22 L3033,525.22 A0,0 0 0 0 3033,525.22 L3033,490.9 L3023,480.9 L2676,480.9 A0,0 0 0 0 2676,480.9 " fill="#FEFFDD" style="stroke:#181818;stroke-width:0.5;"/><path d="M3023,480.9 L3023,490.9 L3033,490.9 L3023,480.9 " fill="#FEFFDD" style="stroke:#181818;stroke-width:0.5;"/><text fill="#000000" font-family="JetBrains Mono" font-size="13" lengthAdjust="spacing" textLength="184" x="2682" y="499.16">Singleton token object.</text><text fill="#000000" font-family="JetBrains Mono" font-size="13" lengthAdjust="spacing" textLength="336" x="2682" y="516.32">Addition and subtraction share priority 1.</text></g><g id="elem_GMN45"><path d="M2676,655.9 L2676,674.06 L2506.93,678.06 L2676,682.06 L2676,700.22 A0,0 0 0 0 2676,700.22 L3033,700.22 A0,0 0 0 0 3033,700.22 L3033,665.9 L3023,655.9 L2676,655.9 A0,0 0 0 0 2676,655.9 " fill="#FEFFDD" style="stroke:#181818;stroke-width:0.5;"/><path d="M3023,655.9 L3023,665.9 L3033,665.9 L3023,655.9 " fill="#FEFFDD" style="stroke:#181818;stroke-width:0.5;"/><text fill="#000000" font-family="JetBrains Mono" font-size="13" lengthAdjust="spacing" textLength="184" x="2682" y="674.16">Singleton token object.</text><text fill="#000000" font-family="JetBrains Mono" font-size="13" lengthAdjust="spacing" textLength="336" x="2682" y="691.32">Addition and subtraction share priority 1.</text></g><g id="elem_GMN48"><path d="M2664,830.9 L2664,849.06 L2506.93,853.06 L2664,857.06 L2664,875.22 A0,0 0 0 0 2664,875.22 L3045,875.22 A0,0 0 0 0 3045,875.22 L3045,840.9 L3035,830.9 L2664,830.9 A0,0 0 0 0 2664,830.9 " fill="#FEFFDD" style="stroke:#181818;stroke-width:0.5;"/><path d="M3035,830.9 L3035,840.9 L3045,840.9 L3035,830.9 " fill="#FEFFDD" style="stroke:#181818;stroke-width:0.5;"/><text fill="#000000" font-family="JetBrains Mono" font-size="13" lengthAdjust="spacing" textLength="184" x="2670" y="849.16">Singleton token object.</text><text fill="#000000" font-family="JetBrains Mono" font-size="13" lengthAdjust="spacing" textLength="360" x="2670" y="866.32">Multiplication and division share priority 2.</text></g><g id="elem_GMN51"><path d="M2664,1005.9 L2664,1024.06 L2506.93,1028.06 L2664,1032.06 L2664,1050.22 A0,0 0 0 0 2664,1050.22 L3045,1050.22 A0,0 0 0 0 3045,1050.22 L3045,1015.9 L3035,1005.9 L2664,1005.9 A0,0 0 0 0 2664,1005.9 " fill="#FEFFDD" style="stroke:#181818;stroke-width:0.5;"/><path d="M3035,1005.9 L3035,1015.9 L3045,1015.9 L3035,1005.9 " fill="#FEFFDD" style="stroke:#181818;stroke-width:0.5;"/><text fill="#000000" font-family="JetBrains Mono" font-size="13" lengthAdjust="spacing" textLength="184" x="2670" y="1024.16">Singleton token object.</text><text fill="#000000" font-family="JetBrains Mono" font-size="13" lengthAdjust="spacing" textLength="360" x="2670" y="1041.32">Multiplication and division share priority 2.</text></g><g id="elem_GMN54"><path d="M2042,1456.9 L2042,1501.22 L2583,1501.22 L2583,1466.9 L2573,1456.9 L2042,1456.9 " fill="#FEFFDD" style="stroke:#181818;stroke-width:0.5;"/><path d="M2573,1456.9 L2573,1466.9 L2583,1466.9 L2573,1456.9 " fill="#FEFFDD" style="stroke:#181818;stroke-width:1.0;"/><text fill="#000000" font-family="JetBrains Mono" font-size="13" lengthAdjust="spacing" textLength="184" x="2048" y="1475.16">Singleton token object.</text><text fill="#000000" font-family="JetBrains Mono" font-size="13" lengthAdjust="spacing" textLength="520" x="2048" y="1492.32">Parentheses do not carry state, so one shared instance is enough.</text></g><g id="elem_GMN57"><path d="M2042,1535.9 L2042,1580.22 L2583,1580.22 L2583,1545.9 L2573,1535.9 L2042,1535.9 " fill="#FEFFDD" style="stroke:#181818;stroke-width:0.5;"/><path d="M2573,1535.9 L2573,1545.9 L2583,1545.9 L2573,1535.9 " fill="#FEFFDD" style="stroke:#181818;stroke-width:1.0;"/><text fill="#000000" font-family="JetBrains Mono" font-size="13" lengthAdjust="spacing" textLength="184" x="2048" y="1554.16">Singleton token object.</text><text fill="#000000" font-family="JetBrains Mono" font-size="13" lengthAdjust="spacing" textLength="520" x="2048" y="1571.32">Parentheses do not carry state, so one shared instance is enough.</text></g><g id="elem_GMN60"><path d="M841,6 L841,136.12 L1238,136.12 L1238,16 L1228,6 L841,6 " fill="#FEFFDD" style="stroke:#181818;stroke-width:0.5;"/><path d="M1228,6 L1228,16 L1238,16 L1228,6 " fill="#FEFFDD" style="stroke:#181818;stroke-width:1.0;"/><text fill="#000000" font-family="JetBrains Mono" font-size="13" lengthAdjust="spacing" textLength="200" x="847" y="24.26">Design pattern used here:</text><text fill="#000000" font-family="JetBrains Mono" font-size="13" lengthAdjust="spacing" textLength="296" x="847" y="41.42">- Singleton for stateless token types</text><text fill="#000000" font-family="JetBrains Mono" font-size="13" lengthAdjust="spacing" textLength="344" x="847" y="58.58">- Simple factory method through readToken()</text><text fill="#000000" font-family="JetBrains Mono" font-size="13" lengthAdjust="spacing" textLength="8" x="847" y="75.74">&#160;</text><text fill="#000000" font-family="JetBrains Mono" font-size="13" lengthAdjust="spacing" textLength="312" x="847" y="92.9">Algorithmic pattern used by Expression:</text><text fill="#000000" font-family="JetBrains Mono" font-size="13" lengthAdjust="spacing" textLength="376" x="847" y="110.06">- Shunting-yard for infix to postfix conversion</text><text fill="#000000" font-family="JetBrains Mono" font-size="13" lengthAdjust="spacing" textLength="256" x="847" y="127.22">- Stack-based postfix evaluation</text></g><!--reverse link Token to Operator--><g id="link_Token_Operator"><path codeLine="102" d="M1214.6223,666.0155 C1275.6423,643.1155 1328.61,621.15 1390,591.06 C1403.96,584.22 1405.76,579.3 1420,573.06 C1444.23,562.45 1470.29,552.79 1496.32,544.15 " fill="none" id="Token-backto-Operator" style="stroke:#181818;stroke-width:1.0;"/><polygon fill="none" points="1197.77,672.34,1216.7305,671.633,1212.5142,660.3981,1197.77,672.34" style="stroke:#181818;stroke-width:1.0;"/></g><!--reverse link Token to Operand--><g id="link_Token_Operand"><path codeLine="103" d="M1215.4778,706.5663 C1345.0978,691.3863 1505.89,672.56 1608.4,660.56 " fill="none" id="Token-backto-Operand" style="stroke:#181818;stroke-width:1.0;"/><polygon fill="none" points="1197.6,708.66,1216.1757,712.5256,1214.7799,700.607,1197.6,708.66" style="stroke:#181818;stroke-width:1.0;"/></g><!--reverse link Token to LeftP--><g id="link_Token_LeftP"><path codeLine="104" d="M1215.1031,755.9811 C1252.1431,767.2311 1272.24,778.59 1302,803.06 C1324.42,821.49 1318.47,835.38 1332,861.06 C1370.56,934.24 1355.77,972.94 1420,1025.06 C1471.11,1066.54 1543.26,1086.24 1600.05,1095.6 " fill="none" id="Token-backto-LeftP" style="stroke:#181818;stroke-width:1.0;"/><polygon fill="none" points="1197.88,750.75,1213.3594,761.7221,1216.8468,750.2401,1197.88,750.75" style="stroke:#181818;stroke-width:1.0;"/></g><!--reverse link Token to RightP--><g id="link_Token_RightP"><path codeLine="105" d="M1215.1892,747.5736 C1254.2492,758.8036 1275.24,772.45 1302,803.06 C1361.16,870.73 1305.19,917.27 1332,1003.06 C1358.44,1087.67 1352.17,1124.98 1420,1182.06 C1469.34,1223.58 1539.62,1243.28 1596.05,1252.63 " fill="none" id="Token-backto-RightP" style="stroke:#181818;stroke-width:1.0;"/><polygon fill="none" points="1197.89,742.6,1213.5313,753.34,1216.8471,741.8072,1197.89,742.6" style="stroke:#181818;stroke-width:1.0;"/></g><!--reverse link Operator to OperatorAdd--><g id="link_Operator_OperatorAdd"><path codeLine="106" d="M1902.6981,497.1217 C1976.9681,498.2017 2043.73,499.17 2118.03,500.25 " fill="none" id="Operator-backto-OperatorAdd" style="stroke:#181818;stroke-width:1.0;"/><polygon fill="none" points="1884.7,496.86,1902.6109,503.1211,1902.7853,491.1224,1884.7,496.86" style="stroke:#181818;stroke-width:1.0;"/></g><!--reverse link Operator to OperatorSub--><g id="link_Operator_OperatorSub"><path codeLine="107" d="M1902.0288,555.6383 C1927.6688,563.1783 1936.34,565.75 1961,573.06 C2012.01,588.18 2067.15,604.64 2118.27,619.95 " fill="none" id="Operator-backto-OperatorSub" style="stroke:#181818;stroke-width:1.0;"/><polygon fill="none" points="1884.76,550.56,1900.336,561.3945,1903.7215,549.882,1884.76,550.56" style="stroke:#181818;stroke-width:1.0;"/></g><!--reverse link Operator to OperatorMul--><g id="link_Operator_OperatorMul"><path codeLine="108" d="M1901.4004,531.9801 C1929.5804,543.3601 1939.58,552.08 1961,573.06 C2025.28,636 1957.94,702.9 2022,766.06 C2048.53,792.22 2082.62,810.56 2118.02,823.41 " fill="none" id="Operator-backto-OperatorMul" style="stroke:#181818;stroke-width:1.0;"/><polygon fill="none" points="1884.71,525.24,1899.1537,537.5436,1903.6471,526.4167,1884.71,525.24" style="stroke:#181818;stroke-width:1.0;"/></g><!--reverse link Operator to OperatorDiv--><g id="link_Operator_OperatorDiv"><path codeLine="109" d="M1901.6601,528.5347 C1930.4101,540.2947 1940.55,549.98 1961,573.06 C2015.97,635.11 1967.24,878.83 2022,941.06 C2047.39,969.92 2081.96,989.39 2118.36,1002.48 " fill="none" id="Operator-backto-OperatorDiv" style="stroke:#181818;stroke-width:1.0;"/><polygon fill="none" points="1885,521.72,1899.3886,534.0881,1903.9317,522.9813,1885,521.72" style="stroke:#181818;stroke-width:1.0;"/></g><!--link Expression to Token--><g id="link_Expression_Token"><path codeLine="110" d="M595.29,707.15 C677.6,710.85 784.056,715.6307 875.086,719.7207 " fill="none" id="Expression-to-Token" style="stroke:#181818;stroke-width:1.0;stroke-dasharray:7.0,7.0;"/><polygon fill="#181818" points="881.08,719.99,872.2686,715.5901,876.085,719.7656,871.9095,723.582,881.08,719.99" style="stroke:#181818;stroke-width:1.0;"/><text fill="#000000" font-family="JetBrains Mono" font-size="13" lengthAdjust="spacing" textLength="120" x="626" y="704.02">parses / stores</text></g><!--link Expression to Operator--><g id="link_Expression_Operator"><path codeLine="111" d="M595.47,682.42 C650.31,672.94 717.07,661.4 777,651.06 C1025.31,608.24 1305.7367,560.0062 1490.4367,528.2662 " fill="none" id="Expression-to-Operator" style="stroke:#181818;stroke-width:1.0;stroke-dasharray:7.0,7.0;"/><polygon fill="#181818" points="1496.35,527.25,1486.8026,524.8321,1491.4222,528.0968,1488.1575,532.7165,1496.35,527.25" style="stroke:#181818;stroke-width:1.0;"/><text fill="#000000" font-family="JetBrains Mono" font-size="13" lengthAdjust="spacing" textLength="72" x="1003.5" y="556.41">evaluates</text></g><!--link Expression to ExpressionProcessingException--><g id="link_Expression_ExpressionProcessingException"><path codeLine="112" d="M595.4,744.96 C649.79,764.49 716.2,786.81 777,803.06 C800.24,809.27 818.9559,813.7902 843.3859,819.0802 " fill="none" id="Expression-to-ExpressionProcessingException" style="stroke:#181818;stroke-width:1.0;stroke-dasharray:7.0,7.0;"/><polygon fill="#181818" points="849.25,820.35,841.3004,814.5359,844.3633,819.2918,839.6073,822.3547,849.25,820.35" style="stroke:#181818;stroke-width:1.0;"/><text fill="#000000" font-family="JetBrains Mono" font-size="13" lengthAdjust="spacing" textLength="48" x="662" y="752.64">throws</text></g><!--link PolishNotation to Expression--><g id="link_PolishNotation_Expression"><path codeLine="113" d="M151.05,803.21 C210.77,784.85 291.4849,760.023 360.7749,738.723 " fill="none" id="PolishNotation-to-Expression" style="stroke:#181818;stroke-width:1.0;stroke-dasharray:7.0,7.0;"/><polygon fill="#181818" points="366.51,736.96,356.732,735.7811,361.7307,738.4292,359.0826,743.4279,366.51,736.96" style="stroke:#181818;stroke-width:1.0;"/><text fill="#000000" font-family="JetBrains Mono" font-size="13" lengthAdjust="spacing" textLength="128" x="182" y="751.46">creates and runs</text></g><!--link PolishNotation to ExpressionProcessingException--><g id="link_PolishNotation_ExpressionProcessingException"><path codeLine="114" d="M151.36,828.74 C198.86,831.09 262.65,834.06 319,836.06 C497.26,842.39 694.4313,847.1329 839.3113,850.2029 " fill="none" id="PolishNotation-to-ExpressionProcessingException" style="stroke:#181818;stroke-width:1.0;stroke-dasharray:7.0,7.0;"/><polygon fill="#181818" points="845.31,850.33,836.3968,846.1402,840.3111,850.2241,836.2273,854.1384,845.31,850.33" style="stroke:#181818;stroke-width:1.0;"/><text fill="#000000" font-family="JetBrains Mono" font-size="13" lengthAdjust="spacing" textLength="56" x="453" y="831.32">catches</text></g><!--link Token to TokenResult--><g id="link_Token_TokenResult"><path codeLine="115" d="M1197.66,766.63 C1232.52,777.08 1268.92,789.34 1302,803.06 C1357.31,826 1364.72,845.06 1420,868.06 C1468.62,888.29 1518.3933,903.9244 1566.3833,917.0744 " fill="none" id="Token-to-TokenResult" style="stroke:#181818;stroke-width:1.0;stroke-dasharray:7.0,7.0;"/><polygon fill="#181818" points="1572.17,918.66,1564.5471,912.4237,1567.3478,917.3386,1562.4329,920.1393,1572.17,918.66" style="stroke:#181818;stroke-width:1.0;"/><text fill="#000000" font-family="JetBrains Mono" font-size="13" lengthAdjust="spacing" textLength="56" x="1333" y="812.98">returns</text></g><!--link Token to IllegalElementException--><g id="link_Token_IllegalElementException"><path codeLine="116" d="M1197.6,744.49 C1305.83,756.5 1442.3066,771.6384 1546.0466,783.1484 " fill="none" id="Token-to-IllegalElementException" style="stroke:#181818;stroke-width:1.0;stroke-dasharray:7.0,7.0;"/><polygon fill="#181818" points="1552.01,783.81,1543.506,778.8419,1547.0405,783.2586,1542.6238,786.7931,1552.01,783.81" style="stroke:#181818;stroke-width:1.0;"/><text fill="#000000" font-family="JetBrains Mono" font-size="13" lengthAdjust="spacing" textLength="48" x="1337" y="756.16">throws</text></g><!--link Expression to GMN33--><g id="link_Expression_GMN33"><path d="M573.71,603.7 C629.74,546.17 704.38,473.9 777,417.06 C813.61,388.4 855.43,360.34 894.74,335.75 " fill="none" id="Expression-GMN33" style="stroke:#181818;stroke-width:1.0;stroke-dasharray:7.0,7.0;"/></g><!--link Token to GMN36--><g id="link_Token_GMN36"><path d="M1197.87,741.07 C1237.41,752.25 1275.95,771.23 1302,803.06 C1352.56,864.85 1310.51,1084.17 1332,1161.06 C1355.64,1245.67 1351.88,1282.58 1420,1338.06 C1440.82,1355.02 1465.28,1367.96 1490.82,1377.83 " fill="none" id="Token-GMN36" style="stroke:#181818;stroke-width:1.0;stroke-dasharray:7.0,7.0;"/></g><!--link Operator to GMN39--><g id="link_Operator_GMN39"><path d="M1884.99,519.58 C1914.21,531.54 1941.16,548.66 1961,573.06 C2014.79,639.22 1965.79,1273.94 2022,1338.06 C2036.65,1354.78 2054.62,1367.62 2074.36,1377.41 " fill="none" id="Operator-GMN39" style="stroke:#181818;stroke-width:1.0;stroke-dasharray:7.0,7.0;"/></g><!--link LeftP to GMN54--><g id="link_LeftP_GMN54"><path d="M1780.78,1106.05 C1840.89,1112.42 1916.96,1131.22 1961,1183.06 C2031.46,1265.99 1926.48,1338.43 1991,1426.06 C2004.63,1444.57 2022.04,1458.52 2041.68,1468.91 " fill="none" id="LeftP-GMN54" style="stroke:#181818;stroke-width:1.0;stroke-dasharray:7.0,7.0;"/></g><!--link RightP to GMN57--><g id="link_RightP_GMN57"><path d="M1784.78,1272.53 C1843.71,1284.69 1916.82,1309.7 1961,1361.06 C2003.63,1410.62 1950.1,1454.06 1991,1505.06 C2000.46,1516.85 2007.47,1514.9 2022,1519.06 C2044.55,1525.52 2068.4,1530.92 2092.34,1535.43 " fill="none" id="RightP-GMN57" style="stroke:#181818;stroke-width:1.0;stroke-dasharray:7.0,7.0;"/></g><!--link Token to GMN60--><g id="link_Token_GMN60"><path d="M881.39,714.56 C809.49,700.04 730.66,669.8 686,607.56 C572.77,449.76 568.74,325.39 686,170.56 C722.86,121.9 781.6,95.72 840.69,82.01 " fill="none" id="Token-GMN60" style="stroke:#181818;stroke-width:1.0;stroke-dasharray:7.0,7.0;"/></g><!--SRC=[lLXBR-Cs4BxhLn3fnKPYjztUZCK2QPC2AJPR8rxqJabZYGrD2kJ8YTlkV- -Gr8DIvCTb4o28nNbztt1cD8vz5ghYXk_O7MnvBV5thV0Btm6x-WFmLyE5iknHAtsLs4urazpQMqGZqXhX8TDg8_u1zbCYOOiCDJEYA97bma26GgiagNZsp0joMcafRBbK6hcJNB5_4qO_FBLeU8R1DVkgdq4r8lTppGpmt9_E24IDAxQXwAgOhuBk4rZ2tkalbqo1HSWP7Ygmz1ovUf0I2Yxl9Un0uVrh1fK7sMkCNNvB_9y8Mn1621T4cyuRED6nWHtbaA0-nBYZO0LW83OV6tlPqy3UAKKU1i2Ey1g0pCeL_N9pFXspB6ZE8zMNafz4SFzQ6R1s75HCCdVdM_7gATiL-omiVlGFdoALIbiyetGTXHqLHwG3UovhZk3W2uMHnDyRbM-NtxqMUIIdwjw3eJjQ1omJAgtp24WKfadHgCJ_hC1mr6QGALsDhkU7Jc-ctzv7HyhrtL_q6NpKcz1__S4RpfKHsWWyJC0SehlDyz5LMkGg8xUHHYIFJcVpOI4_DAOkvfJnUz3PrEaPEgGnGOTEBw4J6xy7dSTQdg536XDqwFGIEh7nUz2v4_ipT4XZWWwTNa8dDlxkTDImRoZOs4-ZDjk7C9748PiSL66idPh0dudC-aWIlIoI-ETJYHiQN0RWoMNl688WZ4JXu1I6aSbb8Fevl3OwSvzKCVK-l3wjETlH0Mqjm_V9juHYXGNbut-BlWhVdAayFWh9Z0uQPjrxOE3C3SPfYPinqnBNhjCIL_dHktcv_DHiM2j62vsb1Ub7PaaFx5YjyxVg6kQDpkbihnYMHh_OPEqtlo_DuZUo9BMCLZpopbphc5gTCPWEbN7CIa8Os7KycsrjHSiOraR5ycDBKmSxeLKLceLMRoC4lXZMeW8f5B3QqhAP7k8zmolyl1ml6Fxumt9Yh_2INvQJwqGexwybD7O-QS8IIc2sh1LI9XO7RdB6PU7cKxaB07HpWvHOGwf8YtX0siwn6wz6TK3yANTq0nG1ZPQiCBgko6_GSFVYeXcVJ3fkbpD6ruGEIuixPoyKd_4mo4BCPG9axt8vpcY_ysxSJMSXNsnBgv8sXx2uzzl_tA6pDNKcqvJsHjVedST67vHtwXxyBaZHkndXAojKW5S8nfMiRKEisRIPhTDWTXnrr_NEyMsxsgLGyZsbbQw4ykdJpFrTW2FMNKKWzPjMLFFabCBvkKMSAgFt8eTmhOTTgkLDVr6UG9DaT_scbd0UORjZROYF12Ixm5kdVzEtim25T8HtwI8G7C_6FNiU7GAgvhFXsXtedSArEygfS8-kNYifCju5pSLUs8c87yv7RDU8xn-nV_-UYhMEEZVNpX6DGMCEhkyGRfZLlbEQYcnVnhvVbQwBydZywDtxhW1IZKWDFPWDTs15GStA4S6eC6vBC126t282k7Njvo9BcfqDNFzVW4vpLqbevmkZrYnrxgSzOOadJHYvj-qufGOUHAVUxWTq1sCmYXqK_oNN_K-adPRz_6vjt7nSfDmvRPNwBk-Jypy0]--></g></svg>