<?xml version="1.0" encoding="us-ascii" standalone="no"?><svg xmlns="http://www.w3.org/2000/svg" xmlns:xlink="http://www.w3.org/1999/xlink" contentStyleType="text/css" height="397px" preserveAspectRatio="none" style="width:2098px;height:397px;background:#FFFFFF;" version="1.1" viewBox="0 0 2098 397" width="2098px" zoomAndPan="magnify"><defs/><g><!--cluster filesystem--><g id="cluster_filesystem"><path d="M8.5,117.9 L89.5,117.9 A3.75,3.75 0 0 1 92,120.4 L99,142.38 L1646,142.38 A2.5,2.5 0 0 1 1648.5,144.88 L1648.5,327.4 A2.5,2.5 0 0 1 1646,329.9 L8.5,329.9 A2.5,2.5 0 0 1 6,327.4 L6,120.4 A2.5,2.5 0 0 1 8.5,117.9 " fill="none" style="stroke:#000000;stroke-width:1.5;"/><line style="stroke:#000000;stroke-width:1.5;" x1="6" x2="99" y1="142.38" y2="142.38"/><text fill="#000000" font-family="JetBrains Mono" font-size="14" font-weight="bold" lengthAdjust="spacing" textLength="80" x="10" y="134.18">filesystem</text></g><!--class Registration--><g id="elem_Registration"><rect codeLine="6" fill="#F1F1F1" height="66.48" id="Registration" rx="2.5" ry="2.5" style="stroke:#181818;stroke-width:0.5;" width="132" x="970.5" y="228.66"/><ellipse cx="987.3" cy="244.66" fill="#A9DCDF" rx="11" ry="11" style="stroke:#181818;stroke-width:1.0;"/><path d="M987.1633,240.0081 L986.0095,245.0799 L988.3254,245.0799 Z M985.6691,237.7669 L988.6657,237.7669 L992.0109,250.16 L989.5622,250.16 L988.7985,247.097 L985.5197,247.097 L984.7727,250.16 L982.3239,250.16 Z " fill="#000000"/><text fill="#000000" font-family="JetBrains Mono" font-size="14" font-style="italic" lengthAdjust="spacing" textLength="96" x="1001.7" y="249.7">Registration</text><line style="stroke:#181818;stroke-width:0.5;" x1="971.5" x2="1101.5" y1="260.66" y2="260.66"/><line style="stroke:#181818;stroke-width:0.5;" x1="971.5" x2="1101.5" y1="268.66" y2="268.66"/><text fill="#000000" font-family="JetBrains Mono" font-size="14" lengthAdjust="spacing" textLength="120" x="976.5" y="286.94">+getSize(): int</text></g><!--class File--><g id="elem_File"><rect codeLine="10" fill="#F1F1F1" height="103.44" id="File" rx="2.5" ry="2.5" style="stroke:#181818;stroke-width:0.5;" width="140" x="1492.5" y="197.18"/><ellipse cx="1542.25" cy="213.18" fill="#ADD1B2" rx="11" ry="11" style="stroke:#181818;stroke-width:1.0;"/><path d="M1544.7231,219.3231 Q1544.1421,219.6219 1543.5029,219.7713 Q1542.8638,219.9207 1542.1582,219.9207 Q1539.6514,219.9207 1538.3315,218.2689 Q1537.0117,216.617 1537.0117,213.4959 Q1537.0117,210.3665 1538.3315,208.7147 Q1539.6514,207.0628 1542.1582,207.0628 Q1542.8638,207.0628 1543.5112,207.2122 Q1544.1587,207.3616 1544.7231,207.6605 L1544.7231,210.3831 Q1544.0923,209.8021 1543.4988,209.5323 Q1542.9053,209.2625 1542.2744,209.2625 Q1540.9297,209.2625 1540.2449,210.3292 Q1539.5601,211.3958 1539.5601,213.4959 Q1539.5601,215.5877 1540.2449,216.6544 Q1540.9297,217.721 1542.2744,217.721 Q1542.9053,217.721 1543.4988,217.4512 Q1544.0923,217.1815 1544.7231,216.6004 Z " fill="#000000"/><text fill="#000000" font-family="JetBrains Mono" font-size="14" lengthAdjust="spacing" textLength="32" x="1562.75" y="218.22">File</text><line style="stroke:#181818;stroke-width:0.5;" x1="1493.5" x2="1631.5" y1="229.18" y2="229.18"/><text fill="#000000" font-family="JetBrains Mono" font-size="14" lengthAdjust="spacing" textLength="80" x="1498.5" y="247.46">-size: int</text><line style="stroke:#181818;stroke-width:1.0;" x1="1493.5" x2="1631.5" y1="255.66" y2="255.66"/><text fill="#000000" font-family="JetBrains Mono" font-size="14" lengthAdjust="spacing" textLength="128" x="1498.5" y="273.94">+File(size: int)</text><text fill="#000000" font-family="JetBrains Mono" font-size="14" lengthAdjust="spacing" textLength="120" x="1498.5" y="292.42">+getSize(): int</text></g><!--class Folder--><g id="elem_Folder"><rect codeLine="17" fill="#F1F1F1" height="121.92" id="Folder" rx="2.5" ry="2.5" style="stroke:#181818;stroke-width:0.5;" width="276" x="355.5" y="191.94"/><ellipse cx="465.25" cy="207.94" fill="#ADD1B2" rx="11" ry="11" style="stroke:#181818;stroke-width:1.0;"/><path d="M467.7231,214.0831 Q467.1421,214.3819 466.5029,214.5313 Q465.8638,214.6807 465.1582,214.6807 Q462.6514,214.6807 461.3315,213.0289 Q460.0117,211.377 460.0117,208.2559 Q460.0117,205.1265 461.3315,203.4747 Q462.6514,201.8228 465.1582,201.8228 Q465.8638,201.8228 466.5112,201.9722 Q467.1587,202.1216 467.7231,202.4205 L467.7231,205.1431 Q467.0923,204.5621 466.4988,204.2923 Q465.9053,204.0225 465.2744,204.0225 Q463.9297,204.0225 463.2449,205.0892 Q462.5601,206.1558 462.5601,208.2559 Q462.5601,210.3477 463.2449,211.4144 Q463.9297,212.481 465.2744,212.481 Q465.9053,212.481 466.4988,212.2112 Q467.0923,211.9415 467.7231,211.3604 Z " fill="#000000"/><text fill="#000000" font-family="JetBrains Mono" font-size="14" lengthAdjust="spacing" textLength="48" x="485.75" y="212.98">Folder</text><line style="stroke:#181818;stroke-width:0.5;" x1="356.5" x2="630.5" y1="223.94" y2="223.94"/><text fill="#000000" font-family="JetBrains Mono" font-size="14" lengthAdjust="spacing" textLength="208" x="361.5" y="242.22">-items: List&lt;Registration&gt;</text><line style="stroke:#181818;stroke-width:1.0;" x1="356.5" x2="630.5" y1="250.42" y2="250.42"/><text fill="#000000" font-family="JetBrains Mono" font-size="14" lengthAdjust="spacing" textLength="120" x="361.5" y="268.7">+getSize(): int</text><text fill="#000000" font-family="JetBrains Mono" font-size="14" lengthAdjust="spacing" textLength="216" x="361.5" y="287.18">+add(r: Registration): void</text><text fill="#000000" font-family="JetBrains Mono" font-size="14" lengthAdjust="spacing" textLength="264" x="361.5" y="305.66">+remove(r: Registration): boolean</text></g><!--class FileSystem--><g id="elem_FileSystem"><rect codeLine="25" fill="#F1F1F1" height="66.48" id="FileSystem" rx="2.5" ry="2.5" style="stroke:#181818;stroke-width:0.5;" width="228" x="22" y="186.66"/><ellipse cx="91.75" cy="202.66" fill="#ADD1B2" rx="11" ry="11" style="stroke:#181818;stroke-width:1.0;"/><path d="M94.2231,208.8031 Q93.6421,209.1019 93.0029,209.2513 Q92.3638,209.4007 91.6582,209.4007 Q89.1514,209.4007 87.8315,207.7489 Q86.5117,206.097 86.5117,202.9759 Q86.5117,199.8465 87.8315,198.1947 Q89.1514,196.5428 91.6582,196.5428 Q92.3638,196.5428 93.0112,196.6922 Q93.6587,196.8416 94.2231,197.1405 L94.2231,199.8631 Q93.5923,199.2821 92.9988,199.0123 Q92.4053,198.7425 91.7744,198.7425 Q90.4297,198.7425 89.7449,199.8092 Q89.0601,200.8758 89.0601,202.9759 Q89.0601,205.0677 89.7449,206.1344 Q90.4297,207.201 91.7744,207.201 Q92.4053,207.201 92.9988,206.9312 Q93.5923,206.6615 94.2231,206.0804 Z " fill="#000000"/><text fill="#000000" font-family="JetBrains Mono" font-size="14" lengthAdjust="spacing" textLength="80" x="112.25" y="207.7">FileSystem</text><line style="stroke:#181818;stroke-width:0.5;" x1="23" x2="249" y1="218.66" y2="218.66"/><line style="stroke:#181818;stroke-width:0.5;" x1="23" x2="249" y1="226.66" y2="226.66"/><text fill="#000000" font-family="JetBrains Mono" font-size="14" lengthAdjust="spacing" textLength="216" x="28" y="244.94">+main(args: String[]): void</text></g><g id="elem_GMN12"><path d="M1332,346.32 L1332,373.48 L1793,373.48 L1793,356.32 L1783,346.32 L1332,346.32 " fill="#FEFFDD" style="stroke:#181818;stroke-width:0.5;"/><path d="M1783,346.32 L1783,356.32 L1793,356.32 L1783,346.32 " fill="#FEFFDD" style="stroke:#181818;stroke-width:1.0;"/><text fill="#000000" font-family="JetBrains Mono" font-size="13" lengthAdjust="spacing" textLength="440" x="1338" y="364.58">Common abstraction for anything that can report a size.</text></g><g id="elem_GMN15"><path d="M1854,226.74 L1854,244.9 L1632.71,248.9 L1854,252.9 L1854,271.06 A0,0 0 0 0 1854,271.06 L2091,271.06 A0,0 0 0 0 2091,271.06 L2091,236.74 L2081,226.74 L1854,226.74 A0,0 0 0 0 1854,226.74 " fill="#FEFFDD" style="stroke:#181818;stroke-width:0.5;"/><path d="M2081,226.74 L2081,236.74 L2091,236.74 L2081,226.74 " fill="#FEFFDD" style="stroke:#181818;stroke-width:0.5;"/><text fill="#000000" font-family="JetBrains Mono" font-size="13" lengthAdjust="spacing" textLength="176" x="1860" y="245">Leaf node of the tree.</text><text fill="#000000" font-family="JetBrains Mono" font-size="13" lengthAdjust="spacing" textLength="216" x="1860" y="262.16">Its size is a stored value.</text></g><g id="elem_GMN18"><path d="M802,345.74 L802,390.06 L1271,390.06 L1271,355.74 L1261,345.74 L802,345.74 " fill="#FEFFDD" style="stroke:#181818;stroke-width:0.5;"/><path d="M1261,345.74 L1261,355.74 L1271,355.74 L1261,345.74 " fill="#FEFFDD" style="stroke:#181818;stroke-width:1.0;"/><text fill="#000000" font-family="JetBrains Mono" font-size="13" lengthAdjust="spacing" textLength="120" x="808" y="364">Composite node.</text><text fill="#000000" font-family="JetBrains Mono" font-size="13" lengthAdjust="spacing" textLength="448" x="808" y="381.16">Its size is computed recursively by summing child sizes.</text></g><g id="elem_GMN21"><path d="M311,6 L311,101.8 A0,0 0 0 0 311,101.8 L489.5,101.8 L493.5,191.49 L497.5,101.8 L676,101.8 A0,0 0 0 0 676,101.8 L676,16 L666,6 L311,6 A0,0 0 0 0 311,6 " fill="#FEFFDD" style="stroke:#181818;stroke-width:0.5;"/><path d="M666,6 L666,16 L676,16 L666,6 " fill="#FEFFDD" style="stroke:#181818;stroke-width:0.5;"/><text fill="#000000" font-family="JetBrains Mono" font-size="13" lengthAdjust="spacing" textLength="200" x="317" y="24.26">Design pattern used here:</text><text fill="#000000" font-family="JetBrains Mono" font-size="13" lengthAdjust="spacing" textLength="72" x="317" y="41.42">Composite</text><text fill="#000000" font-family="JetBrains Mono" font-size="13" lengthAdjust="spacing" textLength="8" x="317" y="58.58">&#160;</text><text fill="#000000" font-family="JetBrains Mono" font-size="13" lengthAdjust="spacing" textLength="344" x="317" y="75.74">Files and folders share the same base type,</text><text fill="#000000" font-family="JetBrains Mono" font-size="13" lengthAdjust="spacing" textLength="320" x="317" y="92.9">so client code can treat them uniformly.</text></g><!--reverse link Registration to File--><g id="link_Registration_File"><path codeLine="30" d="M1120.8045,259.8343 C1220.1145,257.3743 1390.3,253.15 1492.03,250.62 " fill="none" id="Registration-backto-File" style="stroke:#181818;stroke-width:1.0;"/><polygon fill="none" points="1102.81,260.28,1120.9531,265.8324,1120.6559,253.8361,1102.81,260.28" style="stroke:#181818;stroke-width:1.0;"/></g><!--reverse link Registration to Folder--><g id="link_Registration_Folder"><path codeLine="31" d="M952.2657,259.7478 C898.9457,258.4078 839.6,257.03 772,255.9 C726.36,255.13 676.49,254.52 631.77,254.06 " fill="none" id="Registration-backto-Folder" style="stroke:#181818;stroke-width:1.0;"/><polygon fill="none" points="970.26,260.2,952.4164,253.7497,952.1149,265.7459,970.26,260.2" style="stroke:#181818;stroke-width:1.0;"/></g><!--reverse link Folder to Registration--><g id="link_Folder_Registration"><path codeLine="32" d="M643.7611,276.7872 C668.3811,279.9672 681.95,281.2 706,282.9 C797.63,289.37 903.66,279.51 970.15,271.23 " fill="none" id="Folder-backto-Registration" style="stroke:#181818;stroke-width:1.0;"/><polygon fill="none" points="631.86,275.25,637.2982,279.9856,643.7611,276.7872,638.323,272.0515,631.86,275.25" style="stroke:#181818;stroke-width:1.0;"/><text fill="#000000" font-family="JetBrains Mono" font-size="13" lengthAdjust="spacing" textLength="64" x="707" y="278.16">contains</text><text fill="#000000" font-family="JetBrains Mono" font-size="13" lengthAdjust="spacing" textLength="32" x="930.5584" y="286.1411">0..*</text></g><!--link FileSystem to File--><g id="link_FileSystem_File"><path codeLine="33" d="M250.38,186.18 C270.41,181.49 291.19,177.42 311,174.9 C734.55,121.02 845.97,170.29 1271,210.9 C1346.82,218.14 1427.4021,229.059 1486.1621,237.579 " fill="none" id="FileSystem-to-File" style="stroke:#181818;stroke-width:1.0;stroke-dasharray:7.0,7.0;"/><polygon fill="#181818" points="1492.1,238.44,1483.7671,233.1899,1487.1517,237.7225,1482.6192,241.1071,1492.1,238.44" style="stroke:#181818;stroke-width:1.0;"/></g><!--link FileSystem to Folder--><g id="link_FileSystem_Folder"><path codeLine="34" d="M250.46,230.43 C283.79,233.53 314.6157,236.3848 349.2657,239.6048 " fill="none" id="FileSystem-to-Folder" style="stroke:#181818;stroke-width:1.0;stroke-dasharray:7.0,7.0;"/><polygon fill="#181818" points="355.24,240.16,346.6487,235.3444,350.2615,239.6973,345.9085,243.3101,355.24,240.16" style="stroke:#181818;stroke-width:1.0;"/></g><!--link Registration to GMN12--><g id="link_Registration_GMN12"><path d="M1102.92,278.92 C1162.35,293.93 1252.6,315.58 1332,329.9 C1365.91,336.02 1402.85,341.4 1436.99,345.86 " fill="none" id="Registration-GMN12" style="stroke:#181818;stroke-width:1.0;stroke-dasharray:7.0,7.0;"/></g><!--link Folder to GMN18--><g id="link_Folder_GMN18"><path d="M631.7,289.88 C684.68,303.47 745.94,318.34 802,329.9 C828.65,335.39 857.14,340.59 884.74,345.27 " fill="none" id="Folder-GMN18" style="stroke:#181818;stroke-width:1.0;stroke-dasharray:7.0,7.0;"/></g><!--SRC=[bLJ1Rjim3BthAuYSqcqnUWwA0jkA0Xsw7PRZi0DjqxPGIpGaEe2tzTz7oLbdfy60-HAOUdhlyP5EVB9-m80ExgZ1iPTxzl857S7c4yc7WDP7-CoUDoQ-GAiUOtml4cmv2ZrKx0_s1y6rwQaH48PWsqwWje4giUoD6R1wmfQWiJt5AGev-6b07ooZ1AnaveIlrDfKIBTEYFIyXPOaQMolzc2zv8Ddat_cY_TAlBYmWwZelzXSsotu4dxxWhdw7oNkQmehBQlzn3qyglMRPGUtbxKlACm7MDVRi5-5e9WZste12kJuI1Tm9NDFw2zdSrY6FXCvdUqMGwlE3pfAttxxlbHxDagociVDhzqkarqgvrJCAHpMokQwADvirXFTW-wAf9qo2rD5SJlJdjTcJkDPwBHItAm8iz6Fx9no_zcafDDm0FIJTDeLI8UwNkWrkO630ERTA0pv6XBrkK2saeWV2Hj5r9IgqX588BsNZXuaPXQmCV491whXYFtuBzwvdPFbWQEkJQP_JLdfkNvPjLgknX3jaVe9oWdYw5nggUfiNsTqVALNiWYxCy4xYhRrCA081GzZLEwE0ktNTkQjIG5eMqhRP0RrrM6W745CVmqbHdsR1dgNyP5rqInvJJc5bQBMf3HqlU1Wz5R7uVffuVGt]--></g></svg>