<?xml version="1.0" encoding="us-ascii" standalone="no"?><svg xmlns="http://www.w3.org/2000/svg" xmlns:xlink="http://www.w3.org/1999/xlink" contentStyleType="text/css" height="913px" preserveAspectRatio="none" style="width:1144px;height:913px;background:#FFFFFF;" version="1.1" viewBox="0 0 1144 913" width="1144px" zoomAndPan="magnify"><defs/><g><!--class Library--><g id="elem_Library"><rect codeLine="3" fill="#F1F1F1" height="232.8" id="Library" rx="2.5" ry="2.5" style="stroke:#181818;stroke-width:0.5;" width="418" x="15" y="218.42"/><ellipse cx="191.75" cy="234.42" fill="#ADD1B2" rx="11" ry="11" style="stroke:#181818;stroke-width:1.0;"/><path d="M194.2231,240.5631 Q193.6421,240.8619 193.0029,241.0113 Q192.3638,241.1607 191.6582,241.1607 Q189.1514,241.1607 187.8315,239.5089 Q186.5117,237.857 186.5117,234.7359 Q186.5117,231.6065 187.8315,229.9547 Q189.1514,228.3028 191.6582,228.3028 Q192.3638,228.3028 193.0112,228.4522 Q193.6587,228.6016 194.2231,228.9005 L194.2231,231.6231 Q193.5923,231.0421 192.9988,230.7723 Q192.4053,230.5025 191.7744,230.5025 Q190.4297,230.5025 189.7449,231.5692 Q189.0601,232.6358 189.0601,234.7359 Q189.0601,236.8277 189.7449,237.8944 Q190.4297,238.961 191.7744,238.961 Q192.4053,238.961 192.9988,238.6912 Q193.5923,238.4215 194.2231,237.8404 Z " fill="#000000"/><text fill="#000000" font-family="JetBrains Mono" font-size="14" lengthAdjust="spacing" textLength="56" x="212.25" y="239.46">Library</text><line style="stroke:#181818;stroke-width:0.5;" x1="16" x2="432" y1="250.42" y2="250.42"/><ellipse cx="26" cy="265.16" fill="none" rx="3" ry="3" style="stroke:#038048;stroke-width:1.0;"/><text fill="#000000" font-family="JetBrains Mono" font-size="14" lengthAdjust="spacing" textLength="136" x="35" y="268.7">books: List&lt;Book&gt;</text><line style="stroke:#181818;stroke-width:1.0;" x1="16" x2="432" y1="276.9" y2="276.9"/><ellipse cx="26" cy="291.64" fill="#84BE84" rx="3" ry="3" style="stroke:#038048;stroke-width:1.0;"/><text fill="#000000" font-family="JetBrains Mono" font-size="14" lengthAdjust="spacing" textLength="72" x="35" y="295.18">Library()</text><ellipse cx="26" cy="310.12" fill="#84BE84" rx="3" ry="3" style="stroke:#038048;stroke-width:1.0;"/><text fill="#000000" font-family="JetBrains Mono" font-size="14" lengthAdjust="spacing" textLength="328" x="35" y="313.66">getFirstNameMatch(usrGenre: String): Book</text><ellipse cx="26" cy="328.6" fill="#84BE84" rx="3" ry="3" style="stroke:#038048;stroke-width:1.0;"/><text fill="#000000" font-family="JetBrains Mono" font-size="14" lengthAdjust="spacing" textLength="176" x="35" y="332.14">getMaxPageBook(): Book</text><ellipse cx="26" cy="347.08" fill="#84BE84" rx="3" ry="3" style="stroke:#038048;stroke-width:1.0;"/><text fill="#000000" font-family="JetBrains Mono" font-size="14" lengthAdjust="spacing" textLength="344" x="35" y="350.62">getGenreBooks(usrGenre: String): List&lt;Book&gt;</text><ellipse cx="26" cy="365.56" fill="#84BE84" rx="3" ry="3" style="stroke:#038048;stroke-width:1.0;"/><text fill="#000000" font-family="JetBrains Mono" font-size="14" lengthAdjust="spacing" textLength="328" x="35" y="369.1">getGenreBooksCount(usrGenre: String): int</text><ellipse cx="26" cy="384.04" fill="#84BE84" rx="3" ry="3" style="stroke:#038048;stroke-width:1.0;"/><text fill="#000000" font-family="JetBrains Mono" font-size="14" lengthAdjust="spacing" textLength="392" x="35" y="387.58">findBooksByAuthor(usrAuthor: String): List&lt;Books&gt;</text><ellipse cx="26" cy="402.52" fill="#84BE84" rx="3" ry="3" style="stroke:#038048;stroke-width:1.0;"/><text fill="#000000" font-family="JetBrains Mono" font-size="14" lengthAdjust="spacing" textLength="224" x="35" y="406.06">addBook(usrBook: Book): void</text><ellipse cx="26" cy="421" fill="#84BE84" rx="3" ry="3" style="stroke:#038048;stroke-width:1.0;"/><text fill="#000000" font-family="JetBrains Mono" font-size="14" lengthAdjust="spacing" textLength="232" x="35" y="424.54">lendBook(usrBook: Book): void</text><rect fill="#F24D5C" height="6" style="stroke:#C82930;stroke-width:1.0;" width="6" x="23" y="436.48"/><text fill="#000000" font-family="JetBrains Mono" font-size="14" lengthAdjust="spacing" textLength="248" x="35" y="443.02">addAndSort(usrBook: book): void</text></g><!--class Book--><g id="elem_Book"><rect codeLine="17" fill="#F1F1F1" height="121.92" id="Book" rx="2.5" ry="2.5" style="stroke:#181818;stroke-width:0.5;" width="434" x="7" y="784.64"/><ellipse cx="203.75" cy="800.64" fill="#ADD1B2" rx="11" ry="11" style="stroke:#181818;stroke-width:1.0;"/><path d="M206.2231,806.7831 Q205.6421,807.0819 205.0029,807.2313 Q204.3638,807.3807 203.6582,807.3807 Q201.1514,807.3807 199.8315,805.7289 Q198.5117,804.077 198.5117,800.9559 Q198.5117,797.8265 199.8315,796.1747 Q201.1514,794.5228 203.6582,794.5228 Q204.3638,794.5228 205.0112,794.6722 Q205.6587,794.8216 206.2231,795.1205 L206.2231,797.8431 Q205.5923,797.2621 204.9988,796.9923 Q204.4053,796.7225 203.7744,796.7225 Q202.4297,796.7225 201.7449,797.7892 Q201.0601,798.8558 201.0601,800.9559 Q201.0601,803.0477 201.7449,804.1144 Q202.4297,805.181 203.7744,805.181 Q204.4053,805.181 204.9988,804.9112 Q205.5923,804.6415 206.2231,804.0604 Z " fill="#000000"/><text fill="#000000" font-family="JetBrains Mono" font-size="14" lengthAdjust="spacing" textLength="32" x="224.25" y="805.68">Book</text><line style="stroke:#181818;stroke-width:0.5;" x1="8" x2="440" y1="816.64" y2="816.64"/><ellipse cx="18" cy="831.38" fill="none" rx="3" ry="3" style="stroke:#038048;stroke-width:1.0;"/><text fill="#000000" font-family="JetBrains Mono" font-size="14" lengthAdjust="spacing" textLength="104" x="27" y="834.92">genre: String</text><ellipse cx="18" cy="849.86" fill="none" rx="3" ry="3" style="stroke:#038048;stroke-width:1.0;"/><text fill="#000000" font-family="JetBrains Mono" font-size="14" lengthAdjust="spacing" textLength="112" x="27" y="853.4">author: String</text><ellipse cx="18" cy="868.34" fill="none" rx="3" ry="3" style="stroke:#038048;stroke-width:1.0;"/><text fill="#000000" font-family="JetBrains Mono" font-size="14" lengthAdjust="spacing" textLength="112" x="27" y="871.88">pageCount: int</text><line style="stroke:#181818;stroke-width:1.0;" x1="8" x2="440" y1="880.08" y2="880.08"/><ellipse cx="18" cy="894.82" fill="#84BE84" rx="3" ry="3" style="stroke:#038048;stroke-width:1.0;"/><text fill="#000000" font-family="JetBrains Mono" font-size="14" lengthAdjust="spacing" textLength="408" x="27" y="898.36">Book(author: String, pageCount: int, genre: String)</text></g><path d="M468.5,6 L468.5,32.74 L363,308.62 L468.5,40.74 L468.5,67.48 A0,0 0 0 0 468.5,67.48 L737.5,67.48 A0,0 0 0 0 737.5,67.48 L737.5,16 L727.5,6 L468.5,6 A0,0 0 0 0 468.5,6 " fill="#FEFFDD" style="stroke:#181818;stroke-width:0.5;"/><path d="M727.5,6 L727.5,16 L737.5,16 L727.5,6 " fill="#FEFFDD" style="stroke:#181818;stroke-width:0.5;"/><text fill="#000000" font-family="JetBrains Mono" font-size="13" lengthAdjust="spacing" textLength="168" x="474.5" y="24.26">for book : this.books</text><text fill="#000000" font-family="JetBrains Mono" font-size="13" lengthAdjust="spacing" textLength="216" x="506.5" y="41.42">return if book == usrGenre;</text><text fill="#000000" font-family="JetBrains Mono" font-size="13" lengthAdjust="spacing" textLength="96" x="474.5" y="58.58">return None;</text><path d="M468.5,77.48 L468.5,87.06 L211,327.1 L468.5,95.06 L468.5,104.64 A0,0 0 0 0 468.5,104.64 L665.5,104.64 A0,0 0 0 0 665.5,104.64 L665.5,87.48 L655.5,77.48 L468.5,77.48 A0,0 0 0 0 468.5,77.48 " fill="#FEFFDD" style="stroke:#181818;stroke-width:0.5;"/><path d="M655.5,77.48 L655.5,87.48 L665.5,87.48 L655.5,77.48 " fill="#FEFFDD" style="stroke:#181818;stroke-width:0.5;"/><text fill="#000000" font-family="JetBrains Mono" font-size="13" lengthAdjust="spacing" textLength="176" x="474.5" y="95.74">return this.books[-1];</text><path d="M468.5,114.64 L468.5,158.54 L379,345.58 L468.5,166.54 L468.5,210.44 A0,0 0 0 0 468.5,210.44 L865.5,210.44 A0,0 0 0 0 865.5,210.44 L865.5,124.64 L855.5,114.64 L468.5,114.64 A0,0 0 0 0 468.5,114.64 " fill="#FEFFDD" style="stroke:#181818;stroke-width:0.5;"/><path d="M855.5,114.64 L855.5,124.64 L865.5,124.64 L855.5,114.64 " fill="#FEFFDD" style="stroke:#181818;stroke-width:0.5;"/><text fill="#000000" font-family="JetBrains Mono" font-size="13" lengthAdjust="spacing" textLength="376" x="474.5" y="132.9">List&lt;Book&gt; selectedGenreBooks = new List&lt;Book&gt;;</text><text fill="#000000" font-family="JetBrains Mono" font-size="13" lengthAdjust="spacing" textLength="128" x="474.5" y="150.06">for book : books</text><text fill="#000000" font-family="JetBrains Mono" font-size="13" lengthAdjust="spacing" textLength="200" x="506.5" y="167.22">if book.genre == usrGenre</text><text fill="#000000" font-family="JetBrains Mono" font-size="13" lengthAdjust="spacing" textLength="232" x="538.5" y="184.38">selectedGenreBooks.add(book);</text><text fill="#000000" font-family="JetBrains Mono" font-size="13" lengthAdjust="spacing" textLength="208" x="474.5" y="201.54">return selectedGenreBooks;</text><path d="M468.5,220.44 L468.5,230.02 L363,364.06 L468.5,238.02 L468.5,247.6 A0,0 0 0 0 468.5,247.6 L769.5,247.6 A0,0 0 0 0 769.5,247.6 L769.5,230.44 L759.5,220.44 L468.5,220.44 A0,0 0 0 0 468.5,220.44 " fill="#FEFFDD" style="stroke:#181818;stroke-width:0.5;"/><path d="M759.5,220.44 L759.5,230.44 L769.5,230.44 L759.5,220.44 " fill="#FEFFDD" style="stroke:#181818;stroke-width:0.5;"/><text fill="#000000" font-family="JetBrains Mono" font-size="13" lengthAdjust="spacing" textLength="280" x="474.5" y="238.7">return this.getGenreBooks.length();</text><path d="M468.5,257.6 L468.5,301.5 L427,382.54 L468.5,309.5 L468.5,353.4 A0,0 0 0 0 468.5,353.4 L873.5,353.4 A0,0 0 0 0 873.5,353.4 L873.5,267.6 L863.5,257.6 L468.5,257.6 A0,0 0 0 0 468.5,257.6 " fill="#FEFFDD" style="stroke:#181818;stroke-width:0.5;"/><path d="M863.5,257.6 L863.5,267.6 L873.5,267.6 L863.5,257.6 " fill="#FEFFDD" style="stroke:#181818;stroke-width:0.5;"/><text fill="#000000" font-family="JetBrains Mono" font-size="13" lengthAdjust="spacing" textLength="384" x="474.5" y="275.86">List&lt;Book&gt; selectedAuthorBooks = new List&lt;Book&gt;;</text><text fill="#000000" font-family="JetBrains Mono" font-size="13" lengthAdjust="spacing" textLength="128" x="474.5" y="293.02">for book : books</text><text fill="#000000" font-family="JetBrains Mono" font-size="13" lengthAdjust="spacing" textLength="216" x="506.5" y="310.18">if book.author == usrAuthor</text><text fill="#000000" font-family="JetBrains Mono" font-size="13" lengthAdjust="spacing" textLength="240" x="538.5" y="327.34">selectedAuthorBooks.add(book);</text><text fill="#000000" font-family="JetBrains Mono" font-size="13" lengthAdjust="spacing" textLength="216" x="474.5" y="344.5">return selectedAuthorBooks;</text><path d="M468.5,363.4 L468.5,398.72 L259,401.02 L468.5,406.72 L468.5,442.04 A0,0 0 0 0 468.5,442.04 L1105.5,442.04 A0,0 0 0 0 1105.5,442.04 L1105.5,373.4 L1095.5,363.4 L468.5,363.4 A0,0 0 0 0 468.5,363.4 " fill="#FEFFDD" style="stroke:#181818;stroke-width:0.5;"/><path d="M1095.5,363.4 L1095.5,373.4 L1105.5,373.4 L1095.5,363.4 " fill="#FEFFDD" style="stroke:#181818;stroke-width:0.5;"/><text fill="#000000" font-family="JetBrains Mono" font-size="13" lengthAdjust="spacing" textLength="224" x="474.5" y="381.66">if books.addAndSort(usrBook)</text><text fill="#000000" font-family="JetBrains Mono" font-size="13" lengthAdjust="spacing" textLength="472" x="506.5" y="398.82">IO.println("Done! Your book's been added to the library.");</text><text fill="#000000" font-family="JetBrains Mono" font-size="13" lengthAdjust="spacing" textLength="32" x="474.5" y="415.98">else</text><text fill="#000000" font-family="JetBrains Mono" font-size="13" lengthAdjust="spacing" textLength="584" x="506.5" y="433.14">IO.println("What a pity! Your book hasn't been added to the library :(");</text><path d="M468.5,452.04 L468.5,487.36 L267,419.5 L468.5,495.36 L468.5,530.68 A0,0 0 0 0 468.5,530.68 L1137.5,530.68 A0,0 0 0 0 1137.5,530.68 L1137.5,462.04 L1127.5,452.04 L468.5,452.04 A0,0 0 0 0 468.5,452.04 " fill="#FEFFDD" style="stroke:#181818;stroke-width:0.5;"/><path d="M1127.5,452.04 L1127.5,462.04 L1137.5,462.04 L1127.5,452.04 " fill="#FEFFDD" style="stroke:#181818;stroke-width:0.5;"/><text fill="#000000" font-family="JetBrains Mono" font-size="13" lengthAdjust="spacing" textLength="192" x="474.5" y="470.3">if books.remove(usrBook)</text><text fill="#000000" font-family="JetBrains Mono" font-size="13" lengthAdjust="spacing" textLength="488" x="506.5" y="487.46">IO.println("Done! Your book's been removed to the library.");</text><text fill="#000000" font-family="JetBrains Mono" font-size="13" lengthAdjust="spacing" textLength="32" x="474.5" y="504.62">else</text><text fill="#000000" font-family="JetBrains Mono" font-size="13" lengthAdjust="spacing" textLength="616" x="506.5" y="521.78">IO.println("What a pity! Your book hasn't been removed from the library :(");</text><path d="M468.5,540.68 L468.5,593.16 L283,437.98 L468.5,601.16 L468.5,653.64 A0,0 0 0 0 468.5,653.64 L937.5,653.64 A0,0 0 0 0 937.5,653.64 L937.5,550.68 L927.5,540.68 L468.5,540.68 A0,0 0 0 0 468.5,540.68 " fill="#FEFFDD" style="stroke:#181818;stroke-width:0.5;"/><path d="M927.5,540.68 L927.5,550.68 L937.5,550.68 L927.5,540.68 " fill="#FEFFDD" style="stroke:#181818;stroke-width:0.5;"/><text fill="#000000" font-family="JetBrains Mono" font-size="13" lengthAdjust="spacing" textLength="200" x="474.5" y="558.94">int i = books.size() - 1;</text><text fill="#000000" font-family="JetBrains Mono" font-size="13" lengthAdjust="spacing" textLength="152" x="474.5" y="576.1">books.add(usrBook);</text><text fill="#000000" font-family="JetBrains Mono" font-size="13" lengthAdjust="spacing" textLength="448" x="474.5" y="593.26">while (i &gt;= 0 &amp;&amp; books[i].pageCount &gt; usrBook.pageCount)</text><text fill="#000000" font-family="JetBrains Mono" font-size="13" lengthAdjust="spacing" textLength="216" x="506.5" y="610.42">books.set(i + 1, books[i]);</text><text fill="#000000" font-family="JetBrains Mono" font-size="13" lengthAdjust="spacing" textLength="32" x="506.5" y="627.58">i--;</text><text fill="#000000" font-family="JetBrains Mono" font-size="13" lengthAdjust="spacing" textLength="208" x="474.5" y="644.74">books.set(i + 1, usrBook);</text><!--link Library to Book--><g id="link_Library_Book"><path codeLine="78" d="M224,451.59 C224,555.1 224,702.7 224,784.38 " fill="none" id="Library-Book" style="stroke:#181818;stroke-width:1.0;"/></g><!--SRC=[jLLDRzf04BtpAwOS4gDWgroTWXGQfMfLqaevL5MKmm9Zl8hPHRjBKbhrlsU_x5rZqj1KzGMOVJFllPdn8kyfsn11rd291TbMweepTKtM2FrFgAQ2K2PXnXdlztgBYaW9d-bS4B63NptGpndCER-NkGvBzMwglqziF4rJV-xnoS3_Ng6wea9QaXbHYpBPIl41cS0SRfIWR3N8mHGA-1dvyPMiq0IJpg5DDI5vgD2UhBsCztpBrA4qofJ75vGjBNQwkzYgaWi3TzyEqSYQXonjca6RJwTQ8nyuNNf8XUm5J6hANB3b3HSgeEOHwdSz5dFKp6GLswa5jJJxu4QtrJOXM0wJizhQQSEzZ66RQc3qCAuG15sL2dXHZp_FEtEtB0KNrW_ae4egCxjDziGy0jLMCA25mup7KC_gl1UTNtEc0xgROBZ_f23QfBX0eBvDHtV7bGfRP2k5HGE95IuKBWC2ni3mCSASxvjl-_Q6CzlSs7Q3C4-N9zFhajZrQFMd2_nRYtRYdOwr89bUvvKgay4HjJilrNCjTAV_r4EtmBw94Tj-5oEg5zeO8O_mwY-2NgJ94kozreD6rCSlsKQ_JAfYIVzIR_OR-CwtpkIfX3aYCxS2Ba5nFGQ4oZ5bVQyMAua7YtqhYG826wfsKKqeYMIdwld2a2VzOuPQNsTjfmBN_05VvTAb_XUVTUb2yFLhl8RvERTC0TKBwYnB-XEJWRwyHqveC_Ac2ox-MD8A8Q4m6SDRE3bnm5jwbpMNB4p0vuHOwA6dGwLhdC5es1Jm15PQciOg8d0G4-pMV-xwJy1U_qy0]--></g></svg>