<?xml version="1.0" encoding="us-ascii" standalone="no"?><svg xmlns="http://www.w3.org/2000/svg" xmlns:xlink="http://www.w3.org/1999/xlink" contentStyleType="text/css" height="657px" preserveAspectRatio="none" style="width:993px;height:657px;background:#FFFFFF;" version="1.1" viewBox="0 0 993 657" width="993px" zoomAndPan="magnify"><defs/><g><rect fill="none" height="239.28" style="stroke:#000000;stroke-width:1.5;" width="766" x="221" y="225.12"/><rect fill="none" height="81.48" style="stroke:#000000;stroke-width:1.5;" width="746" x="231" y="375.92"/><line style="stroke:#181818;stroke-width:0.5;stroke-dasharray:5.0,5.0;" x1="48" x2="48" y1="83.48" y2="574.88"/><line style="stroke:#181818;stroke-width:0.5;stroke-dasharray:5.0,5.0;" x1="204" x2="204" y1="83.48" y2="574.88"/><line style="stroke:#181818;stroke-width:0.5;stroke-dasharray:5.0,5.0;" x1="288" x2="288" y1="83.48" y2="574.88"/><line style="stroke:#181818;stroke-width:0.5;stroke-dasharray:5.0,5.0;" x1="524" x2="524" y1="83.48" y2="574.88"/><line style="stroke:#181818;stroke-width:0.5;stroke-dasharray:5.0,5.0;" x1="592" x2="592" y1="83.48" y2="574.88"/><line style="stroke:#181818;stroke-width:0.5;stroke-dasharray:5.0,5.0;" x1="932" x2="932" y1="83.48" y2="574.88"/><text fill="#000000" font-family="JetBrains Mono" font-size="14" lengthAdjust="spacing" textLength="80" x="5" y="79.28">Simulation</text><ellipse cx="48" cy="13.5" fill="#E2E2F0" rx="8" ry="8" style="stroke:#181818;stroke-width:0.5;"/><path d="M48,21.5 L48,48.5 M35,29.5 L61,29.5 M48,48.5 L35,63.5 M48,48.5 L61,63.5 " fill="none" style="stroke:#181818;stroke-width:0.5;"/><text fill="#000000" font-family="JetBrains Mono" font-size="14" lengthAdjust="spacing" textLength="80" x="5" y="588.16">Simulation</text><ellipse cx="48" cy="600.86" fill="#E2E2F0" rx="8" ry="8" style="stroke:#181818;stroke-width:0.5;"/><path d="M48,608.86 L48,635.86 M35,616.86 L61,616.86 M48,635.86 L35,650.86 M48,635.86 L61,650.86 " fill="none" style="stroke:#181818;stroke-width:0.5;"/><rect fill="#E2E2F0" height="32.48" rx="2.5" ry="2.5" style="stroke:#181818;stroke-width:0.5;" width="54" x="177" y="50"/><text fill="#000000" font-family="JetBrains Mono" font-size="14" lengthAdjust="spacing" textLength="40" x="184" y="71.28">Guild</text><rect fill="#E2E2F0" height="32.48" rx="2.5" ry="2.5" style="stroke:#181818;stroke-width:0.5;" width="54" x="177" y="573.88"/><text fill="#000000" font-family="JetBrains Mono" font-size="14" lengthAdjust="spacing" textLength="40" x="184" y="595.16">Guild</text><rect fill="#E2E2F0" height="32.48" rx="2.5" ry="2.5" style="stroke:#181818;stroke-width:0.5;" width="94" x="241" y="50"/><text fill="#000000" font-family="JetBrains Mono" font-size="14" lengthAdjust="spacing" textLength="80" x="248" y="71.28">Adventurer</text><rect fill="#E2E2F0" height="32.48" rx="2.5" ry="2.5" style="stroke:#181818;stroke-width:0.5;" width="94" x="241" y="573.88"/><text fill="#000000" font-family="JetBrains Mono" font-size="14" lengthAdjust="spacing" textLength="80" x="248" y="595.16">Adventurer</text><rect fill="#E2E2F0" height="32.48" rx="2.5" ry="2.5" style="stroke:#181818;stroke-width:0.5;" width="54" x="497" y="50"/><text fill="#000000" font-family="JetBrains Mono" font-size="14" lengthAdjust="spacing" textLength="40" x="504" y="71.28">Quest</text><rect fill="#E2E2F0" height="32.48" rx="2.5" ry="2.5" style="stroke:#181818;stroke-width:0.5;" width="54" x="497" y="573.88"/><text fill="#000000" font-family="JetBrains Mono" font-size="14" lengthAdjust="spacing" textLength="40" x="504" y="595.16">Quest</text><rect fill="#E2E2F0" height="32.48" rx="2.5" ry="2.5" style="stroke:#181818;stroke-width:0.5;" width="62" x="561" y="50"/><text fill="#000000" font-family="JetBrains Mono" font-size="14" lengthAdjust="spacing" textLength="48" x="568" y="71.28">Weapon</text><rect fill="#E2E2F0" height="32.48" rx="2.5" ry="2.5" style="stroke:#181818;stroke-width:0.5;" width="62" x="561" y="573.88"/><text fill="#000000" font-family="JetBrains Mono" font-size="14" lengthAdjust="spacing" textLength="48" x="568" y="595.16">Weapon</text><rect fill="#E2E2F0" height="32.48" rx="2.5" ry="2.5" style="stroke:#181818;stroke-width:0.5;" width="70" x="897" y="50"/><text fill="#000000" font-family="JetBrains Mono" font-size="14" lengthAdjust="spacing" textLength="56" x="904" y="71.28">Monster</text><rect fill="#E2E2F0" height="32.48" rx="2.5" ry="2.5" style="stroke:#181818;stroke-width:0.5;" width="70" x="897" y="573.88"/><text fill="#000000" font-family="JetBrains Mono" font-size="14" lengthAdjust="spacing" textLength="56" x="904" y="595.16">Monster</text><polygon fill="#181818" points="192,112.64,202,116.64,192,120.64,196,116.64" style="stroke:#181818;stroke-width:1.0;"/><line style="stroke:#181818;stroke-width:1.0;" x1="48" x2="198" y1="116.64" y2="116.64"/><text fill="#000000" font-family="JetBrains Mono" font-size="13" font-weight="bold" lengthAdjust="spacing" textLength="8" x="55" y="110.74">1</text><text fill="#000000" font-family="JetBrains Mono" font-size="13" lengthAdjust="spacing" textLength="120" x="67" y="110.74">runSimulation()</text><polygon fill="#181818" points="512,143.8,522,147.8,512,151.8,516,147.8" style="stroke:#181818;stroke-width:1.0;"/><line style="stroke:#181818;stroke-width:1.0;" x1="204" x2="518" y1="147.8" y2="147.8"/><text fill="#000000" font-family="JetBrains Mono" font-size="13" font-weight="bold" lengthAdjust="spacing" textLength="8" x="211" y="141.9">2</text><text fill="#000000" font-family="JetBrains Mono" font-size="13" lengthAdjust="spacing" textLength="192" x="223" y="141.9">attemptQuest(adventurer)</text><polygon fill="#181818" points="299,174.96,289,178.96,299,182.96,295,178.96" style="stroke:#181818;stroke-width:1.0;"/><line style="stroke:#181818;stroke-width:1.0;" x1="293" x2="523" y1="178.96" y2="178.96"/><text fill="#000000" font-family="JetBrains Mono" font-size="13" font-weight="bold" lengthAdjust="spacing" textLength="8" x="305" y="173.06">3</text><text fill="#000000" font-family="JetBrains Mono" font-size="13" lengthAdjust="spacing" textLength="160" x="317" y="173.06">getStrongestWeapon()</text><polygon fill="#181818" points="512,206.12,522,210.12,512,214.12,516,210.12" style="stroke:#181818;stroke-width:1.0;"/><line style="stroke:#181818;stroke-width:1.0;stroke-dasharray:2.0,2.0;" x1="288" x2="518" y1="210.12" y2="210.12"/><text fill="#000000" font-family="JetBrains Mono" font-size="13" font-weight="bold" lengthAdjust="spacing" textLength="8" x="295" y="204.22">4</text><text fill="#000000" font-family="JetBrains Mono" font-size="13" lengthAdjust="spacing" textLength="48" x="307" y="204.22">weapon</text><path d="M221,225.12 L298,225.12 L298,234.28 L288,244.28 L221,244.28 L221,225.12 " fill="#EEEEEE" style="stroke:#000000;stroke-width:1.5;"/><rect fill="none" height="239.28" style="stroke:#000000;stroke-width:1.5;" width="766" x="221" y="225.12"/><text fill="#000000" font-family="JetBrains Mono" font-size="13" font-weight="bold" lengthAdjust="spacing" textLength="32" x="236" y="239.38">loop</text><text fill="#000000" font-family="JetBrains Mono" font-size="11" font-weight="bold" lengthAdjust="spacing" textLength="364" x="313" y="238.34">[While monster.health &gt; 0 and adventurer.health &gt; 0]</text><polygon fill="#181818" points="299,263.44,289,267.44,299,271.44,295,267.44" style="stroke:#181818;stroke-width:1.0;"/><line style="stroke:#181818;stroke-width:1.0;" x1="293" x2="523" y1="267.44" y2="267.44"/><text fill="#000000" font-family="JetBrains Mono" font-size="13" font-weight="bold" lengthAdjust="spacing" textLength="8" x="305" y="261.54">5</text><text fill="#000000" font-family="JetBrains Mono" font-size="13" lengthAdjust="spacing" textLength="120" x="317" y="261.54">attack(monster)</text><polygon fill="#181818" points="580,294.6,590,298.6,580,302.6,584,298.6" style="stroke:#181818;stroke-width:1.0;"/><line style="stroke:#181818;stroke-width:1.0;" x1="288" x2="586" y1="298.6" y2="298.6"/><text fill="#000000" font-family="JetBrains Mono" font-size="13" font-weight="bold" lengthAdjust="spacing" textLength="8" x="295" y="292.7">6</text><text fill="#000000" font-family="JetBrains Mono" font-size="13" lengthAdjust="spacing" textLength="176" x="307" y="292.7">performAttack(monster)</text><polygon fill="#181818" points="920,325.76,930,329.76,920,333.76,924,329.76" style="stroke:#181818;stroke-width:1.0;"/><line style="stroke:#181818;stroke-width:1.0;" x1="592" x2="926" y1="329.76" y2="329.76"/><text fill="#000000" font-family="JetBrains Mono" font-size="13" font-weight="bold" lengthAdjust="spacing" textLength="8" x="599" y="323.86">7</text><text fill="#000000" font-family="JetBrains Mono" font-size="13" lengthAdjust="spacing" textLength="304" x="611" y="323.86">takeDamage(weaponDamage, bypassArmor?)</text><polygon fill="#181818" points="920,356.92,930,360.92,920,364.92,924,360.92" style="stroke:#181818;stroke-width:1.0;"/><line style="stroke:#181818;stroke-width:1.0;" x1="288" x2="926" y1="360.92" y2="360.92"/><text fill="#000000" font-family="JetBrains Mono" font-size="13" font-weight="bold" lengthAdjust="spacing" textLength="8" x="295" y="355.02">8</text><text fill="#000000" font-family="JetBrains Mono" font-size="13" lengthAdjust="spacing" textLength="280" x="307" y="355.02">takeDamage(basePower + rank, false)</text><path d="M231,375.92 L300,375.92 L300,385.08 L290,395.08 L231,395.08 L231,375.92 " fill="#EEEEEE" style="stroke:#000000;stroke-width:1.5;"/><rect fill="none" height="81.48" style="stroke:#000000;stroke-width:1.5;" width="746" x="231" y="375.92"/><text fill="#000000" font-family="JetBrains Mono" font-size="13" font-weight="bold" lengthAdjust="spacing" textLength="24" x="246" y="390.18">alt</text><text fill="#000000" font-family="JetBrains Mono" font-size="11" font-weight="bold" lengthAdjust="spacing" textLength="126" x="315" y="389.14">[Monster survives]</text><polygon fill="#181818" points="920,414.24,930,418.24,920,422.24,924,418.24" style="stroke:#181818;stroke-width:1.0;"/><line style="stroke:#181818;stroke-width:1.0;" x1="524" x2="926" y1="418.24" y2="418.24"/><text fill="#000000" font-family="JetBrains Mono" font-size="13" font-weight="bold" lengthAdjust="spacing" textLength="8" x="531" y="412.34">9</text><text fill="#000000" font-family="JetBrains Mono" font-size="13" lengthAdjust="spacing" textLength="144" x="543" y="412.34">attack(adventurer)</text><polygon fill="#181818" points="299,445.4,289,449.4,299,453.4,295,449.4" style="stroke:#181818;stroke-width:1.0;"/><line style="stroke:#181818;stroke-width:1.0;" x1="293" x2="931" y1="449.4" y2="449.4"/><text fill="#000000" font-family="JetBrains Mono" font-size="13" font-weight="bold" lengthAdjust="spacing" textLength="16" x="305" y="443.5">10</text><text fill="#000000" font-family="JetBrains Mono" font-size="13" lengthAdjust="spacing" textLength="160" x="325" y="443.5">takeDamage(strength)</text><polygon fill="#181818" points="299,490.56,289,494.56,299,498.56,295,494.56" style="stroke:#181818;stroke-width:1.0;"/><line style="stroke:#181818;stroke-width:1.0;" x1="293" x2="523" y1="494.56" y2="494.56"/><text fill="#000000" font-family="JetBrains Mono" font-size="13" font-weight="bold" lengthAdjust="spacing" textLength="16" x="305" y="488.66">11</text><text fill="#000000" font-family="JetBrains Mono" font-size="13" lengthAdjust="spacing" textLength="192" x="325" y="488.66">gainExperience(rewardXp)</text><polygon fill="#181818" points="215,521.72,205,525.72,215,529.72,211,525.72" style="stroke:#181818;stroke-width:1.0;"/><line style="stroke:#181818;stroke-width:1.0;stroke-dasharray:2.0,2.0;" x1="209" x2="523" y1="525.72" y2="525.72"/><text fill="#000000" font-family="JetBrains Mono" font-size="13" font-weight="bold" lengthAdjust="spacing" textLength="16" x="221" y="519.82">12</text><text fill="#000000" font-family="JetBrains Mono" font-size="13" lengthAdjust="spacing" textLength="120" x="241" y="519.82">true (complete)</text><polygon fill="#181818" points="59,552.88,49,556.88,59,560.88,55,556.88" style="stroke:#181818;stroke-width:1.0;"/><line style="stroke:#181818;stroke-width:1.0;stroke-dasharray:2.0,2.0;" x1="53" x2="203" y1="556.88" y2="556.88"/><text fill="#000000" font-family="JetBrains Mono" font-size="13" font-weight="bold" lengthAdjust="spacing" textLength="16" x="65" y="550.98">13</text><text fill="#000000" font-family="JetBrains Mono" font-size="13" lengthAdjust="spacing" textLength="56" x="85" y="550.98">success</text><!--SRC=[TLBBRi8m4BpxArQS4XMgddEWekf3gjIg5GTwNP85BEA7rcje_xvE0YGKUl31uzcPsVM6hROU6GrKjC9OoxEpyew6OFHAyi2eRO0tPzr8AOpYR3HBOeMbE8QvDh56qSwgf26wr1wjm4lKTNM6pAeTMOcSAeVmPwGWPyY2qFzHI-P1Kg7gtM0oxKmAu6XxFCjL2pVlhNO1A4B6ItlBy1GZLotI4Fji1Qn9viBEhjDR5oL9zWIOzCBxBgcgdVEmsEYQm7H9RpU4jMnW2dU0jeBUTV2Y0AucI7cnt6O7gJpHXlRJmu0AyCGhnsPsGUy83VKmk084j_I81jUKTQcxonYMFnv3cB5nV7zfTQr-YO4-t3uHRe3HRiUmmZfGhb9rQkrO0o7oJkye97ZGw4dnqENmFnhYiVhFJ0R-GPZiMZODdsobclFFLwRDVVfEOz9aIygOziZLbpzzVBz2mf4WAvtnDGcTLYWH-iqgKaTbII6eNm00]--></g></svg>