<?xml version="1.0" encoding="us-ascii" standalone="no"?><svg xmlns="http://www.w3.org/2000/svg" xmlns:xlink="http://www.w3.org/1999/xlink" contentStyleType="text/css" height="1443px" preserveAspectRatio="none" style="width:409px;height:1443px;background:#FFFFFF;" version="1.1" viewBox="0 0 409 1443" width="409px" zoomAndPan="magnify"><defs/><g><ellipse cx="201.34" cy="16" fill="#222222" rx="10" ry="10" style="stroke:#222222;stroke-width:1.0;"/><rect fill="#F1F1F1" height="40" rx="12.5" ry="12.5" style="stroke:#181818;stroke-width:0.5;" width="76" x="163.34" y="87"/><text fill="#000000" font-family="JetBrains Mono" font-size="14" lengthAdjust="spacing" textLength="56" x="173.34" y="112.04">Standby</text><path d="M19.5,216 L383.19,216 A12.5,12.5 0 0 1 395.69,228.5 L395.69,254.48 L7,254.48 L7,228.5 A12.5,12.5 0 0 1 19.5,216 " fill="#F1F1F1" style="stroke:#F1F1F1;stroke-width:1.0;"/><rect fill="none" height="1221.2" rx="12.5" ry="12.5" style="stroke:#181818;stroke-width:0.5;" width="388.69" x="7" y="216"/><line style="stroke:#181818;stroke-width:0.5;" x1="7" x2="395.69" y1="254.48" y2="254.48"/><text fill="#000000" font-family="JetBrains Mono" font-size="14" lengthAdjust="spacing" textLength="72" x="165.345" y="240.28">Operating</text><ellipse cx="202.85" cy="275.48" fill="#222222" rx="10" ry="10" style="stroke:#222222;stroke-width:1.0;"/><g id="Operating.Idle"><rect fill="#F1F1F1" height="74.32" rx="12.5" ry="12.5" style="stroke:#181818;stroke-width:0.5;" width="226" x="89.85" y="322.48"/><line style="stroke:#181818;stroke-width:0.5;" x1="89.85" x2="315.85" y1="360.96" y2="360.96"/><text fill="#000000" font-family="JetBrains Mono" font-size="14" lengthAdjust="spacing" textLength="32" x="186.85" y="346.76">Idle</text><text fill="#000000" font-family="JetBrains Mono" font-size="12" lengthAdjust="spacing" textLength="196" x="99.85" y="383.2">entry / prompt "Insert Tape"</text></g><path d="M31.5,461.8 L374.19,461.8 A12.5,12.5 0 0 1 386.69,474.3 L386.69,500.28 L19,500.28 L19,474.3 A12.5,12.5 0 0 1 31.5,461.8 " fill="#F1F1F1" style="stroke:#F1F1F1;stroke-width:1.0;"/><rect fill="none" height="965.4" rx="12.5" ry="12.5" style="stroke:#181818;stroke-width:0.5;" width="367.69" x="19" y="461.8"/><line style="stroke:#181818;stroke-width:0.5;" x1="19" x2="386.69" y1="500.28" y2="500.28"/><text fill="#000000" font-family="JetBrains Mono" font-size="14" lengthAdjust="spacing" textLength="48" x="178.845" y="486.08">Active</text><line style="stroke:#181818;stroke-width:1.5;stroke-dasharray:8.0,10.0;" x1="24" x2="379.69" y1="517.28" y2="517.28"/><path d="M43.5,524.28 L337.91,524.28 A12.5,12.5 0 0 1 350.41,536.78 L350.41,562.76 L31,562.76 L31,536.78 A12.5,12.5 0 0 1 43.5,524.28 " fill="#F1F1F1" style="stroke:#F1F1F1;stroke-width:1.0;"/><rect fill="none" height="261.48" rx="12.5" ry="12.5" style="stroke:#181818;stroke-width:0.5;" width="319.41" x="31" y="524.28"/><line style="stroke:#181818;stroke-width:0.5;" x1="31" x2="350.41" y1="562.76" y2="562.76"/><text fill="#000000" font-family="JetBrains Mono" font-size="14" lengthAdjust="spacing" textLength="32" x="174.705" y="548.56">Head</text><ellipse cx="124.84" cy="583.76" fill="#222222" rx="10" ry="10" style="stroke:#222222;stroke-width:1.0;"/><rect fill="#F1F1F1" height="40" rx="12.5" ry="12.5" style="stroke:#181818;stroke-width:0.5;" width="76" x="86.84" y="630.76"/><text fill="#000000" font-family="JetBrains Mono" font-size="14" lengthAdjust="spacing" textLength="56" x="96.84" y="655.8">OffTape</text><rect fill="#F1F1F1" height="40" rx="12.5" ry="12.5" style="stroke:#181818;stroke-width:0.5;" width="68" x="90.84" y="735.76"/><text fill="#000000" font-family="JetBrains Mono" font-size="14" lengthAdjust="spacing" textLength="48" x="100.84" y="760.8">OnTape</text><!--link *start*Head to OffTape--><g id="link_*start*Head_OffTape"><path d="M124.84,594.07 C124.84,603.48 124.84,612.3 124.84,624.28 " fill="none" id="*start*Head-to-OffTape" style="stroke:#181818;stroke-width:1.0;"/><polygon fill="#181818" points="124.84,630.28,128.84,621.28,124.84,625.28,120.84,621.28,124.84,630.28" style="stroke:#181818;stroke-width:1.0;"/></g><!--link OffTape to OnTape--><g id="link_OffTape_OnTape"><path d="M86.43,661.09 C72.08,666.64 57.24,675.32 48.84,688.76 C42,699.69 42,706.83 48.84,717.76 C58.02,732.44 69.2189,739.462 84.7389,744.912 " fill="none" id="OffTape-to-OnTape" style="stroke:#181818;stroke-width:1.0;"/><polygon fill="#181818" points="90.4,746.9,83.2337,740.144,85.6824,745.2434,80.583,747.6921,90.4,746.9" style="stroke:#181818;stroke-width:1.0;"/><text fill="#000000" font-family="JetBrains Mono" font-size="13" lengthAdjust="spacing" textLength="120" x="54.84" y="708.02">on "Engage_All"</text></g><!--link OnTape to OffTape--><g id="link_OnTape_OffTape"><path d="M159.26,739.54 C167.84,733.99 175.98,726.79 180.84,717.76 C186.94,706.41 186.94,700.11 180.84,688.76 C176.75,681.17 175.2057,678.3945 168.1657,673.2845 " fill="none" id="OnTape-to-OffTape" style="stroke:#181818;stroke-width:1.0;"/><polygon fill="#181818" points="163.31,669.76,168.2439,678.2839,167.3564,672.6971,172.9432,671.8096,163.31,669.76" style="stroke:#181818;stroke-width:1.0;"/><text fill="#000000" font-family="JetBrains Mono" font-size="13" lengthAdjust="spacing" textLength="144" x="191.41" y="708.02">on "Disengage_All"</text></g><line style="stroke:#181818;stroke-width:1.5;stroke-dasharray:8.0,10.0;" x1="24" x2="379.69" y1="790.76" y2="790.76"/><path d="M43.5,797.76 L293.5,797.76 A12.5,12.5 0 0 1 306,810.26 L306,836.24 L31,836.24 L31,810.26 A12.5,12.5 0 0 1 43.5,797.76 " fill="#F1F1F1" style="stroke:#F1F1F1;stroke-width:1.0;"/><rect fill="none" height="311.64" rx="12.5" ry="12.5" style="stroke:#181818;stroke-width:0.5;" width="275" x="31" y="797.76"/><line style="stroke:#181818;stroke-width:0.5;" x1="31" x2="306" y1="836.24" y2="836.24"/><text fill="#000000" font-family="JetBrains Mono" font-size="14" lengthAdjust="spacing" textLength="80" x="128.5" y="822.04">Controller</text><ellipse cx="170" cy="857.24" fill="#222222" rx="10" ry="10" style="stroke:#222222;stroke-width:1.0;"/><rect fill="#F1F1F1" height="40" rx="12.5" ry="12.5" style="stroke:#181818;stroke-width:0.5;" width="76" x="132" y="904.24"/><text fill="#000000" font-family="JetBrains Mono" font-size="14" lengthAdjust="spacing" textLength="56" x="142" y="929.28">Waiting</text><g id="Operating.Active.CONC19.Controller.ProcessingPlay"><rect fill="#F1F1F1" height="90.16" rx="12.5" ry="12.5" style="stroke:#181818;stroke-width:0.5;" width="254" x="43" y="1009.24"/><line style="stroke:#181818;stroke-width:0.5;" x1="43" x2="297" y1="1047.72" y2="1047.72"/><text fill="#000000" font-family="JetBrains Mono" font-size="14" lengthAdjust="spacing" textLength="112" x="114" y="1033.52">ProcessingPlay</text><text fill="#000000" font-family="JetBrains Mono" font-size="12" lengthAdjust="spacing" textLength="210" x="53" y="1069.96">entry / broadcast "Engage_All"</text><text fill="#000000" font-family="JetBrains Mono" font-size="12" lengthAdjust="spacing" textLength="224" x="53" y="1085.8">exit / broadcast "Disengage_All"</text></g><!--link *start*Controller to Waiting--><g id="link_*start*Controller_Waiting"><path d="M170,867.55 C170,876.96 170,885.78 170,897.76 " fill="none" id="*start*Controller-to-Waiting" style="stroke:#181818;stroke-width:1.0;"/><polygon fill="#181818" points="170,903.76,174,894.76,170,898.76,166,894.76,170,903.76" style="stroke:#181818;stroke-width:1.0;"/></g><!--link Waiting to ProcessingPlay--><g id="link_Waiting_ProcessingPlay"><path d="M142.75,944.62 C137.58,949.72 132.88,955.65 130,962.24 C124.84,974.05 126.36,978.88 130,991.24 C131.77,997.27 131.5692,997.9329 134.5492,1003.6829 " fill="none" id="Waiting-to-ProcessingPlay" style="stroke:#181818;stroke-width:1.0;"/><polygon fill="#181818" points="137.31,1009.01,136.7202,999.1788,135.0093,1004.5708,129.6174,1002.8599,137.31,1009.01" style="stroke:#181818;stroke-width:1.0;"/><text fill="#000000" font-family="JetBrains Mono" font-size="13" lengthAdjust="spacing" textLength="48" x="136" y="981.5">evPlay</text></g><!--link ProcessingPlay to Waiting--><g id="link_ProcessingPlay_Waiting"><path d="M188.02,1009.18 C191.91,994.23 193.85,977.46 190,962.24 C188.46,956.15 188.5577,955.2557 185.5677,949.7357 " fill="none" id="ProcessingPlay-to-Waiting" style="stroke:#181818;stroke-width:1.0;"/><polygon fill="#181818" points="182.71,944.46,183.4794,954.2788,185.0914,948.8565,190.5137,950.4685,182.71,944.46" style="stroke:#181818;stroke-width:1.0;"/><text fill="#000000" font-family="JetBrains Mono" font-size="13" lengthAdjust="spacing" textLength="48" x="198.09" y="981.5">evStop</text></g><line style="stroke:#181818;stroke-width:1.5;stroke-dasharray:8.0,10.0;" x1="24" x2="379.69" y1="1114.4" y2="1114.4"/><path d="M43.5,1121.4 L365.19,1121.4 A12.5,12.5 0 0 1 377.69,1133.9 L377.69,1159.88 L31,1159.88 L31,1133.9 A12.5,12.5 0 0 1 43.5,1121.4 " fill="#F1F1F1" style="stroke:#F1F1F1;stroke-width:1.0;"/><rect fill="none" height="295.8" rx="12.5" ry="12.5" style="stroke:#181818;stroke-width:0.5;" width="346.69" x="31" y="1121.4"/><line style="stroke:#181818;stroke-width:0.5;" x1="31" x2="377.69" y1="1159.88" y2="1159.88"/><text fill="#000000" font-family="JetBrains Mono" font-size="14" lengthAdjust="spacing" textLength="40" x="184.345" y="1145.68">Motor</text><ellipse cx="152.5" cy="1180.88" fill="#222222" rx="10" ry="10" style="stroke:#222222;stroke-width:1.0;"/><rect fill="#F1F1F1" height="40" rx="12.5" ry="12.5" style="stroke:#181818;stroke-width:0.5;" width="76" x="114.5" y="1227.88"/><text fill="#000000" font-family="JetBrains Mono" font-size="14" lengthAdjust="spacing" textLength="56" x="124.5" y="1252.92">Stopped</text><g id="Operating.Active.CONC28.Motor.Playing"><rect fill="#F1F1F1" height="74.32" rx="12.5" ry="12.5" style="stroke:#181818;stroke-width:0.5;" width="219" x="43" y="1332.88"/><line style="stroke:#181818;stroke-width:0.5;" x1="43" x2="262" y1="1371.36" y2="1371.36"/><text fill="#000000" font-family="JetBrains Mono" font-size="14" lengthAdjust="spacing" textLength="56" x="124.5" y="1357.16">Playing</text><text fill="#000000" font-family="JetBrains Mono" font-size="12" lengthAdjust="spacing" textLength="189" x="53" y="1393.6">do / spin_at_standard_speed</text></g><!--link *start*Motor to Stopped--><g id="link_*start*Motor_Stopped"><path d="M152.5,1191.19 C152.5,1200.6 152.5,1209.42 152.5,1221.4 " fill="none" id="*start*Motor-to-Stopped" style="stroke:#181818;stroke-width:1.0;"/><polygon fill="#181818" points="152.5,1227.4,156.5,1218.4,152.5,1222.4,148.5,1218.4,152.5,1227.4" style="stroke:#181818;stroke-width:1.0;"/></g><!--link Stopped to Playing--><g id="link_Stopped_Playing"><path d="M114.09,1258.21 C99.74,1263.76 84.9,1272.44 76.5,1285.88 C66.13,1302.46 71.0049,1314.761 86.2249,1328.491 " fill="none" id="Stopped-to-Playing" style="stroke:#181818;stroke-width:1.0;"/><polygon fill="#181818" points="90.68,1332.51,86.6767,1323.5115,86.9674,1329.1609,81.318,1329.4516,90.68,1332.51" style="stroke:#181818;stroke-width:1.0;"/><text fill="#000000" font-family="JetBrains Mono" font-size="13" lengthAdjust="spacing" textLength="120" x="82.5" y="1305.14">on "Engage_All"</text></g><!--link Playing to Stopped--><g id="link_Playing_Stopped"><path d="M197.54,1332.69 C201.96,1327.2 205.81,1321.23 208.5,1314.88 C213.53,1303.01 214.61,1297.23 208.5,1285.88 C204.42,1278.29 202.8657,1275.5145 195.8257,1270.4045 " fill="none" id="Playing-to-Stopped" style="stroke:#181818;stroke-width:1.0;"/><polygon fill="#181818" points="190.97,1266.88,195.9039,1275.4039,195.0164,1269.8171,200.6032,1268.9296,190.97,1266.88" style="stroke:#181818;stroke-width:1.0;"/><text fill="#000000" font-family="JetBrains Mono" font-size="13" lengthAdjust="spacing" textLength="144" x="218.69" y="1305.14">on "Disengage_All"</text></g><!--link *start*Operating to Idle--><g id="link_*start*Operating_Idle"><path d="M202.85,285.9 C202.85,294.84 202.85,302.85 202.85,316.19 " fill="none" id="*start*Operating-to-Idle" style="stroke:#181818;stroke-width:1.0;"/><polygon fill="#181818" points="202.85,322.19,206.85,313.19,202.85,317.19,198.85,313.19,202.85,322.19" style="stroke:#181818;stroke-width:1.0;"/></g><!--link Idle to Active--><g id="link_Idle_Active"><path d="M147.04,397.22 C142.17,402.54 137.92,408.41 134.85,414.8 C129.25,426.41 133.97,430.94 134.85,443.8 C135.24,449.7 135.2183,449.647 135.6683,455.607 " fill="none" id="Idle-to-Active" style="stroke:#181818;stroke-width:1.0;"/><polygon fill="#181818" points="136.12,461.59,139.431,452.3144,135.7436,456.6042,131.4538,452.9167,136.12,461.59" style="stroke:#181818;stroke-width:1.0;"/><text fill="#000000" font-family="JetBrains Mono" font-size="13" lengthAdjust="spacing" textLength="104" x="140.85" y="434.06">Tape Inserted</text></g><!--link Active to Idle--><g id="link_Active_Idle"><path d="M249.95,461.53 C250.26,455.59 250.56,449.68 250.85,443.8 C251.46,430.93 255.42,426.85 250.85,414.8 C248.48,408.57 248.5308,407.48 244.5608,401.93 " fill="none" id="Active-to-Idle" style="stroke:#181818;stroke-width:1.0;"/><polygon fill="#181818" points="241.07,397.05,243.0528,406.6972,243.979,401.1167,249.5595,402.0429,241.07,397.05" style="stroke:#181818;stroke-width:1.0;"/><text fill="#000000" font-family="JetBrains Mono" font-size="13" lengthAdjust="spacing" textLength="104" x="259.02" y="434.06">Eject Pressed</text></g><!--link *start* to Standby--><g id="link_*start*_Standby"><path d="M201.34,26.19 C201.34,40.4 201.34,62.02 201.34,80.74 " fill="none" id="*start*-to-Standby" style="stroke:#181818;stroke-width:1.0;"/><polygon fill="#181818" points="201.34,86.74,205.34,77.74,201.34,81.74,197.34,77.74,201.34,86.74" style="stroke:#181818;stroke-width:1.0;"/></g><!--link Standby to Operating--><g id="link_Standby_Operating"><path d="M166.57,127.48 C156.18,135.21 146.04,145.12 140.34,157 C134.77,168.62 139.73,173.13 140.34,186 C140.82,195.89 141.0018,199.869 141.5518,209.909 " fill="none" id="Standby-to-Operating" style="stroke:#181818;stroke-width:1.0;"/><polygon fill="#181818" points="141.88,215.9,145.3817,206.6947,141.6065,210.9075,137.3937,207.1323,141.88,215.9" style="stroke:#181818;stroke-width:1.0;"/><text fill="#000000" font-family="JetBrains Mono" font-size="13" lengthAdjust="spacing" textLength="64" x="146.34" y="176.26">Power On</text></g><!--link Operating to Standby--><g id="link_Operating_Standby"><path d="M219.87,215.81 C220.04,205.8 220.2,195.86 220.34,186 C220.54,173.11 222.72,169.67 220.34,157 C218.43,146.78 216.8385,141.4484 213.0085,132.5784 " fill="none" id="Operating-to-Standby" style="stroke:#181818;stroke-width:1.0;"/><polygon fill="#181818" points="210.63,127.07,210.5255,136.9183,212.6121,131.6604,217.87,133.747,210.63,127.07" style="stroke:#181818;stroke-width:1.0;"/><text fill="#000000" font-family="JetBrains Mono" font-size="13" lengthAdjust="spacing" textLength="72" x="227.44" y="176.26">Power Off</text></g><!--SRC=[VLJBJiCm4BpxArOv8bMSkFI0n5E01Aq44WU4gYNU54DgM_Rog13_ZXsxRLmbv6JlpaucOqzUbIIWbUKrIFArKvQLqSA_AstHuGhcAANIIpZgrSwfmO-MButcErmHL3V4fmwLzd1hjAc4U3fuXida6EuPjNnP2-4PcM1coI57kXy1uTd0hcLBegiaNDndI7owxHH8irl38LXdWc2ehhKdn_20bgeE-zldEAbPVVPP9fFjCY6k26MltnSqQvf8M_HoBVLrjvo2qL1Tw2KkQN7IjbKve7VuF9i6pfMdWPdVSQbdmMfdsfRSYE17LD7NefThNN_kJ4tUX-synNKqypCk2lmUfaVRuU_PM54C96rxOwM-0TxTGRuuWx96p-CU3iz_Aox7HnmjNVt7trl3PipQ-DsMPD7BjMHj49Ky-kyoR50znk7RCEHmdXsmTljkQO8ZtYgzG5xu63jqSk4jxIdVjoDdfejOr9PZC-rY1IbYcIAtDe4Dc8itgZcSJpYTW0bKEU_fpc_3FeMv-GfNTwR5hjZxFUm0JIF-0000]--></g></svg>