<?xml version="1.0" encoding="us-ascii" standalone="no"?><svg xmlns="http://www.w3.org/2000/svg" xmlns:xlink="http://www.w3.org/1999/xlink" contentStyleType="text/css" height="666px" preserveAspectRatio="none" style="width:3945px;height:666px;background:#FFFFFF;" version="1.1" viewBox="0 0 3945 666" width="3945px" zoomAndPan="magnify"><defs/><g><!--cluster hospital--><g id="cluster_hospital"><path d="M8.5,100.32 L73.5,100.32 A3.75,3.75 0 0 1 76,102.82 L83,124.8 L3317,124.8 A2.5,2.5 0 0 1 3319.5,127.3 L3319.5,577.82 A2.5,2.5 0 0 1 3317,580.32 L8.5,580.32 A2.5,2.5 0 0 1 6,577.82 L6,102.82 A2.5,2.5 0 0 1 8.5,100.32 " fill="none" style="stroke:#000000;stroke-width:1.5;"/><line style="stroke:#000000;stroke-width:1.5;" x1="6" x2="83" y1="124.8" y2="124.8"/><text fill="#000000" font-family="JetBrains Mono" font-size="14" font-weight="bold" lengthAdjust="spacing" textLength="64" x="10" y="116.6">hospital</text></g><!--class Employee--><g id="elem_Employee"><rect codeLine="6" fill="#F1F1F1" height="232.8" id="Employee" rx="2.5" ry="2.5" style="stroke:#181818;stroke-width:0.5;" width="316" x="1090.5" y="329.92"/><ellipse cx="1212.25" cy="345.92" fill="#A9DCDF" rx="11" ry="11" style="stroke:#181818;stroke-width:1.0;"/><path d="M1212.1133,341.2681 L1210.9595,346.3399 L1213.2754,346.3399 Z M1210.6191,339.0269 L1213.6157,339.0269 L1216.9609,351.42 L1214.5122,351.42 L1213.7485,348.357 L1210.4697,348.357 L1209.7227,351.42 L1207.2739,351.42 Z " fill="#000000"/><text fill="#000000" font-family="JetBrains Mono" font-size="14" font-style="italic" lengthAdjust="spacing" textLength="64" x="1232.75" y="350.96">Employee</text><line style="stroke:#181818;stroke-width:0.5;" x1="1091.5" x2="1405.5" y1="361.92" y2="361.92"/><text fill="#000000" font-family="JetBrains Mono" font-size="14" lengthAdjust="spacing" textLength="88" x="1096.5" y="380.2">#id: String</text><text fill="#000000" font-family="JetBrains Mono" font-size="14" lengthAdjust="spacing" textLength="104" x="1096.5" y="398.68">#name: String</text><text fill="#000000" font-family="JetBrains Mono" font-size="14" lengthAdjust="spacing" textLength="208" x="1096.5" y="417.16">#hospitals: List&lt;Hospital&gt;</text><line style="stroke:#181818;stroke-width:1.0;" x1="1091.5" x2="1405.5" y1="425.36" y2="425.36"/><text fill="#000000" font-family="JetBrains Mono" font-size="14" lengthAdjust="spacing" textLength="280" x="1096.5" y="443.64">+Employee(id: String, name: String)</text><text fill="#000000" font-family="JetBrains Mono" font-size="14" lengthAdjust="spacing" textLength="304" x="1096.5" y="462.12">+addHospital(hospital: Hospital): void</text><text fill="#000000" font-family="JetBrains Mono" font-size="14" lengthAdjust="spacing" textLength="128" x="1096.5" y="480.6">+getId(): String</text><text fill="#000000" font-family="JetBrains Mono" font-size="14" lengthAdjust="spacing" textLength="192" x="1096.5" y="499.08">+setId(id: String): void</text><text fill="#000000" font-family="JetBrains Mono" font-size="14" lengthAdjust="spacing" textLength="144" x="1096.5" y="517.56">+getName(): String</text><text fill="#000000" font-family="JetBrains Mono" font-size="14" lengthAdjust="spacing" textLength="224" x="1096.5" y="536.04">+setName(name: String): void</text><text fill="#000000" font-family="JetBrains Mono" font-size="14" lengthAdjust="spacing" textLength="248" x="1096.5" y="554.52">+getHospitals(): List&lt;Hospital&gt;</text></g><!--class Doctor--><g id="elem_Doctor"><rect codeLine="20" fill="#F1F1F1" height="140.4" id="Doctor" rx="2.5" ry="2.5" style="stroke:#181818;stroke-width:0.5;" width="308" x="1677.5" y="387.12"/><ellipse cx="1803.25" cy="403.12" fill="#ADD1B2" rx="11" ry="11" style="stroke:#181818;stroke-width:1.0;"/><path d="M1805.7231,409.2631 Q1805.1421,409.5619 1804.5029,409.7113 Q1803.8638,409.8607 1803.1582,409.8607 Q1800.6514,409.8607 1799.3315,408.2089 Q1798.0117,406.557 1798.0117,403.4359 Q1798.0117,400.3065 1799.3315,398.6547 Q1800.6514,397.0028 1803.1582,397.0028 Q1803.8638,397.0028 1804.5112,397.1522 Q1805.1587,397.3016 1805.7231,397.6005 L1805.7231,400.3231 Q1805.0923,399.7421 1804.4988,399.4723 Q1803.9053,399.2025 1803.2744,399.2025 Q1801.9297,399.2025 1801.2449,400.2692 Q1800.5601,401.3358 1800.5601,403.4359 Q1800.5601,405.5277 1801.2449,406.5944 Q1801.9297,407.661 1803.2744,407.661 Q1803.9053,407.661 1804.4988,407.3912 Q1805.0923,407.1215 1805.7231,406.5404 Z " fill="#000000"/><text fill="#000000" font-family="JetBrains Mono" font-size="14" lengthAdjust="spacing" textLength="48" x="1823.75" y="408.16">Doctor</text><line style="stroke:#181818;stroke-width:0.5;" x1="1678.5" x2="1984.5" y1="419.12" y2="419.12"/><text fill="#000000" font-family="JetBrains Mono" font-size="14" lengthAdjust="spacing" textLength="192" x="1683.5" y="437.4">-patients: List&lt;Patient&gt;</text><line style="stroke:#181818;stroke-width:1.0;" x1="1678.5" x2="1984.5" y1="445.6" y2="445.6"/><text fill="#000000" font-family="JetBrains Mono" font-size="14" lengthAdjust="spacing" textLength="264" x="1683.5" y="463.88">+Doctor(id: String, name: String)</text><text fill="#000000" font-family="JetBrains Mono" font-size="14" lengthAdjust="spacing" textLength="240" x="1683.5" y="482.36">+treat(patient: Patient): void</text><text fill="#000000" font-family="JetBrains Mono" font-size="14" lengthAdjust="spacing" textLength="296" x="1683.5" y="500.84">+discharge(patient: Patient): boolean</text><text fill="#000000" font-family="JetBrains Mono" font-size="14" lengthAdjust="spacing" textLength="232" x="1683.5" y="519.32">+getPatients(): List&lt;Patient&gt;</text></g><!--class Nurse--><g id="elem_Nurse"><rect codeLine="29" fill="#F1F1F1" height="121.92" id="Nurse" rx="2.5" ry="2.5" style="stroke:#181818;stroke-width:0.5;" width="276" x="3027.5" y="338.36"/><ellipse cx="3141.25" cy="354.36" fill="#ADD1B2" rx="11" ry="11" style="stroke:#181818;stroke-width:1.0;"/><path d="M3143.7231,360.5031 Q3143.1421,360.8019 3142.5029,360.9513 Q3141.8638,361.1007 3141.1582,361.1007 Q3138.6514,361.1007 3137.3315,359.4489 Q3136.0117,357.797 3136.0117,354.6759 Q3136.0117,351.5465 3137.3315,349.8947 Q3138.6514,348.2428 3141.1582,348.2428 Q3141.8638,348.2428 3142.5112,348.3922 Q3143.1587,348.5416 3143.7231,348.8405 L3143.7231,351.5631 Q3143.0923,350.9821 3142.4988,350.7123 Q3141.9053,350.4425 3141.2744,350.4425 Q3139.9297,350.4425 3139.2449,351.5092 Q3138.5601,352.5758 3138.5601,354.6759 Q3138.5601,356.7677 3139.2449,357.8344 Q3139.9297,358.901 3141.2744,358.901 Q3141.9053,358.901 3142.4988,358.6312 Q3143.0923,358.3615 3143.7231,357.7804 Z " fill="#000000"/><text fill="#000000" font-family="JetBrains Mono" font-size="14" lengthAdjust="spacing" textLength="40" x="3161.75" y="359.4">Nurse</text><line style="stroke:#181818;stroke-width:0.5;" x1="3028.5" x2="3302.5" y1="370.36" y2="370.36"/><text fill="#000000" font-family="JetBrains Mono" font-size="14" lengthAdjust="spacing" textLength="232" x="3033.5" y="388.64">+patients: ArrayList&lt;Patient&gt;</text><line style="stroke:#181818;stroke-width:1.0;" x1="3028.5" x2="3302.5" y1="396.84" y2="396.84"/><text fill="#000000" font-family="JetBrains Mono" font-size="14" lengthAdjust="spacing" textLength="256" x="3033.5" y="415.12">+Nurse(id: String, name: String)</text><text fill="#000000" font-family="JetBrains Mono" font-size="14" lengthAdjust="spacing" textLength="264" x="3033.5" y="433.6">+takeCare(patient: Patient): void</text><text fill="#000000" font-family="JetBrains Mono" font-size="14" lengthAdjust="spacing" textLength="264" x="3033.5" y="452.08">+leave(patient: Patient): boolean</text></g><!--class Staff--><g id="elem_Staff"><rect codeLine="37" fill="#F1F1F1" height="103.44" id="Staff" rx="2.5" ry="2.5" style="stroke:#181818;stroke-width:0.5;" width="268" x="1697.5" y="248.6"/><ellipse cx="1807.25" cy="264.6" fill="#ADD1B2" rx="11" ry="11" style="stroke:#181818;stroke-width:1.0;"/><path d="M1809.7231,270.7431 Q1809.1421,271.0419 1808.5029,271.1913 Q1807.8638,271.3407 1807.1582,271.3407 Q1804.6514,271.3407 1803.3315,269.6889 Q1802.0117,268.037 1802.0117,264.9159 Q1802.0117,261.7865 1803.3315,260.1347 Q1804.6514,258.4828 1807.1582,258.4828 Q1807.8638,258.4828 1808.5112,258.6322 Q1809.1587,258.7816 1809.7231,259.0805 L1809.7231,261.8031 Q1809.0923,261.2221 1808.4988,260.9523 Q1807.9053,260.6825 1807.2744,260.6825 Q1805.9297,260.6825 1805.2449,261.7492 Q1804.5601,262.8158 1804.5601,264.9159 Q1804.5601,267.0077 1805.2449,268.0744 Q1805.9297,269.141 1807.2744,269.141 Q1807.9053,269.141 1808.4988,268.8712 Q1809.0923,268.6015 1809.7231,268.0204 Z " fill="#000000"/><text fill="#000000" font-family="JetBrains Mono" font-size="14" lengthAdjust="spacing" textLength="40" x="1827.75" y="269.64">Staff</text><line style="stroke:#181818;stroke-width:0.5;" x1="1698.5" x2="1964.5" y1="280.6" y2="280.6"/><text fill="#000000" font-family="JetBrains Mono" font-size="14" lengthAdjust="spacing" textLength="88" x="1703.5" y="298.88">#id: String</text><text fill="#000000" font-family="JetBrains Mono" font-size="14" lengthAdjust="spacing" textLength="104" x="1703.5" y="317.36">#name: String</text><line style="stroke:#181818;stroke-width:1.0;" x1="1698.5" x2="1964.5" y1="325.56" y2="325.56"/><text fill="#000000" font-family="JetBrains Mono" font-size="14" lengthAdjust="spacing" textLength="256" x="1703.5" y="343.84">+Staff(id: String, name: String)</text></g><!--class Patient--><g id="elem_Patient"><rect codeLine="44" fill="#F1F1F1" height="251.28" id="Patient" rx="2.5" ry="2.5" style="stroke:#181818;stroke-width:0.5;" width="268" x="2352.5" y="272.68"/><ellipse cx="2454.25" cy="288.68" fill="#ADD1B2" rx="11" ry="11" style="stroke:#181818;stroke-width:1.0;"/><path d="M2456.7231,294.8231 Q2456.1421,295.1219 2455.5029,295.2713 Q2454.8638,295.4207 2454.1582,295.4207 Q2451.6514,295.4207 2450.3315,293.7689 Q2449.0117,292.117 2449.0117,288.9959 Q2449.0117,285.8665 2450.3315,284.2147 Q2451.6514,282.5628 2454.1582,282.5628 Q2454.8638,282.5628 2455.5112,282.7122 Q2456.1587,282.8616 2456.7231,283.1605 L2456.7231,285.8831 Q2456.0923,285.3021 2455.4988,285.0323 Q2454.9053,284.7625 2454.2744,284.7625 Q2452.9297,284.7625 2452.2449,285.8292 Q2451.5601,286.8958 2451.5601,288.9959 Q2451.5601,291.0877 2452.2449,292.1544 Q2452.9297,293.221 2454.2744,293.221 Q2454.9053,293.221 2455.4988,292.9512 Q2456.0923,292.6815 2456.7231,292.1004 Z " fill="#000000"/><text fill="#000000" font-family="JetBrains Mono" font-size="14" lengthAdjust="spacing" textLength="56" x="2474.75" y="293.72">Patient</text><line style="stroke:#181818;stroke-width:0.5;" x1="2353.5" x2="2619.5" y1="304.68" y2="304.68"/><text fill="#000000" font-family="JetBrains Mono" font-size="14" lengthAdjust="spacing" textLength="104" x="2358.5" y="322.96">-name: String</text><text fill="#000000" font-family="JetBrains Mono" font-size="14" lengthAdjust="spacing" textLength="120" x="2358.5" y="341.44">-doctor: Doctor</text><text fill="#000000" font-family="JetBrains Mono" font-size="14" lengthAdjust="spacing" textLength="160" x="2358.5" y="359.92">-nurses: List&lt;Nurse&gt;</text><line style="stroke:#181818;stroke-width:1.0;" x1="2353.5" x2="2619.5" y1="368.12" y2="368.12"/><text fill="#000000" font-family="JetBrains Mono" font-size="14" lengthAdjust="spacing" textLength="176" x="2358.5" y="386.4">+Patient(name: String)</text><text fill="#000000" font-family="JetBrains Mono" font-size="14" lengthAdjust="spacing" textLength="168" x="2358.5" y="404.88">+discharge(): boolean</text><text fill="#000000" font-family="JetBrains Mono" font-size="14" lengthAdjust="spacing" textLength="200" x="2358.5" y="423.36">+addNurse(n: Nurse): void</text><text fill="#000000" font-family="JetBrains Mono" font-size="14" lengthAdjust="spacing" textLength="224" x="2358.5" y="441.84">+removeNurse(n: Nurse): void</text><text fill="#000000" font-family="JetBrains Mono" font-size="14" lengthAdjust="spacing" textLength="200" x="2358.5" y="460.32">+getNurses(): List&lt;Nurse&gt;</text><text fill="#000000" font-family="JetBrains Mono" font-size="14" lengthAdjust="spacing" textLength="160" x="2358.5" y="478.8">+getDoctor(): Doctor</text><text fill="#000000" font-family="JetBrains Mono" font-size="14" lengthAdjust="spacing" textLength="256" x="2358.5" y="497.28">+setDoctor(doctor: Doctor): void</text><text fill="#000000" font-family="JetBrains Mono" font-size="14" lengthAdjust="spacing" textLength="144" x="2358.5" y="515.76">+getName(): String</text></g><!--class Hospital--><g id="elem_Hospital"><rect codeLine="59" fill="#F1F1F1" height="195.84" id="Hospital" rx="2.5" ry="2.5" style="stroke:#181818;stroke-width:0.5;" width="388" x="403.5" y="285.4"/><ellipse cx="561.25" cy="301.4" fill="#ADD1B2" rx="11" ry="11" style="stroke:#181818;stroke-width:1.0;"/><path d="M563.7231,307.5431 Q563.1421,307.8419 562.5029,307.9913 Q561.8638,308.1407 561.1582,308.1407 Q558.6514,308.1407 557.3315,306.4889 Q556.0117,304.837 556.0117,301.7159 Q556.0117,298.5865 557.3315,296.9347 Q558.6514,295.2828 561.1582,295.2828 Q561.8638,295.2828 562.5112,295.4322 Q563.1587,295.5816 563.7231,295.8805 L563.7231,298.6031 Q563.0923,298.0221 562.4988,297.7523 Q561.9053,297.4825 561.2744,297.4825 Q559.9297,297.4825 559.2449,298.5492 Q558.5601,299.6158 558.5601,301.7159 Q558.5601,303.8077 559.2449,304.8744 Q559.9297,305.941 561.2744,305.941 Q561.9053,305.941 562.4988,305.6712 Q563.0923,305.4015 563.7231,304.8204 Z " fill="#000000"/><text fill="#000000" font-family="JetBrains Mono" font-size="14" lengthAdjust="spacing" textLength="64" x="581.75" y="306.44">Hospital</text><line style="stroke:#181818;stroke-width:0.5;" x1="404.5" x2="790.5" y1="317.4" y2="317.4"/><text fill="#000000" font-family="JetBrains Mono" font-size="14" lengthAdjust="spacing" textLength="208" x="409.5" y="335.68">+employees: List&lt;Employee&gt;</text><text fill="#000000" font-family="JetBrains Mono" font-size="14" lengthAdjust="spacing" textLength="192" x="409.5" y="354.16">+patients: List&lt;Patient&gt;</text><line style="stroke:#181818;stroke-width:1.0;" x1="404.5" x2="790.5" y1="362.36" y2="362.36"/><text fill="#000000" font-family="JetBrains Mono" font-size="14" lengthAdjust="spacing" textLength="88" x="409.5" y="380.64">+Hospital()</text><text fill="#000000" font-family="JetBrains Mono" font-size="14" lengthAdjust="spacing" textLength="232" x="409.5" y="399.12">+heal(patient: Patient): void</text><text fill="#000000" font-family="JetBrains Mono" font-size="14" lengthAdjust="spacing" textLength="208" x="409.5" y="417.6">+employ(e: Employee): void</text><text fill="#000000" font-family="JetBrains Mono" font-size="14" lengthAdjust="spacing" textLength="376" x="409.5" y="436.08">+assign(doctor: Doctor, patient: Patient): void</text><text fill="#000000" font-family="JetBrains Mono" font-size="14" lengthAdjust="spacing" textLength="360" x="409.5" y="454.56">+assign(nurse: Nurse, patient: Patient): void</text><text fill="#000000" font-family="JetBrains Mono" font-size="14" lengthAdjust="spacing" textLength="296" x="409.5" y="473.04">+discharge(patient: Patient): boolean</text></g><!--class Main--><g id="elem_Main"><rect codeLine="71" fill="#F1F1F1" height="66.48" id="Main" rx="2.5" ry="2.5" style="stroke:#181818;stroke-width:0.5;" width="228" x="22" y="179.08"/><ellipse cx="115.75" cy="195.08" fill="#ADD1B2" rx="11" ry="11" style="stroke:#181818;stroke-width:1.0;"/><path d="M118.2231,201.2231 Q117.6421,201.5219 117.0029,201.6713 Q116.3638,201.8207 115.6582,201.8207 Q113.1514,201.8207 111.8315,200.1689 Q110.5117,198.517 110.5117,195.3959 Q110.5117,192.2665 111.8315,190.6147 Q113.1514,188.9628 115.6582,188.9628 Q116.3638,188.9628 117.0112,189.1122 Q117.6587,189.2616 118.2231,189.5605 L118.2231,192.2831 Q117.5923,191.7021 116.9988,191.4323 Q116.4053,191.1625 115.7744,191.1625 Q114.4297,191.1625 113.7449,192.2292 Q113.0601,193.2958 113.0601,195.3959 Q113.0601,197.4877 113.7449,198.5544 Q114.4297,199.621 115.7744,199.621 Q116.4053,199.621 116.9988,199.3512 Q117.5923,199.0815 118.2231,198.5004 Z " fill="#000000"/><text fill="#000000" font-family="JetBrains Mono" font-size="14" lengthAdjust="spacing" textLength="32" x="136.25" y="200.12">Main</text><line style="stroke:#181818;stroke-width:0.5;" x1="23" x2="249" y1="211.08" y2="211.08"/><line style="stroke:#181818;stroke-width:0.5;" x1="23" x2="249" y1="219.08" y2="219.08"/><text fill="#000000" font-family="JetBrains Mono" font-size="14" lengthAdjust="spacing" textLength="216" x="28" y="237.36">+main(args: String[]): void</text></g><g id="elem_GMN24"><path d="M1002,597.58 L1002,659.06 L1495,659.06 L1495,607.58 L1485,597.58 L1002,597.58 " fill="#FEFFDD" style="stroke:#181818;stroke-width:0.5;"/><path d="M1485,597.58 L1485,607.58 L1495,607.58 L1485,597.58 " fill="#FEFFDD" style="stroke:#181818;stroke-width:1.0;"/><text fill="#000000" font-family="JetBrains Mono" font-size="13" lengthAdjust="spacing" textLength="416" x="1008" y="615.84">The Hospital class coordinates object relationships.</text><text fill="#000000" font-family="JetBrains Mono" font-size="13" lengthAdjust="spacing" textLength="472" x="1008" y="633">It stores employees and patients, then delegates treatment,</text><text fill="#000000" font-family="JetBrains Mono" font-size="13" lengthAdjust="spacing" textLength="424" x="1008" y="650.16">care, and discharge to the concrete employee objects.</text></g><g id="elem_GMN27"><path d="M1597,599.16 L1597,643.48 L2066,643.48 L2066,609.16 L2056,599.16 L1597,599.16 " fill="#FEFFDD" style="stroke:#181818;stroke-width:0.5;"/><path d="M2056,599.16 L2056,609.16 L2066,609.16 L2056,599.16 " fill="#FEFFDD" style="stroke:#181818;stroke-width:1.0;"/><text fill="#000000" font-family="JetBrains Mono" font-size="13" lengthAdjust="spacing" textLength="352" x="1603" y="617.42">Abstract base class shared by all employees.</text><text fill="#000000" font-family="JetBrains Mono" font-size="13" lengthAdjust="spacing" textLength="448" x="1603" y="634.58">It holds common identity data and the list of hospitals.</text></g><g id="elem_GMN30"><path d="M2248,599.16 L2248,643.48 L2725,643.48 L2725,609.16 L2715,599.16 L2248,599.16 " fill="#FEFFDD" style="stroke:#181818;stroke-width:0.5;"/><path d="M2715,599.16 L2715,609.16 L2725,609.16 L2715,599.16 " fill="#FEFFDD" style="stroke:#181818;stroke-width:1.0;"/><text fill="#000000" font-family="JetBrains Mono" font-size="13" lengthAdjust="spacing" textLength="456" x="2254" y="617.42">Doctors manage their own patient list and set the reverse</text><text fill="#000000" font-family="JetBrains Mono" font-size="13" lengthAdjust="spacing" textLength="288" x="2254" y="634.58">reference on Patient during treat().</text></g><g id="elem_GMN33"><path d="M3485,377.16 L3485,395.32 L3303.77,399.32 L3485,403.32 L3485,421.48 A0,0 0 0 0 3485,421.48 L3938,421.48 A0,0 0 0 0 3938,421.48 L3938,387.16 L3928,377.16 L3485,377.16 A0,0 0 0 0 3485,377.16 " fill="#FEFFDD" style="stroke:#181818;stroke-width:0.5;"/><path d="M3928,377.16 L3928,387.16 L3938,387.16 L3928,377.16 " fill="#FEFFDD" style="stroke:#181818;stroke-width:0.5;"/><text fill="#000000" font-family="JetBrains Mono" font-size="13" lengthAdjust="spacing" textLength="432" x="3491" y="395.42">Nurses track the patients they care for and update the</text><text fill="#000000" font-family="JetBrains Mono" font-size="13" lengthAdjust="spacing" textLength="344" x="3491" y="412.58">patient-side nurse list through takeCare().</text></g><g id="elem_GMN36"><path d="M2907,596.16 L2907,640.48 L3424,640.48 L3424,606.16 L3414,596.16 L2907,596.16 " fill="#FEFFDD" style="stroke:#181818;stroke-width:0.5;"/><path d="M3414,596.16 L3414,606.16 L3424,606.16 L3414,596.16 " fill="#FEFFDD" style="stroke:#181818;stroke-width:1.0;"/><text fill="#000000" font-family="JetBrains Mono" font-size="13" lengthAdjust="spacing" textLength="496" x="2913" y="614.42">Patient keeps the inverse links to one Doctor and many Nurses.</text><text fill="#000000" font-family="JetBrains Mono" font-size="13" lengthAdjust="spacing" textLength="384" x="2913" y="631.58">discharge() removes the patient from both sides.</text></g><g id="elem_GMN39"><path d="M311,6 L311,84.64 A0,0 0 0 0 311,84.64 L593.5,84.64 L597.5,284.96 L601.5,84.64 L884,84.64 A0,0 0 0 0 884,84.64 L884,16 L874,6 L311,6 A0,0 0 0 0 311,6 " fill="#FEFFDD" style="stroke:#181818;stroke-width:0.5;"/><path d="M874,6 L874,16 L884,16 L874,6 " fill="#FEFFDD" style="stroke:#181818;stroke-width:0.5;"/><text fill="#000000" font-family="JetBrains Mono" font-size="13" lengthAdjust="spacing" textLength="104" x="317" y="24.26">Design style:</text><text fill="#000000" font-family="JetBrains Mono" font-size="13" lengthAdjust="spacing" textLength="336" x="317" y="41.42">- inheritance for shared employee behavior</text><text fill="#000000" font-family="JetBrains Mono" font-size="13" lengthAdjust="spacing" textLength="552" x="317" y="58.58">- polymorphism when Hospital accepts Doctor or Nurse-specific actions</text><text fill="#000000" font-family="JetBrains Mono" font-size="13" lengthAdjust="spacing" textLength="456" x="317" y="75.74">- bidirectional associations to keep the model consistent</text></g><!--reverse link Employee to Doctor--><g id="link_Employee_Doctor"><path codeLine="76" d="M1424.7268,449.6406 C1508.7368,451.2306 1593.75,452.84 1677.17,454.42 " fill="none" id="Employee-backto-Doctor" style="stroke:#181818;stroke-width:1.0;"/><polygon fill="none" points="1406.73,449.3,1424.6132,455.6395,1424.8403,443.6417,1406.73,449.3" style="stroke:#181818;stroke-width:1.0;"/></g><!--reverse link Employee to Nurse--><g id="link_Employee_Nurse"><path codeLine="77" d="M1423.8862,506.3108 C1482.8162,524.1708 1533.63,536.47 1597,545.32 C1689.97,558.3 2652.5,552.97 2725,541.32 C2828.91,524.63 2941.8,487.72 3027.14,455.72 " fill="none" id="Employee-backto-Nurse" style="stroke:#181818;stroke-width:1.0;"/><polygon fill="none" points="1406.66,501.09,1422.146,512.0529,1425.6265,500.5687,1406.66,501.09" style="stroke:#181818;stroke-width:1.0;"/></g><!--reverse link Employee to Staff--><g id="link_Employee_Staff"><path codeLine="78" d="M1424.1874,402.4236 C1515.0874,379.5836 1610.77,355.54 1697.27,333.8 " fill="none" id="Employee-backto-Staff" style="stroke:#181818;stroke-width:1.0;"/><polygon fill="none" points="1406.73,406.81,1425.6495,408.2427,1422.7252,396.6045,1406.73,406.81" style="stroke:#181818;stroke-width:1.0;"/></g><!--reverse link Hospital to Employee--><g id="link_Hospital_Employee"><path codeLine="79" d="M803.8438,403.2496 C899.0138,412.4896 1000.33,422.33 1090.11,431.04 " fill="none" id="Hospital-backto-Employee" style="stroke:#181818;stroke-width:1.0;"/><polygon fill="none" points="791.9,402.09,797.4854,406.6511,803.8438,403.2496,798.2585,398.6885,791.9,402.09" style="stroke:#181818;stroke-width:1.0;"/><text fill="#000000" font-family="JetBrains Mono" font-size="13" lengthAdjust="spacing" textLength="56" x="915" y="410.08">employs</text><text fill="#000000" font-family="JetBrains Mono" font-size="13" lengthAdjust="spacing" textLength="32" x="1050.7529" y="444.0173">0..*</text></g><!--reverse link Hospital to Patient--><g id="link_Hospital_Patient"><path codeLine="80" d="M803.7548,345.6097 C870.2448,333.7897 933.39,323.02 1002,312.32 C1470.59,239.23 1600.23,142.02 2066,231.32 C2165.5,250.4 2271.47,292.78 2352,330.07 " fill="none" id="Hospital-backto-Patient" style="stroke:#181818;stroke-width:1.0;"/><polygon fill="none" points="791.94,347.71,798.5475,350.5981,803.7548,345.6097,797.1473,342.7216,791.94,347.71" style="stroke:#181818;stroke-width:1.0;"/><text fill="#000000" font-family="JetBrains Mono" font-size="13" lengthAdjust="spacing" textLength="40" x="1526" y="202.31">heals</text><text fill="#000000" font-family="JetBrains Mono" font-size="13" lengthAdjust="spacing" textLength="32" x="2312.7102" y="340.4397">0..*</text></g><!--reverse link Doctor to Patient--><g id="link_Doctor_Patient"><path codeLine="81" d="M1997.8436,467.431 C2068.7036,469.741 2141.86,469.03 2218,460.32 C2262.17,455.27 2309.65,445.67 2352.17,435.51 " fill="none" id="Doctor-backto-Patient" style="stroke:#181818;stroke-width:1.0;"/><polygon fill="none" points="1985.85,467.04,1991.7165,471.2334,1997.8436,467.431,1991.9771,463.2376,1985.85,467.04" style="stroke:#181818;stroke-width:1.0;"/><text fill="#000000" font-family="JetBrains Mono" font-size="13" lengthAdjust="spacing" textLength="48" x="2133" y="455.58">treats</text><text fill="#000000" font-family="JetBrains Mono" font-size="13" lengthAdjust="spacing" textLength="32" x="2312.4186" y="451.13">0..*</text></g><!--link Patient to Doctor--><g id="link_Patient_Doctor"><path codeLine="83" d="M2352.15,410.37 C2245.82,419.98 2102.7756,432.8999 1991.5756,442.9499 " fill="none" id="Patient-to-Doctor" style="stroke:#181818;stroke-width:1.0;"/><polygon fill="#181818" points="1985.6,443.49,1994.9235,446.6637,1990.5797,443.0399,1994.2034,438.6961,1985.6,443.49" style="stroke:#181818;stroke-width:1.0;"/><text fill="#000000" font-family="JetBrains Mono" font-size="13" lengthAdjust="spacing" textLength="120" x="2097" y="417.8">assigned doctor</text></g><!--reverse link Nurse to Patient--><g id="link_Nurse_Patient"><path codeLine="82" d="M3015.2322,421.0322 C2935.7622,430.3822 2845.75,436.9 2755,431.32 C2711.21,428.63 2663.62,423.48 2620.89,418.04 " fill="none" id="Nurse-backto-Patient" style="stroke:#181818;stroke-width:1.0;"/><polygon fill="none" points="3027.15,419.63,3020.7237,416.3585,3015.2322,421.0322,3021.6585,424.3037,3027.15,419.63" style="stroke:#181818;stroke-width:1.0;"/><text fill="#000000" font-family="JetBrains Mono" font-size="13" lengthAdjust="spacing" textLength="72" x="2780" y="426.58">cares for</text><text fill="#000000" font-family="JetBrains Mono" font-size="13" lengthAdjust="spacing" textLength="32" x="2628.6445" y="432.7592">0..*</text></g><!--link Patient to Nurse--><g id="link_Patient_Nurse"><path codeLine="84" d="M2620.85,398.52 C2738.24,398.69 2902.49,398.9309 3021.09,399.1109 " fill="none" id="Patient-to-Nurse" style="stroke:#181818;stroke-width:1.0;"/><polygon fill="#181818" points="3027.09,399.12,3018.0961,395.1063,3022.09,399.1124,3018.0839,403.1063,3027.09,399.12" style="stroke:#181818;stroke-width:1.0;"/><text fill="#000000" font-family="JetBrains Mono" font-size="13" lengthAdjust="spacing" textLength="120" x="2756" y="393.99">assigned nurses</text><text fill="#000000" font-family="JetBrains Mono" font-size="13" lengthAdjust="spacing" textLength="32" x="2987.6108" y="412.7859">0..*</text></g><!--link Main to Hospital--><g id="link_Main_Hospital"><path codeLine="85" d="M227.51,246 C277.71,264.68 336.5268,286.5672 397.4668,309.2472 " fill="none" id="Main-to-Hospital" style="stroke:#181818;stroke-width:1.0;stroke-dasharray:7.0,7.0;"/><polygon fill="#181818" points="403.09,311.34,396.0504,304.452,398.404,309.596,393.26,311.9496,403.09,311.34" style="stroke:#181818;stroke-width:1.0;"/></g><!--link Main to Doctor--><g id="link_Main_Doctor"><path codeLine="86" d="M250.45,217.85 C555.34,233.11 1377.33,277.01 1495,312.32 C1544.74,327.25 1549.9,347.44 1597,369.32 C1622.54,381.19 1644.5736,390.511 1671.5736,401.091 " fill="none" id="Main-to-Doctor" style="stroke:#181818;stroke-width:1.0;stroke-dasharray:7.0,7.0;"/><polygon fill="#181818" points="1677.16,403.28,1670.2397,396.2721,1672.5047,401.4558,1667.321,403.7207,1677.16,403.28" style="stroke:#181818;stroke-width:1.0;"/></g><!--link Main to Nurse--><g id="link_Main_Nurse"><path codeLine="87" d="M250.43,183.71 C342.93,162.89 477.32,138.32 596.5,138.32 C596.5,138.32 596.5,138.32 2487.5,138.32 C2708.41,138.32 2939.2452,257.6897 3065.9552,334.8397 " fill="none" id="Main-to-Nurse" style="stroke:#181818;stroke-width:1.0;stroke-dasharray:7.0,7.0;"/><polygon fill="#181818" points="3071.08,337.96,3065.473,329.863,3066.8093,335.3597,3061.3126,336.696,3071.08,337.96" style="stroke:#181818;stroke-width:1.0;"/></g><!--link Main to Staff--><g id="link_Main_Staff"><path codeLine="88" d="M250.43,208.32 C542.34,198.73 1314.33,178.01 1567,217.32 C1610.25,224.05 1650.4299,234.6777 1691.5899,247.9577 " fill="none" id="Main-to-Staff" style="stroke:#181818;stroke-width:1.0;stroke-dasharray:7.0,7.0;"/><polygon fill="#181818" points="1697.3,249.8,1689.963,243.2297,1692.5415,248.2647,1687.5066,250.8433,1697.3,249.8" style="stroke:#181818;stroke-width:1.0;"/></g><!--link Main to Patient--><g id="link_Main_Patient"><path codeLine="89" d="M250.14,197.6 C270.38,195.27 291.3,193.06 311,191.32 C437.6,180.14 469.41,175.32 596.5,175.32 C596.5,175.32 596.5,175.32 1832.5,175.32 C2006.8,175.32 2057.11,180.28 2218,247.32 C2263.17,266.14 2305.1128,287.8793 2347.0228,311.8693 " fill="none" id="Main-to-Patient" style="stroke:#181818;stroke-width:1.0;stroke-dasharray:7.0,7.0;"/><polygon fill="#181818" points="2352.23,314.85,2346.4063,306.9074,2347.8906,312.3661,2342.432,313.8504,2352.23,314.85" style="stroke:#181818;stroke-width:1.0;"/></g><!--link Hospital to GMN24--><g id="link_Hospital_GMN24"><path d="M774.54,481.68 C843.74,517.01 924.95,554.48 1002,580.32 C1020.84,586.64 1040.78,592.23 1060.84,597.16 " fill="none" id="Hospital-GMN24" style="stroke:#181818;stroke-width:1.0;stroke-dasharray:7.0,7.0;"/></g><!--link Employee to GMN27--><g id="link_Employee_GMN27"><path d="M1406.91,527.11 C1444.82,544.09 1485.74,560.43 1525,572.32 C1561.24,583.29 1600.7,591.94 1638.84,598.71 " fill="none" id="Employee-GMN27" style="stroke:#181818;stroke-width:1.0;stroke-dasharray:7.0,7.0;"/></g><!--link Doctor to GMN30--><g id="link_Doctor_GMN30"><path d="M1985.76,507.35 C2063.7,531.6 2160.27,559.84 2248,580.32 C2277.03,587.1 2308.3,593.28 2338.31,598.67 " fill="none" id="Doctor-GMN30" style="stroke:#181818;stroke-width:1.0;stroke-dasharray:7.0,7.0;"/></g><!--link Patient to GMN36--><g id="link_Patient_GMN36"><path d="M2620.68,466.83 C2701.54,505.69 2807.95,552.06 2907,580.32 C2927.97,586.3 2950.18,591.38 2972.42,595.68 " fill="none" id="Patient-GMN36" style="stroke:#181818;stroke-width:1.0;stroke-dasharray:7.0,7.0;"/></g><!--SRC=[dLTDZziu3BtxLmZJIx8J1pqRnG2pdHQTnROeCBqjUb1iEbPZIuQafCXk-zzBwijsuco21WDCB5Cat-CZfPYTa3tNl6DFKFDzQzyhQJ_n3jZTNs3_r5n8mpuggUuoaqpBbXlpQAqMcxs5vrB95_4liDTP2xLbLZ4jjerbbT1GMg5ablMytF4ji4QPNbZUilyoXX- -CLRpqdgFx5tNj-e84DxIvnKJLS5UC9JSZXObPZYp7DsRWlqjZ7tp8Jm_99iyJr_lKxp546CrSRqS6VEgYkuMCKx1ujAoO0Sbgf7z5knpjLYUPNdFZ7ipn9pTIpMujDkzc-Gvvo6cPiZD31q_C_VFK_-aIglqYFYSzTmAa3Po-Ta_Ng3Ixx-9IAk1sqNmNh3Wznn29KpPSBs5ETkDKYrmEKKSNW-09pbFy7xQQpFMsVq8xgFM_7W3PkVZDiXy1s-vXXjG8wh3LSGJA2-Mr_Lljim4ZtDq1SyaSaXkefhvCAno-YY2JiRsH6BKc6Fq0jiXsE8InuDSPkM1xUlh9GjVk7FgDNJg0DUig3TTpabb9raxaz0FopF4he73soafjuw1IGa-J0UgtmTXhaLQuvnxc9Nx3KfFWszCU0EuS5tGFfa5rYocSMw3ICHMdl2nOjUTXurEHA5YjsoxURHCkFw8X-64vmuN5kZ6nFhyytKSwsU6szEPzkP7daSnJ1TTsYThhXUpL5s5ItUlr-i_xeP3iWZKcbcps9k5gvF9me2VjN0JsMH-9ivQb3Yy3AinzRYMvm_nq2X26Q0ARJun2hwyyv6fR_pCaRfUFoID3Ik1hFJiUKgFdgBq669ccLGMmWr4rODRgiYN1eQEyKKjbTALaDmYFhNvXXSMd0CjfskBQKHlrcxZisK6Sq6Rr5kCoofrqOhP1YIhe8MjS-KexV3LoWi8-Lkv7KbwT4_2JPY0B3LWoj5pI0CZ0zeJcbDCKGBEzMEyGsqu4kn16Oo056-EZBVja7B2qgYs8kXTfoIU5fYci4TMSSjTZfHMYrE1OgKhrULqHXFEVpNO6PAkU-X8eEQ-oqYKTqinS0gwE1eEG6MbtHfgq21Bf40cyLLxwgnmQrXUpiAhWzpuySo8bPsB4Qj43qTN2vAoIsFV8sgNgDiQB7E3f7Y5-enjezL-smm7-Vya4eL8_YA87K3lmZCX7LvqAtU6DA0an4QYX92vOq3WopKwry89PSQWMArLXpFBDeoIFYyJlh9eSTeAJq1zYAe-jb1a_YmMiW6D5bG18YZ8A0bp0mq_Y51gl22gzjWftJV2TEmxwJ_r5YzBw6swLkAVWvIR7afHYn8DN8S5JnkHVYlGPcDKANmB4aD4deFSAMmmQXY3DI6A4zHV]--></g></svg>