<?xml version="1.0" encoding="us-ascii" standalone="no"?><svg xmlns="http://www.w3.org/2000/svg" xmlns:xlink="http://www.w3.org/1999/xlink" contentStyleType="text/css" height="740px" preserveAspectRatio="none" style="width:1003px;height:740px;background:#FFFFFF;" version="1.1" viewBox="0 0 1003 740" width="1003px" zoomAndPan="magnify"><defs/><g><rect fill="none" height="352.76" style="stroke:#000000;stroke-width:1.5;" width="776" x="221" y="225.12"/><rect fill="none" height="63.32" style="stroke:#000000;stroke-width:1.5;" width="216" x="511" y="357.76"/><rect fill="none" height="73.48" style="stroke:#000000;stroke-width:1.5;" width="756" x="231" y="435.08"/><line style="stroke:#181818;stroke-width:0.5;stroke-dasharray:5.0,5.0;" x1="48" x2="48" y1="83.48" y2="657.2"/><line style="stroke:#181818;stroke-width:0.5;stroke-dasharray:5.0,5.0;" x1="204" x2="204" y1="83.48" y2="657.2"/><line style="stroke:#181818;stroke-width:0.5;stroke-dasharray:5.0,5.0;" x1="288" x2="288" y1="83.48" y2="657.2"/><line style="stroke:#181818;stroke-width:0.5;stroke-dasharray:5.0,5.0;" x1="484" x2="484" y1="83.48" y2="657.2"/><line style="stroke:#181818;stroke-width:0.5;stroke-dasharray:5.0,5.0;" x1="552" x2="552" y1="83.48" y2="657.2"/><line style="stroke:#181818;stroke-width:0.5;stroke-dasharray:5.0,5.0;" x1="770" x2="770" y1="83.48" y2="657.2"/><text fill="#000000" font-family="JetBrains Mono" font-size="14" lengthAdjust="spacing" textLength="80" x="5" y="79.28">Simulation</text><ellipse cx="48" cy="13.5" fill="#E2E2F0" rx="8" ry="8" style="stroke:#181818;stroke-width:0.5;"/><path d="M48,21.5 L48,48.5 M35,29.5 L61,29.5 M48,48.5 L35,63.5 M48,48.5 L61,63.5 " fill="none" style="stroke:#181818;stroke-width:0.5;"/><text fill="#000000" font-family="JetBrains Mono" font-size="14" lengthAdjust="spacing" textLength="80" x="5" y="670.48">Simulation</text><ellipse cx="48" cy="683.18" fill="#E2E2F0" rx="8" ry="8" style="stroke:#181818;stroke-width:0.5;"/><path d="M48,691.18 L48,718.18 M35,699.18 L61,699.18 M48,718.18 L35,733.18 M48,718.18 L61,733.18 " fill="none" style="stroke:#181818;stroke-width:0.5;"/><rect fill="#E2E2F0" height="32.48" rx="2.5" ry="2.5" style="stroke:#181818;stroke-width:0.5;" width="54" x="177" y="50"/><text fill="#000000" font-family="JetBrains Mono" font-size="14" lengthAdjust="spacing" textLength="40" x="184" y="71.28">Guild</text><rect fill="#E2E2F0" height="32.48" rx="2.5" ry="2.5" style="stroke:#181818;stroke-width:0.5;" width="54" x="177" y="656.2"/><text fill="#000000" font-family="JetBrains Mono" font-size="14" lengthAdjust="spacing" textLength="40" x="184" y="677.48">Guild</text><rect fill="#E2E2F0" height="32.48" rx="2.5" ry="2.5" style="stroke:#181818;stroke-width:0.5;" width="94" x="241" y="50"/><text fill="#000000" font-family="JetBrains Mono" font-size="14" lengthAdjust="spacing" textLength="80" x="248" y="71.28">Adventurer</text><rect fill="#E2E2F0" height="32.48" rx="2.5" ry="2.5" style="stroke:#181818;stroke-width:0.5;" width="94" x="241" y="656.2"/><text fill="#000000" font-family="JetBrains Mono" font-size="14" lengthAdjust="spacing" textLength="80" x="248" y="677.48">Adventurer</text><rect fill="#E2E2F0" height="32.48" rx="2.5" ry="2.5" style="stroke:#181818;stroke-width:0.5;" width="54" x="457" y="50"/><text fill="#000000" font-family="JetBrains Mono" font-size="14" lengthAdjust="spacing" textLength="40" x="464" y="71.28">Quest</text><rect fill="#E2E2F0" height="32.48" rx="2.5" ry="2.5" style="stroke:#181818;stroke-width:0.5;" width="54" x="457" y="656.2"/><text fill="#000000" font-family="JetBrains Mono" font-size="14" lengthAdjust="spacing" textLength="40" x="464" y="677.48">Quest</text><rect fill="#E2E2F0" height="32.48" rx="2.5" ry="2.5" style="stroke:#181818;stroke-width:0.5;" width="62" x="521" y="50"/><text fill="#000000" font-family="JetBrains Mono" font-size="14" lengthAdjust="spacing" textLength="48" x="528" y="71.28">Weapon</text><rect fill="#E2E2F0" height="32.48" rx="2.5" ry="2.5" style="stroke:#181818;stroke-width:0.5;" width="62" x="521" y="656.2"/><text fill="#000000" font-family="JetBrains Mono" font-size="14" lengthAdjust="spacing" textLength="48" x="528" y="677.48">Weapon</text><rect fill="#E2E2F0" height="32.48" rx="2.5" ry="2.5" style="stroke:#181818;stroke-width:0.5;" width="70" x="735" y="50"/><text fill="#000000" font-family="JetBrains Mono" font-size="14" lengthAdjust="spacing" textLength="56" x="742" y="71.28">Monster</text><rect fill="#E2E2F0" height="32.48" rx="2.5" ry="2.5" style="stroke:#181818;stroke-width:0.5;" width="70" x="735" y="656.2"/><text fill="#000000" font-family="JetBrains Mono" font-size="14" lengthAdjust="spacing" textLength="56" x="742" y="677.48">Monster</text><polygon fill="#181818" points="192,112.64,202,116.64,192,120.64,196,116.64" style="stroke:#181818;stroke-width:1.0;"/><line style="stroke:#181818;stroke-width:1.0;" x1="48" x2="198" y1="116.64" y2="116.64"/><text fill="#000000" font-family="JetBrains Mono" font-size="13" font-weight="bold" lengthAdjust="spacing" textLength="8" x="55" y="110.74">1</text><text fill="#000000" font-family="JetBrains Mono" font-size="13" lengthAdjust="spacing" textLength="120" x="67" y="110.74">runSimulation()</text><polygon fill="#181818" points="472,143.8,482,147.8,472,151.8,476,147.8" style="stroke:#181818;stroke-width:1.0;"/><line style="stroke:#181818;stroke-width:1.0;" x1="204" x2="478" y1="147.8" y2="147.8"/><text fill="#000000" font-family="JetBrains Mono" font-size="13" font-weight="bold" lengthAdjust="spacing" textLength="8" x="211" y="141.9">2</text><text fill="#000000" font-family="JetBrains Mono" font-size="13" lengthAdjust="spacing" textLength="192" x="223" y="141.9">attemptQuest(adventurer)</text><polygon fill="#181818" points="299,174.96,289,178.96,299,182.96,295,178.96" style="stroke:#181818;stroke-width:1.0;"/><line style="stroke:#181818;stroke-width:1.0;" x1="293" x2="483" y1="178.96" y2="178.96"/><text fill="#000000" font-family="JetBrains Mono" font-size="13" font-weight="bold" lengthAdjust="spacing" textLength="8" x="305" y="173.06">3</text><text fill="#000000" font-family="JetBrains Mono" font-size="13" lengthAdjust="spacing" textLength="160" x="317" y="173.06">getStrongestWeapon()</text><polygon fill="#181818" points="472,206.12,482,210.12,472,214.12,476,210.12" style="stroke:#181818;stroke-width:1.0;"/><line style="stroke:#181818;stroke-width:1.0;stroke-dasharray:2.0,2.0;" x1="288" x2="478" y1="210.12" y2="210.12"/><text fill="#000000" font-family="JetBrains Mono" font-size="13" font-weight="bold" lengthAdjust="spacing" textLength="8" x="295" y="204.22">4</text><text fill="#000000" font-family="JetBrains Mono" font-size="13" lengthAdjust="spacing" textLength="112" x="307" y="204.22">fragile weapon</text><path d="M221,225.12 L298,225.12 L298,234.28 L288,244.28 L221,244.28 L221,225.12 " fill="#EEEEEE" style="stroke:#000000;stroke-width:1.5;"/><rect fill="none" height="352.76" style="stroke:#000000;stroke-width:1.5;" width="776" x="221" y="225.12"/><text fill="#000000" font-family="JetBrains Mono" font-size="13" font-weight="bold" lengthAdjust="spacing" textLength="32" x="236" y="239.38">loop</text><text fill="#000000" font-family="JetBrains Mono" font-size="11" font-weight="bold" lengthAdjust="spacing" textLength="126" x="313" y="238.34">[Repeated attacks]</text><polygon fill="#181818" points="299,263.44,289,267.44,299,271.44,295,267.44" style="stroke:#181818;stroke-width:1.0;"/><line style="stroke:#181818;stroke-width:1.0;" x1="293" x2="483" y1="267.44" y2="267.44"/><text fill="#000000" font-family="JetBrains Mono" font-size="13" font-weight="bold" lengthAdjust="spacing" textLength="8" x="305" y="261.54">5</text><text fill="#000000" font-family="JetBrains Mono" font-size="13" lengthAdjust="spacing" textLength="120" x="317" y="261.54">attack(monster)</text><polygon fill="#181818" points="540,294.6,550,298.6,540,302.6,544,298.6" style="stroke:#181818;stroke-width:1.0;"/><line style="stroke:#181818;stroke-width:1.0;" x1="288" x2="546" y1="298.6" y2="298.6"/><text fill="#000000" font-family="JetBrains Mono" font-size="13" font-weight="bold" lengthAdjust="spacing" textLength="8" x="295" y="292.7">6</text><text fill="#000000" font-family="JetBrains Mono" font-size="13" lengthAdjust="spacing" textLength="176" x="307" y="292.7">performAttack(monster)</text><line style="stroke:#181818;stroke-width:1.0;" x1="552" x2="594" y1="329.76" y2="329.76"/><line style="stroke:#181818;stroke-width:1.0;" x1="594" x2="594" y1="329.76" y2="342.76"/><line style="stroke:#181818;stroke-width:1.0;" x1="553" x2="594" y1="342.76" y2="342.76"/><polygon fill="#181818" points="563,338.76,553,342.76,563,346.76,559,342.76" style="stroke:#181818;stroke-width:1.0;"/><text fill="#000000" font-family="JetBrains Mono" font-size="13" font-weight="bold" lengthAdjust="spacing" textLength="8" x="559" y="323.86">7</text><text fill="#000000" font-family="JetBrains Mono" font-size="13" lengthAdjust="spacing" textLength="192" x="571" y="323.86">reduceDurability(amount)</text><path d="M511,357.76 L580,357.76 L580,366.92 L570,376.92 L511,376.92 L511,357.76 " fill="#EEEEEE" style="stroke:#000000;stroke-width:1.5;"/><rect fill="none" height="63.32" style="stroke:#000000;stroke-width:1.5;" width="216" x="511" y="357.76"/><text fill="#000000" font-family="JetBrains Mono" font-size="13" font-weight="bold" lengthAdjust="spacing" textLength="24" x="526" y="372.02">alt</text><text fill="#000000" font-family="JetBrains Mono" font-size="11" font-weight="bold" lengthAdjust="spacing" textLength="119" x="595" y="370.98">[durability &lt;= 0]</text><line style="stroke:#181818;stroke-width:1.0;" x1="552" x2="594" y1="400.08" y2="400.08"/><line style="stroke:#181818;stroke-width:1.0;" x1="594" x2="594" y1="400.08" y2="413.08"/><line style="stroke:#181818;stroke-width:1.0;" x1="553" x2="594" y1="413.08" y2="413.08"/><polygon fill="#181818" points="563,409.08,553,413.08,563,417.08,559,413.08" style="stroke:#181818;stroke-width:1.0;"/><text fill="#000000" font-family="JetBrains Mono" font-size="13" font-weight="bold" lengthAdjust="spacing" textLength="8" x="559" y="394.18">8</text><text fill="#000000" font-family="JetBrains Mono" font-size="13" lengthAdjust="spacing" textLength="144" x="571" y="394.18">condition = BROKEN</text><path d="M231,435.08 L300,435.08 L300,444.24 L290,454.24 L231,454.24 L231,435.08 " fill="#EEEEEE" style="stroke:#000000;stroke-width:1.5;"/><rect fill="none" height="73.48" style="stroke:#000000;stroke-width:1.5;" width="756" x="231" y="435.08"/><text fill="#000000" font-family="JetBrains Mono" font-size="13" font-weight="bold" lengthAdjust="spacing" textLength="24" x="246" y="449.34">alt</text><text fill="#000000" font-family="JetBrains Mono" font-size="11" font-weight="bold" lengthAdjust="spacing" textLength="126" x="315" y="448.3">[weapon is BROKEN]</text><polygon fill="#181818" points="758,484.98,768,488.98,758,492.98,762,488.98" style="stroke:#181818;stroke-width:1.0;"/><line style="stroke:#181818;stroke-width:1.0;" x1="288" x2="764" y1="488.98" y2="488.98"/><text fill="#000000" font-family="JetBrains Mono" font-size="13" font-weight="bold" lengthAdjust="spacing" textLength="8" x="295" y="483.08">9</text><text fill="#000000" font-family="JetBrains Mono" font-size="13" lengthAdjust="spacing" textLength="280" x="307" y="483.08">takeDamage(basePower + rank, false)</text><path d="M775,459.24 L775,503.24 L972,503.24 L972,469.24 L962,459.24 L775,459.24 " fill="#FEFFDD" style="stroke:#181818;stroke-width:0.5;"/><path d="M962,459.24 L962,469.24 L972,469.24 L962,459.24 " fill="#FEFFDD" style="stroke:#181818;stroke-width:0.5;"/><text fill="#000000" font-family="JetBrains Mono" font-size="13" lengthAdjust="spacing" textLength="176" x="781" y="477.5">Armor can fully negate</text><text fill="#000000" font-family="JetBrains Mono" font-size="13" lengthAdjust="spacing" textLength="144" x="781" y="494.66">low unarmed damage</text><polygon fill="#181818" points="758,534.72,768,538.72,758,542.72,762,538.72" style="stroke:#181818;stroke-width:1.0;"/><line style="stroke:#181818;stroke-width:1.0;" x1="484" x2="764" y1="538.72" y2="538.72"/><text fill="#000000" font-family="JetBrains Mono" font-size="13" font-weight="bold" lengthAdjust="spacing" textLength="16" x="491" y="532.82">10</text><text fill="#000000" font-family="JetBrains Mono" font-size="13" lengthAdjust="spacing" textLength="144" x="511" y="532.82">attack(adventurer)</text><polygon fill="#181818" points="299,565.88,289,569.88,299,573.88,295,569.88" style="stroke:#181818;stroke-width:1.0;"/><line style="stroke:#181818;stroke-width:1.0;" x1="293" x2="769" y1="569.88" y2="569.88"/><text fill="#000000" font-family="JetBrains Mono" font-size="13" font-weight="bold" lengthAdjust="spacing" textLength="16" x="305" y="563.98">11</text><text fill="#000000" font-family="JetBrains Mono" font-size="13" lengthAdjust="spacing" textLength="160" x="325" y="563.98">takeDamage(strength)</text><polygon fill="#181818" points="215,604.04,205,608.04,215,612.04,211,608.04" style="stroke:#181818;stroke-width:1.0;"/><line style="stroke:#181818;stroke-width:1.0;stroke-dasharray:2.0,2.0;" x1="209" x2="483" y1="608.04" y2="608.04"/><text fill="#000000" font-family="JetBrains Mono" font-size="13" font-weight="bold" lengthAdjust="spacing" textLength="16" x="221" y="602.14">12</text><text fill="#000000" font-family="JetBrains Mono" font-size="13" lengthAdjust="spacing" textLength="112" x="241" y="602.14">false (failed)</text><polygon fill="#181818" points="59,635.2,49,639.2,59,643.2,55,639.2" style="stroke:#181818;stroke-width:1.0;"/><line style="stroke:#181818;stroke-width:1.0;stroke-dasharray:2.0,2.0;" x1="53" x2="203" y1="639.2" y2="639.2"/><text fill="#000000" font-family="JetBrains Mono" font-size="13" font-weight="bold" lengthAdjust="spacing" textLength="16" x="65" y="633.3">13</text><text fill="#000000" font-family="JetBrains Mono" font-size="13" lengthAdjust="spacing" textLength="56" x="85" y="633.3">failure</text><!--SRC=[RLB1Jjqm4BpxArQS4hL8FKU01AAjr0feuT3pldWJh6Ul8sVD4t_VVKv8meEZPsPdPzSxxXqFc320fGwpbn-HvHu3mTalafk4ZaUuYnpFZC4iaNFOKJBOIapmv4BsA2woKGznhHkG1Nvcv-qxvDg-44jEMhc5_sOQvHtoZt0uSTFcesYXMRl1-TNKf86KUSMhsXJuo1Vl1b24mY3bLU4IepO5EGhNR0tq94-I8lVAJL7KSXN0-MhS9UoT9pXCYOsFSO176WY5xB4jjllH07pQPwAhC8rMgspRv6fUGmC3fIwcSFr1FWcsqaGsjtIR4-wST_9QOOYPfJQgHYzW5mOkBk6Ref-vj96jAok-X9l7Xz_VxrL8RDzSfcd1ZIjxcdt-hmO4ztIB0NkgTZZIdtXGmHT8oFklqA4VgIxb78KWkVvPobFzKj3ZQf6Xozw_0bElIvr97m-G6LFGBTlYNWZDM8pMkClYbq3prhTN06_iwGzjme-IY7jvharnddtN4ooZGDMXdeDTBb3vzJ2F8kVLsVm7]--></g></svg>