<?xml version="1.0" encoding="us-ascii" standalone="no"?><svg xmlns="http://www.w3.org/2000/svg" xmlns:xlink="http://www.w3.org/1999/xlink" contentStyleType="text/css" height="565px" preserveAspectRatio="none" style="width:1265px;height:565px;background:#FFFFFF;" version="1.1" viewBox="0 0 1265 565" width="1265px" zoomAndPan="magnify"><defs/><g><ellipse cx="539.65" cy="16" fill="#222222" rx="10" ry="10" style="stroke:#222222;stroke-width:1.0;"/><g id="NEW"><rect fill="#F1F1F1" height="54.32" rx="12.5" ry="12.5" style="stroke:#181818;stroke-width:0.5;" width="251" x="414.15" y="105"/><line style="stroke:#181818;stroke-width:0.5;" x1="414.15" x2="665.15" y1="133.48" y2="133.48"/><text fill="#000000" font-family="JetBrains Mono" font-size="14" lengthAdjust="spacing" textLength="24" x="527.65" y="124.28">NEW</text><text fill="#000000" font-family="JetBrains Mono" font-size="12" lengthAdjust="spacing" textLength="231" x="419.15" y="150.72">multiplier=1.10 (first-use bonus)</text></g><g id="USED"><rect fill="#F1F1F1" height="54.32" rx="12.5" ry="12.5" style="stroke:#181818;stroke-width:0.5;" width="125" x="227.15" y="238.32"/><line style="stroke:#181818;stroke-width:0.5;" x1="227.15" x2="352.15" y1="266.8" y2="266.8"/><text fill="#000000" font-family="JetBrains Mono" font-size="14" lengthAdjust="spacing" textLength="32" x="273.65" y="257.6">USED</text><text fill="#000000" font-family="JetBrains Mono" font-size="12" lengthAdjust="spacing" textLength="105" x="232.15" y="284.04">multiplier=1.00</text></g><g id="DAMAGED"><rect fill="#F1F1F1" height="54.32" rx="12.5" ry="12.5" style="stroke:#181818;stroke-width:0.5;" width="125" x="477.15" y="371.64"/><line style="stroke:#181818;stroke-width:0.5;" x1="477.15" x2="602.15" y1="400.12" y2="400.12"/><text fill="#000000" font-family="JetBrains Mono" font-size="14" lengthAdjust="spacing" textLength="56" x="511.65" y="390.92">DAMAGED</text><text fill="#000000" font-family="JetBrains Mono" font-size="12" lengthAdjust="spacing" textLength="105" x="482.15" y="417.36">multiplier=0.75</text></g><g id="BROKEN"><rect fill="#F1F1F1" height="54.32" rx="12.5" ry="12.5" style="stroke:#181818;stroke-width:0.5;" width="125" x="722.15" y="504.96"/><line style="stroke:#181818;stroke-width:0.5;" x1="722.15" x2="847.15" y1="533.44" y2="533.44"/><text fill="#000000" font-family="JetBrains Mono" font-size="14" lengthAdjust="spacing" textLength="48" x="760.65" y="524.24">BROKEN</text><text fill="#000000" font-family="JetBrains Mono" font-size="12" lengthAdjust="spacing" textLength="105" x="727.15" y="550.68">multiplier=0.00</text></g><!--link *start* to NEW--><g id="link_*start*_NEW"><path d="M539.65,26.34 C539.65,43.28 539.65,73.61 539.65,98.71 " fill="none" id="*start*-to-NEW" style="stroke:#181818;stroke-width:1.0;"/><polygon fill="#181818" points="539.65,104.71,543.65,95.71,539.65,99.71,535.65,95.71,539.65,104.71" style="stroke:#181818;stroke-width:1.0;"/><text fill="#000000" font-family="JetBrains Mono" font-size="13" lengthAdjust="spacing" textLength="184" x="540.65" y="70.26">create / durability=100</text></g><!--link NEW to USED--><g id="link_NEW_USED"><path d="M413.79,150.51 C366.27,159.58 319.76,172.39 303.65,189.32 C291.48,202.11 288.3181,215.8916 287.9481,231.9616 " fill="none" id="NEW-to-USED" style="stroke:#181818;stroke-width:1.0;"/><polygon fill="#181818" points="287.81,237.96,292.0161,229.0545,287.9251,232.9613,284.0182,228.8703,287.81,237.96" style="stroke:#181818;stroke-width:1.0;"/><text fill="#000000" font-family="JetBrains Mono" font-size="13" lengthAdjust="spacing" textLength="208" x="304.65" y="203.58">durability &lt; 100 and &gt;= 50</text></g><!--link USED to NEW--><g id="link_USED_NEW"><path d="M226.88,260.79 C153.39,255.01 38.31,240.9 11.65,208.32 C6.3,201.78 6,195.6 11.65,189.32 C38.08,159.93 260.0664,144.9877 407.6964,138.1477 " fill="none" id="USED-to-NEW" style="stroke:#181818;stroke-width:1.0;"/><polygon fill="#181818" points="413.69,137.87,404.5145,134.2908,408.6954,138.1014,404.8848,142.2823,413.69,137.87" style="stroke:#181818;stroke-width:1.0;"/><text fill="#000000" font-family="JetBrains Mono" font-size="13" lengthAdjust="spacing" textLength="272" x="12.65" y="203.58">repair() cost = basePower * 0.5 XP</text></g><!--link USED to DAMAGED--><g id="link_USED_DAMAGED"><path d="M296.94,293.02 C302.73,309.29 312.43,329.31 327.65,341.64 C350.51,360.15 417.0961,375.6568 470.9861,385.9268 " fill="none" id="USED-to-DAMAGED" style="stroke:#181818;stroke-width:1.0;"/><polygon fill="#181818" points="476.88,387.05,468.7879,381.4359,471.9684,386.114,467.2903,389.2944,476.88,387.05" style="stroke:#181818;stroke-width:1.0;"/><text fill="#000000" font-family="JetBrains Mono" font-size="13" lengthAdjust="spacing" textLength="184" x="328.65" y="336.9">durability &lt; 50 and &gt; 0</text></g><!--link DAMAGED to BROKEN--><g id="link_DAMAGED_BROKEN"><path d="M589.23,426.37 C631.74,449.16 687.3718,478.9754 729.8518,501.7454 " fill="none" id="DAMAGED-to-BROKEN" style="stroke:#181818;stroke-width:1.0;"/><polygon fill="#181818" points="735.14,504.58,729.0974,496.8027,730.7332,502.2179,725.318,503.8536,735.14,504.58" style="stroke:#181818;stroke-width:1.0;"/><text fill="#000000" font-family="JetBrains Mono" font-size="13" lengthAdjust="spacing" textLength="120" x="677.82" y="470.22">durability &lt;= 0</text></g><!--link USED to BROKEN--><g id="link_USED_BROKEN"><path d="M289.44,292.84 C290.69,328.79 298.7,392.53 337.65,425.96 C395.05,475.22 606.991,508.449 715.921,522.749 " fill="none" id="USED-to-BROKEN" style="stroke:#181818;stroke-width:1.0;"/><polygon fill="#181818" points="721.87,523.53,713.4672,518.3926,716.9125,522.8792,712.4259,526.3245,721.87,523.53" style="stroke:#181818;stroke-width:1.0;"/><text fill="#000000" font-family="JetBrains Mono" font-size="13" lengthAdjust="spacing" textLength="120" x="338.65" y="403.56">durability &lt;= 0</text></g><!--link NEW to BROKEN--><g id="link_NEW_BROKEN"><path d="M665.39,147.48 C723.02,161.04 786.26,187.35 821.65,238.32 C879.22,321.23 828.9645,444.564 801.4945,499.474 " fill="none" id="NEW-to-BROKEN" style="stroke:#181818;stroke-width:1.0;"/><polygon fill="#181818" points="798.81,504.84,806.414,498.5807,801.047,500.3684,799.2594,495.0014,798.81,504.84" style="stroke:#181818;stroke-width:1.0;"/><text fill="#000000" font-family="JetBrains Mono" font-size="13" lengthAdjust="spacing" textLength="120" x="848.43" y="336.9">durability &lt;= 0</text></g><!--link BROKEN to NEW--><g id="link_BROKEN_NEW"><path d="M842.63,504.56 C912.25,468.59 1015.26,399.92 977.65,322.64 C921.69,207.63 779.8611,163.3999 671.3811,145.6299 " fill="none" id="BROKEN-to-NEW" style="stroke:#181818;stroke-width:1.0;"/><polygon fill="#181818" points="665.46,144.66,673.695,150.0623,670.3942,145.4683,674.9882,142.1675,665.46,144.66" style="stroke:#181818;stroke-width:1.0;"/><text fill="#000000" font-family="JetBrains Mono" font-size="13" lengthAdjust="spacing" textLength="272" x="985.02" y="336.9">repair() cost = basePower * 0.5 XP</text></g><!--link NEW to NEW--><g id="link_NEW_NEW"><path d="M665.48,120.6 C686.03,122.25 700.15,126.11 700.15,132.16 C700.15,138.21 692.0108,141.5898 671.4608,143.2398 " fill="none" id="NEW-to-NEW" style="stroke:#181818;stroke-width:1.0;"/><polygon fill="#181818" points="665.48,143.72,674.7713,146.9869,670.464,143.3198,674.131,139.0125,665.48,143.72" style="stroke:#181818;stroke-width:1.0;"/><text fill="#000000" font-family="JetBrains Mono" font-size="13" lengthAdjust="spacing" textLength="264" x="706.15" y="136.92">repair() from broken/used/damaged</text></g><!--link DAMAGED to NEW--><g id="link_DAMAGED_NEW"><path d="M539.65,371.17 C539.65,320.35 539.65,216.1 539.65,165.5 " fill="none" id="DAMAGED-to-NEW" style="stroke:#181818;stroke-width:1.0;"/><polygon fill="#181818" points="539.65,159.5,535.65,168.5,539.65,164.5,543.65,168.5,539.65,159.5" style="stroke:#181818;stroke-width:1.0;"/><text fill="#000000" font-family="JetBrains Mono" font-size="13" lengthAdjust="spacing" textLength="272" x="540.65" y="270.24">repair() cost = basePower * 0.5 XP</text></g><!--link BROKEN to BROKEN--><g id="link_BROKEN_BROKEN"><path d="M847.48,519.63 C866.9,519.89 882.15,524.05 882.15,532.12 C882.15,540.19 872.8995,544.2697 853.4795,544.5297 " fill="none" id="BROKEN-to-BROKEN" style="stroke:#181818;stroke-width:1.0;"/><polygon fill="#181818" points="847.48,544.61,856.5327,548.4892,852.4796,544.5431,856.4256,540.4899,847.48,544.61" style="stroke:#181818;stroke-width:1.0;"/><text fill="#000000" font-family="JetBrains Mono" font-size="13" lengthAdjust="spacing" textLength="112" x="888.15" y="536.88">attack blocked</text></g><!--SRC=[bP1HIyCm58NV-oiEUze6QzE78eWTRAmAokPGH45yk6rJ2MsJagI8_zxMTkjM6EXhxdVE_MvCBcH5cagaFAEwiBTAsXsL79DxRjUQX3JOAgacZlC-_y1YiSGkUiKr4it9SdX8QqsnA8Jz3dt67CVOzhs3ogPHL8NWElHTds6Q2MtieZOSiPArcVNqotEq6UDDLpVShBQhk_6SkLT1Fry_FJv4k_6uLMabMkE-VZ353HfNa4on314mvvTeqM7P6HtqC9Xp85hwkFeK3d7ITv4uk5q4ZaJtbPfN9FHqXaoh4h5MEPTUyv6fbr99dpmTTeu2YJ8M8M8oVA- -kCOSp0tmjZyxvS-XNlXVcTFGyM2obf8SSQ6IlD7_0G00]--></g></svg>