<?xml version="1.0" encoding="us-ascii" standalone="no"?><svg xmlns="http://www.w3.org/2000/svg" xmlns:xlink="http://www.w3.org/1999/xlink" contentStyleType="text/css" height="741px" preserveAspectRatio="none" style="width:483px;height:741px;background:#FFFFFF;" version="1.1" viewBox="0 0 483 741" width="483px" zoomAndPan="magnify"><defs/><g><!--cluster Adventurer's Guild--><g id="cluster_Adventurer's Guild"><rect fill="none" height="728" rx="2.5" ry="2.5" style="stroke:#181818;stroke-width:1.0;" width="255.52" x="222" y="7"/><text fill="#000000" font-family="JetBrains Mono" font-size="14" font-weight="bold" lengthAdjust="spacing" textLength="144" x="277.76" y="23.28">Adventurer's Guild</text></g><g id="elem_Load"><ellipse cx="349.7573" cy="548.9995" fill="#F1F1F1" rx="88.3973" ry="20.0795" style="stroke:#181818;stroke-width:0.5;"/><text fill="#000000" font-family="JetBrains Mono" font-size="14" lengthAdjust="spacing" textLength="128" x="282.7573" y="553.3895">Load Input Files</text></g><g id="elem_Members"><ellipse cx="349.7561" cy="622.9952" fill="#F1F1F1" rx="82.2761" ry="18.8552" style="stroke:#181818;stroke-width:0.5;"/><text fill="#000000" font-family="JetBrains Mono" font-size="14" lengthAdjust="spacing" textLength="112" x="290.7561" y="627.3852">Manage Members</text></g><g id="elem_Quests"><ellipse cx="349.758" cy="698.0016" fill="#F1F1F1" rx="94.808" ry="21.3616" style="stroke:#181818;stroke-width:0.5;"/><text fill="#000000" font-family="JetBrains Mono" font-size="14" lengthAdjust="spacing" textLength="144" x="274.758" y="702.3916">Manage Quest Board</text></g><g id="elem_Attempt"><ellipse cx="349.7559" cy="330.9992" fill="#F1F1F1" rx="79.3459" ry="18.2692" style="stroke:#181818;stroke-width:0.5;"/><text fill="#000000" font-family="JetBrains Mono" font-size="14" lengthAdjust="spacing" textLength="104" x="294.7559" y="335.3892">Attempt Quest</text></g><g id="elem_Select"><ellipse cx="349.7598" cy="69.002" fill="#F1F1F1" rx="111.7598" ry="24.752" style="stroke:#181818;stroke-width:0.5;"/><text fill="#000000" font-family="JetBrains Mono" font-size="14" lengthAdjust="spacing" textLength="184" x="254.7598" y="73.392">Select Strongest Weapon</text></g><g id="elem_Fight"><ellipse cx="349.7559" cy="146.9992" fill="#F1F1F1" rx="79.3459" ry="18.2692" style="stroke:#181818;stroke-width:0.5;"/><text fill="#000000" font-family="JetBrains Mono" font-size="14" lengthAdjust="spacing" textLength="104" x="294.7559" y="151.3892">Fight Monster</text></g><g id="elem_Progress"><ellipse cx="349.7575" cy="230.0005" fill="#F1F1F1" rx="97.7875" ry="29.5405" style="stroke:#181818;stroke-width:0.5;"/><text fill="#000000" font-family="JetBrains Mono" font-size="14" lengthAdjust="spacing" textLength="120" x="286.7575" y="225.1505">Gain Experience</text><text fill="#000000" font-family="JetBrains Mono" font-size="14" lengthAdjust="spacing" textLength="72" x="310.7575" y="243.6305">&amp; Rank Up</text></g><g id="elem_Repair"><ellipse cx="349.7559" cy="402.9992" fill="#F1F1F1" rx="79.3459" ry="18.2692" style="stroke:#181818;stroke-width:0.5;"/><text fill="#000000" font-family="JetBrains Mono" font-size="14" lengthAdjust="spacing" textLength="104" x="294.7559" y="407.3892">Repair Weapon</text></g><g id="elem_Run"><ellipse cx="349.7561" cy="474.9952" fill="#F1F1F1" rx="82.2761" ry="18.8552" style="stroke:#181818;stroke-width:0.5;"/><text fill="#000000" font-family="JetBrains Mono" font-size="14" lengthAdjust="spacing" textLength="112" x="290.7561" y="479.3852">Run Simulation</text></g><!--entity Player--><g id="elem_Player"><ellipse cx="54" cy="336.26" fill="#F1F1F1" rx="8" ry="8" style="stroke:#181818;stroke-width:0.5;"/><path d="M54,344.26 L54,371.26 M41,352.26 L67,352.26 M54,371.26 L41,386.26 M54,371.26 L67,386.26 " fill="none" style="stroke:#181818;stroke-width:0.5;"/><text fill="#000000" font-family="JetBrains Mono" font-size="14" lengthAdjust="spacing" textLength="80" x="14" y="402.04">Adventurer</text></g><!--entity System--><g id="elem_System"><ellipse cx="54" cy="547.26" fill="#F1F1F1" rx="8" ry="8" style="stroke:#181818;stroke-width:0.5;"/><path d="M54,555.26 L54,582.26 M41,563.26 L67,563.26 M54,582.26 L41,597.26 M54,582.26 L67,597.26 " fill="none" style="stroke:#181818;stroke-width:0.5;"/><text fill="#000000" font-family="JetBrains Mono" font-size="14" lengthAdjust="spacing" textLength="96" x="6" y="613.04">Guild Master</text></g><!--link Player to Attempt--><g id="link_Player_Attempt"><path d="M94.31,362.18 C141.45,356.41 215.3546,347.3498 273.0446,340.2798 " fill="none" id="Player-to-Attempt" style="stroke:#181818;stroke-width:1.0;"/><polygon fill="#181818" points="279,339.55,269.5803,336.6745,274.0371,340.1582,270.5534,344.6151,279,339.55" style="stroke:#181818;stroke-width:1.0;"/></g><!--link Player to Repair--><g id="link_Player_Repair"><path d="M94.31,371.82 C141.45,377.59 215.3546,386.6502 273.0446,393.7202 " fill="none" id="Player-to-Repair" style="stroke:#181818;stroke-width:1.0;"/><polygon fill="#181818" points="279,394.45,270.5534,389.3849,274.0371,393.8418,269.5803,397.3255,279,394.45" style="stroke:#181818;stroke-width:1.0;"/></g><!--link System to Load--><g id="link_System_Load"><path d="M102.2,573.34 C146.8,568.94 208.649,562.8289 261.879,557.5789 " fill="none" id="System-to-Load" style="stroke:#181818;stroke-width:1.0;"/><polygon fill="#181818" points="267.85,556.99,258.5008,553.8927,262.8741,557.4808,259.2861,561.8541,267.85,556.99" style="stroke:#181818;stroke-width:1.0;"/></g><!--link System to Members--><g id="link_System_Members"><path d="M102.2,585.23 C150.37,592.61 219.6892,603.2314 274.3892,611.6114 " fill="none" id="System-to-Members" style="stroke:#181818;stroke-width:1.0;"/><polygon fill="#181818" points="280.32,612.52,272.0295,607.2032,275.3777,611.7628,270.8181,615.111,280.32,612.52" style="stroke:#181818;stroke-width:1.0;"/></g><!--link System to Quests--><g id="link_System_Quests"><path d="M102.26,605.07 C133.33,622.1 175.25,643.68 214,659 C236.54,667.91 256.1302,674.1695 278.7402,680.4695 " fill="none" id="System-to-Quests" style="stroke:#181818;stroke-width:1.0;"/><polygon fill="#181818" points="284.52,682.08,276.9239,675.8111,279.7035,680.7379,274.7766,683.5175,284.52,682.08" style="stroke:#181818;stroke-width:1.0;"/></g><!--link System to Run--><g id="link_System_Run"><path d="M102.32,554.37 C112.06,549.76 122.3,545.09 132,541 C167.75,525.91 176.99,522.69 214,511 C239.52,502.94 262.3007,496.6308 286.5707,490.3608 " fill="none" id="System-to-Run" style="stroke:#181818;stroke-width:1.0;"/><polygon fill="#181818" points="292.38,488.86,282.6656,487.2383,287.5389,490.1107,284.6666,494.984,292.38,488.86" style="stroke:#181818;stroke-width:1.0;"/></g><!--link Attempt to Select--><g id="link_Attempt_Select"><path d="M276.86,323.6 C235.87,315.29 187.88,297.69 162.13,260.5 C146.89,238.5 137.51,181.72 214,111 C227.04,98.94 237.8496,92.3859 254.7496,86.2559 " fill="none" id="Attempt-to-Select" style="stroke:#181818;stroke-width:1.0;stroke-dasharray:7.0,7.0;"/><polygon fill="#181818" points="260.39,84.21,250.5654,83.5186,255.6897,85.9149,253.2933,91.0391,260.39,84.21" style="stroke:#181818;stroke-width:1.0;"/><text fill="#000000" font-family="JetBrains Mono" font-size="13" lengthAdjust="spacing" textLength="72" x="133" y="255.76">&#171;include&#187;</text></g><!--link Attempt to Fight--><g id="link_Attempt_Fight"><path d="M298.28,316.66 C228.29,294.63 116.75,248.9 162.13,191.5 C187.66,159.2 226.0007,148.1579 265.1507,144.8979 " fill="none" id="Attempt-to-Fight" style="stroke:#181818;stroke-width:1.0;stroke-dasharray:7.0,7.0;"/><polygon fill="#181818" points="271.13,144.4,261.8291,141.1606,266.1472,144.8149,262.493,149.133,271.13,144.4" style="stroke:#181818;stroke-width:1.0;"/><text fill="#000000" font-family="JetBrains Mono" font-size="13" lengthAdjust="spacing" textLength="72" x="133" y="205.76">&#171;include&#187;</text></g><!--link Attempt to Progress--><g id="link_Attempt_Progress"><path d="M349.76,312.48 C349.76,297.78 349.76,282.95 349.76,265.91 " fill="none" id="Attempt-to-Progress" style="stroke:#181818;stroke-width:1.0;stroke-dasharray:7.0,7.0;"/><polygon fill="#181818" points="349.76,259.91,345.76,268.91,349.76,264.91,353.76,268.91,349.76,259.91" style="stroke:#181818;stroke-width:1.0;"/><text fill="#000000" font-family="JetBrains Mono" font-size="13" lengthAdjust="spacing" textLength="72" x="301.26" y="290.9">&#171;include&#187;</text></g><!--link Run to Attempt--><g id="link_Run_Attempt"><path d="M283.29,486.48 C242.03,489.45 191.45,484.73 162.13,451.5 C132.94,418.43 160.07,402.34 214,367 C233.89,353.97 252.4787,347.0106 275.1087,341.7006 " fill="none" id="Run-to-Attempt" style="stroke:#181818;stroke-width:1.0;stroke-dasharray:7.0,7.0;"/><polygon fill="#181818" points="280.95,340.33,271.2742,338.4917,276.0822,341.4722,273.1017,346.2802,280.95,340.33" style="stroke:#181818;stroke-width:1.0;"/><text fill="#000000" font-family="JetBrains Mono" font-size="13" lengthAdjust="spacing" textLength="72" x="133" y="446.76">&#171;include&#187;</text></g><!--SRC=[TP71JiCm38RlUGgh1pXj3u2cIfl49X15OnFYmiMqNecMEfMJ82R4kzEctSWck2N__yMEVnlQUV0MHDVl7YejL7fjMRczvXO56wXeXy7ufMN_Y0r1Taz-8QZPGM7PPafXwQt0lFeWza5801si3Hv8HYjR1MqgAD1vagotjuVks2ZLjqEkJLVsz_srW_WWWoy541oLw3hWmM85Tzm63qjjoCL2lPX21JBM10KrRoG3Cfx_e9u2EGyBYr95CjxFmBdlljdwmOdCgAJGbamt1cozMAxxYY-4hULXqEYbz38ctKLt2YCgARBgqeNRpvP44vVqobUmGTx3SnlvjTXQo9rzT4CjQaax3yeP4nYskWa6-nKFK63rhTImBPXCyjDyYJHM6dOMbPXwSZz6d4XZbedIzrB7GAVv60tSm6ockJIXeZnF_I6eV-rZ2XT4F-JqDCQ5-GC0]--></g></svg>